<svg width="185" height="30" viewBox="0 0 185 30" fill="none" xmlns="http://www.w3.org/2000/svg">
<path d="M0.09375 29V25.582L3.12109 24.9961V4.58594L0.09375 4V0.5625H3.12109H12.7305C16.0768 0.5625 18.6875 1.21354 20.5625 2.51562C22.4375 3.81771 23.375 5.76432 23.375 8.35547C23.375 9.67057 23.0234 10.849 22.3203 11.8906C21.6302 12.9193 20.6211 13.694 19.293 14.2148C20.4258 14.4622 21.3698 14.8984 22.125 15.5234C22.8932 16.1484 23.4661 16.9102 23.8438 17.8086C24.2214 18.694 24.4102 19.6641 24.4102 20.7188C24.4102 23.4401 23.5117 25.5039 21.7148 26.9102C19.918 28.3034 17.3724 29 14.0781 29H0.09375ZM8.82422 24.625H14.0781C15.5885 24.625 16.7409 24.2995 17.5352 23.6484C18.3294 22.9844 18.7266 22.0078 18.7266 20.7188C18.7266 19.7812 18.5768 18.9935 18.2773 18.3555C17.9779 17.7174 17.5156 17.2357 16.8906 16.9102C16.2786 16.5846 15.4844 16.4219 14.5078 16.4219H8.82422V24.625ZM8.82422 12.4766H12.9258C14.4492 12.4766 15.6211 12.1641 16.4414 11.5391C17.2617 10.9141 17.6719 10.0026 17.6719 8.80469C17.6719 7.48958 17.2552 6.51953 16.4219 5.89453C15.6016 5.26953 14.3711 4.95703 12.7305 4.95703H8.82422V12.4766ZM26.0508 29V25.582L28.082 25.2891L37.125 0.5625H42.9648L51.9492 25.2891L53.9805 25.582V29H44.293V25.582L46.2656 25.2305L45.0156 21.3242H35.0156L33.7656 25.2305L35.7383 25.582V29H26.0508ZM36.3633 17.125H43.668L40.3477 7.37891L40.0742 6.51953H39.957L39.6641 7.4375L36.3633 17.125ZM67.4766 29.4102C65.3802 29.4102 63.4727 29.1758 61.7539 28.707C60.0352 28.2383 58.3424 27.4245 56.6758 26.2656V19.3906H61.0898L61.6953 23.4336C62.2812 23.9284 63.0885 24.332 64.1172 24.6445C65.1458 24.944 66.2656 25.0938 67.4766 25.0938C68.5052 25.0938 69.3711 24.9505 70.0742 24.6641C70.7904 24.3776 71.3307 23.974 71.6953 23.4531C72.0729 22.9193 72.2617 22.2943 72.2617 21.5781C72.2617 20.901 72.0924 20.3021 71.7539 19.7812C71.4284 19.2474 70.8815 18.7656 70.1133 18.3359C69.3581 17.8932 68.3294 17.4701 67.0273 17.0664C64.7747 16.4023 62.9062 15.6797 61.4219 14.8984C59.9505 14.1042 58.8438 13.1602 58.1016 12.0664C57.3724 10.9596 57.0078 9.63151 57.0078 8.08203C57.0078 6.54557 57.431 5.19141 58.2773 4.01953C59.1367 2.83464 60.3216 1.90365 61.832 1.22656C63.3424 0.549479 65.0872 0.197917 67.0664 0.171875C69.2539 0.145833 71.1875 0.40625 72.8672 0.953125C74.5599 1.5 76.0182 2.26172 77.2422 3.23828V9.64453H72.9648L72.2227 5.73828C71.7279 5.42578 71.0573 5.15234 70.2109 4.91797C69.3776 4.68359 68.4271 4.56641 67.3594 4.56641C66.4479 4.56641 65.6406 4.70312 64.9375 4.97656C64.2474 5.25 63.7005 5.64714 63.2969 6.16797C62.8932 6.6888 62.6914 7.32031 62.6914 8.0625C62.6914 8.70052 62.8672 9.26042 63.2188 9.74219C63.5703 10.2109 64.1562 10.6602 64.9766 11.0898C65.8099 11.5065 66.9557 11.9557 68.4141 12.4375C71.5521 13.3099 73.9284 14.4622 75.543 15.8945C77.1706 17.3268 77.9844 19.2083 77.9844 21.5391C77.9844 23.1536 77.5482 24.5534 76.6758 25.7383C75.8034 26.9102 74.5794 27.8151 73.0039 28.4531C71.4284 29.0911 69.5859 29.4102 67.4766 29.4102ZM80.25 29V25.582L83.2773 24.9961V4.58594L80.25 4V0.5625H92.0078V4L88.9805 4.58594V24.9961L92.0078 25.582V29H80.25ZM94.1953 29V25.582L97.2227 24.9961V4.58594L94.1953 4V0.5625H97.2227H102.926H106.363V4L102.926 4.58594V24.625H110.953L111.227 20.4648H115.582V29H94.1953ZM117.633 29V25.582L120.66 24.9961V4.58594L117.633 4V0.5625H129.391V4L126.363 4.58594V24.9961L129.391 25.582V29H117.633ZM143.18 29.4102C141.083 29.4102 139.176 29.1758 137.457 28.707C135.738 28.2383 134.046 27.4245 132.379 26.2656V19.3906H136.793L137.398 23.4336C137.984 23.9284 138.792 24.332 139.82 24.6445C140.849 24.944 141.969 25.0938 143.18 25.0938C144.208 25.0938 145.074 24.9505 145.777 24.6641C146.493 24.3776 147.034 23.974 147.398 23.4531C147.776 22.9193 147.965 22.2943 147.965 21.5781C147.965 20.901 147.796 20.3021 147.457 19.7812C147.132 19.2474 146.585 18.7656 145.816 18.3359C145.061 17.8932 144.033 17.4701 142.73 17.0664C140.478 16.4023 138.609 15.6797 137.125 14.8984C135.654 14.1042 134.547 13.1602 133.805 12.0664C133.076 10.9596 132.711 9.63151 132.711 8.08203C132.711 6.54557 133.134 5.19141 133.98 4.01953C134.84 2.83464 136.025 1.90365 137.535 1.22656C139.046 0.549479 140.79 0.197917 142.77 0.171875C144.957 0.145833 146.891 0.40625 148.57 0.953125C150.263 1.5 151.721 2.26172 152.945 3.23828V9.64453H148.668L147.926 5.73828C147.431 5.42578 146.76 5.15234 145.914 4.91797C145.081 4.68359 144.13 4.56641 143.062 4.56641C142.151 4.56641 141.344 4.70312 140.641 4.97656C139.951 5.25 139.404 5.64714 139 6.16797C138.596 6.6888 138.395 7.32031 138.395 8.0625C138.395 8.70052 138.57 9.26042 138.922 9.74219C139.273 10.2109 139.859 10.6602 140.68 11.0898C141.513 11.5065 142.659 11.9557 144.117 12.4375C147.255 13.3099 149.632 14.4622 151.246 15.8945C152.874 17.3268 153.688 19.2083 153.688 21.5391C153.688 23.1536 153.251 24.5534 152.379 25.7383C151.507 26.9102 150.283 27.8151 148.707 28.4531C147.132 29.0911 145.289 29.4102 143.18 29.4102ZM163.492 22.0273L160.543 18.6484L174.469 4.29297L174.508 4.23438L171.695 4V0.5625H183.395V4L180.719 4.52734L163.492 22.0273ZM155.953 29V25.582L158.98 24.9961V4.58594L155.953 4V0.5625H167.574V4L164.684 4.58594V24.9961L167.574 25.582V29H155.953ZM172.32 29V25.582L174.977 25.3477H174.996L167.77 15.3867L171.539 11.6172L181.617 25.0938L184.41 25.582V29H172.32Z" fill="#FFCB74"/>
</svg>
