<svg xmlns="http://www.w3.org/2000/svg" viewBox="0 0 750 500"><g id="freepik--background-simple--inject-14"><path d="M58.24,212.41l1.42,2.34c12,19.71,33.58,31.59,56.38,30.14a59.87,59.87,0,0,0,8.73-1.19c20.72-4.44,38.76-20.11,46.24-40.19,4.39-11.8,5.62-25.4,14-34.77,10.86-12.19,29.3-12.58,45.5-12.07s34.66.07,45.46-12.17c6.77-7.67,8.92-18.57,8.37-28.84-1.44-27.19-20.39-51.5-44.48-63.58S187.36,38.91,161,44.23c-36.94,7.44-72.07,27.89-93.18,59.48S41.35,178.32,58.24,212.41Z" style="fill:#f5f5f5"></path><circle cx="629.06" cy="121.83" r="75.89" transform="translate(98.1 480.49) rotate(-45)" style="fill:#f5f5f5"></circle></g><g id="freepik--Floor--inject-14"><path d="M695.38,459.81c0,.14-143.45.26-320.36.26s-320.4-.12-320.4-.26,143.42-.26,320.4-.26S695.38,459.66,695.38,459.81Z" style="fill:#263238"></path></g><g id="freepik--Plants--inject-14"><path d="M180.38,198.43c-12.13,6.28-21.43,17.1-28.12,29s-11,25-15.26,38l-3.74,66.92c14.11-24,25.44-52.24,28.5-79.92l-9.39-.84c6.3-1,11.58-5.52,14.95-10.93s5.09-11.65,6.78-17.79l-11.46,1.7A42.46,42.46,0,0,0,180.38,198.43Z" style="fill:#455a64"></path><g style="opacity:0.30000000000000004"><path d="M180.38,198.43c-12.13,6.28-21.43,17.1-28.12,29s-11,25-15.26,38l-3.74,66.92c14.11-24,25.44-52.24,28.5-79.92l-9.39-.84c6.3-1,11.58-5.52,14.95-10.93s5.09-11.65,6.78-17.79l-11.46,1.7A42.46,42.46,0,0,0,180.38,198.43Z"></path></g><path d="M131.17,348s-30.63-36.67-30.28-71.67h12.38s-13.45-8.84-12.38-13.79,1.42-23.69,1.42-23.69l11.31,2.83s-8.49-4.24-9.55-11,2.48-37.83,2.48-37.83,13.79,14.5,18,29.35,15.38,32.17,12.11,77.42S131.17,348,131.17,348Z" style="fill:#455a64"></path><path d="M146.7,351.46s33.19-22.11,40.56-50.33l-9.95-2.71s12.74-4.16,13-8.37,4-19.36,4-19.36l-9.71-.2s7.75-1.55,10.07-6.72,6.29-31,6.29-31-14.26,8.64-20.92,19.65-19.4,22.5-26.67,59.6S146.7,351.46,146.7,351.46Z" style="fill:#455a64"></path><path d="M114.92,224.86a2.58,2.58,0,0,1,.1.38l.27,1.13c.23,1,.55,2.48,1,4.35s.91,4.21,1.44,6.9,1.18,5.77,1.8,9.17c1.31,6.8,2.69,14.93,4.12,24s2.76,19,4,29.51,2.14,20.52,2.86,29.65,1.18,17.36,1.46,24.28c.17,3.46.25,6.59.34,9.33s.14,5.12.16,7.06,0,3.4.06,4.45v1.16a3.15,3.15,0,0,1,0,.4,2.59,2.59,0,0,1,0-.4c0-.28,0-.67,0-1.16,0-1-.09-2.54-.15-4.45s-.13-4.3-.25-7-.22-5.87-.42-9.32c-.32-6.92-.87-15.14-1.57-24.26s-1.7-19.14-2.9-29.63-2.58-20.45-3.94-29.5-2.74-17.17-4-24c-.6-3.41-1.2-6.48-1.72-9.18s-1-5-1.36-6.92-.67-3.34-.87-4.37c-.09-.48-.17-.86-.22-1.14A2.33,2.33,0,0,1,114.92,224.86Z" style="fill:#263238"></path><path d="M126.92,370.45s-28-31.81-36.74-51l6.58-2.8c-4.77.78-9.65-1.26-13.34-4.37S77,305,74.36,301L83,299.55A32.16,32.16,0,0,1,64.1,284.9c10.21,1.68,19.45,7.29,27.07,14.3,6.17,5.68,11.39,12.27,16.4,19a63.89,63.89,0,0,1,6.37,10.47C118.65,338.42,126.94,358.77,126.92,370.45Z" style="fill:#455a64"></path><path d="M187.7,251.32a1.12,1.12,0,0,1-.13.33l-.43.92-1.71,3.53c-.76,1.52-1.67,3.39-2.7,5.58s-2.25,4.66-3.52,7.42c-2.59,5.51-5.56,12.12-8.76,19.5s-6.54,15.57-9.9,24.22-6.34,17-9,24.59-4.85,14.51-6.64,20.32c-.92,2.9-1.69,5.55-2.39,7.86s-1.29,4.31-1.76,6l-1.1,3.76c-.13.4-.23.72-.3,1l-.12.33a1.37,1.37,0,0,1,.06-.34c.07-.25.15-.58.25-1,.24-.9.58-2.17,1-3.79s1-3.65,1.67-6,1.42-5,2.32-7.88c1.75-5.84,4-12.74,6.53-20.37s5.6-15.95,8.94-24.63,6.76-16.83,9.95-24.22,6.24-14,8.87-19.47c1.29-2.75,2.52-5.22,3.58-7.39s2-4,2.79-5.54,1.37-2.66,1.79-3.49l.48-.9A1.84,1.84,0,0,1,187.7,251.32Z" style="fill:#263238"></path><path d="M129.3,384.08a2.66,2.66,0,0,1-.13-.59l-.27-1.69c-.1-.73-.24-1.63-.43-2.66s-.37-2.23-.65-3.52c-.5-2.61-1.22-5.68-2.14-9.07s-2.11-7.05-3.53-10.83-3-7.31-4.51-10.47-3-5.93-4.39-8.21c-.64-1.16-1.29-2.17-1.84-3.07s-1-1.67-1.43-2.29l-.92-1.45a3.31,3.31,0,0,1-.29-.52,2.66,2.66,0,0,1,.38.46l1,1.39c.44.61,1,1.36,1.52,2.25s1.24,1.89,1.91,3c1.39,2.27,2.92,5,4.5,8.19s3.13,6.7,4.57,10.49,2.58,7.5,3.5,10.9,1.58,6.5,2,9.12c.26,1.3.41,2.5.58,3.54s.27,2,.34,2.69.13,1.26.18,1.7A2.48,2.48,0,0,1,129.3,384.08Z" style="fill:#263238"></path><rect x="104.94" y="376.6" width="61.35" height="12.52" style="fill:#FFCB74"></rect><polygon points="110.78 389.11 117.42 431.21 154.49 431.21 160.68 389.11 110.78 389.11" style="fill:#FFCB74"></polygon><path d="M162.53,389.11c0,.15-11.61.26-25.92.26s-25.93-.11-25.93-.26,11.61-.26,25.93-.26S162.53,389,162.53,389.11Z" style="fill:#263238"></path><path d="M673.48,419.33a7.77,7.77,0,0,1,4,4.55A13.79,13.79,0,0,1,678,430c-.45,4-2.73,8-5.17,11.22-3.37-2.93-4.14-8.06-4.37-10.68-.36-4.15,1.5-11.87,5-11.25" style="fill:#455a64"></path><path d="M676.77,447.86a6.59,6.59,0,0,1,2.14-6.28,8.72,8.72,0,0,1,6.47-2,3.68,3.68,0,0,1,2.84,1.27,2.83,2.83,0,0,1,0,2.87,5.75,5.75,0,0,1-2.12,2.09c-2.91,1.83-6.07,3.06-9.37,2.07" style="fill:#455a64"></path><path d="M672.46,460.12a4,4,0,0,1,.12-.82c.1-.58.24-1.33.4-2.22a23.13,23.13,0,0,1,2.29-7.09,14.26,14.26,0,0,1,5.09-5.41,9.62,9.62,0,0,1,2.08-.92c.25-.08.46-.12.59-.15a.61.61,0,0,1,.22,0,14.36,14.36,0,0,0-2.78,1.28,14.57,14.57,0,0,0-4.94,5.37,24.91,24.91,0,0,0-2.35,7c-.2.93-.36,1.68-.49,2.2A6.28,6.28,0,0,1,672.46,460.12Z" style="fill:#263238"></path><path d="M672.58,425.33a1.34,1.34,0,0,1,0,.36c0,.27,0,.61.06,1,.05.9.11,2.19.16,3.79.1,3.21.18,7.63.16,12.52s-.14,9.32-.27,12.52c-.07,1.6-.13,2.9-.19,3.79,0,.43,0,.77-.07,1a2,2,0,0,1,0,.36,1.41,1.41,0,0,1,0-.36c0-.27,0-.61,0-1,0-.93.05-2.22.09-3.79.08-3.21.17-7.63.19-12.52s0-9.31-.08-12.51c0-1.57,0-2.86-.06-3.79,0-.43,0-.77,0-1A2.63,2.63,0,0,1,672.58,425.33Z" style="fill:#263238"></path><path d="M671,450.3A15.49,15.49,0,0,0,662.51,439c-1.13-.54-2.6-.89-3.52-.05s-.72,2.34-.27,3.5a13.21,13.21,0,0,0,12.15,8.2" style="fill:#455a64"></path><path d="M663.05,442.76a4.73,4.73,0,0,1,.72.31,8.38,8.38,0,0,1,.8.43,12,12,0,0,1,1,.65,13.31,13.31,0,0,1,1.18.88,16,16,0,0,1,1.25,1.14,17.25,17.25,0,0,1,2.38,3.05,16.88,16.88,0,0,1,1.56,3.54,15.6,15.6,0,0,1,.6,3.11,10.46,10.46,0,0,1,0,1.21,6.47,6.47,0,0,1,0,.91,4.25,4.25,0,0,1-.09.78c-.06,0,0-1.11-.15-2.88a11.73,11.73,0,0,0-.23-1.43,14.39,14.39,0,0,0-.42-1.62,18,18,0,0,0-1.55-3.47,18.94,18.94,0,0,0-2.32-3,15.77,15.77,0,0,0-1.22-1.14,12.07,12.07,0,0,0-1.14-.9C664,443.28,663,442.82,663.05,442.76Z" style="fill:#263238"></path></g><g id="freepik--piggy-bank--inject-14"><polygon points="257.64 400.2 284.63 459.81 297.66 459.81 299.53 455.26 301.84 459.81 310.39 459.81 309.4 425.01 308.98 404.45 257.64 400.2" style="fill:#FFCB74"></polygon><polygon points="257.64 400.2 284.63 459.81 297.66 459.81 299.53 455.26 301.84 459.81 310.39 459.81 309.4 425.01 308.98 404.45 257.64 400.2" style="opacity:0.30000000000000004"></polygon><polygon points="375.79 406.59 402.12 459.81 415.15 459.81 417.01 455.64 419.33 459.81 427.88 459.81 426.88 427.95 426.46 409.13 375.79 406.59" style="fill:#FFCB74"></polygon><polygon points="375.79 406.59 402.12 459.81 415.15 459.81 417.01 455.64 419.33 459.81 427.88 459.81 426.88 427.95 426.46 409.13 375.79 406.59" style="opacity:0.30000000000000004"></polygon><path d="M525.54,249.73l.24.09.7.3a12,12,0,0,1,2.45,1.63,13.85,13.85,0,0,1,3,3.6,13.58,13.58,0,0,1,1.78,5.89,12.29,12.29,0,0,1-1.83,7.22,14,14,0,0,1-6.5,5.55,11.54,11.54,0,0,1-9.37,0,6.87,6.87,0,0,1-3.47-3.68,5.39,5.39,0,0,1,.48-5.15,6.15,6.15,0,0,1,4.59-2.44,7.16,7.16,0,0,1,4.81,1.58,10.42,10.42,0,0,1,3.86,8.49,13.38,13.38,0,0,1-3,8,12,12,0,0,1-2.92,2.62,13.94,13.94,0,0,1-3.29,1.49,15,15,0,0,1-6.14.46,16.39,16.39,0,0,1-4.49-1.24,14.72,14.72,0,0,1-2.57-1.42l-.61-.46a1,1,0,0,1-.2-.18,20.32,20.32,0,0,0,3.46,1.87,16.52,16.52,0,0,0,4.44,1.14,15,15,0,0,0,6-.52,14,14,0,0,0,3.18-1.48,11.6,11.6,0,0,0,2.79-2.56,12.91,12.91,0,0,0,2.83-7.74,10,10,0,0,0-3.69-8.07,6.74,6.74,0,0,0-4.47-1.48,5.66,5.66,0,0,0-4.2,2.23,4.9,4.9,0,0,0-.42,4.66,6.38,6.38,0,0,0,3.22,3.42,11.09,11.09,0,0,0,9,0,13.6,13.6,0,0,0,6.31-5.33,11.88,11.88,0,0,0,1.83-7,13.36,13.36,0,0,0-1.67-5.77,13.88,13.88,0,0,0-2.83-3.58A15.06,15.06,0,0,0,525.54,249.73Z" style="fill:#FFCB74"></path><path d="M512.65,303.66c3.92,88.45-70.23,132.59-154.17,132.59s-152-57.47-152-128.36,68-128.36,152-128.36S509.51,232.84,512.65,303.66Z" style="fill:#FFCB74"></path><path d="M347.89,211.23S358,208,367.4,218.68,390,247.51,390,247.51c-1.18,5.91-4.63,10.51-11.32,13.25Z" style="opacity:0.30000000000000004"></path><ellipse cx="258.54" cy="359.97" rx="52.04" ry="39.88" style="fill:#FFCB74"></ellipse><path d="M307.08,253.35s30.5-47.32,44.47-42.18,27.08,49.59,27.08,49.59" style="fill:#FFCB74"></path><path d="M272.59,242.51l-1.43-12.82s-19.09-8-36.2-11.89-20.47,0-20.47,0l27.06,37.91Z" style="fill:#FFCB74"></path><path d="M313.3,197.12l10.12,6s49-13,86.66,0l-13.81-11.75S350.62,181.57,313.3,197.12Z" style="opacity:0.30000000000000004"></path><ellipse cx="258.54" cy="359.97" rx="52.04" ry="39.88" style="opacity:0.30000000000000004"></ellipse><ellipse cx="245.32" cy="359.97" rx="48.75" ry="39.88" style="fill:#FFCB74"></ellipse><rect x="221.38" y="341.26" width="10.43" height="37.42" rx="3.34" style="opacity:0.30000000000000004"></rect><rect x="249.39" y="341.26" width="10.43" height="37.42" rx="3.34" style="opacity:0.30000000000000004"></rect><path d="M269.63,243.76c4.39-2.47,6.74-6.17,5.09-12.28,0,0-22.65-9.77-39.76-13.68s-20.47,0-20.47,0l27.06,37.91Z" style="opacity:0.30000000000000004"></path><path d="M271.16,244.8l-3.41-2.29c-10.09-6.74-39.57-26-47-26.21-10.26-.3-10.28,8.55-10.26,15.39,0,4.85,4,47,4,47" style="fill:#FFCB74"></path><path d="M378.63,260.76s-.05-.09-.12-.29-.17-.51-.29-.87l-1.12-3.35c-1-2.9-2.46-7.09-4.46-12.19a158.77,158.77,0,0,0-8-17.48,61.41,61.41,0,0,0-6.19-9.47,23.48,23.48,0,0,0-4.23-4.16,8.13,8.13,0,0,0-5.56-1.89,14.38,14.38,0,0,0-5.71,2,37.15,37.15,0,0,0-4.91,3.39,84.46,84.46,0,0,0-8.25,7.77A192,192,0,0,0,317.46,239c-3.32,4.35-5.89,8-7.65,10.48l-2,2.9-.53.76c-.12.16-.18.25-.19.24a1.07,1.07,0,0,1,.15-.27l.48-.79c.43-.68,1.08-1.68,1.94-2.95,1.7-2.55,4.23-6.2,7.52-10.6a187.19,187.19,0,0,1,12.28-14.86,84.29,84.29,0,0,1,8.28-7.84,36.91,36.91,0,0,1,5-3.44,14.77,14.77,0,0,1,5.92-2,6.71,6.71,0,0,1,3.17.44,13.52,13.52,0,0,1,2.73,1.54,23.26,23.26,0,0,1,4.32,4.26,60.85,60.85,0,0,1,6.22,9.56A151.36,151.36,0,0,1,373,243.93c2,5.13,3.38,9.34,4.31,12.26.46,1.46.81,2.6,1,3.38l.24.89A1,1,0,0,1,378.63,260.76Z" style="fill:#263238"></path><path d="M396.27,191.38a1.16,1.16,0,0,1,.25.18l.7.56,2.66,2.23,9.72,8.24.64.55-.82-.23A152.73,152.73,0,0,0,391.54,199a155.86,155.86,0,0,0-22.28-1.82,159.42,159.42,0,0,0-45.43,6.11l-.07,0-.06,0L316,198.78l-2-1.21-.52-.33c-.11-.07-.17-.11-.16-.12l.19.09.53.28,2.07,1.14,7.77,4.39-.12,0a155.22,155.22,0,0,1,19.4-4.4c3.88-.64,8.06-1.11,12.43-1.49s9-.52,13.7-.43a152,152,0,0,1,22.34,1.86,149.37,149.37,0,0,1,17.92,4l-.17.32-9.61-8.37-2.6-2.3c-.28-.25-.49-.45-.67-.6A1.94,1.94,0,0,1,396.27,191.38Z" style="fill:#263238"></path><path d="M274.4,328a1.12,1.12,0,0,1-.29-.17l-.81-.53-1.3-.88c-.53-.32-1.17-.66-1.87-1.06a43.68,43.68,0,0,0-12.88-4.37,63.06,63.06,0,0,0-9.38-.87,67.13,67.13,0,0,0-10.78.79,55,55,0,0,0-22.89,8.9,48.28,48.28,0,0,0-5,4.1,42.08,42.08,0,0,0-4.23,4.67,40.77,40.77,0,0,0-5.84,10.35,36.07,36.07,0,0,0-1.28,19.9,33.76,33.76,0,0,0,2.63,7.29,31.26,31.26,0,0,0,3.19,4.91l1.38,1.64,1.12,1.1.69.69a2.92,2.92,0,0,1,.22.24s-.09-.06-.26-.2l-.72-.65-1.16-1.07c-.42-.48-.89-1-1.43-1.62a30.35,30.35,0,0,1-3.29-4.91,33,33,0,0,1-2.73-7.34,36.2,36.2,0,0,1,1.19-20.14,37.53,37.53,0,0,1,2.5-5.36,39.63,39.63,0,0,1,3.39-5.14,42.22,42.22,0,0,1,4.28-4.74,45.82,45.82,0,0,1,5.1-4.14,55.17,55.17,0,0,1,23.12-9,66.67,66.67,0,0,1,10.86-.75,63.43,63.43,0,0,1,9.44.95,42.45,42.45,0,0,1,12.91,4.56c.7.41,1.33.76,1.85,1.1l1.28.92.78.58A1.45,1.45,0,0,1,274.4,328Z" style="fill:#263238"></path><path d="M231.51,344.76a9.35,9.35,0,0,1,.11,1.6c0,1.11.11,2.58.19,4.34.15,3.67.45,8.73.59,14.34,0,1.4,0,2.77,0,4.09a20.84,20.84,0,0,1-.29,3.84,7.26,7.26,0,0,1-3.54,5.35,4.33,4.33,0,0,1-4.29-.23,3.11,3.11,0,0,1-.86-.85,1.14,1.14,0,0,1-.18-.37,4.54,4.54,0,0,0,1.15,1.05,4.17,4.17,0,0,0,4,.07,7,7,0,0,0,3.23-5.11,21.47,21.47,0,0,0,.25-3.75c0-1.32,0-2.68-.05-4.08-.14-5.6-.38-10.67-.44-14.34,0-1.84,0-3.32,0-4.35A9.72,9.72,0,0,1,231.51,344.76Z" style="fill:#263238"></path><path d="M259.15,344.76a8.6,8.6,0,0,1,.12,1.6c0,1.11.11,2.58.18,4.34.16,3.67.45,8.73.59,14.34,0,1.4,0,2.77,0,4.09a21.76,21.76,0,0,1-.28,3.84,7.28,7.28,0,0,1-3.54,5.35,4.35,4.35,0,0,1-4.3-.23,3,3,0,0,1-.85-.85,1.07,1.07,0,0,1-.19-.37,4.79,4.79,0,0,0,1.15,1.05,4.17,4.17,0,0,0,4,.07,6.93,6.93,0,0,0,3.23-5.11,20.54,20.54,0,0,0,.25-3.75c0-1.32,0-2.68-.05-4.08-.14-5.6-.38-10.67-.44-14.34,0-1.84,0-3.32,0-4.35A9.72,9.72,0,0,1,259.15,344.76Z" style="fill:#263238"></path><path d="M293.48,368.65a2.85,2.85,0,0,1-.21.69c-.17.44-.36,1.11-.74,1.93a37.83,37.83,0,0,1-3.66,6.65,47.65,47.65,0,0,1-7.4,8.49,56.25,56.25,0,0,1-5.22,4.14,52.17,52.17,0,0,1-6.17,3.64,54.93,54.93,0,0,1-13,4.7A52.13,52.13,0,0,1,245.91,400c-3.21,0-5.79-.19-7.58-.32l-2.05-.16a3.87,3.87,0,0,1-.72-.1,5,5,0,0,1,.72,0l2.06.07c1.79.06,4.38.18,7.57.15a53.59,53.59,0,0,0,11.1-1.22,55.63,55.63,0,0,0,12.84-4.7,54.18,54.18,0,0,0,6.11-3.59,56.56,56.56,0,0,0,5.18-4.08,49.05,49.05,0,0,0,7.43-8.33,41.13,41.13,0,0,0,3.77-6.53c.41-.8.63-1.46.83-1.89A5.85,5.85,0,0,1,293.48,368.65Z" style="fill:#263238"></path><path d="M230.91,343.65a8.88,8.88,0,0,0-.69-1,4.07,4.07,0,0,0-2.86-1.29,5.57,5.57,0,0,0-4.22,1.88,5.74,5.74,0,0,0-1.28,2.46,13.14,13.14,0,0,0-.29,3.06c0,4.3.05,8.2,0,11,0,1.33,0,2.44,0,3.34a5.06,5.06,0,0,1-.09,1.23,6.51,6.51,0,0,1-.11-1.23c0-.89-.07-2-.12-3.34-.07-2.82-.15-6.71-.18-11a12.94,12.94,0,0,1,.32-3.19,5.93,5.93,0,0,1,1.42-2.65,5.84,5.84,0,0,1,4.59-1.93,4.15,4.15,0,0,1,3,1.53,3.56,3.56,0,0,1,.46.81C230.9,343.54,230.93,343.64,230.91,343.65Z" style="fill:#fff"></path><path d="M249.23,346c.14,0,.26,5.27.26,11.77s-.12,11.77-.26,11.77-.26-5.27-.26-11.77S249.08,346,249.23,346Z" style="fill:#fff"></path><path d="M240.84,323.26a2.78,2.78,0,0,1-.62,0c-.4,0-1,0-1.76,0a43.42,43.42,0,0,0-6.41.69,42.51,42.51,0,0,0-33.55,31.85c-.2.74-.3,1.32-.4,1.71a3.79,3.79,0,0,1-.16.6,2.39,2.39,0,0,1,.06-.62c.07-.39.13-1,.3-1.73a37.72,37.72,0,0,1,1.83-6.23A41.15,41.15,0,0,1,232,323.67a39.39,39.39,0,0,1,6.47-.54c.77,0,1.36.05,1.76.06A2.74,2.74,0,0,1,240.84,323.26Z" style="fill:#fff"></path><path d="M214.69,272.31a2.46,2.46,0,0,1-.18.57c-.16.42-.37.94-.62,1.58s-.61,1.52-1,2.51-.78,2.1-1.17,3.36-.85,2.63-1.25,4.12-.81,3.1-1.22,4.79a103.31,103.31,0,0,0-1.84,11.17,105,105,0,0,0-.5,11.31c.05,1.74.08,3.39.21,4.94s.23,3,.37,4.29.32,2.48.46,3.52.28,1.93.42,2.66.2,1.23.28,1.67a2.92,2.92,0,0,1,.06.59,2,2,0,0,1-.17-.57c-.09-.43-.22-1-.37-1.66s-.35-1.6-.51-2.64-.39-2.21-.53-3.53-.34-2.75-.44-4.3-.19-3.22-.26-5a98.62,98.62,0,0,1,.46-11.38,97.35,97.35,0,0,1,1.89-11.22c.43-1.69.81-3.31,1.28-4.8s.88-2.87,1.31-4.12.87-2.36,1.25-3.34.73-1.81,1-2.48l.71-1.55A3,3,0,0,1,214.69,272.31Z" style="fill:#fff"></path><path d="M216.18,220.31s-.41.54-1,1.59a15.9,15.9,0,0,0-1.67,4.8,45.72,45.72,0,0,0-.61,7.57c-.08,2.87-.1,6,0,9.35.16,6.62.7,12.61,1.2,16.93.26,2.09.48,3.82.64,5.1.07.56.13,1,.18,1.39a1.75,1.75,0,0,1,0,.5,1.79,1.79,0,0,1-.13-.48c-.07-.37-.16-.83-.27-1.37-.22-1.2-.51-2.94-.81-5.1a155.57,155.57,0,0,1-1.35-17c-.08-3.33,0-6.49.06-9.37a43.52,43.52,0,0,1,.73-7.63A14.65,14.65,0,0,1,215,221.8a8.43,8.43,0,0,1,.84-1.14A2,2,0,0,1,216.18,220.31Z" style="fill:#fff"></path><path d="M313.52,189a2.69,2.69,0,0,1-.63.26l-1.86.66-6.86,2.35A231,231,0,0,0,282,201a103.66,103.66,0,0,0-20.36,12.34c-2.39,1.9-4.24,3.55-5.47,4.73-.64.58-1.09,1.06-1.43,1.36a4,4,0,0,1-.51.46s.14-.2.44-.53.74-.83,1.35-1.43a67,67,0,0,1,5.39-4.88,98,98,0,0,1,20.37-12.52,203.67,203.67,0,0,1,22.32-8.62c2.91-1,5.28-1.69,6.91-2.19l1.89-.57A3.5,3.5,0,0,1,313.52,189Z" style="fill:#fff"></path><path d="M348.33,213.78a3.35,3.35,0,0,1-.45.35l-1.33.94c-1.17.8-2.83,2-4.84,3.52s-4.36,3.41-6.89,5.59-5.18,4.72-7.86,7.49-5.08,5.55-7.19,8.14-3.89,5-5.33,7.09-2.58,3.77-3.34,5l-.89,1.36a1.87,1.87,0,0,1-.34.46,4,4,0,0,1,.25-.51c.22-.37.48-.84.81-1.42.7-1.23,1.79-3,3.2-5.07s3.19-4.55,5.27-7.18,4.5-5.41,7.18-8.2,5.4-5.29,7.93-7.49,4.92-4,7-5.53,3.74-2.64,4.95-3.38l1.38-.86A1.72,1.72,0,0,1,348.33,213.78Z" style="fill:#fff"></path><path d="M502.45,283.35a12.25,12.25,0,0,1,1.18,2.52,52.83,52.83,0,0,1,2.07,6.4,53.53,53.53,0,0,1,1.23,6.61,12,12,0,0,1,.16,2.79,20.77,20.77,0,0,1-.52-2.73c-.29-1.69-.74-4-1.38-6.54s-1.35-4.78-1.9-6.4A18.87,18.87,0,0,1,502.45,283.35Z" style="fill:#fff"></path><path d="M478.52,398l-.49.37-1.47,1-2.4,1.69-1.54,1.07-1.79,1.16A199.16,199.16,0,0,1,448.67,416c-2.43,1.19-5,2.36-7.68,3.58l-4.14,1.76-2.14.9-2.2.85L428,424.8l-4.72,1.63c-1.59.57-3.23,1.07-4.89,1.57s-3.33,1.07-5.06,1.51a206.73,206.73,0,0,1-21.83,4.91A180.5,180.5,0,0,1,367.61,437a158.5,158.5,0,0,1-24-.75l-2.88-.28c-1-.1-1.9-.26-2.85-.38l-5.6-.8-5.45-1-2.68-.5-2.62-.6a193.09,193.09,0,0,1-36-11.71,153.38,153.38,0,0,1-22.5-12c-2.57-1.57-4.41-3-5.71-3.94l-1.46-1.07-.48-.37s.18.1.51.33l1.49,1c1.32.88,3.18,2.31,5.76,3.86a158,158,0,0,0,22.54,11.88,194.21,194.21,0,0,0,35.94,11.58l2.62.59,2.67.5,5.44,1,5.59.79c.94.12,1.88.28,2.84.38l2.88.27a160,160,0,0,0,23.93.74,183.21,183.21,0,0,0,23.82-2.55,208.38,208.38,0,0,0,21.78-4.87c1.73-.44,3.39-1,5.05-1.5s3.3-1,4.89-1.56l4.71-1.61,4.52-1.72,2.2-.83,2.13-.89,4.14-1.74c2.68-1.22,5.25-2.38,7.67-3.55a206.72,206.72,0,0,0,22.22-12.5l1.8-1.14,1.55-1.05,2.43-1.65,1.5-1C478.34,398.08,478.52,398,478.52,398Z" style="fill:#263238"></path><polygon points="435.45 408.68 455.55 460.08 469.29 460.08 472.28 455.6 475.8 460.08 480.66 460.08 482.46 378.63 435.45 408.68" style="fill:#FFCB74"></polygon><path d="M309.2,415.92l17,44.16H341.8L345,455l3.08,5.12h3.88s1.7-49.82,0-51.24S309.2,415.92,309.2,415.92Z" style="fill:#FFCB74"></path><path d="M507.64,317.22a1.59,1.59,0,0,1,0,.29c0,.22,0,.51-.07.86q-.1,1.19-.3,3.3c-.08.72-.16,1.51-.24,2.38s-.29,1.8-.45,2.81c-.36,2-.65,4.33-1.3,6.82-.3,1.25-.6,2.56-.92,3.93s-.81,2.75-1.23,4.2c-.79,2.93-2,5.94-3.15,9.13a118.93,118.93,0,0,1-23.47,37.28c-2.37,2.44-4.58,4.8-6.87,6.79-1.13,1-2.17,2-3.26,2.92l-3.15,2.53c-2,1.66-3.92,2.93-5.58,4.12-.84.58-1.61,1.14-2.34,1.62l-2.05,1.24-2.84,1.71-.74.43a1.56,1.56,0,0,1-.26.13s.07-.07.23-.18l.72-.47,2.78-1.79,2-1.28c.72-.48,1.48-1.06,2.31-1.65,1.64-1.21,3.58-2.49,5.52-4.17l3.12-2.55c1.08-.89,2.11-1.92,3.23-2.93,2.27-2,4.45-4.36,6.81-6.8a121.3,121.3,0,0,0,23.37-37.12c1.18-3.18,2.38-6.18,3.19-9.08.43-1.45.91-2.83,1.25-4.18l1-3.91c.67-2.48,1-4.79,1.37-6.79.17-1,.37-1.93.49-2.8s.2-1.65.28-2.37c.18-1.39.31-2.49.41-3.28l.12-.85A1.19,1.19,0,0,1,507.64,317.22Z" style="fill:#fff"></path><g style="opacity:0.2"><path d="M485.9,273.86c-4.57-11.3-14.51-22-26-26.64a14.85,14.85,0,0,0-20.3,13c0,.08,0,.15,0,.22-.36,7.24,2.48,14.27,6,20.63s7.67,12.37,10.38,19.09a48.73,48.73,0,0,1,.4,35c-2.68,7.12-7.13,14.7-3.1,21.8,2.64,4.65,7.95,6.94,13.28,6.46,10.21-.93,15.51-10.15,20.35-18.52,3.89-6.74,7.09-17.22,7.28-25.13A110.74,110.74,0,0,0,485.9,273.86Z" style="fill:#fff"></path></g><g style="opacity:0.2"><path d="M447.65,244.71c.26,0,.51,0,.77,0l.05,0Z" style="fill:#fff"></path></g><path d="M255,298.29a7.19,7.19,0,1,1-5.65-5.65A7.2,7.2,0,0,1,255,298.29Z" style="fill:#263238"></path><path d="M332.82,298.29a7.19,7.19,0,1,1-5.64-5.65A7.19,7.19,0,0,1,332.82,298.29Z" style="fill:#263238"></path><path d="M483.54,239.56a5.73,5.73,0,0,1-.5-.54c-.34-.41-.78-1-1.34-1.61s-1.28-1.57-2.13-2.54-1.79-2.11-2.91-3.29-2.3-2.51-3.65-3.87-2.81-2.78-4.36-4.28c-3.14-2.92-6.71-6-10.63-9.07s-7.84-5.69-11.48-8c-1.83-1.12-3.56-2.2-5.24-3.12s-3.22-1.8-4.67-2.56-2.76-1.4-3.91-2-2.17-1.05-3-1.42l-1.9-.89a6.22,6.22,0,0,1-.65-.34,3.59,3.59,0,0,1,.69.24l1.95.8c.84.35,1.86.79,3,1.35s2.52,1.15,4,1.92,3.05,1.55,4.71,2.5,3.44,2,5.29,3.09c3.66,2.29,7.59,5,11.54,8s7.51,6.18,10.64,9.14c1.55,1.5,3,2.92,4.34,4.32s2.53,2.7,3.61,3.93,2,2.35,2.86,3.34,1.52,1.87,2.07,2.6l1.27,1.67A4.79,4.79,0,0,1,483.54,239.56Z" style="fill:#fff"></path><path d="M407.94,207.25a7,7,0,0,1-.78-.23l-2.2-.76c-.94-.34-2.11-.75-3.48-1.15s-2.91-.94-4.66-1.36l-2.74-.73c-.95-.24-1.95-.44-3-.67-2.06-.5-4.29-.86-6.64-1.27a117.84,117.84,0,0,0-30.86-.89c-2.36.28-4.61.51-6.69.89-1.05.17-2.06.31-3,.5l-2.77.56c-1.77.33-3.34.77-4.74,1.1s-2.58.66-3.54.95l-2.24.62a4.38,4.38,0,0,1-.79.19,5.89,5.89,0,0,1,.76-.29l2.21-.72c1-.32,2.14-.68,3.53-1s3-.83,4.73-1.18l2.77-.6c1-.2,2-.34,3-.53,2.09-.4,4.34-.64,6.71-.94a114.35,114.35,0,0,1,31,.89c2.35.43,4.59.81,6.65,1.33,1,.24,2,.44,3,.7l2.73.76c1.75.45,3.29,1,4.66,1.44s2.52.87,3.46,1.24l2.17.85A4.79,4.79,0,0,1,407.94,207.25Z" style="fill:#fff"></path></g><g id="freepik--Coins--inject-14"><path d="M536.48,196.64a23.76,23.76,0,1,1-13-30.93A23.74,23.74,0,0,1,536.48,196.64Z" style="fill:#FFCB74"></path><path d="M531.24,194.5a18.11,18.11,0,1,1-9.92-23.57A18.09,18.09,0,0,1,531.24,194.5Z" style="fill:#FFCB74"></path><path d="M531.24,194.5a2.61,2.61,0,0,1,.08-.28c.07-.2.16-.47.27-.82.06-.18.13-.38.2-.6s.11-.47.18-.74a14.62,14.62,0,0,0,.35-1.87,17.47,17.47,0,0,0-.06-5.19,18,18,0,0,0-17.06-15.22,19.85,19.85,0,0,0-2.55.07c-.43,0-.86.13-1.29.19a8.38,8.38,0,0,0-1.28.28,19.62,19.62,0,0,0-2.53.82,19.06,19.06,0,0,0-2.41,1.26A17,17,0,0,0,500.9,176a18.79,18.79,0,0,0-3,4.87,19.16,19.16,0,0,0-1.28,5.58,17.31,17.31,0,0,0,.51,5.53,18.52,18.52,0,0,0,.84,2.58,19.66,19.66,0,0,0,1.23,2.37,17.84,17.84,0,0,0,1.5,2.14,19.2,19.2,0,0,0,1.77,1.83,18.12,18.12,0,0,0,8.42,4.29,17.79,17.79,0,0,0,8.25-.22,18,18,0,0,0,6.17-3,17.19,17.19,0,0,0,3.68-3.66,13.63,13.63,0,0,0,1.06-1.58c.14-.23.28-.45.39-.65s.19-.4.28-.57l.38-.77.14-.26a1.27,1.27,0,0,1-.1.28c-.09.19-.21.45-.35.78l-.26.58c-.11.21-.25.43-.39.67a14.07,14.07,0,0,1-1,1.61,17.27,17.27,0,0,1-3.67,3.74,18.19,18.19,0,0,1-23.2-1,19,19,0,0,1-1.82-1.87,18.76,18.76,0,0,1-1.53-2.17,20.39,20.39,0,0,1-1.26-2.41,19.39,19.39,0,0,1-.86-2.64,17.47,17.47,0,0,1-.53-5.65,18.07,18.07,0,0,1,4.37-10.67,17.52,17.52,0,0,1,4.33-3.66,22.25,22.25,0,0,1,2.47-1.28A18.88,18.88,0,0,1,510,170a10.25,10.25,0,0,1,1.31-.29c.44-.06.88-.14,1.31-.19a18.92,18.92,0,0,1,2.6-.06,18.4,18.4,0,0,1,9.17,2.92A18.27,18.27,0,0,1,532.47,185a17.2,17.2,0,0,1,0,5.24,12.94,12.94,0,0,1-.38,1.88c-.07.27-.13.52-.2.74s-.15.42-.22.6c-.13.34-.23.6-.3.8S531.25,194.51,531.24,194.5Z" style="fill:#263238"></path><g style="opacity:0.30000000000000004"><path d="M531,194.63a11,11,0,0,1,.39-2.2,19.47,19.47,0,0,0,.18-5.92,17.71,17.71,0,0,0-1-3.94,18.12,18.12,0,0,0-2.13-4.11,18.78,18.78,0,0,0-1.57-1.94,16.07,16.07,0,0,0-1.91-1.76,17.37,17.37,0,0,0-2.23-1.5,18,18,0,0,0-2.51-1.17,18.6,18.6,0,0,0-2.66-.76A16.34,16.34,0,0,0,515,171a17.45,17.45,0,0,0-5.06.52,18,18,0,0,0-7.6,4.07,19.2,19.2,0,0,0-3.74,4.59c-.72,1.22-1,1.95-1.15,1.91a5.69,5.69,0,0,1,.68-2.16,16.8,16.8,0,0,1,3.54-5.06,18.71,18.71,0,0,1,3.41-2.64,18.4,18.4,0,0,1,4.55-1.94,17,17,0,0,1,2.63-.52,17.29,17.29,0,0,1,2.8-.13,19,19,0,0,1,2.88.33,18.74,18.74,0,0,1,2.88.81,19.59,19.59,0,0,1,2.7,1.27,16.82,16.82,0,0,1,2.39,1.64,17.78,17.78,0,0,1,2,1.92,17,17,0,0,1,1.64,2.12,18,18,0,0,1,3,8.67,17.11,17.11,0,0,1-.63,6.14A5.42,5.42,0,0,1,531,194.63Z"></path></g><g style="opacity:0.30000000000000004"><path d="M512.29,198.42l-1.15,2.94-2.62-1,1.12-2.86a13.38,13.38,0,0,1-5.71-4.66l2.7-2.63A11.35,11.35,0,0,0,511,194l1.71-4.37c-2.63-1.85-5.5-4.1-4-7.85,1.09-2.78,4.05-4.37,8.37-3.22l1.15-2.91,2.62,1-1.12,2.86a12.69,12.69,0,0,1,4.69,3.69L521.8,186a11.31,11.31,0,0,0-3.47-2.94l-1.75,4.46c2.64,1.82,5.46,4,4,7.74C519.52,198,516.6,199.54,512.29,198.42Zm1.93-12.62,1.46-3.72c-1.52-.23-2.37.31-2.71,1.18S513.21,185,514.22,185.8Zm2,8.09c.36-.92-.21-1.71-1.18-2.55L513.65,195C515.07,195.18,515.92,194.73,516.25,193.89Z"></path></g><path d="M479.23,149.07a23.76,23.76,0,1,1-13-30.94A23.73,23.73,0,0,1,479.23,149.07Z" style="fill:#FFCB74"></path><path d="M474,146.93a18.11,18.11,0,1,1-9.91-23.58A18.08,18.08,0,0,1,474,146.93Z" style="fill:#FFCB74"></path><path d="M474,146.93a2.61,2.61,0,0,1,.08-.28l.27-.82c.06-.18.13-.38.2-.6s.11-.48.18-.74a15,15,0,0,0,.35-1.87,17.14,17.14,0,0,0-.06-5.19A18.09,18.09,0,0,0,467,125a18.46,18.46,0,0,0-11.56-2.77c-.43,0-.85.13-1.28.2a9.54,9.54,0,0,0-1.29.27,21.36,21.36,0,0,0-2.53.83,20.38,20.38,0,0,0-2.41,1.25,17,17,0,0,0-4.24,3.59,17.67,17.67,0,0,0-4.28,10.45,17.38,17.38,0,0,0,.51,5.54,19,19,0,0,0,.84,2.58,19.66,19.66,0,0,0,1.23,2.37,18.93,18.93,0,0,0,1.5,2.13,20.59,20.59,0,0,0,1.77,1.84,18.12,18.12,0,0,0,8.42,4.29,18.13,18.13,0,0,0,14.42-3.19,17.42,17.42,0,0,0,3.68-3.66,14.54,14.54,0,0,0,1.06-1.58c.14-.24.28-.45.39-.65l.28-.57.38-.77c.09-.18.14-.26.14-.26a1.63,1.63,0,0,1-.1.27l-.35.79-.26.58c-.11.21-.25.43-.39.67a11.77,11.77,0,0,1-1,1.61,17.27,17.27,0,0,1-3.67,3.74,18.31,18.31,0,0,1-14.62,3.33,18.36,18.36,0,0,1-8.58-4.34,20.12,20.12,0,0,1-1.82-1.87,19.66,19.66,0,0,1-1.53-2.17,20.53,20.53,0,0,1-1.26-2.42,19.72,19.72,0,0,1-.86-2.63,17.75,17.75,0,0,1-.53-5.65,19.34,19.34,0,0,1,1.31-5.7,19.56,19.56,0,0,1,3.06-5,17.75,17.75,0,0,1,4.33-3.67,17.16,17.16,0,0,1,5.05-2.11,10.21,10.21,0,0,1,1.31-.28c.44-.06.88-.15,1.31-.19a18.92,18.92,0,0,1,2.6-.06,18.3,18.3,0,0,1,9.17,2.92,18.21,18.21,0,0,1,8.09,12.62,16.89,16.89,0,0,1,0,5.24,12.52,12.52,0,0,1-.38,1.87c-.07.27-.13.52-.2.75l-.22.59q-.2.51-.3.81A1.23,1.23,0,0,1,474,146.93Z" style="fill:#263238"></path><g style="opacity:0.30000000000000004"><path d="M473.79,147.05a11,11,0,0,1,.39-2.19,19.16,19.16,0,0,0,.18-5.92,17.9,17.9,0,0,0-3.08-8.05,16.87,16.87,0,0,0-1.57-1.94,16.07,16.07,0,0,0-1.91-1.76,16.76,16.76,0,0,0-2.23-1.51,19.89,19.89,0,0,0-2.51-1.17,18.55,18.55,0,0,0-2.66-.75,17.54,17.54,0,0,0-2.67-.33,17.25,17.25,0,0,0-2.6.09,16.42,16.42,0,0,0-2.46.44,17.94,17.94,0,0,0-4.3,1.7,18.6,18.6,0,0,0-3.3,2.36,19.46,19.46,0,0,0-3.74,4.6,11.34,11.34,0,0,1-1.14,1.91,5.28,5.28,0,0,1,.67-2.16,16.8,16.8,0,0,1,3.54-5.06A18.26,18.26,0,0,1,455,122.2a18.52,18.52,0,0,1,2.8-.12,17.78,17.78,0,0,1,2.88.33,18.74,18.74,0,0,1,2.88.81,19.59,19.59,0,0,1,2.7,1.27,17.63,17.63,0,0,1,2.39,1.63,18.38,18.38,0,0,1,3.69,4,18.76,18.76,0,0,1,2.16,4.45,18.21,18.21,0,0,1,.84,4.22,16.91,16.91,0,0,1-.63,6.15A5.21,5.21,0,0,1,473.79,147.05Z"></path></g><g style="opacity:0.30000000000000004"><path d="M455,150.85l-1.15,2.93-2.62-1,1.12-2.85a13.45,13.45,0,0,1-5.71-4.66l2.7-2.64a11.29,11.29,0,0,0,4.36,3.86l1.71-4.38c-2.63-1.85-5.5-4.09-4-7.84,1.09-2.78,4.05-4.37,8.37-3.22l1.15-2.91,2.62,1L462.44,132a12.67,12.67,0,0,1,4.69,3.68l-2.57,2.71a11.56,11.56,0,0,0-3.48-2.93l-1.75,4.45c2.64,1.83,5.46,4.05,4,7.75C462.27,150.38,459.35,152,455,150.85ZM457,138.23l1.46-3.72c-1.52-.23-2.37.31-2.71,1.18S456,137.41,457,138.23Zm2,8.09c.36-.92-.21-1.72-1.18-2.55l-1.42,3.61C457.82,147.61,458.67,147.16,459,146.32Z"></path></g><path d="M392.24,129a38.41,38.41,0,1,1-41.35-35.07A38.33,38.33,0,0,1,392.24,129Z" style="fill:#FFCB74"></path><path d="M383.13,129.72A29.27,29.27,0,1,1,351.61,103,29.21,29.21,0,0,1,383.13,129.72Z" style="fill:#FFCB74"></path><path d="M383.13,129.72a2.09,2.09,0,0,1-.1-.46q-.07-.51-.21-1.38c0-.3-.09-.64-.15-1s-.18-.76-.28-1.19a22,22,0,0,0-.86-3,27.86,27.86,0,0,0-3.87-7.43,29.21,29.21,0,0,0-20.65-12,29.27,29.27,0,0,0-15.07,2.48,31.09,31.09,0,0,0-3.63,2c-.58.38-1.13.81-1.71,1.21a14,14,0,0,0-1.65,1.34,33.53,33.53,0,0,0-3.05,3,32.46,32.46,0,0,0-2.56,3.56,28.06,28.06,0,0,0-3.5,8.26,30.74,30.74,0,0,0-.76,9.2,30.43,30.43,0,0,0,2.22,9,27.58,27.58,0,0,0,4.77,7.6,31.39,31.39,0,0,0,3.1,3.11,32.48,32.48,0,0,0,3.5,2.51,28.87,28.87,0,0,0,3.72,2,30,30,0,0,0,3.9,1.35,29.13,29.13,0,0,0,33.74-15,27.56,27.56,0,0,0,2.63-8,19.77,19.77,0,0,0,.38-3c0-.44.08-.85.09-1.22s0-.72,0-1c0-.59,0-1.05,0-1.39a2.49,2.49,0,0,1,0-.48,3.45,3.45,0,0,1,0,.47c0,.35,0,.81.07,1.39,0,.31,0,.65.05,1s0,.79-.07,1.24a20.68,20.68,0,0,1-.32,3.07,27.53,27.53,0,0,1-2.56,8.06,29.42,29.42,0,0,1-18.65,15.44,30.27,30.27,0,0,1-19.53-1.36,30.73,30.73,0,0,1-3.8-2,27,27,0,0,1-6.75-5.73,28.81,28.81,0,0,1-4.88-7.75A29,29,0,0,1,325.25,125a28.1,28.1,0,0,1,3.58-8.43,31.6,31.6,0,0,1,2.62-3.63,32.47,32.47,0,0,1,3.12-3.09,14.48,14.48,0,0,1,1.68-1.36c.59-.41,1.15-.85,1.75-1.23a28.84,28.84,0,0,1,3.71-2,29.6,29.6,0,0,1,15.35-2.47,29.42,29.42,0,0,1,20.88,12.27,27.41,27.41,0,0,1,3.81,7.55,19.39,19.39,0,0,1,.81,3c.1.43.2.84.27,1.21s.08.71.11,1c.07.58.12,1,.16,1.38A2.77,2.77,0,0,1,383.13,129.72Z" style="fill:#263238"></path><g style="opacity:0.30000000000000004"><path d="M382.92,130.05c-.17,0-.4-1.25-1-3.45a31.54,31.54,0,0,0-4.05-8.66,30.67,30.67,0,0,0-4.25-5,29.49,29.49,0,0,0-6.08-4.35,28.58,28.58,0,0,0-7.72-2.8,28.68,28.68,0,0,0-4.31-.54,30.55,30.55,0,0,0-4.47.15,30.13,30.13,0,0,0-4.39.84,30.55,30.55,0,0,0-4.09,1.48,26.71,26.71,0,0,0-3.69,2,26.28,26.28,0,0,0-3.22,2.42,28.86,28.86,0,0,0-5,5.59,30.17,30.17,0,0,0-3,5.81,31.52,31.52,0,0,0-2,9.34c-.14,2.28-.08,3.57-.26,3.59s-.48-1.25-.61-3.6a27.35,27.35,0,0,1,1.43-9.88,29.21,29.21,0,0,1,8.12-12.39,27.65,27.65,0,0,1,3.42-2.67,28.53,28.53,0,0,1,3.95-2.22,28.83,28.83,0,0,1,4.4-1.63,33.25,33.25,0,0,1,4.73-.93,32.64,32.64,0,0,1,4.83-.14,29.57,29.57,0,0,1,4.65.62,27.8,27.8,0,0,1,4.33,1.29,27.26,27.26,0,0,1,3.93,1.85,29,29,0,0,1,10.66,10.29,27.27,27.27,0,0,1,3.57,9.31C383.12,128.73,383.05,130,382.92,130.05Z"></path></g><g style="opacity:0.30000000000000004"><path d="M358.64,149.17l.49,5.07-4.54.42-.46-4.93c-4.52.16-9-.84-11.63-2.55l2-5.76a18.31,18.31,0,0,0,9.09,2.39l-.71-7.56c-5.15-.75-10.93-1.89-11.54-8.36-.46-4.8,2.64-9.24,9.72-10.73l-.47-5,4.53-.43.47,4.94a20.59,20.59,0,0,1,9.46,1.89l-1.74,5.78a18.54,18.54,0,0,0-7.16-1.7l.73,7.69c5.15.7,10.84,1.85,11.44,8.23C368.74,143.24,365.68,147.64,358.64,149.17Zm-6.42-19.57-.62-6.43c-2.35.77-3.17,2.18-3,3.67S350.16,129.15,352.22,129.6Zm8.83,10.17c-.15-1.59-1.55-2.32-3.56-2.82l.59,6.25C360.3,142.48,361.18,141.21,361.05,139.77Z"></path></g></g><g id="freepik--Money--inject-14"><rect x="82.17" y="430.79" width="155.55" height="28.56" style="fill:#455a64"></rect><path d="M237.74,435.85c0,.14-34.83.26-77.78.26s-77.78-.12-77.78-.26,34.82-.26,77.78-.26S237.74,435.71,237.74,435.85Z" style="fill:#263238"></path><path d="M237.74,442c0,.15-34.83.26-77.78.26s-77.78-.11-77.78-.26,34.82-.26,77.78-.26S237.74,441.85,237.74,442Z" style="fill:#263238"></path><path d="M237.74,448.14c0,.14-34.83.26-77.78.26s-77.78-.12-77.78-.26,34.82-.26,77.78-.26S237.74,448,237.74,448.14Z" style="fill:#263238"></path><path d="M237.74,454.28c0,.15-34.83.26-77.78.26s-77.78-.11-77.78-.26S117,454,160,454,237.74,454.14,237.74,454.28Z" style="fill:#263238"></path><rect x="146.83" y="430.79" width="26.26" height="28.57" style="fill:#e0e0e0"></rect></g><g id="freepik--Character--inject-14"><rect x="546.74" y="350.13" width="85.19" height="15.47" style="fill:#FFCB74"></rect><path d="M555.09,365.71c-.2,0-.35-3.44-.35-7.67s.15-7.68.35-7.68.35,3.44.35,7.68S555.29,365.71,555.09,365.71Z" style="fill:#263238"></path><path d="M550.43,365.71c-.2,0-.35-3.44-.35-7.67s.15-7.68.35-7.68.36,3.44.36,7.68S550.63,365.71,550.43,365.71Z" style="fill:#263238"></path><path d="M565.33,365.71c-.2,0-.36-3.44-.36-7.67s.16-7.68.36-7.68.35,3.44.35,7.68S565.52,365.71,565.33,365.71Z" style="fill:#263238"></path><path d="M560.67,365.71c-.2,0-.36-3.44-.36-7.67s.16-7.68.36-7.68.35,3.44.35,7.68S560.86,365.71,560.67,365.71Z" style="fill:#263238"></path><path d="M575.56,365.71c-.19,0-.35-3.44-.35-7.67s.16-7.68.35-7.68.36,3.44.36,7.68S575.76,365.71,575.56,365.71Z" style="fill:#263238"></path><path d="M570.9,365.71c-.19,0-.35-3.44-.35-7.67s.16-7.68.35-7.68.36,3.44.36,7.68S571.1,365.71,570.9,365.71Z" style="fill:#263238"></path><path d="M585.8,365.71c-.2,0-.36-3.44-.36-7.67s.16-7.68.36-7.68.35,3.44.35,7.68S586,365.71,585.8,365.71Z" style="fill:#263238"></path><path d="M581.14,365.71c-.2,0-.36-3.44-.36-7.67s.16-7.68.36-7.68.35,3.44.35,7.68S581.33,365.71,581.14,365.71Z" style="fill:#263238"></path><path d="M596,365.71c-.19,0-.35-3.44-.35-7.67s.16-7.68.35-7.68.36,3.44.36,7.68S596.23,365.71,596,365.71Z" style="fill:#263238"></path><path d="M591.37,365.71c-.19,0-.35-3.44-.35-7.67s.16-7.68.35-7.68.36,3.44.36,7.68S591.57,365.71,591.37,365.71Z" style="fill:#263238"></path><path d="M606.27,365.71c-.2,0-.36-3.44-.36-7.67s.16-7.68.36-7.68.35,3.44.35,7.68S606.46,365.71,606.27,365.71Z" style="fill:#263238"></path><path d="M601.61,365.71c-.2,0-.36-3.44-.36-7.67s.16-7.68.36-7.68.35,3.44.35,7.68S601.8,365.71,601.61,365.71Z" style="fill:#263238"></path><path d="M616.5,365.71c-.19,0-.35-3.44-.35-7.67s.16-7.68.35-7.68.36,3.44.36,7.68S616.7,365.71,616.5,365.71Z" style="fill:#263238"></path><path d="M611.84,365.71c-.19,0-.35-3.44-.35-7.67s.16-7.68.35-7.68.36,3.44.36,7.68S612,365.71,611.84,365.71Z" style="fill:#263238"></path><path d="M626.74,365.71c-.2,0-.36-3.44-.36-7.67s.16-7.68.36-7.68.35,3.44.35,7.68S626.94,365.71,626.74,365.71Z" style="fill:#263238"></path><path d="M622.08,365.71c-.2,0-.35-3.44-.35-7.67s.15-7.68.35-7.68.35,3.44.35,7.68S622.28,365.71,622.08,365.71Z" style="fill:#263238"></path><path d="M631.93,350.13c0,.2-19.16.36-42.79.36s-42.79-.16-42.79-.36,19.15-.35,42.79-.35S631.93,349.94,631.93,350.13Z" style="fill:#263238"></path><rect x="541.17" y="365.85" width="85.19" height="15.47" style="fill:#FFCB74"></rect><path d="M549.51,381.42c-.19,0-.35-3.43-.35-7.67s.16-7.67.35-7.67.36,3.43.36,7.67S549.71,381.42,549.51,381.42Z" style="fill:#263238"></path><path d="M544.85,381.42c-.19,0-.35-3.43-.35-7.67s.16-7.67.35-7.67.36,3.43.36,7.67S545.05,381.42,544.85,381.42Z" style="fill:#263238"></path><path d="M559.75,381.42c-.2,0-.36-3.43-.36-7.67s.16-7.67.36-7.67.35,3.43.35,7.67S560,381.42,559.75,381.42Z" style="fill:#263238"></path><path d="M555.09,381.42c-.2,0-.35-3.43-.35-7.67s.15-7.67.35-7.67.35,3.43.35,7.67S555.29,381.42,555.09,381.42Z" style="fill:#263238"></path><path d="M570,381.42c-.2,0-.36-3.43-.36-7.67s.16-7.67.36-7.67.35,3.43.35,7.67S570.18,381.42,570,381.42Z" style="fill:#263238"></path><path d="M565.33,381.42c-.2,0-.36-3.43-.36-7.67s.16-7.67.36-7.67.35,3.43.35,7.67S565.52,381.42,565.33,381.42Z" style="fill:#263238"></path><path d="M580.22,381.42c-.19,0-.35-3.43-.35-7.67s.16-7.67.35-7.67.36,3.43.36,7.67S580.42,381.42,580.22,381.42Z" style="fill:#263238"></path><path d="M575.56,381.42c-.19,0-.35-3.43-.35-7.67s.16-7.67.35-7.67.36,3.43.36,7.67S575.76,381.42,575.56,381.42Z" style="fill:#263238"></path><path d="M590.46,381.42c-.2,0-.36-3.43-.36-7.67s.16-7.67.36-7.67.35,3.43.35,7.67S590.65,381.42,590.46,381.42Z" style="fill:#263238"></path><path d="M585.8,381.42c-.2,0-.36-3.43-.36-7.67s.16-7.67.36-7.67.35,3.43.35,7.67S586,381.42,585.8,381.42Z" style="fill:#263238"></path><path d="M600.69,381.42c-.19,0-.35-3.43-.35-7.67s.16-7.67.35-7.67.36,3.43.36,7.67S600.89,381.42,600.69,381.42Z" style="fill:#263238"></path><path d="M596,381.42c-.19,0-.35-3.43-.35-7.67s.16-7.67.35-7.67.36,3.43.36,7.67S596.23,381.42,596,381.42Z" style="fill:#263238"></path><path d="M610.93,381.42c-.2,0-.36-3.43-.36-7.67s.16-7.67.36-7.67.35,3.43.35,7.67S611.12,381.42,610.93,381.42Z" style="fill:#263238"></path><path d="M606.27,381.42c-.2,0-.36-3.43-.36-7.67s.16-7.67.36-7.67.35,3.43.35,7.67S606.46,381.42,606.27,381.42Z" style="fill:#263238"></path><path d="M621.16,381.42c-.19,0-.35-3.43-.35-7.67s.16-7.67.35-7.67.36,3.43.36,7.67S621.36,381.42,621.16,381.42Z" style="fill:#263238"></path><path d="M616.5,381.42c-.19,0-.35-3.43-.35-7.67s.16-7.67.35-7.67.36,3.43.36,7.67S616.7,381.42,616.5,381.42Z" style="fill:#263238"></path><path d="M626.35,365.85c0,.19-19.16.35-42.79.35s-42.79-.16-42.79-.35,19.16-.36,42.79-.36S626.35,365.65,626.35,365.85Z" style="fill:#263238"></path><rect x="548.13" y="381.42" width="85.19" height="15.47" style="fill:#FFCB74"></rect><path d="M556.48,397c-.2,0-.36-3.44-.36-7.67s.16-7.68.36-7.68.35,3.44.35,7.68S556.67,397,556.48,397Z" style="fill:#263238"></path><path d="M551.82,397c-.2,0-.36-3.44-.36-7.67s.16-7.68.36-7.68.35,3.44.35,7.68S552,397,551.82,397Z" style="fill:#263238"></path><path d="M566.71,397c-.19,0-.35-3.44-.35-7.67s.16-7.68.35-7.68.36,3.44.36,7.68S566.91,397,566.71,397Z" style="fill:#263238"></path><path d="M562.05,397c-.19,0-.35-3.44-.35-7.67s.16-7.68.35-7.68.36,3.44.36,7.68S562.25,397,562.05,397Z" style="fill:#263238"></path><path d="M577,397c-.2,0-.36-3.44-.36-7.67s.16-7.68.36-7.68.35,3.44.35,7.68S577.14,397,577,397Z" style="fill:#263238"></path><path d="M572.29,397c-.2,0-.36-3.44-.36-7.67s.16-7.68.36-7.68.35,3.44.35,7.68S572.48,397,572.29,397Z" style="fill:#263238"></path><path d="M587.18,397c-.19,0-.35-3.44-.35-7.67s.16-7.68.35-7.68.36,3.44.36,7.68S587.38,397,587.18,397Z" style="fill:#263238"></path><path d="M582.52,397c-.19,0-.35-3.44-.35-7.67s.16-7.68.35-7.68.36,3.44.36,7.68S582.72,397,582.52,397Z" style="fill:#263238"></path><path d="M597.42,397c-.2,0-.36-3.44-.36-7.67s.16-7.68.36-7.68.35,3.44.35,7.68S597.61,397,597.42,397Z" style="fill:#263238"></path><path d="M592.76,397c-.2,0-.36-3.44-.36-7.67s.16-7.68.36-7.68.35,3.44.35,7.68S593,397,592.76,397Z" style="fill:#263238"></path><path d="M607.65,397c-.19,0-.35-3.44-.35-7.67s.16-7.68.35-7.68.36,3.44.36,7.68S607.85,397,607.65,397Z" style="fill:#263238"></path><path d="M603,397c-.19,0-.35-3.44-.35-7.67s.16-7.68.35-7.68.36,3.44.36,7.68S603.19,397,603,397Z" style="fill:#263238"></path><path d="M617.89,397c-.2,0-.36-3.44-.36-7.67s.16-7.68.36-7.68.35,3.44.35,7.68S618.09,397,617.89,397Z" style="fill:#263238"></path><path d="M613.23,397c-.2,0-.35-3.44-.35-7.67s.15-7.68.35-7.68.35,3.44.35,7.68S613.43,397,613.23,397Z" style="fill:#263238"></path><path d="M628.12,397c-.19,0-.35-3.44-.35-7.67s.16-7.68.35-7.68.36,3.44.36,7.68S628.32,397,628.12,397Z" style="fill:#263238"></path><path d="M623.47,397c-.2,0-.36-3.44-.36-7.67s.16-7.68.36-7.68.35,3.44.35,7.68S623.66,397,623.47,397Z" style="fill:#263238"></path><path d="M633.31,381.42c0,.2-19.2.36-42.89.36s-42.89-.16-42.89-.36,19.2-.35,42.89-.35S633.31,381.23,633.31,381.42Z" style="fill:#263238"></path><rect x="541.45" y="396.77" width="85.19" height="15.47" style="fill:#FFCB74"></rect><path d="M549.8,412.35c-.2,0-.36-3.44-.36-7.68s.16-7.67.36-7.67.35,3.43.35,7.67S550,412.35,549.8,412.35Z" style="fill:#263238"></path><path d="M545.14,412.35c-.2,0-.36-3.44-.36-7.68s.16-7.67.36-7.67.35,3.43.35,7.67S545.33,412.35,545.14,412.35Z" style="fill:#263238"></path><path d="M560,412.35c-.19,0-.35-3.44-.35-7.68s.16-7.67.35-7.67.36,3.43.36,7.67S560.23,412.35,560,412.35Z" style="fill:#263238"></path><path d="M555.37,412.35c-.19,0-.35-3.44-.35-7.68s.16-7.67.35-7.67.36,3.43.36,7.67S555.57,412.35,555.37,412.35Z" style="fill:#263238"></path><path d="M570.27,412.35c-.2,0-.36-3.44-.36-7.68s.16-7.67.36-7.67.35,3.43.35,7.67S570.46,412.35,570.27,412.35Z" style="fill:#263238"></path><path d="M565.61,412.35c-.2,0-.36-3.44-.36-7.68s.16-7.67.36-7.67.35,3.43.35,7.67S565.81,412.35,565.61,412.35Z" style="fill:#263238"></path><path d="M580.5,412.35c-.19,0-.35-3.44-.35-7.68s.16-7.67.35-7.67.36,3.43.36,7.67S580.7,412.35,580.5,412.35Z" style="fill:#263238"></path><path d="M575.85,412.35c-.2,0-.36-3.44-.36-7.68s.16-7.67.36-7.67.35,3.43.35,7.67S576,412.35,575.85,412.35Z" style="fill:#263238"></path><path d="M590.74,412.35c-.2,0-.35-3.44-.35-7.68s.15-7.67.35-7.67.35,3.43.35,7.67S590.94,412.35,590.74,412.35Z" style="fill:#263238"></path><path d="M586.08,412.35c-.2,0-.35-3.44-.35-7.68s.15-7.67.35-7.67.36,3.43.36,7.67S586.28,412.35,586.08,412.35Z" style="fill:#263238"></path><path d="M601,412.35c-.2,0-.36-3.44-.36-7.68s.16-7.67.36-7.67.35,3.43.35,7.67S601.17,412.35,601,412.35Z" style="fill:#263238"></path><path d="M596.32,412.35c-.2,0-.36-3.44-.36-7.68s.16-7.67.36-7.67.35,3.43.35,7.67S596.51,412.35,596.32,412.35Z" style="fill:#263238"></path><path d="M611.21,412.35c-.19,0-.35-3.44-.35-7.68s.16-7.67.35-7.67.36,3.43.36,7.67S611.41,412.35,611.21,412.35Z" style="fill:#263238"></path><path d="M606.55,412.35c-.19,0-.35-3.44-.35-7.68s.16-7.67.35-7.67.36,3.43.36,7.67S606.75,412.35,606.55,412.35Z" style="fill:#263238"></path><path d="M621.45,412.35c-.2,0-.36-3.44-.36-7.68s.16-7.67.36-7.67.35,3.43.35,7.67S621.64,412.35,621.45,412.35Z" style="fill:#263238"></path><path d="M616.79,412.35c-.2,0-.36-3.44-.36-7.68s.16-7.67.36-7.67.35,3.43.35,7.67S617,412.35,616.79,412.35Z" style="fill:#263238"></path><path d="M626.64,396.77c0,.2-19.16.35-42.79.35s-42.8-.15-42.8-.35,19.16-.36,42.8-.36S626.64,396.57,626.64,396.77Z" style="fill:#263238"></path><rect x="549.99" y="412.46" width="85.19" height="15.47" style="fill:#FFCB74"></rect><path d="M558.33,428c-.19,0-.35-3.44-.35-7.68s.16-7.67.35-7.67.36,3.44.36,7.67S558.53,428,558.33,428Z" style="fill:#263238"></path><path d="M553.68,428c-.2,0-.36-3.44-.36-7.68s.16-7.67.36-7.67.35,3.44.35,7.67S553.87,428,553.68,428Z" style="fill:#263238"></path><path d="M568.57,428c-.2,0-.35-3.44-.35-7.68s.15-7.67.35-7.67.36,3.44.36,7.67S568.77,428,568.57,428Z" style="fill:#263238"></path><path d="M563.91,428c-.19,0-.35-3.44-.35-7.68s.16-7.67.35-7.67.36,3.44.36,7.67S564.11,428,563.91,428Z" style="fill:#263238"></path><path d="M578.81,428c-.2,0-.36-3.44-.36-7.68s.16-7.67.36-7.67.35,3.44.35,7.67S579,428,578.81,428Z" style="fill:#263238"></path><path d="M574.15,428c-.2,0-.36-3.44-.36-7.68s.16-7.67.36-7.67.35,3.44.35,7.67S574.34,428,574.15,428Z" style="fill:#263238"></path><path d="M589,428c-.19,0-.35-3.44-.35-7.68s.16-7.67.35-7.67.36,3.44.36,7.67S589.24,428,589,428Z" style="fill:#263238"></path><path d="M584.38,428c-.19,0-.35-3.44-.35-7.68s.16-7.67.35-7.67.36,3.44.36,7.67S584.58,428,584.38,428Z" style="fill:#263238"></path><path d="M599.28,428c-.2,0-.36-3.44-.36-7.68s.16-7.67.36-7.67.35,3.44.35,7.67S599.47,428,599.28,428Z" style="fill:#263238"></path><path d="M594.62,428c-.2,0-.36-3.44-.36-7.68s.16-7.67.36-7.67.35,3.44.35,7.67S594.81,428,594.62,428Z" style="fill:#263238"></path><path d="M609.51,428c-.19,0-.35-3.44-.35-7.68s.16-7.67.35-7.67.36,3.44.36,7.67S609.71,428,609.51,428Z" style="fill:#263238"></path><path d="M604.85,428c-.19,0-.35-3.44-.35-7.68s.16-7.67.35-7.67.36,3.44.36,7.67S605.05,428,604.85,428Z" style="fill:#263238"></path><path d="M619.75,428c-.2,0-.36-3.44-.36-7.68s.16-7.67.36-7.67.35,3.44.35,7.67S619.94,428,619.75,428Z" style="fill:#263238"></path><path d="M615.09,428c-.2,0-.36-3.44-.36-7.68s.16-7.67.36-7.67.35,3.44.35,7.67S615.28,428,615.09,428Z" style="fill:#263238"></path><path d="M630,428c-.19,0-.35-3.44-.35-7.68s.16-7.67.35-7.67.36,3.44.36,7.67S630.18,428,630,428Z" style="fill:#263238"></path><path d="M625.32,428c-.19,0-.35-3.44-.35-7.68s.16-7.67.35-7.67.36,3.44.36,7.67S625.52,428,625.32,428Z" style="fill:#263238"></path><path d="M635.17,412.46c0,.2-19.16.36-42.79.36s-42.79-.16-42.79-.36,19.16-.35,42.79-.35S635.17,412.26,635.17,412.46Z" style="fill:#263238"></path><rect x="544.65" y="428.11" width="85.19" height="15.47" style="fill:#FFCB74"></rect><path d="M553,443.68c-.19,0-.35-3.43-.35-7.67s.16-7.67.35-7.67.36,3.43.36,7.67S553.19,443.68,553,443.68Z" style="fill:#263238"></path><path d="M548.33,443.68c-.19,0-.35-3.43-.35-7.67s.16-7.67.35-7.67.36,3.43.36,7.67S548.53,443.68,548.33,443.68Z" style="fill:#263238"></path><path d="M563.23,443.68c-.2,0-.36-3.43-.36-7.67s.16-7.67.36-7.67.35,3.43.35,7.67S563.42,443.68,563.23,443.68Z" style="fill:#263238"></path><path d="M558.57,443.68c-.2,0-.36-3.43-.36-7.67s.16-7.67.36-7.67.35,3.43.35,7.67S558.77,443.68,558.57,443.68Z" style="fill:#263238"></path><path d="M573.46,443.68c-.19,0-.35-3.43-.35-7.67s.16-7.67.35-7.67.36,3.43.36,7.67S573.66,443.68,573.46,443.68Z" style="fill:#263238"></path><path d="M568.81,443.68c-.2,0-.36-3.43-.36-7.67s.16-7.67.36-7.67.35,3.43.35,7.67S569,443.68,568.81,443.68Z" style="fill:#263238"></path><path d="M583.7,443.68c-.2,0-.35-3.43-.35-7.67s.15-7.67.35-7.67.35,3.43.35,7.67S583.9,443.68,583.7,443.68Z" style="fill:#263238"></path><path d="M579,443.68c-.19,0-.35-3.43-.35-7.67s.16-7.67.35-7.67.36,3.43.36,7.67S579.24,443.68,579,443.68Z" style="fill:#263238"></path><path d="M593.94,443.68c-.2,0-.36-3.43-.36-7.67s.16-7.67.36-7.67.35,3.43.35,7.67S594.13,443.68,593.94,443.68Z" style="fill:#263238"></path><path d="M589.28,443.68c-.2,0-.36-3.43-.36-7.67s.16-7.67.36-7.67.35,3.43.35,7.67S589.47,443.68,589.28,443.68Z" style="fill:#263238"></path><path d="M604.17,443.68c-.19,0-.35-3.43-.35-7.67s.16-7.67.35-7.67.36,3.43.36,7.67S604.37,443.68,604.17,443.68Z" style="fill:#263238"></path><path d="M599.51,443.68c-.19,0-.35-3.43-.35-7.67s.16-7.67.35-7.67.36,3.43.36,7.67S599.71,443.68,599.51,443.68Z" style="fill:#263238"></path><path d="M614.41,443.68c-.2,0-.36-3.43-.36-7.67s.16-7.67.36-7.67.35,3.43.35,7.67S614.6,443.68,614.41,443.68Z" style="fill:#263238"></path><path d="M609.75,443.68c-.2,0-.36-3.43-.36-7.67s.16-7.67.36-7.67.35,3.43.35,7.67S609.94,443.68,609.75,443.68Z" style="fill:#263238"></path><path d="M624.64,443.68c-.19,0-.35-3.43-.35-7.67s.16-7.67.35-7.67.36,3.43.36,7.67S624.84,443.68,624.64,443.68Z" style="fill:#263238"></path><path d="M620,443.68c-.19,0-.35-3.43-.35-7.67s.16-7.67.35-7.67.36,3.43.36,7.67S620.18,443.68,620,443.68Z" style="fill:#263238"></path><path d="M629.83,428.11c0,.19-19.2.35-42.89.35s-42.89-.16-42.89-.35,19.2-.36,42.89-.36S629.83,427.91,629.83,428.11Z" style="fill:#263238"></path><rect x="537.97" y="443.45" width="85.19" height="15.47" style="fill:#FFCB74"></rect><path d="M546.32,459c-.2,0-.36-3.44-.36-7.67s.16-7.68.36-7.68.35,3.44.35,7.68S546.51,459,546.32,459Z" style="fill:#263238"></path><path d="M541.66,459c-.2,0-.36-3.44-.36-7.67s.16-7.68.36-7.68.35,3.44.35,7.68S541.85,459,541.66,459Z" style="fill:#263238"></path><path d="M556.55,459c-.19,0-.35-3.44-.35-7.67s.16-7.68.35-7.68.36,3.44.36,7.68S556.75,459,556.55,459Z" style="fill:#263238"></path><path d="M551.89,459c-.19,0-.35-3.44-.35-7.67s.16-7.68.35-7.68.36,3.44.36,7.68S552.09,459,551.89,459Z" style="fill:#263238"></path><path d="M566.79,459c-.2,0-.36-3.44-.36-7.67s.16-7.68.36-7.68.35,3.44.35,7.68S567,459,566.79,459Z" style="fill:#263238"></path><path d="M562.13,459c-.2,0-.36-3.44-.36-7.67s.16-7.68.36-7.68.35,3.44.35,7.68S562.32,459,562.13,459Z" style="fill:#263238"></path><path d="M577,459c-.19,0-.35-3.44-.35-7.67s.16-7.68.35-7.68.36,3.44.36,7.68S577.22,459,577,459Z" style="fill:#263238"></path><path d="M572.36,459c-.19,0-.35-3.44-.35-7.67s.16-7.68.35-7.68.36,3.44.36,7.68S572.56,459,572.36,459Z" style="fill:#263238"></path><path d="M587.26,459c-.2,0-.36-3.44-.36-7.67s.16-7.68.36-7.68.35,3.44.35,7.68S587.45,459,587.26,459Z" style="fill:#263238"></path><path d="M582.6,459c-.2,0-.36-3.44-.36-7.67s.16-7.68.36-7.68.35,3.44.35,7.68S582.79,459,582.6,459Z" style="fill:#263238"></path><path d="M597.49,459c-.19,0-.35-3.44-.35-7.67s.16-7.68.35-7.68.36,3.44.36,7.68S597.69,459,597.49,459Z" style="fill:#263238"></path><path d="M592.83,459c-.19,0-.35-3.44-.35-7.67s.16-7.68.35-7.68.36,3.44.36,7.68S593,459,592.83,459Z" style="fill:#263238"></path><path d="M607.73,459c-.2,0-.36-3.44-.36-7.67s.16-7.68.36-7.68.35,3.44.35,7.68S607.93,459,607.73,459Z" style="fill:#263238"></path><path d="M603.07,459c-.2,0-.35-3.44-.35-7.67s.15-7.68.35-7.68.35,3.44.35,7.68S603.27,459,603.07,459Z" style="fill:#263238"></path><path d="M618,459c-.2,0-.36-3.44-.36-7.67s.16-7.68.36-7.68.35,3.44.35,7.68S618.16,459,618,459Z" style="fill:#263238"></path><path d="M613.31,459c-.2,0-.36-3.44-.36-7.67s.16-7.68.36-7.68.35,3.44.35,7.68S613.5,459,613.31,459Z" style="fill:#263238"></path><path d="M623.15,443.45c0,.2-19.16.36-42.78.36s-42.8-.16-42.8-.36,19.16-.35,42.8-.35S623.15,443.26,623.15,443.45Z" style="fill:#263238"></path><g style="opacity:0.30000000000000004"><path d="M548.13,381.42c12.72,3.13,26.28,3.73,39.35,2.86s26.27-2.79,39.37-2.63Z"></path></g><g style="opacity:0.30000000000000004"><path d="M548.9,366c12.72,3.13,26.28,3.73,39.35,2.87s26.27-2.8,39.37-2.64Z"></path></g><g style="opacity:0.30000000000000004"><path d="M553,396.92c12.72,3.13,26.28,3.74,39.35,2.87s26.27-2.79,39.37-2.64Z"></path></g><g style="opacity:0.30000000000000004"><path d="M549.68,412.37c12.72,3.12,26.28,3.73,39.35,2.86s26.27-2.79,39.37-2.63Z"></path></g><g style="opacity:0.30000000000000004"><path d="M550.69,427.75c12.73,3.13,26.28,3.73,39.35,2.86s26.28-2.79,39.38-2.63Z"></path></g><g style="opacity:0.30000000000000004"><path d="M546.53,443.43c12.72,3.12,26.28,3.73,39.35,2.86s26.28-2.79,39.38-2.63Z"></path></g><path d="M548.3,360.71c-.19,0-.35-1.89-.35-4.23s.16-4.24.35-4.24.36,1.9.36,4.24S548.5,360.71,548.3,360.71Z" style="fill:#fff"></path><path d="M542.93,377.24c-.19,0-.35-2-.35-4.54s.16-4.55.35-4.55.36,2,.36,4.55S543.13,377.24,542.93,377.24Z" style="fill:#fff"></path><path d="M550.58,393.15c-.2,0-.36-1.8-.36-4s.16-4,.36-4,.35,1.81.35,4S550.77,393.15,550.58,393.15Z" style="fill:#fff"></path><path d="M542.73,407.82c-.2,0-.36-1.62-.36-3.61s.16-3.62.36-3.62.35,1.62.35,3.62S542.92,407.82,542.73,407.82Z" style="fill:#fff"></path><path d="M573.92,367.12c0,.19-6.29.35-14,.35s-14-.16-14-.35,6.28-.36,14-.36S573.92,366.92,573.92,367.12Z" style="fill:#fff"></path><path d="M583,352.24c0,.2-6.34.36-14.16.36s-14.15-.16-14.15-.36,6.34-.35,14.15-.35S583,352.05,583,352.24Z" style="fill:#fff"></path><path d="M596.65,352.45c0,.2-2.08.35-4.65.35s-4.65-.15-4.65-.35,2.09-.35,4.65-.35S596.65,352.25,596.65,352.45Z" style="fill:#fff"></path><path d="M551.2,427.37a67.41,67.41,0,0,1,0-11.83,67.41,67.41,0,0,1,0,11.83Z" style="fill:#fff"></path><path d="M615.93,410.63c0,.15-15.49.26-34.6.26s-34.6-.11-34.6-.26,15.49-.26,34.6-.26S615.93,410.49,615.93,410.63Z" style="fill:#fff"></path><path d="M602.09,441.88c0,.15-12.24.26-27.34.26s-27.35-.11-27.35-.26,12.24-.26,27.35-.26S602.09,441.74,602.09,441.88Z" style="fill:#fff"></path><path d="M539.15,455.94a21.65,21.65,0,0,1,0-6.69,21.65,21.65,0,0,1,0,6.69Z" style="fill:#fff"></path><path d="M599.41,457.28c0,.15-12.69.26-28.34.26s-28.35-.11-28.35-.26,12.69-.26,28.35-.26S599.41,457.14,599.41,457.28Z" style="fill:#fff"></path><path d="M538,458.92a1,1,0,0,1,0-.28c0-.22,0-.48,0-.81,0-.77,0-1.82-.06-3.13,0-2.76-.05-6.65-.09-11.39v-.2H538l6.08,0-.23.23c0-4.65,0-9.89,0-15.45v-.26h5.89l-.26.26c0-5.61,0-10.91,0-15.69l.24.23-8.23,0h-.2v-.2c0-4.7.06-8.56.09-11.29,0-1.3,0-2.34,0-3.1l0-.8a.14.14,0,1,1,.06,0l0,.8c0,.76,0,1.8,0,3.1,0,2.73.06,6.59.09,11.29l-.2-.2,8.23,0h.24v.24c0,4.78,0,10.08,0,15.69v.26h-5.89l.25-.26c0,5.56,0,10.8,0,15.45v.23H544l-6.07-.09.2-.21c0,4.74-.07,8.63-.09,11.39,0,1.31,0,2.36-.05,3.13,0,.33,0,.59,0,.81A1,1,0,0,1,538,458.92Z" style="fill:#263238"></path><path d="M589.7,144.1c2.8-3.23,9.91-2.93,11.64-.89a5.42,5.42,0,0,1,7.14,2.19l7.59,1.47a7.92,7.92,0,0,1,3.66,1.38,2.71,2.71,0,0,1,.72,3.51c2.68.63,3.82,4.57,1.89,6.52a2.87,2.87,0,0,1-.33,4.16,28.36,28.36,0,0,1,5.07,8.29,5.86,5.86,0,0,1,.47,4c-.44,1.29-2.1,2.21-3.23,1.43a3.37,3.37,0,0,1,.25,3.62c1.28,0,1.7,2,.85,2.91a4.71,4.71,0,0,1-3.56,1.09,6.08,6.08,0,0,0-3.69.72,1.16,1.16,0,0,0,.43.8,5.25,5.25,0,0,1,1.34,7.13l-.4.59a11.46,11.46,0,0,1-3.65,2.7c-2.85,1.57-4.58,1.33-7.79,1.87.93,2.06-4.2,6.79-10.3,2.41a115.92,115.92,0,0,1-32.86,5.25c-1.76,0-3.89-.15-4.71-1.71a4.37,4.37,0,0,1-4.07-1.23,13.13,13.13,0,0,1-2.46-3.67,7.7,7.7,0,0,1-5.7-6.81,9.49,9.49,0,0,1-3.75-6.68,5.57,5.57,0,0,1-3.38-7.46,33.59,33.59,0,0,1,3.42-10.51c-2-.39-2.86-3.1-2.07-5s2.6-3.18,4.32-4.34c-1.51.44-2.87-1.43-2.55-3s1.67-2.62,3-3.46a28.51,28.51,0,0,1,6.21-3c.66-2.68,4-5.8,6.46-7,10-5,17-6.37,30,2.72" style="fill:#263238"></path><path d="M599.57,159.86a4.07,4.07,0,0,0-3.53-4.24l-21.51-6.1c-6.92-.93-11.78,7.49-12.41,14.44-.71,7.72-1.27,17.18-.52,23a15,15,0,0,0,11.89,13.29s-.18,8.42-.18,8.42L577.82,229c3.32-.47,19.76-21.22,19.76-21.22Z" style="fill:#ffbf9d"></path><path d="M573.61,181.4a10.62,10.62,0,0,0-2.58-.54c-.41-.06-.8-.15-.86-.43a2.07,2.07,0,0,1,.31-1.2c.41-1,.84-2,1.3-3.08,1.8-4.39,3.12-8,3-8.07s-1.79,3.42-3.6,7.81c-.43,1.08-.85,2.11-1.24,3.1a2.37,2.37,0,0,0-.26,1.6,1,1,0,0,0,.65.62,3.25,3.25,0,0,0,.7.11A10.08,10.08,0,0,0,573.61,181.4Z" style="fill:#263238"></path><path d="M573.49,200.23s6.27.82,14.14-3.61c0,0-2.12,8.6-14.23,7.62Z" style="fill:#ff9a6c"></path><path d="M578.83,163.45c.15.44,1.75.28,3.63.56s3.37.83,3.64.45c.11-.18-.14-.6-.74-1a6.4,6.4,0,0,0-5.53-.77C579.13,162.91,578.77,163.24,578.83,163.45Z" style="fill:#263238"></path><path d="M564.75,163.44c.27.37,1.38,0,2.71.05s2.45.31,2.72-.06c.11-.18,0-.55-.53-.91a3.94,3.94,0,0,0-4.38,0C564.79,162.89,564.63,163.26,564.75,163.44Z" style="fill:#263238"></path><path d="M557,169.62a7.94,7.94,0,0,1,1.85-5c.67-.74,1.52-1.31,2.11-2.11,1.28-1.74,1.06-4.12,1.58-6.21a8.74,8.74,0,0,1,5.33-6c2.17-.82,4.63-.75,6.66-1.87,1.49-.82,2.62-2.23,4.16-3,3-1.43,6.54.07,9.43,1.72.6,2.27-.8,4.25-2.15,6.16a8.15,8.15,0,0,1-5.92,3.35c-1.81.14-3.93-.24-5.19,1.08s-.76,3.77-1.83,5.35c-1.54,2.25-5.14,1.46-7.47,2.88-1.8,1.09-2.53,3.28-3.42,5.19s-2.44,3.92-4.54,3.85A23.61,23.61,0,0,1,557,169.62Z" style="fill:#263238"></path><path d="M583.65,151.38a41.22,41.22,0,0,1,15.59,2.55,7.51,7.51,0,0,1,3.87,2.58,7.37,7.37,0,0,1,.88,4c0,4.35-1.65,9.7-3.24,13.74l-5.38,3.34c-4.19-.92-2.39-8.17-2.25-11.79a8.56,8.56,0,0,1-5.11-7.46A9.47,9.47,0,0,1,583.65,151.38Z" style="fill:#263238"></path><path d="M595.42,176c.13-2.49,3.17-3,5.33-1.78,1.18.69,2.09,2.06,2,4.71-.29,7-7.3,5.29-7.31,5.09S595.28,179,595.42,176Z" style="fill:#ffbf9d"></path><path d="M597.68,181.48s.12.09.33.2a1.18,1.18,0,0,0,.91,0,3,3,0,0,0,1.52-2.66,4.05,4.05,0,0,0-.27-1.77,1.39,1.39,0,0,0-.89-1,.61.61,0,0,0-.73.3c-.11.2-.07.34-.1.35s-.15-.13-.08-.41a.72.72,0,0,1,.29-.43.94.94,0,0,1,.69-.15,1.7,1.7,0,0,1,1.24,1.14,4.25,4.25,0,0,1,.34,2c-.1,1.42-.88,2.72-1.92,3a1.32,1.32,0,0,1-1.11-.23C597.69,181.65,597.66,181.49,597.68,181.48Z" style="fill:#ff9a6c"></path><path d="M598.51,184.43l0,.09a.84.84,0,0,0,.09.27,1.64,1.64,0,0,0,.83.71,4.28,4.28,0,0,0,1.75.34,5.66,5.66,0,0,0,1.13-.09,4.32,4.32,0,0,0,1.22-.39l-.08,0a3.5,3.5,0,0,0,5.61,2.13l-.12,0a1.44,1.44,0,0,0,.93.6,2,2,0,0,0,1.14-.11,1.85,1.85,0,0,0,.9-.76,2.49,2.49,0,0,0,.34-1.17,3.61,3.61,0,0,0-.8-2.33,10.68,10.68,0,0,0-1.89-1.78v.17a2.48,2.48,0,0,0,1.09-1.69,3.61,3.61,0,0,0-.23-2.07,5.66,5.66,0,0,0-1.26-1.74,17.5,17.5,0,0,0-1.69-1.38l0,.16a2.67,2.67,0,0,0,.66-2.06,3.8,3.8,0,0,0-.83-2.07,9.44,9.44,0,0,0-3.47-2.34l.06.12a4.68,4.68,0,0,0-5.17-5.69l.11.12a4.21,4.21,0,0,0-4-4.83l.09.09a4,4,0,0,0-1.65-3,3.88,3.88,0,0,0-2.95-.77l.08.07a4,4,0,0,0-.6-1.79,4.76,4.76,0,0,0-1.09-1.28,4.11,4.11,0,0,0-2.42-1h-.27l-.25,0a2.75,2.75,0,0,0-.44.06,4.23,4.23,0,0,0-.67.2l-.39.17-.13.07.14-.05.39-.16c.17-.07.41-.1.67-.18a2.87,2.87,0,0,1,.44,0l.24,0,.26,0a4,4,0,0,1,2.36,1,5.07,5.07,0,0,1,1.05,1.26,3.86,3.86,0,0,1,.57,1.73V155h.08a3.71,3.71,0,0,1,2.84.76,3.77,3.77,0,0,1,1.56,2.91v.09h.09a3.79,3.79,0,0,1,2.85,1.36,3.84,3.84,0,0,1,.95,3.25l0,.13h.13a4.46,4.46,0,0,1,4.94,5.44l0,.08.08,0a9.19,9.19,0,0,1,3.39,2.28,3.58,3.58,0,0,1,.78,2,2.4,2.4,0,0,1-.6,1.89l-.08.09.09.07a8.28,8.28,0,0,1,2.89,3,3.37,3.37,0,0,1,.22,1.95,2.28,2.28,0,0,1-1,1.56l-.12.07.11.09a10.24,10.24,0,0,1,1.85,1.74,3.4,3.4,0,0,1,.78,2.21,1.91,1.91,0,0,1-1.13,1.77,1.55,1.55,0,0,1-1.87-.42l-.05-.08-.07.06a3.41,3.41,0,0,1-3.54.39,3.46,3.46,0,0,1-1.85-2.42v-.07l-.07,0a4.28,4.28,0,0,1-1.19.4,6.35,6.35,0,0,1-1.11.1,4.39,4.39,0,0,1-1.72-.3,1.65,1.65,0,0,1-.83-.68C598.55,184.56,598.53,184.42,598.51,184.43Z" style="fill:#455a64"></path><path d="M625.2,176.46a3,3,0,0,0,.26-.43,3.67,3.67,0,0,0,.35-1.4,3.51,3.51,0,0,0-.62-2.2,3.69,3.69,0,0,0-2.57-1.58l.06.08a4.9,4.9,0,0,0-2.09-4.9,11.31,11.31,0,0,0-1.94-.88,3.56,3.56,0,0,1-.93-.53,2.45,2.45,0,0,1-.66-.86c-.32-.67-.44-1.46-.85-2.18a4.28,4.28,0,0,0-4.32-2.06l.13.12a5.64,5.64,0,0,0-6.35-6.29l.12.12A5,5,0,0,0,598,149h.11a6.8,6.8,0,0,0-2.48-1.46,10.43,10.43,0,0,0-2.53-.54,11.87,11.87,0,0,0-4.17.36,7.92,7.92,0,0,0-2.46,1.07,4.7,4.7,0,0,0-.57.42l-.18.16s.26-.21.78-.54a8.88,8.88,0,0,1,2.46-1,12,12,0,0,1,4.12-.3,9.71,9.71,0,0,1,2.5.55A6.59,6.59,0,0,1,598,149.1l0,.05.06,0a4.77,4.77,0,0,1,7.47,4.34l0,.13.14,0a5.49,5.49,0,0,1,4.61,1.6,5.56,5.56,0,0,1,1.5,4.45l0,.15.14,0a4.09,4.09,0,0,1,4.11,2c.39.67.5,1.46.84,2.17a2.59,2.59,0,0,0,.72.92,4.09,4.09,0,0,0,1,.55,11.26,11.26,0,0,1,1.92.86,4.47,4.47,0,0,1,1.36,1.38,4.72,4.72,0,0,1,.69,3.34V171h.07a3.58,3.58,0,0,1,2.5,1.5,3.46,3.46,0,0,1,.63,2.13,3.72,3.72,0,0,1-.31,1.39C625.29,176.31,625.19,176.45,625.2,176.46Z" style="fill:#455a64"></path><path d="M557.92,179.48a.64.64,0,0,0,0-.57,1.28,1.28,0,0,0-.42-.58,2.33,2.33,0,0,0-.88-.42,4.14,4.14,0,0,1-1.1-.44,2.16,2.16,0,0,1-.81-1.12,4.19,4.19,0,0,1-.21-1.61c0-.58.1-1.2.09-1.85a18.9,18.9,0,0,0-1-4.15,6,6,0,0,1-.13-2.31,2.82,2.82,0,0,1,1.24-2,10.67,10.67,0,0,1,2.46-.88,4.14,4.14,0,0,0,1.25-.61,2.82,2.82,0,0,0,.87-1.12A13.24,13.24,0,0,0,560,159a4.85,4.85,0,0,1,.47-1.34,2.19,2.19,0,0,1,1-.93,8.19,8.19,0,0,1,1.94-.29,3.1,3.1,0,0,0,1-.27,1.9,1.9,0,0,0,.76-.67,6.55,6.55,0,0,0,.71-1.81,4.42,4.42,0,0,1,.86-1.6,4.24,4.24,0,0,1,3-1.52,4.37,4.37,0,0,1,3,1l.1.09.05-.12a6.72,6.72,0,0,1,4.12-3.68,6.24,6.24,0,0,1,2.35-.24,5.64,5.64,0,0,1,1.94.51,5,5,0,0,1,2.09,1.85,6.07,6.07,0,0,1,.36.66l.08.17s0,.06,0,.06a.32.32,0,0,1,0-.06l-.08-.18a3.82,3.82,0,0,0-.34-.68,4.91,4.91,0,0,0-2.08-1.92,5.88,5.88,0,0,0-2-.54,6.35,6.35,0,0,0-2.41.23,6.83,6.83,0,0,0-4.24,3.75l.14,0a4.47,4.47,0,0,0-3.13-1.09,4.38,4.38,0,0,0-3.19,1.58,4.44,4.44,0,0,0-.9,1.67,6.5,6.5,0,0,1-.68,1.75,2.06,2.06,0,0,1-1.6.84,7.86,7.86,0,0,0-2,.32,2.37,2.37,0,0,0-1.13,1,4.9,4.9,0,0,0-.48,1.41,13.91,13.91,0,0,1-.68,2.74,2.63,2.63,0,0,1-.81,1.05,4.24,4.24,0,0,1-1.19.58,10.29,10.29,0,0,0-2.49.9,2.73,2.73,0,0,0-.91.94,3.36,3.36,0,0,0-.41,1.2,6.09,6.09,0,0,0,.14,2.38,19.51,19.51,0,0,1,1,4.11c0,.64-.06,1.26-.07,1.85a4.4,4.4,0,0,0,.22,1.65,2.32,2.32,0,0,0,.87,1.16,4.43,4.43,0,0,0,1.14.44,2.29,2.29,0,0,1,.86.39,1.33,1.33,0,0,1,.42.54A.77.77,0,0,1,557.92,179.48Z" style="fill:#455a64"></path><path d="M544.08,168.81s0,0,.07-.13l.19-.4c.17-.36.4-.88.7-1.54s.65-1.5,1.15-2.41a6.27,6.27,0,0,1,2.31-2.56c.57-.32,1.22-.54,1.88-.84a4.33,4.33,0,0,0,1-.58,2.41,2.41,0,0,0,.7-.93c.32-.73.32-1.56.57-2.32a2.06,2.06,0,0,1,.66-1,3.81,3.81,0,0,1,1.13-.54,7.06,7.06,0,0,0,1.23-.5,2.22,2.22,0,0,0,1-1,9.81,9.81,0,0,0,.55-2.74,3.53,3.53,0,0,1,.45-1.3,1.82,1.82,0,0,1,1.11-.75c.92-.21,1.92.1,3-.08a2.55,2.55,0,0,0,1.34-.74,6,6,0,0,0,.85-1.23c.25-.42.48-.84.76-1.22a2.78,2.78,0,0,1,1-.91,4.21,4.21,0,0,1,2.65,0,6.26,6.26,0,0,0,2.68.19,7,7,0,0,0,2.31-1.1,11.88,11.88,0,0,1,2-1.18,7.26,7.26,0,0,1,4.18-.2,7.7,7.7,0,0,1,3.11,1.54,8.74,8.74,0,0,1,1.75,2,10.79,10.79,0,0,1,.75,1.5c.07.17.13.3.17.41s.06.13.07.13l-.05-.14-.15-.41a8.77,8.77,0,0,0-.72-1.53,8.57,8.57,0,0,0-1.74-2,7.85,7.85,0,0,0-3.16-1.6,7.39,7.39,0,0,0-4.27.18,13.2,13.2,0,0,0-2.09,1.19,7.07,7.07,0,0,1-2.25,1.07,5.91,5.91,0,0,1-2.59-.2,8.82,8.82,0,0,0-1.38-.21,2.77,2.77,0,0,0-1.41.25,2.85,2.85,0,0,0-1.1,1,13.55,13.55,0,0,0-.77,1.25,6.11,6.11,0,0,1-.83,1.18,2.22,2.22,0,0,1-1.22.68c-1,.17-2-.13-3,.08a2,2,0,0,0-1.24.85,3.65,3.65,0,0,0-.47,1.38,10.36,10.36,0,0,1-.54,2.68,2,2,0,0,1-.86.93,7.94,7.94,0,0,1-1.2.49,3.85,3.85,0,0,0-1.17.57,2.24,2.24,0,0,0-.73,1.07c-.26.8-.25,1.62-.55,2.31a2.91,2.91,0,0,1-1.56,1.43c-.64.3-1.3.52-1.88.86a6.34,6.34,0,0,0-2.35,2.64c-.49.92-.82,1.76-1.12,2.43s-.5,1.19-.66,1.55c-.07.17-.12.31-.17.41Z" style="fill:#455a64"></path><path d="M551.45,161.32l-.13,0a.92.92,0,0,0-.37.09,1.53,1.53,0,0,0-.68,1.26,3.38,3.38,0,0,0,.17,1,4.65,4.65,0,0,1,.2,1.22,2.71,2.71,0,0,1-.47,1.3c-.27.43-.61.85-.88,1.36a2,2,0,0,0-.15,1.78c.23.59.68,1.09.9,1.69a2.63,2.63,0,0,1-.16,1.94c-.26.65-.64,1.28-.9,2a3.17,3.17,0,0,0-.21,1.15,3,3,0,0,0,.29,1.16,13.43,13.43,0,0,0,1.37,2,3.25,3.25,0,0,1,.78,2.22,11.06,11.06,0,0,1-.81,2.39,3.57,3.57,0,0,0-.24,1.3,2.94,2.94,0,0,0,.35,1.26,11.15,11.15,0,0,0,1.55,2,5.8,5.8,0,0,1,1.26,2,17.57,17.57,0,0,0,.77,2.18,2.59,2.59,0,0,0,.73.88,3.11,3.11,0,0,0,1,.46,8.66,8.66,0,0,1,1,.34,3.48,3.48,0,0,1,.83.54,7.12,7.12,0,0,1,1.17,1.48c.34.52.64,1,1,1.49a4.81,4.81,0,0,0,2.48,1.76,5.09,5.09,0,0,0,2.3.18,4.56,4.56,0,0,0,1.4-.43c.29-.16.44-.26.44-.26a5.48,5.48,0,0,1-1.85.61,5.07,5.07,0,0,1-2.25-.21,4.7,4.7,0,0,1-2.4-1.74c-.34-.45-.64-1-1-1.49a7.33,7.33,0,0,0-1.2-1.53,3.67,3.67,0,0,0-.86-.57,9.12,9.12,0,0,0-1-.35,2.92,2.92,0,0,1-1-.43,2.44,2.44,0,0,1-.67-.82,16.09,16.09,0,0,1-.74-2.16,6.06,6.06,0,0,0-1.3-2,10.35,10.35,0,0,1-1.52-1.92,2.67,2.67,0,0,1-.33-1.17,3.47,3.47,0,0,1,.23-1.22,10.31,10.31,0,0,0,.82-2.44,2.65,2.65,0,0,0-.19-1.28,5.26,5.26,0,0,0-.63-1.08,14.29,14.29,0,0,1-1.36-1.95,2.73,2.73,0,0,1-.27-1.08,2.82,2.82,0,0,1,.2-1.07c.24-.7.62-1.33.89-2a2.86,2.86,0,0,0,.15-2.07c-.25-.64-.7-1.13-.92-1.69a1.91,1.91,0,0,1,.13-1.65c.26-.49.59-.92.86-1.36a2.76,2.76,0,0,0,.48-1.37,4.29,4.29,0,0,0-.22-1.25,3.36,3.36,0,0,1-.19-1,1.49,1.49,0,0,1,.62-1.22A.89.89,0,0,1,551.45,161.32Z" style="fill:#455a64"></path><path d="M625,176.23a2.38,2.38,0,0,0,.56-.07,3.79,3.79,0,0,0,1.47-.66,3.73,3.73,0,0,0,1.45-2.09,4,4,0,0,0-.63-3.32,9.61,9.61,0,0,0-1.43-1.42A4.81,4.81,0,0,1,625.1,167a3.11,3.11,0,0,1,.08-2.24c.25-.76.66-1.5.9-2.34a6.9,6.9,0,0,0-5.33-8.71l.06.16a3.41,3.41,0,0,0,.59-1.55,4.51,4.51,0,0,0-.13-1.67,4.69,4.69,0,0,0-.73-1.53,5.6,5.6,0,0,0-1.21-1.22,10.94,10.94,0,0,0-4.66-1.81,16.47,16.47,0,0,0-4.74-.13l.12.1a5,5,0,0,0-2.9-4.29,5.1,5.1,0,0,0-2.48-.43,7.91,7.91,0,0,0-2.3.64,4.75,4.75,0,0,1-1.08.27,2.9,2.9,0,0,1-1.06-.1,8.52,8.52,0,0,1-1.88-.88,7.6,7.6,0,0,0-1.79-.78,6.1,6.1,0,0,0-4.69.63,6.07,6.07,0,0,0-1.69,1.51,5.76,5.76,0,0,0-.72,1.22,3.36,3.36,0,0,0-.17.46s.06-.15.2-.44a6.21,6.21,0,0,1,.74-1.2,6.3,6.3,0,0,1,1.69-1.47,6.1,6.1,0,0,1,4.6-.58,7.4,7.4,0,0,1,1.76.79,8.41,8.41,0,0,0,1.91.9,3,3,0,0,0,1.12.11,5.38,5.38,0,0,0,1.12-.27,7.9,7.9,0,0,1,2.26-.63,5,5,0,0,1,2.38.43,4.81,4.81,0,0,1,2.77,4.12v.11H610a16.35,16.35,0,0,1,4.67.13,10.75,10.75,0,0,1,4.57,1.77,5.64,5.64,0,0,1,1.17,1.17,4.5,4.5,0,0,1,.69,1.47,4.08,4.08,0,0,1,.13,1.59,3.25,3.25,0,0,1-.55,1.45l-.09.13.16,0a6.71,6.71,0,0,1,5.19,8.46c-.23.81-.63,1.56-.89,2.33a3.26,3.26,0,0,0-.06,2.36,5,5,0,0,0,1.39,1.7,9,9,0,0,1,1.42,1.4,3.83,3.83,0,0,1,.64,3.2,3.65,3.65,0,0,1-1.4,2.06,4,4,0,0,1-1.43.69C625.21,176.21,625,176.22,625,176.23Z" style="fill:#263238"></path><path d="M548.9,156.52a.6.6,0,0,0,0-.13c0-.1,0-.23,0-.4,0-.36.06-.87.11-1.52s.14-1.47.31-2.39a13.26,13.26,0,0,1,.88-3.05,9,9,0,0,1,2.19-3.12,6.74,6.74,0,0,1,1.79-1.14,19.19,19.19,0,0,1,2.18-.67,6.2,6.2,0,0,0,2.2-1,9.8,9.8,0,0,0,1.77-1.81c.54-.67,1-1.37,1.64-2a7.28,7.28,0,0,1,2.09-1.59,12.79,12.79,0,0,1,5.07-1.16,32.8,32.8,0,0,1,4.89.12,25,25,0,0,1,8,2.1,17.67,17.67,0,0,1,4.64,3.08c.24.23.46.42.63.61l.44.47.27.3.09.09s0,0-.08-.11-.14-.18-.25-.3l-.42-.5c-.17-.18-.39-.39-.62-.62a17.49,17.49,0,0,0-4.64-3.16,24.83,24.83,0,0,0-8-2.15,31.8,31.8,0,0,0-4.92-.14,12.85,12.85,0,0,0-5.16,1.18,7.4,7.4,0,0,0-2.15,1.64c-.6.65-1.11,1.36-1.64,2a9.75,9.75,0,0,1-1.73,1.78,6,6,0,0,1-2.14,1,21.47,21.47,0,0,0-2.19.68,7.27,7.27,0,0,0-1.84,1.19,9.15,9.15,0,0,0-2.21,3.19,13.06,13.06,0,0,0-.86,3.09c-.16.93-.22,1.74-.27,2.4s-.07,1.18-.08,1.53v.4C548.89,156.48,548.89,156.52,548.9,156.52Z" style="fill:#263238"></path><path d="M602.65,183.21a3.75,3.75,0,0,1,1.07.59,4.76,4.76,0,0,1,1.75,2.78,5.15,5.15,0,0,1,0,2.31,5.85,5.85,0,0,1-3.67,4,5.32,5.32,0,0,1-3.14.12,5.71,5.71,0,0,1-2.71-1.59,5.22,5.22,0,0,1-1.33-2.61,5.49,5.49,0,0,1,1.31-4.66,5,5,0,0,1,1.59-1.06,5.16,5.16,0,0,1,1.38-.38,3,3,0,0,1,.91,0,1,1,0,0,1,.3.1,3.89,3.89,0,0,0-1.2,0,5,5,0,0,0-1.33.42,4.87,4.87,0,0,0-1.51,1.05,5.32,5.32,0,0,0-1.2,4.48,4.93,4.93,0,0,0,1.27,2.48,5.54,5.54,0,0,0,2.59,1.51,5.11,5.11,0,0,0,3-.11,5.64,5.64,0,0,0,2.32-1.56,5.53,5.53,0,0,0,1.22-2.23,4.93,4.93,0,0,0,0-2.22,4.78,4.78,0,0,0-1.64-2.74A8.78,8.78,0,0,0,602.65,183.21Z" style="fill:#e0e0e0"></path><path d="M579.67,173.49a1.52,1.52,0,0,0,1.43,1.58,1.45,1.45,0,0,0,1.61-1.33,1.52,1.52,0,0,0-1.43-1.58A1.46,1.46,0,0,0,579.67,173.49Z" style="fill:#263238"></path><path d="M565.18,173.49a1.52,1.52,0,0,0,1.43,1.58,1.45,1.45,0,0,0,1.61-1.33,1.52,1.52,0,0,0-1.43-1.58A1.46,1.46,0,0,0,565.18,173.49Z" style="fill:#263238"></path><path d="M563.94,169.07c.18.27,1.55-.7,3.33-.53s3,1.33,3.21,1.09-.06-.58-.58-1.11a4.13,4.13,0,0,0-2.53-1.19,4.08,4.08,0,0,0-2.69.74C564.08,168.51,563.85,169,563.94,169.07Z" style="fill:#263238"></path><path d="M579.39,169.89c.22.24,1.56-.84,3.47-.85s3.32,1,3.53.74-.13-.56-.74-1a4.59,4.59,0,0,0-2.82-.9,4.53,4.53,0,0,0-2.77,1C579.48,169.33,579.28,169.78,579.39,169.89Z" style="fill:#263238"></path><path d="M580.38,184.51a2.4,2.4,0,0,0-3.72-1.61,3.2,3.2,0,0,0-1.22,3h0a2.9,2.9,0,0,0,2.09,1.21,2.55,2.55,0,0,0,.39,0,2.64,2.64,0,0,0,1.77-.7A2.37,2.37,0,0,0,580.38,184.51Z" style="fill:#ff9a6c"></path><path d="M579.46,181.66c-.25,0-.16,1.66-1.52,2.92s-3.15,1.18-3.15,1.41.42.3,1.17.28a4.16,4.16,0,0,0,2.63-1.08,3.6,3.6,0,0,0,1.16-2.45C579.78,182.05,579.57,181.64,579.46,181.66Z" style="fill:#263238"></path><polygon points="524.62 419.66 534.78 444.31 553.13 436.74 542.83 406.32 524.62 419.66" style="fill:#ffbf9d"></polygon><path d="M532.74,442.6l6,12.71s-17.4,16.56-16,20.48l40-17.18L553,433.23Z" style="fill:#455a64"></path><path d="M550.37,448.26a1.78,1.78,0,0,1,1.93,1.38,1.72,1.72,0,0,1-1.35,1.93,1.89,1.89,0,0,1-2-1.48,1.77,1.77,0,0,1,1.63-1.84" style="fill:#e0e0e0"></path><g style="opacity:0.6000000000000001"><path d="M562.76,458.61l-1.51-3.19-37.8,17.67s-1.45,1.53-.71,2.7Z" style="fill:#fff"></path></g><path d="M538,455.38c.09.2,1.1-.14,2.33.08s2.1.82,2.24.66-.63-1.16-2.12-1.39S537.89,455.22,538,455.38Z" style="fill:#263238"></path><path d="M534.55,458.92c0,.21,1,.18,2.05.72s1.58,1.33,1.77,1.24-.16-1.25-1.43-1.9S534.48,458.73,534.55,458.92Z" style="fill:#263238"></path><path d="M534.33,465c.19,0,0-1.13-.92-2s-2-.88-2.07-.68.8.52,1.58,1.24S534.12,465,534.33,465Z" style="fill:#263238"></path><path d="M536.33,450.52c.16.14.94-.52,2.08-.92s2.14-.42,2.17-.63-1.09-.55-2.42-.06S536.17,450.4,536.33,450.52Z" style="fill:#263238"></path><path d="M523.19,432.76,498.54,356s1.18-12.53,3.66-16.4,73.51-24.1,73.51-24.1,18-3.55,29.74,1.24,23.59,10.59,22.06,18.89a23,23,0,0,1-1.07,3.71,30.35,30.35,0,0,1-28.87,19.4l-9.3.66-47.61,7.05a3.62,3.62,0,0,0-3,4.49l13.14,51.46S533.82,429.88,523.19,432.76Z" style="fill:#263238"></path><polygon points="500.82 379.49 499.05 406.09 518.86 407.39 523.04 375.56 500.82 379.49" style="fill:#ffbf9d"></polygon><path d="M499.2,402.54l-1.45,15.17s-22.93,7.18-23.4,11.32l43.49,2.24,2.46-27.08Z" style="fill:#455a64"></path><path d="M497.9,409.13a1.57,1.57,0,0,1,.06-.78,4.84,4.84,0,0,1,1-1.94,2.79,2.79,0,0,1,.54-.55,1.09,1.09,0,0,1,1-.16.66.66,0,0,1,.42.41.79.79,0,0,1,0,.53,5.66,5.66,0,0,1-.49.77c-.36.5-.66,1-1.12,1.56a1.31,1.31,0,0,1-1.19.42,2.46,2.46,0,0,1-1.1-.49,9.64,9.64,0,0,1-1.6-1.43c-.22-.26-.43-.52-.62-.79a2.46,2.46,0,0,1-.45-.9.8.8,0,0,1,.54-.93,1.19,1.19,0,0,1,1,.26,5.87,5.87,0,0,1,1.06,1.17,7.66,7.66,0,0,1,1,1.92,1.88,1.88,0,0,1,.15.77,14.23,14.23,0,0,0-1.46-2.51,6.71,6.71,0,0,0-1-1,.75.75,0,0,0-.62-.17.41.41,0,0,0-.22.48,2.1,2.1,0,0,0,.4.72,8.1,8.1,0,0,0,.6.74,8.71,8.71,0,0,0,1.52,1.36,2.16,2.16,0,0,0,.86.4.78.78,0,0,0,.72-.26c.38-.46.75-1,1.11-1.5a5.15,5.15,0,0,0,.46-.69c.1-.22.06-.36-.11-.43-.39-.17-.8.22-1.08.55A7.08,7.08,0,0,0,497.9,409.13Z" style="fill:#263238"></path><path d="M511.3,416.52a1.77,1.77,0,0,1,1.12,2.09,1.71,1.71,0,0,1-2.06,1.13,1.87,1.87,0,0,1-1.18-2.22,1.77,1.77,0,0,1,2.27-.94" style="fill:#e0e0e0"></path><g style="opacity:0.6000000000000001"><path d="M517.84,431.27l.06-3.53-41.72-.83s-2,.74-1.83,2.12Z" style="fill:#fff"></path></g><path d="M497.06,417.45c0,.21,1.05.36,2.06,1.1s1.52,1.66,1.72,1.58,0-1.31-1.29-2.18S497,417.25,497.06,417.45Z" style="fill:#263238"></path><path d="M492.4,419.1c-.06.2.84.61,1.52,1.55s.83,1.89,1,1.9.41-1.2-.45-2.34S492.41,418.9,492.4,419.1Z" style="fill:#263238"></path><path d="M489.53,424.43c.19.05.54-1,.05-2.19s-1.45-1.7-1.55-1.53.48.83.87,1.81S489.32,424.39,489.53,424.43Z" style="fill:#263238"></path><path d="M497.71,412.34c.07.2,1.06,0,2.26.1s2.11.57,2.23.4-.74-1-2.15-1.13S497.61,412.17,497.71,412.34Z" style="fill:#263238"></path><path d="M515.47,306.05s-11.84-1.45-13.7,11.39-10.54,72.32-10.54,72.32l32.56,4.08,6.84-61.3,45.08-17S523.47,304.72,515.47,306.05Z" style="fill:#263238"></path><path d="M565.16,290.68s-8,19.92-6.77,22.23,19.44,12.35,19.44,12.35L623.48,345a38.94,38.94,0,0,0,5.57-19c.48-11.64-14.79-33.26-14.79-33.26Z" style="fill:#263238"></path><path d="M577.94,314.6s-.07,0-.22.11l-.67.28-2.62,1-9.82,3.8-33.89,13,.16-.21c-.67,6.06-1.4,12.6-2.15,19.36-1.79,15.82-3.44,30.4-4.74,41.93l0,.21-.21,0-20.15-2.62-5.55-.75-1.45-.21a3.07,3.07,0,0,1-.49-.09,2.1,2.1,0,0,1,.5,0l1.46.15,5.56.64,20.17,2.44-.23.18c1.28-11.54,2.89-26.13,4.63-41.95.76-6.76,1.5-13.3,2.18-19.35v-.16l.15-.05,34-12.78,9.87-3.66c1.13-.42,2-.74,2.65-1l.68-.24A1.21,1.21,0,0,1,577.94,314.6Z" style="fill:#455a64"></path><path d="M614.76,318.15a6,6,0,0,1-1.29-.4L610,316.47A77.13,77.13,0,0,0,598.45,313a34.43,34.43,0,0,0-12-.34,47.79,47.79,0,0,0-4.85,1.19,5.52,5.52,0,0,1,1.23-.56,21.77,21.77,0,0,1,3.56-1,32,32,0,0,1,12.13.2,64.75,64.75,0,0,1,11.6,3.6c1.45.58,2.6,1.08,3.39,1.43A7.31,7.31,0,0,1,614.76,318.15Z" style="fill:#455a64"></path><path d="M608.64,307.23a31.65,31.65,0,0,0-4-.19c-1.26,0-2.75.16-4.42.28s-3.48.28-5.37.56a24.76,24.76,0,0,0-9.23,3,27.6,27.6,0,0,0-3.26,2.41,3.28,3.28,0,0,1,.71-.84,13.31,13.31,0,0,1,2.35-1.88,23.35,23.35,0,0,1,9.35-3.2c1.92-.28,3.76-.41,5.42-.51s3.17-.19,4.44-.18a16.62,16.62,0,0,1,3,.26A3.22,3.22,0,0,1,608.64,307.23Z" style="fill:#455a64"></path><path d="M535.28,448a1.9,1.9,0,0,1-.32-.8,5.68,5.68,0,0,1-.09-2.37,2.92,2.92,0,0,1,.22-.8,1,1,0,0,1,.81-.6.68.68,0,0,1,.57.23.93.93,0,0,1,.22.54,6.4,6.4,0,0,1-.06,1c-.08.66-.11,1.3-.24,2.06a1.25,1.25,0,0,1-.86.95,2.44,2.44,0,0,1-1.23,0,9.23,9.23,0,0,1-2.13-.73,9.38,9.38,0,0,1-.94-.51,3,3,0,0,1-.84-.69.93.93,0,0,1,0-1.18,1.11,1.11,0,0,1,1.05-.2,6,6,0,0,1,1.52.7,8.22,8.22,0,0,1,1.84,1.48c.37.41.54.68.51.7a16.35,16.35,0,0,0-2.53-1.86,6.53,6.53,0,0,0-1.43-.6c-.25-.05-.52,0-.63.1a.46.46,0,0,0,0,.58,2.61,2.61,0,0,0,.71.55,9.59,9.59,0,0,0,.9.47,9.41,9.41,0,0,0,2,.68,2.13,2.13,0,0,0,1,0,.71.71,0,0,0,.51-.58c.12-.63.18-1.37.26-2a6.37,6.37,0,0,0,.09-.89c0-.27-.13-.39-.32-.39-.43,0-.6.58-.69,1A8.56,8.56,0,0,0,535.28,448Z" style="fill:#263238"></path><path d="M568,210.35s-12.1,3.27-14.37,12.4c-3.58,14.43-14.54,57-14.54,57l-11.57,9.36,7.38,12.23s12.89-4.23,18.28-11.16,10.88-32.81,10.88-32.81Z" style="fill:#455a64"></path><path d="M615.85,222.16s.13-7.46-.6-8.34L600,208.49l-11,3.29c-2.58,1.14-7.52,8.5-10.32,8.12-3.12-.43-3.7-8.63-5-11h0L568,210.35s-9.65,25.61-9.77,32.86,3.69,17,3.06,32.22c-.33,7.95-1.1,15.05,3.84,15.25l49.1,2s11.22-2.61,12-9.25S615.85,222.16,615.85,222.16Z" style="fill:#455a64"></path><path d="M637.75,273l-7.7-24.35s-4.63-30.88-15.38-35.17c-4.6-1.83-14.66-1.51-17.71,4.73s.71,10.81,1.45,13.89,11.15,24.73,11.15,24.73A106.22,106.22,0,0,1,614.67,269l-41.55,22,5.23,13.71,52-18.91a11.68,11.68,0,0,0,7.34-7.7A9.57,9.57,0,0,0,637.75,273Z" style="fill:#455a64"></path><path d="M541,299.58,551.69,295l20.52-.77,1.72-1.09,4.42,11.58s-5.47,2.34-8.28,2.45l-17.18-1.24-9,.58Z" style="fill:#ffbf9d"></path><path d="M483.71,256.76l58.95,2.93c1.91.08,3.7,1.07,3.91,3l4.66,43.25,30.37,1.26a1.77,1.77,0,1,1-.15,3.54l-29.84-1.24-5.66-.23-61.5-2.56-4.75-45.63A3.88,3.88,0,0,1,483.71,256.76Z" style="fill:#e0e0e0"></path><path d="M483.71,256.76a3.27,3.27,0,0,0-.93.05,3.91,3.91,0,0,0-3.12,3.25,10.7,10.7,0,0,0,.12,2.43q.25,2.63.6,6c.92,9.06,2.25,22.12,3.89,38.18l0,.16h.15l94.11,4,2.53.1a2.49,2.49,0,0,0,1.35-.2,2,2,0,0,0,1-1,2,2,0,0,0-.81-2.49,2.47,2.47,0,0,0-1.32-.31l-1.25-.05-9.85-.4-18.91-.78.22.2c-1.68-15.49-3.25-29.93-4.66-42.89a3.31,3.31,0,0,0-1-2.29,4.39,4.39,0,0,0-2.22-1.09,19.54,19.54,0,0,0-2.37-.19l-2.32-.11-8.87-.42-15.77-.76-22.46-1.05-6-.26-1.55-.05h-.53l.53.05,1.55.09,6,.34,22.45,1.18,15.77.81,8.88.45,2.31.12a19.46,19.46,0,0,1,2.32.18,4,4,0,0,1,2,1,2.91,2.91,0,0,1,.88,2c1.39,13,2.93,27.41,4.59,42.9l0,.2h.2l18.91.79,9.85.41,1.25.05a2,2,0,0,1,1.09.24,1.52,1.52,0,0,1,.62,1.89,1.47,1.47,0,0,1-.72.79,2,2,0,0,1-1.12.15l-2.53-.11-94.11-3.85.17.16c-1.7-16.05-3.09-29.11-4.05-38.17-.24-2.26-.46-4.27-.65-6a10.65,10.65,0,0,1-.14-2.4,3.77,3.77,0,0,1,.76-1.81,3.91,3.91,0,0,1,2.24-1.41A6.27,6.27,0,0,1,483.71,256.76Z" style="fill:#263238"></path><path d="M515.77,282.49a3.69,3.69,0,1,1-3.54-3.85A3.69,3.69,0,0,1,515.77,282.49Z" style="fill:#fff"></path><path d="M548.71,309c-.08,0-1.51-11-3.18-24.61s-3-24.64-2.87-24.65,1.51,11,3.18,24.61S548.79,308.94,548.71,309Z" style="fill:#263238"></path><path d="M626.09,287.35l-.23.1-.67.27-2.62,1-9.87,3.67-34.27,12.56-.21.08-.09-.22-5.25-13.7-.08-.2.2-.11,8.21-4.35,33.36-17.61-.1.27-10.12-24.89c-1.2-3-2.15-5.34-2.8-7-.31-.79-.55-1.4-.73-1.84l-.17-.48c0-.11-.06-.16,0-.17a1.78,1.78,0,0,1,.08.16c.05.12.12.27.21.46.18.44.44,1,.78,1.82.68,1.63,1.66,4,2.91,6.94l10.29,24.81.07.18-.17.1-33.32,17.67-8.22,4.35.12-.31,5.22,13.71-.3-.14L612.6,292.1l9.91-3.54,2.65-.92.69-.23A.67.67,0,0,1,626.09,287.35Z" style="fill:#263238"></path><polygon points="598.42 202.66 582.74 209.89 578.69 218.95 578.08 209.7 573.34 205.93 570.82 209.54 575.38 222.62 582.59 222.92 599.96 208.97 600.54 208.66 598.42 202.66" style="fill:#455a64"></polygon><path d="M570.82,209.54a19.3,19.3,0,0,1,1.26,2.75c.74,1.7,1.67,4.13,2.86,6.66l.09.16-.44,0c1.11-2.54,1.86-5,2.46-6.68a18.83,18.83,0,0,1,1-2.76,16.19,16.19,0,0,1-.7,2.87,58.25,58.25,0,0,1-2.33,6.78l-.21.47-.23-.45-.11-.19c-1.23-2.61-2.08-5-2.75-6.76A17.56,17.56,0,0,1,570.82,209.54Z" style="fill:#263238"></path><path d="M600.54,208.66a5.58,5.58,0,0,1-1,.77l-2.7,1.95c-2.3,1.63-5.5,3.86-9,6.29l-4.21,2.87-.34.23,0-.41c-.21-3.05-.36-5.67-.46-7.52,0-.86-.06-1.58-.08-2.17a2.51,2.51,0,0,1,0-.78,2.94,2.94,0,0,1,.13.77c.06.59.14,1.31.23,2.16.17,1.85.39,4.46.63,7.51l-.37-.18,4.19-2.89c3.55-2.44,6.78-4.61,9.13-6.17l2.79-1.82A5.66,5.66,0,0,1,600.54,208.66Z" style="fill:#263238"></path><path d="M562,288.72a3.14,3.14,0,0,1-.21-.42,6,6,0,0,1-.36-1.3,31.24,31.24,0,0,1-.44-5c-.06-2.15,0-4.73.13-7.64s.23-6.15.36-9.61l.06.17a22.16,22.16,0,0,1-4.42-7.13,21.79,21.79,0,0,1-1.41-6.44,27.09,27.09,0,0,1,.39-6.11,88.12,88.12,0,0,1,2.62-10,64.65,64.65,0,0,0,1.69-6.73c.31-1.6.38-2.51.43-2.51a3,3,0,0,1,0,.66c0,.44-.08,1.07-.21,1.89a56.39,56.39,0,0,1-1.55,6.78,97.4,97.4,0,0,0-2.51,10,26.94,26.94,0,0,0-.35,6,21.44,21.44,0,0,0,1.39,6.29,21.94,21.94,0,0,0,4.31,7l.07.08v.1c-.15,3.46-.3,6.7-.43,9.61s-.25,5.48-.23,7.61a36.08,36.08,0,0,0,.29,5A12.67,12.67,0,0,0,562,288.72Z" style="fill:#263238"></path><path d="M576.26,288.51a3,3,0,0,1-.08-.7c0-.52-.08-1.19-.13-2-.11-1.76-.22-4.32-.31-7.47-.18-6.31-.21-15,.19-24.67s1.18-18.33,1.89-24.6c.36-3.14.68-5.67.94-7.42q.18-1.25.3-2a4.14,4.14,0,0,1,.14-.7,3.77,3.77,0,0,1,0,.71c0,.52-.12,1.19-.21,2-.19,1.81-.45,4.33-.77,7.43-.63,6.27-1.34,15-1.75,24.58S576,272,576.1,278.3c.06,3.11.11,5.65.14,7.47,0,.84,0,1.52,0,2A5.47,5.47,0,0,1,576.26,288.51Z" style="fill:#263238"></path><path d="M613.9,214c0,.09-1.28-.08-3.29.23A14.12,14.12,0,0,0,599.18,224c-.62,1.94-.65,3.23-.75,3.22a2.73,2.73,0,0,1,0-.9,12.13,12.13,0,0,1,.42-2.42,13.74,13.74,0,0,1,11.72-10,11.5,11.5,0,0,1,2.46,0A2.46,2.46,0,0,1,613.9,214Z" style="fill:#263238"></path><path d="M623,272.72a17.92,17.92,0,0,0-3.92-2.56,17,17,0,0,0-4.6-1,3,3,0,0,1,1.41-.2,8.9,8.9,0,0,1,3.38.69,9.15,9.15,0,0,1,2.88,1.89C622.72,272.21,623,272.69,623,272.72Z" style="fill:#263238"></path><path d="M604.14,262.35a2.39,2.39,0,0,1-.67.36,14.71,14.71,0,0,1-2,.71,21.34,21.34,0,0,1-13.49-.55,15.62,15.62,0,0,1-1.88-.86c-.43-.24-.66-.39-.64-.42s1,.4,2.64.94a23.94,23.94,0,0,0,13.28.54C603.1,262.67,604.11,262.27,604.14,262.35Z" style="fill:#263238"></path></g></svg>