<svg xmlns="http://www.w3.org/2000/svg" viewBox="0 0 500 500"><g id="freepik--background-simple--inject-44"><path d="M373.75,90.84l-1.87-3.09c-15.8-26-44.37-41.74-74.5-39.83a77.58,77.58,0,0,0-11.53,1.58c-27.39,5.86-51.22,26.57-61.09,53.1-5.81,15.6-7.44,33.56-18.46,45.94-14.35,16.12-38.71,16.62-60.12,16s-45.79-.09-60.07,16.08c-8.94,10.14-11.78,24.55-11.06,38.11,1.91,35.93,26.94,68.05,58.78,84S203.14,320.1,238,313.07c48.81-9.84,95.23-36.86,123.13-78.59S396.08,135.88,373.75,90.84Z" style="fill:#ebebeb"></path><circle cx="136.87" cy="97.5" r="31.35" transform="translate(-28.86 125.34) rotate(-45)" style="fill:#ebebeb"></circle></g><g id="freepik--Floor--inject-44"><path d="M459.85,478.55c0,.14-94,.26-209.84.26s-209.86-.12-209.86-.26,93.94-.26,209.86-.26S459.85,478.4,459.85,478.55Z" style="fill:#263238"></path></g><g id="freepik--Chair--inject-44"><polygon points="248.29 351.87 289.52 478.55 282.01 478.55 233.71 351.87 248.29 351.87" style="fill:#e0e0e0"></polygon><path d="M248.29,351.87l-1,0-2.8,0-10.82.06.1-.15C242.05,373.35,259.9,420,280.58,474c.56,1.48,1.12,3,1.68,4.41l-.24-.16h7.5l-.25.34c-11.51-35.51-21.78-67.16-29.17-89.94-3.68-11.41-6.64-20.59-8.68-26.94-1-3.17-1.8-5.63-2.34-7.31l-.6-1.91c-.13-.43-.19-.66-.19-.66s.08.2.22.62l.63,1.87c.55,1.67,1.36,4.1,2.4,7.24,2.08,6.33,5.08,15.48,8.82,26.84,7.45,22.81,17.8,54.49,29.4,90l.11.34h-8l-.07-.17c-.55-1.46-1.12-2.93-1.68-4.41-20.55-54.08-38.3-100.78-46.49-122.32l0-.15h.16l10.88.06,2.77,0C248,351.85,248.29,351.87,248.29,351.87Z" style="fill:#263238"></path><polygon points="167.15 351.87 125.92 478.55 133.42 478.55 181.73 351.87 167.15 351.87" style="fill:#e0e0e0"></polygon><path d="M167.15,351.87s.31,0,.93,0l2.77,0,10.88-.06h.16l-.06.15c-8.18,21.54-25.93,68.24-46.48,122.32l-1.69,4.41-.06.17h-8l.11-.34,29.41-90,8.82-26.84c1-3.14,1.85-5.57,2.4-7.24l.63-1.87c.14-.42.22-.62.22-.62s-.06.23-.19.66l-.6,1.91c-.54,1.68-1.33,4.14-2.34,7.31-2.05,6.35-5,15.53-8.68,26.94-7.4,22.78-17.66,54.43-29.17,89.94l-.25-.34h7.5l-.24.16,1.68-4.41c20.68-54,38.53-100.69,46.76-122.21l.11.15-10.83-.06-2.79,0Z" style="fill:#263238"></path><path d="M234.77,354.65a5.64,5.64,0,0,1-.72.52l-2.12,1.4-7.81,5.12c-6.59,4.34-15.68,10.36-25.67,17.06L172.87,396l-7.76,5.21L163,402.55a4.7,4.7,0,0,1-.76.46,6.19,6.19,0,0,1,.7-.54L165,401l7.67-5.34c6.49-4.48,15.5-10.63,25.5-17.33s19.11-12.68,25.76-16.94c3.32-2.12,6-3.83,7.9-5l2.17-1.32A5.78,5.78,0,0,1,234.77,354.65Z" style="fill:#263238"></path><path d="M155.67,216.82s-12.92,1.33-14.8,9.11-8,104,0,117.63,111,11.73,118.15,9.86,10.52-6.51,9.79-12.18-70.87-12.7-70.87-12.7l4.28-100.42S177,215.42,155.67,216.82Z" style="fill:#263238"></path><path d="M268.87,343.67l-.31,0-.92,0-3.53.09c-3.07.08-7.51.12-13,.11-11,0-26.15-.38-42.86-1.58-8.35-.61-16.3-1.38-23.51-2.2s-13.69-1.72-19.11-2.57c-2.72-.4-5.16-.83-7.31-1.19s-4-.69-5.51-1l-3.47-.67-.9-.18-.3-.08a1.2,1.2,0,0,1,.31,0l.91.13,3.49.57c1.51.26,3.36.57,5.52.89s4.6.74,7.31,1.11c5.43.81,11.91,1.64,19.11,2.46s15.15,1.55,23.5,2.16c16.7,1.2,31.85,1.61,42.82,1.73,5.48.06,9.92.07,13,.06h4.46Z" style="fill:#455a64"></path><path d="M253.75,404.43c-.08.12-16.4-11.35-36.44-25.6s-36.23-25.92-36.15-26,16.4,11.35,36.45,25.61S253.83,404.31,253.75,404.43Z" style="fill:#263238"></path></g><g id="freepik--speech-bubble--inject-44"><path d="M164.8,130.43l-8.25-14.53a38.92,38.92,0,1,0-9.32,10.37l0,0Z" style="fill:#fff"></path><path d="M164.8,130.43l-17.62-4-.24,0,.15-.2h0l.22.22a38.85,38.85,0,0,1-18.67,7.88,34.59,34.59,0,0,1-6.16.32c-1.06-.06-2.14-.09-3.23-.18l-3.29-.49a39.3,39.3,0,0,1-24.34-15.62,38.8,38.8,0,0,1-6.59-15,39.85,39.85,0,0,1,.46-17.33,38.41,38.41,0,0,1,8.35-16,39.17,39.17,0,0,1,15-10.72,39.8,39.8,0,0,1,17.46-2.68,38.38,38.38,0,0,1,16,4.74A39.45,39.45,0,0,1,160.82,84a42.4,42.4,0,0,1,1.69,12.67,38.87,38.87,0,0,1-5.83,19.3v-.16l8.12,14.61c-.54-.92-3.08-5.31-8.38-14.46l0-.07,0-.08a38.66,38.66,0,0,0,5.65-19.16,41.62,41.62,0,0,0-1.72-12.5,39.08,39.08,0,0,0-18.29-22.39,37.79,37.79,0,0,0-15.78-4.64,39.18,39.18,0,0,0-17.19,2.65A38.58,38.58,0,0,0,94.33,70.33a37.77,37.77,0,0,0-8.22,15.76,39.09,39.09,0,0,0-.47,17.06A38.26,38.26,0,0,0,92.1,118a38.78,38.78,0,0,0,24,15.47l3.25.5c1.08.09,2.14.12,3.19.19a34.79,34.79,0,0,0,6.09-.29,38.75,38.75,0,0,0,18.54-7.69l1-.75-.75,1h0l-.09-.24Z" style="fill:#263238"></path><path d="M116.77,90.33h2.46l5.36-7.48V77.94s3.8-.23,3.36,6.19,0,4.79,0,4.79,8.07,0,8.74.74c.49.5.71,8.52.79,12.86a4.69,4.69,0,0,1-3.33,4.74,3.26,3.26,0,0,1-.87.12c-2,0-12.29-1.64-12.29-1.64h-4.25Z" style="fill:#FFCB74"></path><polygon points="109.73 88.98 111.25 105.79 115.46 105.79 115.46 89.32 109.73 88.98" style="fill:#FFCB74"></polygon></g><g id="freepik--Character--inject-44"><path d="M320.37,302s23.14,0,24.09,21.56S277.1,458.86,277.1,458.86l-21.63-10.27,46.38-110.37-100.64-9.9L204.06,303Z" style="fill:#ffbe9d"></path><path d="M281.67,452.3l-.67,1.53s21.2,21.8,19.3,26.82l-51.11-23,8.35-16.7C263.55,447.9,271.33,451.88,281.67,452.3Z" style="fill:#455a64"></path><g style="opacity:0.6000000000000001"><path d="M260.27,448.73a2.3,2.3,0,0,0-2.52,1.73,2.2,2.2,0,0,0,1.7,2.51,2.42,2.42,0,0,0,2.65-1.85,2.27,2.27,0,0,0-2.05-2.41" style="fill:#fff"></path></g><g style="opacity:0.6000000000000001"><path d="M249.19,457.66l2-4,48.25,23.51s1.83,2,.85,3.5Z" style="fill:#fff"></path></g><path d="M281.11,454.05c-.12.24-1.42-.2-3,.05s-2.72,1-2.91.8.84-1.48,2.77-1.75S281.27,453.84,281.11,454.05Z" style="fill:#263238"></path><path d="M285.48,458.68c-.05.26-1.33.2-2.65.88s-2.07,1.68-2.31,1.56.23-1.61,1.89-2.42S285.58,458.44,285.48,458.68Z" style="fill:#263238"></path><path d="M285.64,466.46c-.25,0,0-1.45,1.21-2.53s2.67-1.09,2.68-.84-1,.66-2,1.56S285.9,466.55,285.64,466.46Z" style="fill:#263238"></path><polygon points="276.59 220.71 280.7 233.28 258.29 235.03 255.68 228.3 276.59 220.71" style="fill:#ffbe9d"></polygon><path d="M340.22,237.2c.43.86,1.55,1,2.41,1.45a4.93,4.93,0,0,1,2.47,4.6,10.92,10.92,0,0,1-1.77,5.16A4.47,4.47,0,0,1,342,250a1.7,1.7,0,0,1-1.94,0c-.66-.55-.58-1.57-.44-2.42.53-3.19-.16-7.22.59-10.37" style="fill:#ffbe9d"></path><path d="M191.18,79.59a5.66,5.66,0,0,1,4.36-6.28l24.74-15.74c9.43-2.12,21.31,13.63,23,23.13a160.32,160.32,0,0,1,2,31.6c-.68,16.26-11.34,18-11.34,18l8,54.07-38.55-23.77Z" style="fill:#ffbe9d"></path><path d="M238.14,94.19a2.06,2.06,0,0,1-1.73,2.29,2,2,0,0,1-2.33-1.6,2.06,2.06,0,0,1,1.73-2.29A2,2,0,0,1,238.14,94.19Z" style="fill:#263238"></path><path d="M241.32,88.35c-.2.22-1.84.19-3.91,1s-3.44,1.89-3.7,1.83,0-.35.63-.85a9.77,9.77,0,0,1,2.91-1.64,8.84,8.84,0,0,1,3.16-.59C241.13,88.08,241.42,88.25,241.32,88.35Z" style="fill:#263238"></path><path d="M217.66,95.18a2.07,2.07,0,0,1-1.74,2.29,2,2,0,0,1-2.32-1.6,2.05,2.05,0,0,1,1.73-2.29A2,2,0,0,1,217.66,95.18Z" style="fill:#263238"></path><path d="M219.81,92.54c-.3.12-1.84-.8-4.23-1.15s-4.26,0-4.49-.16.23-.33,1-.52a10.35,10.35,0,0,1,3.64-.07,9.38,9.38,0,0,1,3.33,1.12C219.77,92.17,220,92.49,219.81,92.54Z" style="fill:#263238"></path><path d="M229.57,106.14a14.3,14.3,0,0,1,3.5-1.07c.55-.12,1.07-.29,1.12-.69a2.83,2.83,0,0,0-.57-1.62q-1-2-2.16-4.09c-3-5.83-5.28-10.65-5-10.77s2.88,4.51,5.9,10.34l2.09,4.12a3.28,3.28,0,0,1,.55,2.18,1.43,1.43,0,0,1-.83.93,3.94,3.94,0,0,1-.94.24A14.78,14.78,0,0,1,229.57,106.14Z" style="fill:#263238"></path><path d="M233.93,130.34a39.85,39.85,0,0,1-22-3s6.57,11.24,22.37,7.88Z" style="fill:#eb996e"></path><path d="M229.82,111.53a5.91,5.91,0,0,0-4.55-2.31,2.52,2.52,0,0,0-2.32,1.67,4,4,0,0,0,.77,3.62,3.4,3.4,0,0,0,3.52,1.23,5.6,5.6,0,0,0,2.55-2.11,2,2,0,0,0,.47-.85,1.39,1.39,0,0,0-.3-1.14" style="fill:#eb996e"></path><path d="M223.26,108.42c.36-.07.64,2.32,2.88,3.78s4.76.9,4.82,1.23c0,.15-.51.53-1.59.69a6,6,0,0,1-4-.89,5.22,5.22,0,0,1-2.26-3.2C222.9,109,223.1,108.42,223.26,108.42Z" style="fill:#263238"></path><path d="M220.51,82.71c-.21.6-2.43.35-5,.71s-4.69,1.09-5.05.56c-.16-.26.2-.83,1-1.43a8.82,8.82,0,0,1,7.67-1C220.11,82,220.6,82.42,220.51,82.71Z" style="fill:#263238"></path><path d="M241.44,83.42c-.43.55-2.37.25-4.64.48s-4.15.81-4.65.33c-.23-.23,0-.77.81-1.33a8.1,8.1,0,0,1,7.48-.66C241.3,82.67,241.62,83.15,241.44,83.42Z" style="fill:#263238"></path><path d="M180.33,121.15c.4-7.25,1.56-30.46,6.24-43.12s11.27-18.33,18.05-21a16.18,16.18,0,0,1,15.8,1.74c3.48,2.46,5.5,10.56,5.5,10.56s-16.45,5.68-21,16c-5.27,11.8-6.21,17.54-6.21,17.54l-1.42,6.29s3.09,27.34,4.48,33l-22.3,21.56C180.2,156.6,179.93,128.39,180.33,121.15Z" style="fill:#263238"></path><path d="M226.41,69.37s9.53-2.15,14.34,8.34c2.18,4.75,4.34,19.13,4.34,19.13s.81-11.75-.45-18.14-5.41-14.19-10.87-18.14-9.6-5.44-18.14-3.94a13.93,13.93,0,0,1,6.73,3.93C223.65,62.06,224.29,63.4,226.41,69.37Z" style="fill:#263238"></path><path d="M198.89,103.65c-.58-3.52-4.7-5.44-7.56-3.31-1.57,1.16-2.63,3.26-2.05,7,1.56,10,11.23,6.34,11.2,6.06S199.57,107.76,198.89,103.65Z" style="fill:#ffbe9d"></path><path d="M196.85,110.09s-.15.15-.42.33a1.82,1.82,0,0,1-1.3.23c-1.11-.22-2.25-1.76-2.58-3.54a5.74,5.74,0,0,1,.1-2.56,2,2,0,0,1,1.09-1.54.91.91,0,0,1,1.1.32c.18.26.14.46.2.47s.19-.2,0-.6a1.1,1.1,0,0,0-.49-.56,1.33,1.33,0,0,0-1-.1,2.49,2.49,0,0,0-1.58,1.83,5.91,5.91,0,0,0-.16,2.86c.37,2,1.69,3.72,3.2,3.91a1.88,1.88,0,0,0,1.54-.51C196.87,110.33,196.89,110.1,196.85,110.09Z" style="fill:#eb996e"></path><path d="M208.55,55.93c0,.08,1.38-.12,3.58-.08a12.37,12.37,0,0,1,3.78.67,12.18,12.18,0,0,1,4,2.44,18.68,18.68,0,0,1,4.9,7c.82,2,1,3.42,1.12,3.4a4.74,4.74,0,0,0-.14-.95,17.92,17.92,0,0,0-5.64-9.68A12.13,12.13,0,0,0,216,56.21a11.82,11.82,0,0,0-3.88-.61,20.45,20.45,0,0,0-2.64.17A5.69,5.69,0,0,0,208.55,55.93Z" style="fill:#455a64"></path><path d="M190.46,111.94a1.29,1.29,0,0,0,0-.17l-.14-.45c-.07-.21-.14-.46-.23-.74l-.27-1a23.58,23.58,0,0,1-.68-6.69,24.08,24.08,0,0,1,2.41-9.62A27.16,27.16,0,0,1,199.35,84a51.66,51.66,0,0,1,5.25-3.56c1.76-1.06,3.53-1.94,5.17-2.92a65.06,65.06,0,0,0,8.16-5.89c2.19-1.85,3.88-3.44,5-4.56.57-.56,1-1,1.29-1.31l.33-.35c.07-.08.11-.12.1-.13l-.12.1-.36.33L222.85,67c-1.17,1.09-2.88,2.65-5.09,4.46a67.82,67.82,0,0,1-8.16,5.81c-1.62,1-3.41,1.83-5.18,2.9a49.23,49.23,0,0,0-5.29,3.58,27.27,27.27,0,0,0-7.92,9.39,23.92,23.92,0,0,0-2.36,9.75,23.11,23.11,0,0,0,.79,6.73l.3,1c.11.28.2.52.27.73l.18.45C190.43,111.89,190.45,111.94,190.46,111.94Z" style="fill:#455a64"></path><path d="M187.71,108.42s0-.06,0-.16l-.06-.48c0-.42-.16-1-.24-1.83a38.58,38.58,0,0,1-.11-6.78,39.24,39.24,0,0,1,2-9.82,37.83,37.83,0,0,1,5.85-10.75,44.43,44.43,0,0,1,9-8.4c3-2.24,6-4,8.39-5.58s4.38-2.79,5.71-3.71c.67-.44,1.17-.81,1.51-1.06l.39-.28.13-.11s-.06,0-.15.08l-.41.25-1.55,1c-1.34.87-3.32,2.1-5.77,3.6s-5.37,3.3-8.45,5.54a43.8,43.8,0,0,0-9,8.43A37.67,37.67,0,0,0,189,89.24a38.85,38.85,0,0,0-2,9.92,35.85,35.85,0,0,0,.23,6.8c.1.8.24,1.41.31,1.83,0,.19.07.35.1.47S187.7,108.42,187.71,108.42Z" style="fill:#455a64"></path><path d="M241.1,146.93s12.89,5.24,15.36,11.95S277.67,221,277.67,221l-21.75,8.34L246,183.74Z" style="fill:#455a64"></path><path d="M174.46,304.28s133-6.11,141.35-3.91,13.34,6.41,15,16.42,27.3,142.63,27.3,142.63l-23.32,6.86s-32.72-74.7-34.11-87.2-6-38.12-6-38.12-50.56.83-87.79,0-32.23-35.29-32.23-35.29Z" style="fill:#ffbe9d"></path><path d="M334.5,466.88l-.17-.4c-1.34-3.06-32.76-74.91-34.14-87.35-1.28-11.47-5.31-34.3-5.91-37.67-5,.08-52.37.78-87.38,0-11.57-.26-20.28-3.77-25.91-10.42-8.52-10.07-7-24.17-6.81-25.36l-.31-1.87.56,0c5.44-.25,133.19-6.09,141.51-3.89,9.34,2.47,13.79,7.34,15.37,16.81,1.64,9.88,27,141.3,27.3,142.63l.08.44ZM295.11,340.45l.08.42c.05.25,4.62,25.78,6,38.15,1.31,11.81,31.29,80.71,33.89,86.65l22.47-6.6c-1.64-8.49-25.62-132.6-27.22-142.2-1.5-9-5.74-13.66-14.64-16-7.88-2.09-131.21,3.47-140.64,3.9l.15.91v.07c0,.15-2,14.54,6.58,24.66,5.44,6.42,13.9,9.8,25.16,10.06,36.79.82,87.26,0,87.77,0Z" style="fill:#eb996e"></path><path d="M183.44,232.55l3.35,20.72s-14.55,27.57-16.19,51.27c-.78,11.26,5.68,34.32,5.68,34.32s51.24,5.63,78.88,4.91l29.49-1.29,5.2-46.07-33.1-4.78.5-62.78s6-16.53,6.46-21.42c1.06-10.32.62-20.76-9.69-34.14L241.1,146.93l-4.31-2,2.05,31.93L201.7,141.57l-18.81,6.75-5.33,25.15Z" style="fill:#455a64"></path><g style="opacity:0.30000000000000004"><path d="M247.82,299.26c-2.41.42-19.8.67-22.21,1.09a3.16,3.16,0,0,1-2.48-.27,2.07,2.07,0,0,1-.5-2.27,5.21,5.21,0,0,1,1.46-2c4.21-4,9.68-6.31,15-8.57,1.7-.71,3.54-1.44,5.32-1a5.66,5.66,0,0,1,3.66,3.8,16.5,16.5,0,0,1,.62,5.43"></path></g><g style="opacity:0.30000000000000004"><path d="M184.81,247c6.21-1.45,10.11-7.57,12.63-13.43s4.6-12.33,9.54-16.37c3.62-3,8.47-4.32,11.6-7.8a12.25,12.25,0,0,0,2.13-12.64c-.9-2.14-2.71-4.16-5-4.28-2.7-.14-4.8,2.2-6.45,4.35q-11.32,14.83-21.35,30.6c-3.59,5.65-7.17,12.51-4.67,18.72"></path></g><path d="M184.85,151.62s-10.51,3.34-14.31,9.93-10.1,38.59-11.62,47.21-8.87,44.09,0,49.67,20.53-3,23.57-8.11,15.45-31.68,15.45-31.68l-11.15-9.37s2-25.34,1.27-30.67S184.85,151.62,184.85,151.62Z" style="fill:#ffbe9d"></path><path d="M151.89,217.41,176.28,219l11.14-13.08,3.08-20.6-.82-39.41s-21.77,5.31-26.48,21.86C159.71,180,151.89,217.41,151.89,217.41Z" style="fill:#455a64"></path><path d="M195.05,170.8c-1.4-.19-3.19,1.46-2,5.44,1,3.32,2.88,6.55,2.74,8.4s-.86,5.7-.86,7.7a55.61,55.61,0,0,1-.57,5.84l-16.6,20,14.37,12.68L203.5,213s3.43.57,5.42-1.71l3-3.43s7.7-2.85,6.13-7c0,0,2.28-2.17.21-5.65,0,0,1.08-3.62-.49-5.75,0,0-.14-4.85-1.43-5.71s-14.63-1-14.63-1a69.49,69.49,0,0,0-2.51-6.53C197.74,173.81,197,171.06,195.05,170.8Z" style="fill:#ffbe9d"></path><path d="M200.73,190.47c0,.05-.35-.14-.66-.61a3.31,3.31,0,0,1,.44-4.11c.4-.39.74-.51.77-.46a5.7,5.7,0,0,0-1.19,2.49A6,6,0,0,0,200.73,190.47Z" style="fill:#eb996e"></path><path d="M217.21,189.1a28.85,28.85,0,0,1-6.17,1.09,28.31,28.31,0,0,1-6.26.21,56.47,56.47,0,0,1,6.21-.73A54.5,54.5,0,0,1,217.21,189.1Z" style="fill:#eb996e"></path><path d="M218.39,194.82a17.71,17.71,0,0,1-5.19,1.24,17.93,17.93,0,0,1-5.33.18c0-.15,2.36-.3,5.26-.7S218.36,194.68,218.39,194.82Z" style="fill:#eb996e"></path><path d="M218.1,200.69a20.32,20.32,0,0,1-8,.79,22.8,22.8,0,0,1,4-.51A23.07,23.07,0,0,1,218.1,200.69Z" style="fill:#eb996e"></path><path d="M205.5,202.49c0,.06-.28,0-.62-.19A2.13,2.13,0,0,1,204,201a2.17,2.17,0,0,1,.2-1.55c.2-.35.42-.49.47-.45s-.41.87-.17,1.88S205.57,202.36,205.5,202.49Z" style="fill:#eb996e"></path><path d="M202.22,197.73c0,.05-.33-.12-.64-.55a3.67,3.67,0,0,1-.66-1.93,3.76,3.76,0,0,1,.44-2c.27-.46.53-.66.58-.62a8.11,8.11,0,0,0-.5,2.58A8.52,8.52,0,0,0,202.22,197.73Z" style="fill:#eb996e"></path><path d="M214,207a6,6,0,0,1-2.34.68,5.85,5.85,0,0,1-2.44.17,5.84,5.84,0,0,1,2.34-.68A5.66,5.66,0,0,1,214,207Z" style="fill:#eb996e"></path><path d="M207.57,182.84c0,.15-2,.15-4.53.4s-4.48.64-4.52.5a12.75,12.75,0,0,1,4.47-1A13,13,0,0,1,207.57,182.84Z" style="fill:#eb996e"></path><path d="M251.48,230.91h82.66a5.5,5.5,0,0,1,5.5,5.5V295a0,0,0,0,1,0,0H246a0,0,0,0,1,0,0V236.4A5.5,5.5,0,0,1,251.48,230.91Z" style="fill:#e0e0e0"></path><path d="M339.64,299.26h-110a4.22,4.22,0,0,1,4.22-4.22H339.64Z" style="fill:#e0e0e0"></path><rect x="248.84" y="235.03" width="87.34" height="60.01" style="fill:#fff"></rect><path d="M336.17,295s0-.38,0-1.1,0-1.8,0-3.18c0-2.79,0-6.87-.06-12.09,0-10.44-.06-25.41-.11-43.64l.21.21-87.33,0h0l.26-.26c0,21.43,0,41.78,0,60l-.23-.24,62.91.12,18,.07,4.79,0,1.23,0h.43l-.4,0h-1.21l-4.74,0-17.91.06-63.07.12h-.24V295c0-18.23,0-38.58,0-60v-.26h.26l87.33,0h.21V235c0,18.28-.08,33.3-.11,43.77,0,5.2,0,9.26,0,12,0,1.37,0,2.42,0,3.14S336.17,295,336.17,295Z" style="fill:#263238"></path><path d="M339.18,295c0,.15-23.61.26-52.73.26s-52.74-.11-52.74-.26,23.61-.26,52.74-.26S339.18,294.9,339.18,295Z" style="fill:#263238"></path><circle cx="292.5" cy="265.04" r="22.95" style="fill:#FFCB74"></circle><polygon points="278.24 265.6 283.1 261 289.81 267.18 303.02 254.75 307.82 259.29 289.74 276.45 278.24 265.6" style="fill:#fff"></polygon><path d="M194.38,198.18c.11.09-6.78,8.41-15.39,18.57S163.31,235.07,163.2,235s6.78-8.4,15.39-18.57S194.27,198.09,194.38,198.18Z" style="fill:#eb996e"></path><path d="M193.19,185.29a73.29,73.29,0,0,1-1.19,8.64,72.29,72.29,0,0,1-1.7,8.56,73.3,73.3,0,0,1,1.19-8.65A74.88,74.88,0,0,1,193.19,185.29Z" style="fill:#263238"></path><path d="M257.25,228.85a3.56,3.56,0,0,1,.16-.6l.54-1.68c.48-1.45,1.19-3.55,2-6.16a92.13,92.13,0,0,0,2.42-9.28,50.54,50.54,0,0,0,1.07-11.64,46.31,46.31,0,0,0-5.84-20.27,59.9,59.9,0,0,0-3.4-5.5c-.42-.63-.78-1.1-1-1.43a2.91,2.91,0,0,1-.33-.53,2.88,2.88,0,0,1,.41.46c.26.32.65.77,1.1,1.39a51.45,51.45,0,0,1,3.56,5.43,48.77,48.77,0,0,1,3.91,8.82A42.41,42.41,0,0,1,264,199.47a49.15,49.15,0,0,1-1.12,11.76,86.34,86.34,0,0,1-2.54,9.29c-.86,2.6-1.62,4.69-2.16,6.12q-.39,1-.63,1.65A2.61,2.61,0,0,1,257.25,228.85Z" style="fill:#263238"></path><path d="M236,197.71a8,8,0,0,1,0,1.4,11.69,11.69,0,0,1-.12,1.64,20.83,20.83,0,0,1-.33,2.16,21.25,21.25,0,0,1-.64,2.56,28.35,28.35,0,0,1-1,2.87,32.4,32.4,0,0,1-3.42,6,31.61,31.61,0,0,1-4.73,5.1,26.73,26.73,0,0,1-2.42,1.84,20.6,20.6,0,0,1-2.25,1.39,18.49,18.49,0,0,1-2,1,11.43,11.43,0,0,1-1.52.61,7.49,7.49,0,0,1-1.34.41c-.05-.11,1.87-.7,4.63-2.31a24.34,24.34,0,0,0,2.19-1.42c.78-.52,1.53-1.18,2.35-1.85a31.1,31.1,0,0,0,8-11,28.76,28.76,0,0,0,1-2.8,23.6,23.6,0,0,0,.69-2.52C235.92,199.71,235.9,197.71,236,197.71Z" style="fill:#263238"></path><path d="M263.49,206.8a.71.71,0,0,1-.14-.19L263,206c-.33-.55-.78-1.3-1.35-2.23s-1.46-2.07-2.39-3.37-2.11-2.72-3.36-4.31c-5.14-6.28-12.73-14.53-21.43-23.34s-16.87-16.49-22.86-22l-4.08-3.65c-1.2-1.06-2.24-2-3.11-2.72l-2-1.69-.51-.45a.72.72,0,0,1-.17-.17,1,1,0,0,1,.2.13c.15.11.33.24.54.41l2.06,1.61,3.17,2.66c1.23,1.06,2.61,2.27,4.13,3.6,6.07,5.4,14.26,13.07,23,21.87s16.27,17.12,21.34,23.47c1.24,1.61,2.36,3.06,3.32,4.36l2.32,3.44c.53,1,1,1.72,1.27,2.29l.32.6Q263.51,206.8,263.49,206.8Z" style="fill:#263238"></path><path d="M244.07,253.06a2,2,0,0,1-.57.11l-1.63.23c-1.42.19-3.49.41-6,.64-5.11.46-12.2.83-20,.74s-14.92-.66-20-1.24c-2.55-.29-4.61-.57-6-.8l-1.63-.26a2.42,2.42,0,0,1-.56-.13,2.32,2.32,0,0,1,.58,0l1.64.17c1.42.17,3.49.39,6,.63,5.09.49,12.16,1,20,1.09s14.89-.23,20-.59c2.55-.18,4.62-.34,6-.47l1.64-.13A2.55,2.55,0,0,1,244.07,253.06Z" style="fill:#263238"></path><path d="M287.38,230.84s16.38-6.39,17.93-6.9,15.87-1.63,15.87-1.63l18.46,6.63s.17,3.79-4.14,3.28a78,78,0,0,1-11.21-2.76L321.7,231Z" style="fill:#ffbe9d"></path><path d="M338.75,233.27c.43.87,1.55,1,2.41,1.46a5,5,0,0,1,2.47,4.6,10.88,10.88,0,0,1-1.77,5.15,4.51,4.51,0,0,1-1.32,1.58,1.7,1.7,0,0,1-1.94,0,2.53,2.53,0,0,1-.44-2.42c.53-3.19-.16-7.23.59-10.38" style="fill:#ffbe9d"></path><path d="M357.31,454.47l.56,1.56s30.4,1.19,32.48,6.13l-52.88,18.58L332,462.89C341.15,463.77,349.52,461.29,357.31,454.47Z" style="fill:#455a64"></path><g style="opacity:0.6000000000000001"><path d="M339.34,466.63a2.3,2.3,0,0,0-.63,3,2.21,2.21,0,0,0,3,.65,2.41,2.41,0,0,0,.65-3.17,2.29,2.29,0,0,0-3.15-.33" style="fill:#fff"></path></g><g style="opacity:0.6000000000000001"><path d="M337.47,480.74l-1.31-4.29,51.16-16.24s2.71.2,3,2Z" style="fill:#fff"></path></g><path d="M358.11,456.12c.08.26-1.17.83-2.15,2.11s-1.27,2.6-1.54,2.58-.42-1.65.79-3.17S358.08,455.86,358.11,456.12Z" style="fill:#263238"></path><path d="M364.46,456.46c.15.23-.82,1.06-1.31,2.46s-.34,2.65-.6,2.73-.94-1.33-.29-3.06S364.37,456.22,364.46,456.46Z" style="fill:#263238"></path><path d="M369.94,462c-.21.14-1-1-.86-2.67s1.18-2.63,1.36-2.46-.29,1.2-.41,2.55S370.19,461.88,369.94,462Z" style="fill:#263238"></path></g></svg>