<svg width="49" height="30" viewBox="0 0 49 30" fill="none" xmlns="http://www.w3.org/2000/svg">
<path d="M0.09375 29V25.582L3.12109 24.9961V4.58594L0.09375 4V0.5625H3.12109H12.7305C16.0768 0.5625 18.6875 1.21354 20.5625 2.51562C22.4375 3.81771 23.375 5.76432 23.375 8.35547C23.375 9.67057 23.0234 10.849 22.3203 11.8906C21.6302 12.9193 20.6211 13.694 19.293 14.2148C20.4258 14.4622 21.3698 14.8984 22.125 15.5234C22.8932 16.1484 23.4661 16.9102 23.8438 17.8086C24.2214 18.694 24.4102 19.6641 24.4102 20.7188C24.4102 23.4401 23.5117 25.5039 21.7148 26.9102C19.918 28.3034 17.3724 29 14.0781 29H0.09375ZM8.82422 24.625H14.0781C15.5885 24.625 16.7409 24.2995 17.5352 23.6484C18.3294 22.9844 18.7266 22.0078 18.7266 20.7188C18.7266 19.7812 18.5768 18.9935 18.2773 18.3555C17.9779 17.7174 17.5156 17.2357 16.8906 16.9102C16.2786 16.5846 15.4844 16.4219 14.5078 16.4219H8.82422V24.625ZM8.82422 12.4766H12.9258C14.4492 12.4766 15.6211 12.1641 16.4414 11.5391C17.2617 10.9141 17.6719 10.0026 17.6719 8.80469C17.6719 7.48958 17.2552 6.51953 16.4219 5.89453C15.6016 5.26953 14.3711 4.95703 12.7305 4.95703H8.82422V12.4766ZM37.9453 29.4102C35.849 29.4102 33.9414 29.1758 32.2227 28.707C30.5039 28.2383 28.8112 27.4245 27.1445 26.2656V19.3906H31.5586L32.1641 23.4336C32.75 23.9284 33.5573 24.332 34.5859 24.6445C35.6146 24.944 36.7344 25.0938 37.9453 25.0938C38.974 25.0938 39.8398 24.9505 40.543 24.6641C41.2591 24.3776 41.7995 23.974 42.1641 23.4531C42.5417 22.9193 42.7305 22.2943 42.7305 21.5781C42.7305 20.901 42.5612 20.3021 42.2227 19.7812C41.8971 19.2474 41.3503 18.7656 40.582 18.3359C39.8268 17.8932 38.7982 17.4701 37.4961 17.0664C35.2435 16.4023 33.375 15.6797 31.8906 14.8984C30.4193 14.1042 29.3125 13.1602 28.5703 12.0664C27.8411 10.9596 27.4766 9.63151 27.4766 8.08203C27.4766 6.54557 27.8997 5.19141 28.7461 4.01953C29.6055 2.83464 30.7904 1.90365 32.3008 1.22656C33.8112 0.549479 35.556 0.197917 37.5352 0.171875C39.7227 0.145833 41.6562 0.40625 43.3359 0.953125C45.0286 1.5 46.487 2.26172 47.7109 3.23828V9.64453H43.4336L42.6914 5.73828C42.1966 5.42578 41.526 5.15234 40.6797 4.91797C39.8464 4.68359 38.8958 4.56641 37.8281 4.56641C36.9167 4.56641 36.1094 4.70312 35.4062 4.97656C34.7161 5.25 34.1693 5.64714 33.7656 6.16797C33.362 6.6888 33.1602 7.32031 33.1602 8.0625C33.1602 8.70052 33.3359 9.26042 33.6875 9.74219C34.0391 10.2109 34.625 10.6602 35.4453 11.0898C36.2786 11.5065 37.4245 11.9557 38.8828 12.4375C42.0208 13.3099 44.3971 14.4622 46.0117 15.8945C47.6393 17.3268 48.4531 19.2083 48.4531 21.5391C48.4531 23.1536 48.0169 24.5534 47.1445 25.7383C46.2721 26.9102 45.0482 27.8151 43.4727 28.4531C41.8971 29.0911 40.0547 29.4102 37.9453 29.4102Z" fill="#FFCB74"/>
</svg>
