<svg width="162" height="36" viewBox="0 0 162 36" fill="none" xmlns="http://www.w3.org/2000/svg">
<g clip-path="url(#clip0_7_146)">
<path fill-rule="evenodd" clip-rule="evenodd" d="M49.5554 11.9444L45.3603 22.2006H51.1659L49.5744 11.9026L49.5554 11.9444ZM27.3309 35.4889L44.5397 0.730042H57.5509L64.8062 35.4889H53.3841L52.5422 30.8561H41.4607L38.9114 35.4889H27.3309ZM70.2145 35.4889L75.1995 0.730042H86.7091L81.7264 35.4889H70.2145ZM146.766 11.9026L142.554 22.2006H148.357L146.766 11.9026ZM124.522 35.4889L141.734 0.730042H154.742L162 35.4889H150.576L149.736 30.8561H138.652L136.103 35.4889H124.522ZM99.077 19.2358H113.5L123.383 35.2917H108.957L99.077 19.2358Z" fill="#FFCB74"/>
<path fill-rule="evenodd" clip-rule="evenodd" d="M100.576 16.7697H115.484L128.431 0.781078H113.524L100.576 16.7697ZM85.6709 35.3892H100.576L113.524 19.2056H98.6159L85.6709 35.3892Z" fill="#2F2F2F"/>
<path fill-rule="evenodd" clip-rule="evenodd" d="M91.0461 0.586121H104.958L114.491 16.7697H100.576L91.0461 0.586121ZM27.6715 1.97341L26.5647 12.1972C22.3225 6.45545 12.4901 10.4178 11.718 17.57C10.7368 26.6477 20.1998 28.7635 25.3492 23.4185L24.2401 33.6654C22.7032 34.4054 21.2002 34.9808 19.7167 35.3682C18.2413 35.7579 16.7626 35.9644 15.2955 35.9946C13.4509 36.034 11.7797 35.8437 10.274 35.4285C8.76833 35.0202 7.40572 34.3706 6.20014 33.4937C3.87506 31.8257 2.19391 29.7053 1.15836 27.1256C0.122805 24.5366 -0.217965 21.6159 0.134865 18.3518C0.419352 15.728 1.09286 13.3362 2.16625 11.1671C3.23041 9.00035 4.70464 7.02843 6.58183 5.24212C8.35638 3.53933 10.2889 2.25413 12.3801 1.38186C14.4633 0.516537 16.7366 0.0548668 19.1939 0.00382614C20.6617 -0.0263329 22.1019 0.117512 23.4995 0.449257C24.9046 0.778679 26.2904 1.29368 27.6715 1.97341Z" fill="#FFCB74"/>
</g>
<defs>
<clipPath id="clip0_7_146">
<rect width="162" height="36" fill="white"/>
</clipPath>
</defs>
</svg>
