<svg width="79" height="82" viewBox="0 0 79 82" fill="none" xmlns="http://www.w3.org/2000/svg">
<g clip-path="url(#clip0_7_141)">
<path fill-rule="evenodd" clip-rule="evenodd" d="M13.0195 0.544189H65.4174L66.0972 0.558353L66.7584 0.615807L67.4173 0.701587L68.0625 0.818634L68.696 0.971489L69.3203 1.15294L69.9284 1.36538L70.5226 1.6091L71.1029 1.879L71.667 2.17723L72.2172 2.50672L72.7491 2.85786L73.2601 3.23278L73.7548 3.6387L74.2333 4.066L74.6843 4.51227L75.1212 4.98286L75.5303 5.47002L75.9235 5.9831L76.2865 6.51569L76.6242 7.06511L76.9383 7.63324L77.2297 8.2158L77.4956 8.8152L77.7247 9.42875L77.9328 10.0567L78.1081 10.7016L78.2563 11.3557L78.3696 12.0219L78.4529 12.6954L78.506 13.3853L78.5222 14.0828V68.2055L78.506 68.9006L78.4529 69.5857L78.3696 70.2658L78.2563 70.9302L78.1084 71.5849L77.9328 72.2292L77.7247 72.8534L77.4956 73.4672L77.2297 74.0712L76.9383 74.6497L76.6242 75.2179L76.2865 75.7657L75.9235 76.2985L75.5303 76.806L75.1212 77.2982L74.684 77.7699L74.2333 78.2164L73.7548 78.6427L73.2601 79.0435L72.7491 79.4192L72.2172 79.7693L71.667 80.094L71.1029 80.3933L70.5226 80.6672L69.9284 80.9058L69.3203 81.1188L68.696 81.3013L68.0625 81.4537L67.4173 81.5704L66.7584 81.6565L66.0972 81.7126L65.4174 81.7276H13.0195L12.3412 81.7126L11.6782 81.6565L11.0196 81.5704L10.3759 81.4534L9.73725 81.3013L9.11818 81.1188L8.50907 80.9058L7.91461 80.6672L7.32983 80.3933L6.76495 80.094L6.21971 79.7693L5.68414 79.4192L5.17319 79.0435L4.67689 78.6427L4.20048 78.2164L3.74816 77.7702L3.31102 77.2982L2.9032 76.806L2.51501 76.2985L2.14671 75.766L1.80747 75.2181L1.49309 74.6497L1.20332 74.0712L0.937896 73.4672L0.707023 72.8534L0.500756 72.2292L0.323805 71.5852L0.176434 70.9304L0.0636149 70.2658L-0.0201485 69.5857L-0.0740713 68.9006L-0.0887299 68.2058V14.0823L-0.0740713 13.3851L-0.0201485 12.6951L0.0636149 12.0217L0.176172 11.3555L0.323805 10.7013L0.500756 10.0565L0.707023 9.42848L0.938158 8.81493L1.20332 8.21553L1.49309 7.63297L1.80747 7.06485L2.14671 6.51542L2.51501 5.9831L2.9032 5.46976L3.31102 4.9826L3.74816 4.51227L4.20022 4.06573L4.67663 3.63817L5.17319 3.23278L5.68414 2.85786L6.21971 2.50672L6.76469 2.17723L7.32957 1.87873L7.91435 1.60883L8.50854 1.36565L9.11792 1.15294L9.73725 0.971221L10.3759 0.818901L11.0194 0.701587L11.6779 0.615807L12.341 0.558353L13.0195 0.544189Z" fill="#FFCB74"/>
<path fill-rule="evenodd" clip-rule="evenodd" d="M6.46027 68.1953H12.5724V41.1304H6.46027V68.1953ZM39.9591 47.3199H39.6099L39.2654 47.332L38.9254 47.3461L38.5972 47.3675L38.2734 47.3867L37.9545 47.4177L37.6399 47.4535L37.3302 47.4894L37.0295 47.5348L36.7361 47.5802L36.4447 47.6305L36.1602 47.6852L35.8853 47.7427L35.6147 47.8023L35.3487 47.8691L35.0896 47.9359L34.8378 48.0054L34.5928 48.077L34.3569 48.1531L34.1258 48.2296L33.8991 48.306L33.6842 48.3872L33.4737 48.4685L33.2703 48.5545L33.0738 48.6355L32.884 48.7215L32.7015 48.8076L32.5235 48.8934L32.3571 48.9794L32.195 49.0655L32.0424 49.1537L31.8945 49.2397L33.046 53.2273L33.1777 53.1461L33.3164 53.0648L33.4575 52.9836L33.6054 52.9072L33.758 52.831L33.9151 52.7546L34.0773 52.6781L34.2436 52.6087L34.4171 52.5373L34.5925 52.4654L34.7705 52.3938L34.9511 52.3297L35.1338 52.2674L35.321 52.203L35.5105 52.1407L35.7026 52.086L35.8989 52.0285L36.0955 51.9785L36.2968 51.9283L36.4931 51.8829L36.6968 51.8374L36.9025 51.7971L37.1036 51.7613L37.3093 51.7255L37.5106 51.6942L37.7187 51.6704L37.9244 51.6442L38.1255 51.6298L38.3312 51.6132L38.5325 51.5988L38.7406 51.594H38.9416L39.2654 51.5988L39.5796 51.6132L39.8735 51.6394L40.1484 51.6704L40.4146 51.7158L40.6664 51.7658L40.9022 51.8257L41.1221 51.8925L41.3347 51.9689L41.531 52.0502L41.7116 52.1359L41.8781 52.2268L42.0351 52.3246L42.1833 52.4251L42.322 52.5325L42.4445 52.6375L42.5576 52.7498L42.6642 52.8668L42.7589 52.979L42.8421 53.0958L42.9162 53.2177L42.9856 53.3347L43.0432 53.4494L43.0963 53.5664L43.1427 53.6832L43.1751 53.7954L43.2052 53.9077L43.2306 54.0127L43.2489 54.1204L43.2607 54.2206L43.2699 54.3184V54.6265L42.5369 54.6337L41.8202 54.6527L41.1219 54.6885L40.4444 54.7387L39.7856 54.8056L39.1474 54.8916L38.5231 54.987L37.9244 55.104L37.3441 55.2304L36.7892 55.3785L36.2481 55.541L35.7325 55.7176L35.2424 55.9111L34.7708 56.1187L34.3176 56.3432L33.8899 56.5821L33.4876 56.8352L33.1083 57.1024L32.75 57.3867L32.4217 57.6924L32.1118 58.0067L31.8322 58.3364L31.5757 58.6865L31.3396 59.047L31.1386 59.4222L30.9579 59.8182L30.8056 60.2242L30.6831 60.6504L30.5836 61.0865L30.5095 61.5381L30.4703 62.01L30.4564 62.4921L30.4611 62.7813L30.4794 63.0704L30.5143 63.3596L30.565 63.6439L30.6276 63.9279L30.7014 64.212L30.7894 64.4913L30.8933 64.7652L31.0066 65.0343L31.1386 65.298L31.2817 65.5567L31.4343 65.8106L31.6008 66.0591L31.7835 66.2975L31.9799 66.531L32.1859 66.7542L32.4057 66.9671L32.6366 67.1702L32.884 67.3632L33.1384 67.5457L33.4088 67.7183L33.6933 67.8805L33.9891 68.0275L34.2991 68.1598L34.6181 68.2814L34.9464 68.388L35.2956 68.4794L35.6492 68.5553L36.017 68.6162L36.396 68.6622L36.7892 68.6873L37.1915 68.6974L37.4365 68.6924L37.6792 68.6825L37.915 68.6721L38.1509 68.6518L38.3799 68.6266L38.611 68.5959L38.8377 68.5606L39.0642 68.52L39.284 68.4692L39.5013 68.4185L39.7162 68.3626L39.929 68.3017L40.1348 68.2359L40.3405 68.1646L40.5415 68.0836L40.7381 68.0024L40.93 67.9161L41.1219 67.8247L41.3093 67.7336L41.492 67.632L41.6674 67.5256L41.8386 67.4188L42.0121 67.3022L42.1739 67.1855L42.3359 67.0636L42.493 66.9369L42.6456 66.8049L42.789 66.6678L42.9301 66.531L43.0688 66.3889L43.2005 66.2419L43.3277 66.0896H43.3971L44.0651 68.1953H49.0385V56.1999L49.0315 55.7438L49.0084 55.2975L48.9736 54.8558L48.9252 54.4186L48.8603 53.9889L48.7771 53.5664L48.6847 53.1557L48.5713 52.7546L48.4373 52.3604L48.2962 51.9783L48.1274 51.6084L47.947 51.2477L47.746 50.8992L47.5287 50.5625L47.2882 50.2378L47.034 49.9297L46.7586 49.6336L46.4581 49.3567L46.139 49.0917L45.7993 48.8431L45.4406 48.6093L45.0572 48.3969L44.6548 48.1986L44.2271 48.0219L43.7808 47.8595L43.3044 47.721L42.8073 47.5995L42.2872 47.499L41.7417 47.4225L41.1705 47.3678L40.5763 47.332L39.9591 47.3199ZM43.4458 60.711V60.8329L43.4411 60.9598L43.4316 61.0865L43.4225 61.2185L43.4062 61.3454L43.3924 61.4775L43.3714 61.6041L43.3439 61.7311L43.3322 61.7765L43.3138 61.8428L43.3 61.9037L43.2837 61.9443L43.2654 61.9948L43.2445 62.0456L43.1913 62.1725L43.1311 62.2941L43.0686 62.416L42.9995 62.5378L42.9254 62.6546L42.8469 62.7762L42.7636 62.8927L42.6757 63.0047L42.5809 63.1161L42.4882 63.2278L42.3843 63.3344L42.2781 63.4408L42.1694 63.5423L42.0561 63.6385L41.9336 63.7353L41.8111 63.8264L41.6815 63.913L41.5543 63.999L41.4179 64.0752L41.2792 64.1511L41.1381 64.2224L40.9902 64.2831L40.8423 64.344L40.685 64.4001L40.5279 64.4456L40.3706 64.491L40.2041 64.5268L40.0376 64.557L39.8688 64.5827L39.6932 64.5976L39.5152 64.6129H39.1822L39.0296 64.603L38.8814 64.5925L38.7335 64.5722L38.5925 64.5471L38.4537 64.5217L38.3176 64.4862L38.1833 64.4456L38.0608 64.405L37.9336 64.3542L37.8158 64.2986L37.7025 64.2377L37.5891 64.1767L37.4873 64.1057L37.3834 64.0295L37.291 63.9533L37.196 63.867L37.1127 63.7759L37.0295 63.6842L36.9557 63.5827L36.8863 63.4763L36.8193 63.37L36.7591 63.2532L36.7059 63.1364L36.662 63.0146L36.618 62.8828L36.5834 62.7508L36.5533 62.614L36.528 62.4667L36.5141 62.3198L36.5047 62.1674L36.5002 62.01L36.5047 61.8323L36.5185 61.6651L36.5442 61.4978L36.5719 61.3353L36.6112 61.183L36.662 61.0307L36.7196 60.889L36.7845 60.7468L36.8586 60.6098L36.9371 60.4828L37.025 60.3559L37.1219 60.234L37.2261 60.1175L37.3394 60.0106L37.4572 59.9043L37.5844 59.8027L37.7187 59.7012L37.8548 59.6103L38.003 59.5237L38.1556 59.4374L38.3126 59.3565L38.4794 59.2803L38.6459 59.2092L38.8239 59.1435L39.0087 59.0772L39.1961 59.0216L39.388 58.9655L39.589 58.9099L39.7903 58.8642L40.0028 58.8188L40.2133 58.7779L40.4353 58.7424L40.641 58.7119L40.8562 58.6814L41.0734 58.6563L41.2999 58.6307L41.5242 58.6157L41.76 58.5954L41.9959 58.585L42.2388 58.5751L42.3843 58.5697L42.5322 58.5649L42.6848 58.5596H43.4455L43.4458 60.711ZM65.9187 47.9145V59.9804L65.9096 60.1528L65.8933 60.3206L65.8703 60.4828L65.8446 60.6453L65.8101 60.7974L65.7661 60.9497L65.713 61.0918L65.669 61.2084L65.6135 61.3251L65.5559 61.4419L65.4957 61.5584L65.4332 61.6701L65.3638 61.7869L65.29 61.9037L65.2114 62.0151L65.1279 62.1268L65.0447 62.2383L64.9499 62.35L64.8575 62.4566L64.7604 62.5581L64.6562 62.6597L64.5476 62.7559L64.4343 62.8521L64.3165 62.9437L64.1987 63.0349L64.0715 63.1161L63.9443 63.1973L63.8055 63.2684L63.6692 63.3392L63.5257 63.4055L63.3778 63.4611L63.2276 63.5172L63.0705 63.5626L62.9061 63.6033L62.7396 63.6337L62.5732 63.6642L62.3952 63.6794L62.2195 63.6947H62.0321L61.8057 63.6896L61.5858 63.6743L61.3685 63.649L61.1628 63.6083L60.9665 63.5626L60.7743 63.5017L60.594 63.4309L60.4207 63.3497L60.2542 63.2633L60.0972 63.1618L59.9443 63.0501L59.8011 62.9285L59.6692 62.8016L59.5375 62.6594L59.4197 62.5124L59.3064 62.355L59.1975 62.1878L59.1006 62.01L59.0103 61.8224L58.9224 61.6295L58.8486 61.4264L58.7745 61.2134L58.7122 60.9903L58.6567 60.7618L58.608 60.5234L58.564 60.28L58.5295 60.0261L58.4994 59.7624L58.4763 59.4933L58.4601 59.2143L58.4507 58.9302L58.4462 58.636V47.9049H52.481V60.0617L52.4904 60.3508L52.5019 60.6301L52.5158 60.9091L52.5367 61.183L52.5598 61.4518L52.5899 61.7107L52.6197 61.9694L52.659 62.2179L52.6982 62.4617L52.7425 62.7L52.7956 62.9333L52.8511 63.1618L52.9087 63.3852L52.9689 63.6033L53.0359 63.8114L53.1053 64.0193L53.1838 64.2224L53.2579 64.4202L53.3411 64.6129L53.4244 64.8007L53.5076 64.9832L53.6024 65.1609L53.695 65.3386L53.7874 65.5059L53.8869 65.6735L53.9908 65.8357L54.0971 65.988L54.206 66.1403L54.319 66.2873L54.4324 66.4295L54.5502 66.5663L54.673 66.7034L54.8002 66.8303L54.9271 66.9573L55.0567 67.0738L55.1931 67.1905L55.3271 67.3022L55.4684 67.4089L55.6116 67.5104L55.7595 67.6066L55.9053 67.698L56.0579 67.7841L56.2105 67.8706L56.3676 67.9465L56.5294 68.0227L56.6914 68.0884L56.8602 68.1547L57.0312 68.2156L57.1976 68.2712L57.3756 68.3273L57.5468 68.3728L57.7295 68.4185L57.9049 68.4591L58.0879 68.4997L58.275 68.5302L58.4601 68.5606L58.6473 68.586L58.8391 68.6063L59.031 68.6266L59.2276 68.6419L59.4242 68.6469L59.6252 68.6568H60.0045L60.1757 68.6518L60.3422 68.6469L60.5086 68.6365L60.6772 68.6216L60.8393 68.6063L61.001 68.5908L61.1581 68.5657L61.3107 68.5454L61.4633 68.5147L61.6159 68.4895L61.7617 68.454L61.9049 68.4235L62.0483 68.3829L62.1894 68.3423L62.3281 68.3017L62.5917 68.2103L62.853 68.1141L63.098 68.0125L63.3385 67.911L63.5697 67.7993L63.7917 67.6879L64.0021 67.566L64.2031 67.4444L64.395 67.3172L64.5824 67.1905L64.7604 67.0588L64.9316 66.9268L65.0934 66.7897L65.246 66.6475L65.3892 66.5054L65.5258 66.3584L65.6575 66.2162L65.7823 66.0743L65.8933 65.9372L66.002 65.8055L66.1061 65.6786L66.1985 65.5516L66.2818 65.4351L66.3603 65.3133L67.1281 68.1953H71.9717V47.9145H65.9187ZM18.306 41.1309V47.9052H15.5201V52.5277H18.306V60.777L18.3107 61.0309L18.3157 61.2794L18.3209 61.528L18.3303 61.7666L18.3453 62.005L18.3649 62.2383L18.3845 62.4667L18.4091 62.6952L18.4335 62.913L18.463 63.1313L18.4976 63.3446L18.5369 63.5525L18.5761 63.7556L18.6204 63.9587L18.6646 64.1511L18.7138 64.344L18.7677 64.5319L18.8266 64.7144L18.8855 64.8921L18.9497 65.0645L19.0182 65.2371L19.0871 65.3996L19.1606 65.5618L19.2392 65.7141L19.3177 65.8664L19.4015 66.0134L19.4899 66.1556L19.5834 66.2975L19.6768 66.4295L19.775 66.5564L19.8781 66.6831L19.9813 66.7999L20.0794 66.9014L20.1778 67.003L20.281 67.0992L20.3841 67.1954L20.4969 67.287L20.61 67.3781L20.733 67.4695L20.8561 67.5558L20.9786 67.6422L21.1113 67.7231L21.2437 67.7993L21.3814 67.8805L21.5241 67.9516L21.6665 68.0227L21.8188 68.0938L21.9662 68.1547L22.1233 68.2207L22.2803 68.2766L22.4426 68.3321L22.6049 68.3829L22.7719 68.4337L22.9439 68.474L23.1156 68.5147L23.2936 68.5505L23.4695 68.586L23.6519 68.6162L23.8326 68.6365L24.0197 68.6568L24.2069 68.6771L24.3987 68.6873L24.5909 68.6926L24.7872 68.6974L25.111 68.6924L25.4094 68.6825L25.6913 68.667L25.9457 68.6469L26.186 68.6216L26.408 68.5908L26.6185 68.5553L26.8103 68.5147L26.9975 68.474L27.1687 68.4286L27.3305 68.3778L27.4925 68.3271L27.7977 68.2156L28.0982 68.0989V63.3849L28.0197 63.4154L27.9155 63.4461L27.793 63.4763L27.6404 63.5017L27.4692 63.5274L27.2773 63.5423L27.0716 63.5576L26.8496 63.5626L26.6533 63.5576L26.4706 63.5474L26.2947 63.5274L26.1282 63.4966L25.9711 63.4611L25.823 63.4205L25.6798 63.3697L25.5479 63.309L25.4254 63.243L25.3076 63.172L25.1942 63.0856L25.0948 62.9996L24.9979 62.9031L24.9097 62.8016L24.8265 62.6899L24.7526 62.568L24.6833 62.4464L24.6186 62.3096L24.5608 62.1725L24.5053 62.0255L24.4613 61.8679L24.4173 61.7107L24.3828 61.5384L24.348 61.3658L24.3249 61.183L24.2995 60.9903L24.2809 60.7974L24.2647 60.5943L24.2556 60.3813L24.2461 60.1683L24.2417 59.9449V52.5277H28.0333V47.9049H24.2417V41.1312L18.306 41.1309ZM63.6644 41.1261L59.9788 46.5963H64.2424L69.4376 41.1261H63.6644Z" fill="#2F2F2F"/>
</g>
<defs>
<clipPath id="clip0_7_141">
<rect width="79" height="82" fill="white"/>
</clipPath>
</defs>
</svg>
