<svg width="115" height="115" viewBox="0 0 115 115" fill="none" xmlns="http://www.w3.org/2000/svg">
<mask id="mask0_22_83" style="mask-type:alpha" maskUnits="userSpaceOnUse" x="0" y="0" width="115" height="115">
<circle cx="57.5" cy="57.5" r="57.5" fill="#F6F6F6"/>
</mask>
<g mask="url(#mask0_22_83)">
<circle cx="56.3726" cy="54.8692" r="63.1373" fill="#F6F6F6"/>
<path d="M81.7429 92.3904C81.7429 92.3904 92.2553 71.0247 69.9257 59.1714C54.3061 50.8774 24.1488 49.3597 14.9424 68.345C6.38236 85.9977 25.6358 100.85 25.6358 100.85C25.6358 100.85 66.8655 109.666 81.7429 92.3904Z" fill="#FFCB74"/>
<path d="M45.3952 67.6579C45.3952 67.6579 26.0925 70.2886 33.0868 80.5805C36.7895 86.0275 57.7048 89.0001 57.7048 89.0001C57.7048 89.0001 61.8014 70.1333 45.3952 67.6579Z" fill="#2F2F2F"/>
<path d="M107.866 115.118C106.622 105.857 104.233 98.5352 98.7425 96.534C85.8322 91.8279 69.0332 83.5964 69.0332 83.5964C57.9989 88.5669 42.3313 83.5964 42.3313 83.5964C42.3313 83.5964 23.9186 90.0108 9.88071 98.3742C2.90116 102.536 1.60991 107.606 2.33002 115.118H107.866Z" fill="#FFCB74"/>
<path d="M21.9517 115.118C20.0523 100.229 12.5754 99.9951 5.53557 101.823C5.53557 101.823 0.614215 106.141 -5.76831 115.118H21.9517Z" fill="#FFCB74"/>
<path d="M121.013 115.118C110.751 104.074 102.554 99.2579 102.554 99.2579C100.233 98.827 98.4964 103.821 99.4504 115.118H121.013Z" fill="#FFCB74"/>
<path d="M63.387 113.637C75.2929 113.637 79.0227 102.965 79.0597 102.854C79.1963 102.445 78.9772 102.002 78.5697 101.865C78.1598 101.729 77.7191 101.949 77.5812 102.356C77.4372 102.781 73.9031 112.771 62.1918 112.039C50.0201 111.28 34.3832 103.237 34.2269 103.156C33.8428 102.958 33.3738 103.109 33.1756 103.489C32.9762 103.873 33.1264 104.343 33.5092 104.541C34.1592 104.879 49.5905 112.814 62.0945 113.595C62.534 113.623 62.9661 113.637 63.387 113.637Z" fill="#FFCB74"/>
<path d="M49.6579 115.118H50.8408C48.5082 99.6839 46.6088 89.4977 46.5546 89.2131C46.4956 88.8943 46.1878 88.6875 45.8714 88.7467C45.5538 88.8058 45.3446 89.1122 45.4049 89.43C45.4578 89.7131 47.34 99.807 49.6579 115.118Z" fill="white"/>
<path d="M77.4495 115.118H78.6595C74.4817 99.1887 71.1519 89.1823 71.0657 88.9275C70.9623 88.6212 70.6325 88.4572 70.3247 88.5596C70.0182 88.663 69.8532 88.9944 69.9566 89.3006C70.0416 89.5531 73.3221 99.4079 77.4495 115.118Z" fill="white"/>
<path d="M83.1859 115.118H91.8026C92.5252 102.421 91.5675 93.1608 91.5675 93.1608C88.2562 89.856 81.7432 89.856 81.7432 89.856C81.7432 89.856 84.2396 100.335 83.1859 115.118Z" fill="#2F2F2F"/>
<path d="M69.6317 77.77V84.9221C68.7947 85.5982 67.949 86.1877 67.0997 86.6959C54.6805 94.1543 41.2815 84.9221 41.2815 84.9221V60.1231L66.2515 75.6653L69.6317 77.77Z" fill="#F36359"/>
<path d="M69.6316 77.5647V84.9221C68.7945 85.5982 67.9489 86.1877 67.0995 86.6959C56.5243 82.5092 48.8271 71.4147 48.8271 71.4147L66.2514 75.6653L69.6316 77.5647Z" fill="#2F2F2F"/>
<path d="M73.2361 18.4602C73.2361 18.4602 87.0966 21.9561 81.9894 33.2748C81.9894 33.2748 72.8372 23.1846 73.2361 18.4602Z" fill="#2F2F2F"/>
<path d="M77.5554 46.0731C77.5554 46.0731 81.6176 41.2736 83.9133 46.0731C86.2103 50.8726 84.4439 60.5861 78.262 58.9969L77.5554 46.0731Z" fill="#F14347"/>
<path d="M82.9038 62.9037C82.9038 62.9037 82.9247 77.6902 67.5427 77.657C52.2579 77.6287 41.8402 65.6244 41.2986 65.0689L41.2813 65.0545L41.1152 61.9449L40.2461 45.8145L39.7808 37.1929C39.7808 37.1929 37.8285 21.668 52.5816 18.8368C63.3611 16.7676 73.4697 18.5574 78.5708 24.1816C80.4493 26.2558 81.6482 28.8531 81.9486 31.9699L82.425 47.4566L82.5431 51.2529L82.9038 62.9037Z" fill="#F36359"/>
<path d="M61.2993 52.6475C61.2993 52.6475 69.8569 56.2099 76.4586 55.1686C76.4586 55.1686 74.6737 63.4836 67.0221 61.3285C61.9579 59.9018 61.2993 52.6475 61.2993 52.6475Z" fill="white"/>
<path d="M34.6982 38.5605C35.0183 41.7807 36.1581 43.5225 36.9189 44.7091C41.2814 45.6569 43.2645 48.0389 44.0941 50.2681L47.9335 50.774C47.9335 50.774 48.4394 44.5072 47.1272 39.7557C46.1142 36.0985 49.5424 34.9587 50.3376 31.7582C50.5727 30.8067 50.7561 30.3881 50.3376 28.9504C50.3376 28.9504 55.819 24.7393 62.3628 26.7593C68.9128 28.783 74.9001 29.4809 77.8963 25.5061C78.1942 25.1122 78.4601 24.6999 78.5697 24.1829C73.471 18.5586 63.3611 16.7663 52.5828 18.8368C37.8273 21.668 34.4791 28.8236 34.4791 28.8236C33.3417 32.4648 34.3868 35.4252 34.6982 38.5605Z" fill="#2F2F2F"/>
<path d="M46.9929 37.8551C42.9996 38.7697 39.0519 39.8407 35.2815 41.4618C35.7677 42.9944 36.4226 44.037 36.9186 44.7091C41.2812 45.6569 43.2642 48.0389 44.0939 50.2681L47.9333 50.774C47.9333 50.774 48.4392 44.5072 47.127 39.7557C46.9264 39.0356 46.9018 38.4152 46.9929 37.8551Z" fill="#F14347"/>
<path d="M32.1748 28.4777C32.1748 28.4777 56.1305 19.003 73.1608 18.4256C73.6052 18.4109 74.0471 18.401 74.4816 18.401C76.2591 18.3899 77.9357 18.4946 79.4707 18.7322C79.4707 18.7322 76.2222 10.0231 64.5748 7.46642C63.2491 7.17345 61.8126 6.96173 60.2604 6.84971C58.2157 6.70569 55.9705 6.73769 53.5024 6.99865L53.2599 7.02205C52.6148 7.09344 51.9895 7.17838 51.3839 7.28054C49.5092 7.58459 47.8104 8.01789 46.268 8.55828C45.8643 8.69738 45.4729 8.84509 45.09 8.99896C42.233 10.1511 39.9618 11.6714 38.1622 13.3578C37.5713 13.9093 37.0297 14.4792 36.5361 15.0614C31.2048 21.3233 32.1748 28.4777 32.1748 28.4777Z" fill="#FFCB74"/>
<path d="M60.2605 6.84968C64.1196 8.2419 69.9321 11.4215 73.1609 18.4256C73.3406 18.8121 73.5106 19.2122 73.6743 19.6234L74.8067 19.1777C74.7009 18.9143 74.5938 18.6546 74.4817 18.401C71.9903 12.6635 67.8924 9.3313 64.575 7.46639C63.2492 7.17343 61.8127 6.9617 60.2605 6.84968Z" fill="#111111"/>
<path d="M51.3838 7.28056C57.3281 9.88404 60.2073 16.7245 60.2418 16.8057L61.3656 16.3429C61.2364 16.0265 58.7523 10.1327 53.5023 6.99866L53.2597 7.02206C52.6147 7.09346 51.9894 7.17839 51.3838 7.28056Z" fill="#111111"/>
<path d="M45.0898 8.99898C45.5108 12.0234 46.9929 18.273 52.1371 21.4711L52.7796 20.4383C47.9493 17.4372 46.6224 11.2603 46.2679 8.5583C45.8641 8.6974 45.4727 8.84511 45.0898 8.99898Z" fill="#111111"/>
<path d="M37.8902 26.3099L38.9402 25.6969C36.7121 21.8908 37.3055 16.8463 38.1622 13.3578C37.5714 13.9093 37.0297 14.4792 36.5361 15.0614C35.928 18.5278 35.8468 22.8251 37.8902 26.3099Z" fill="#111111"/>
<path d="M81.1795 23.3459C81.1795 23.3459 56.5307 18.5722 34.3513 36.09C34.3513 36.09 30.747 33.1394 32.1749 28.186C32.1749 28.186 53.3819 9.13196 79.4709 17.324C79.4709 17.324 82.2319 19.5951 81.1795 23.3459Z" fill="#111111"/>
<path d="M57.4106 51.3096C54.6755 51.3096 52.4585 50.4368 52.4585 49.3597C52.4585 48.2839 54.6755 47.4111 57.4106 47.4111C60.1471 47.4111 62.3628 48.2839 62.3628 49.3597C62.3628 50.4368 60.1471 51.3096 57.4106 51.3096Z" fill="#F1484B"/>
<path d="M81.3493 51.3096C78.6166 51.3096 76.3997 50.4356 76.3997 49.3597C76.3997 48.2826 78.6166 47.4099 81.3493 47.4099C81.7199 47.4099 82.0806 47.4271 82.4252 47.4567L82.5434 51.253C82.1618 51.2899 81.7593 51.3096 81.3493 51.3096Z" fill="#F1484B"/>
<path d="M62.5227 43.4338C62.5227 44.9134 61.8519 46.1111 61.0259 46.1111C60.1975 46.1111 59.5266 44.9134 59.5266 43.4338C59.5266 41.9554 60.1975 40.7565 61.0259 40.7565C61.8519 40.7565 62.5227 41.9554 62.5227 43.4338Z" fill="#2F2F2F"/>
<path d="M77.1529 43.4338C77.1529 44.9134 76.482 46.1111 75.6548 46.1111C74.8264 46.1111 74.1567 44.9134 74.1567 43.4338C74.1567 41.9554 74.8264 40.7565 75.6548 40.7565C76.482 40.7565 77.1529 41.9554 77.1529 43.4338Z" fill="#2F2F2F"/>
<path d="M65.9056 36.8027C65.2704 35.3367 63.424 32.7147 58.4841 33.4693C57.881 33.5616 57.4218 34.0626 57.3775 34.6707C57.3221 35.4352 57.9302 36.0912 58.6959 36.0765C60.0413 36.0482 62.0663 36.3842 63.5631 38.291C64.0309 38.8855 64.9209 38.9286 65.4736 38.4116L65.6016 38.2922C66.0103 37.9106 66.1284 37.3161 65.9056 36.8027Z" fill="#2F2F2F"/>
<path d="M79.6825 33.4693C78.1586 32.9905 74.9667 32.6692 72.3042 36.8975C71.978 37.4145 72.0568 38.0891 72.4876 38.5211C73.0305 39.0628 73.9229 39.032 74.4128 38.4436C75.2733 37.4096 76.8526 36.0974 79.2739 36.2131C80.0297 36.2488 80.6439 35.605 80.6156 34.8492L80.6095 34.6732C80.5873 34.1143 80.2143 33.6355 79.6825 33.4693Z" fill="#2F2F2F"/>
<path d="M46.1117 59.0695C46.0428 59.232 44.0966 63.7457 41.2974 65.069L41.2814 65.0531L41.1165 61.9449C41.1165 61.9449 43.5427 61.5314 46.1117 59.0695Z" fill="#2F2F2F"/>
<path d="M43.4035 48.7984C43.4035 48.7984 37.4913 40.8574 33.1607 47.0972C29.5897 52.2401 36.3391 65.6417 43.4035 61.0501V48.7984Z" fill="#F36359"/>
<path d="M37.415 58.5281C37.415 59.2801 38.0244 59.8903 38.7765 59.8903C39.5298 59.8903 40.1391 59.2801 40.1391 58.5281C40.1391 57.777 39.5298 57.1664 38.7765 57.1664C38.0244 57.1664 37.415 57.777 37.415 58.5281Z" fill="white"/>
<path d="M42.5962 58.6594L42.6627 58.656C42.9963 58.619 43.2375 58.3184 43.2018 57.985C42.462 51.2295 36.7787 48.8907 36.5374 48.7947C36.2247 48.6691 35.8715 48.8218 35.7459 49.1344C35.6228 49.4459 35.7742 49.7992 36.0856 49.9247C36.2998 50.0109 41.3332 52.106 41.9918 58.117C42.0262 58.4281 42.2897 58.6594 42.5962 58.6594Z" fill="#2F2F2F"/>
<path d="M36.9188 54.9705C37.0529 54.9705 37.1884 54.9261 37.3016 54.8351C37.831 54.4055 39.4348 53.353 40.4836 53.6213C40.8098 53.7038 41.141 53.5081 41.2247 53.1819C41.3071 52.8581 41.1114 52.5258 40.7852 52.4433C38.9573 51.9743 36.7772 53.6927 36.5335 53.8909C36.2738 54.1026 36.2344 54.4867 36.4461 54.7477C36.5655 54.8941 36.7415 54.9705 36.9188 54.9705Z" fill="#2F2F2F"/>
<path d="M69.3103 50.8775C72.9158 50.8775 74.132 48.359 74.1825 48.2519C74.26 48.0869 74.2588 47.8937 74.1788 47.7299C71.7058 42.6362 69.202 37.401 69.1774 37.348C69.0321 37.0452 68.669 36.916 68.3649 37.0624C68.0621 37.2077 67.9354 37.5708 68.0794 37.8737C68.104 37.9254 70.5155 42.9649 72.9417 47.9687C72.5945 48.4808 71.5507 49.6613 69.3103 49.6613C68.9755 49.6613 68.7023 49.9346 68.7023 50.2694C68.7023 50.6067 68.9755 50.8775 69.3103 50.8775Z" fill="#2F2F2F"/>
<path d="M41.1349 79.7938C41.1349 79.7938 54.6829 89.5342 58.7303 89.49C58.7303 89.49 53.4716 95.5492 45.1479 96.366C34.2305 97.4383 15.8252 95.0664 15.8252 95.0664C15.8252 95.0664 29.7535 84.9456 41.1349 79.7938Z" fill="#FFCB74"/>
<path d="M69.6319 79.5501C69.6319 79.5501 66.9176 87.4984 58.7305 89.4901C58.7305 89.4901 60.5622 96.9508 68.8428 95.7814C77.1235 94.612 81.7433 89.856 81.7433 89.856C81.7433 89.856 76.1682 79.5501 69.6319 79.5501Z" fill="#FFCB74"/>
</g>
</svg>
