<svg width="109" height="38" viewBox="0 0 109 38" fill="none" xmlns="http://www.w3.org/2000/svg">
<g clip-path="url(#clip0_7_151)">
<path d="M4.4472 3.10551V4.11587C4.5126 5.80689 5.9841 7.15757 7.8153 7.22138H8.38211C10.2133 7.15757 11.6848 5.80689 11.7502 4.11587V3.10551C11.6848 1.4145 10.2133 0.0638119 8.38211 0H7.8153C5.9841 0.0638119 4.5126 1.4145 4.4472 3.10551ZM52.2764 15.0702V28.9068C52.2764 31.3104 53.2247 32.3952 56.2331 32.3952C57.4975 32.3952 58.7292 32.0549 59.4704 31.7996V37.3725C58.206 37.7873 56.2876 37.9894 54.7071 37.9894C48.3851 37.9894 45.3985 34.9051 45.3985 29.5662V1.64847H52.2764V10.529H59.4704V15.0702H52.2764Z" fill="#FFCB74"/>
<path fill-rule="evenodd" clip-rule="evenodd" d="M61.803 23.4828C61.803 15.283 67.1004 9.69946 75.5806 9.69946C84.6385 9.69946 89.1293 16.1445 88.6497 25.4929H68.8662C69.2259 30.2894 71.5258 32.7249 75.6133 32.7249C79.0686 32.7249 80.8998 31.0977 81.6955 28.8005H88.4208C87.1128 34.4372 82.5457 37.9894 75.5806 37.9894C66.9914 37.9894 61.803 32.4591 61.803 24.1529V23.4828ZM75.5261 15.0809C71.7547 15.0809 69.4984 17.0485 68.8662 20.9623L81.7391 20.8559C81.3685 17.208 79.352 15.0809 75.5261 15.0809Z" fill="#FFCB74"/>
<path d="M31.5882 9.7101C27.1628 9.7101 24.4378 12.2626 23.0644 14.7725L22.7483 10.529H16.1865V37.1705H23.0644V22.196C23.0644 17.7717 25.4624 15.0703 29.0921 15.0703C32.7218 15.0703 34.0625 17.4101 34.0625 21.4728V37.1705H40.9404V20.0264C40.9622 14.0812 38.3244 9.7101 31.5882 9.7101ZM99.3753 14.7619C101.119 11.4224 104.684 9.69946 107.365 9.69946C107.845 9.69946 108.597 9.76327 109 9.84836V15.0597C108.335 14.9959 107.67 14.9639 107.005 14.9533C102.111 14.9533 99.3753 17.8248 99.3753 22.6958V37.1492H92.4974V10.529H99.1682L99.3753 14.7619ZM0 10.529V15.0703H4.6543V37.1705H11.5322V10.529H0Z" fill="#FFCB74"/>
</g>
<defs>
<clipPath id="clip0_7_151">
<rect width="109" height="38" fill="white"/>
</clipPath>
</defs>
</svg>
