<svg xmlns="http://www.w3.org/2000/svg" viewBox="0 0 500 500"><g id="freepik--background-complete--inject-95"><path d="M451.4,316l6.53-10.53-3.23-2a3,3,0,0,1-1.36-2.77c.05-.61.07-1.23.06-1.85a2.94,2.94,0,0,1,1.53-2.68l3.35-1.79-5.86-10.92-3.35,1.79a2.93,2.93,0,0,1-3.07-.2c-.51-.35-1-.68-1.58-1a2.92,2.92,0,0,1-1.55-2.67l.12-3.79-12.39-.38-.11,3.8a2.94,2.94,0,0,1-1.73,2.56c-.27.13-.55.27-.81.42s-.54.29-.8.45a3,3,0,0,1-3.07,0l-3.25-2L414.3,293l3.23,2a3,3,0,0,1,1.36,2.78c-.05.61-.07,1.23-.06,1.84a3,3,0,0,1-1.54,2.67L414,304.1,419.81,315l3.34-1.79a3,3,0,0,1,3.08.19,15.85,15.85,0,0,0,1.57,1,2.92,2.92,0,0,1,1.55,2.67l-.11,3.8,12.38.38.12-3.8a2.93,2.93,0,0,1,1.72-2.55c.28-.13.55-.27.82-.42s.54-.29.8-.45a2.94,2.94,0,0,1,3.09,0Zm-10.49-7.82a10.15,10.15,0,1,1,4.15-13.74A10.15,10.15,0,0,1,440.91,308.19Z" style="fill:#ebebeb"></path><path d="M409.13,363.72l7.52-4.34-1.33-2.3a2.07,2.07,0,0,1,.08-2.17c.23-.36.45-.74.65-1.12a2,2,0,0,1,1.83-1.14h2.66V344h-2.66a2.06,2.06,0,0,1-1.83-1.14c-.2-.39-.42-.76-.65-1.13a2.05,2.05,0,0,1-.08-2.16l1.33-2.3-7.52-4.34-1.33,2.31a2.05,2.05,0,0,1-1.91,1h-1.28a2.06,2.06,0,0,1-1.91-1l-1.34-2.32-7.52,4.34,1.33,2.31a2.07,2.07,0,0,1-.07,2.16,12.53,12.53,0,0,0-.65,1.12,2.08,2.08,0,0,1-1.83,1.14H390v8.69h2.66a2.06,2.06,0,0,1,1.83,1.14,12.37,12.37,0,0,0,.65,1.11,2.09,2.09,0,0,1,.07,2.17l-1.33,2.31,7.52,4.34,1.33-2.31a2.05,2.05,0,0,1,1.91-1l.65,0,.64,0a2.05,2.05,0,0,1,1.91,1Zm-3.88-8.31a7.11,7.11,0,1,1,7.11-7.1A7.1,7.1,0,0,1,405.25,355.41Z" style="fill:#ebebeb"></path><path d="M72.55,82.1l-4.34-7.52-2.3,1.33a2,2,0,0,1-2.17-.07,11.27,11.27,0,0,0-1.12-.65,2.06,2.06,0,0,1-1.14-1.83V70.7H52.79v2.66a2,2,0,0,1-1.14,1.83,12.53,12.53,0,0,0-1.12.65,2,2,0,0,1-2.17.07l-2.3-1.33L41.72,82.1,44,83.43a2.1,2.1,0,0,1,1,1.92c0,.21,0,.43,0,.64s0,.43,0,.64a2.05,2.05,0,0,1-1,1.91l-2.32,1.33,4.34,7.52,2.31-1.33a2.07,2.07,0,0,1,2.17.08c.36.23.73.45,1.11.65a2,2,0,0,1,1.14,1.83v2.66h8.69V98.62a2,2,0,0,1,1.14-1.83c.38-.2.76-.42,1.12-.65a2.05,2.05,0,0,1,2.16-.08l2.31,1.33,4.34-7.52-2.31-1.33a2.05,2.05,0,0,1-1-1.91c0-.21,0-.42,0-.64s0-.43,0-.64a2.09,2.09,0,0,1,1-1.92ZM64.25,86a7.12,7.12,0,1,1-7.11-7.12A7.11,7.11,0,0,1,64.25,86Z" style="fill:#ebebeb"></path><path d="M192.37,325.18a35.75,35.75,0,1,1-35.35-41v35.74Z" style="fill:#ebebeb"></path><path d="M200,312.66a36.21,36.21,0,0,1-.39,5.24l-35.36-5.24V276.92A35.71,35.71,0,0,1,200,312.66Z" style="fill:#dbdbdb"></path><rect x="160.89" y="332.63" width="38.01" height="1" style="fill:#c7c7c7"></rect><path d="M201.56,336.29a3.16,3.16,0,1,1,3.17-3.16A3.16,3.16,0,0,1,201.56,336.29Zm0-5.32a2.16,2.16,0,1,0,2.17,2.16A2.16,2.16,0,0,0,201.56,331Z" style="fill:#c7c7c7"></path><rect x="211.22" y="331.13" width="29.53" height="1.33" style="fill:#c7c7c7"></rect><rect x="211.22" y="333.8" width="16.71" height="1.33" style="fill:#c7c7c7"></rect><rect x="62.77" y="419.78" width="35.16" height="11.19" style="fill:#ebebeb"></rect><path d="M249.83,129.05H213.67V116.86h36.16Zm-35.16-1h34.16V117.86H214.67Z" style="fill:#ebebeb"></path><path d="M78.32,445.08c-5.86.1-20.63.35-26.29.41l-8.87.05h-.45v-.46l0-11.19v-.5h.5l17.58.07c4.37,0,13.2.13,17.58.19h.24v.23l-.23,11.19Zm0,0-.24-11.19.24.24c-4.39.06-13.2.16-17.58.19l-17.58.07.5-.5,0,11.19-.46-.45,8.71,0c5.57.06,20.68.31,26.45.41Z" style="fill:#ebebeb"></path><path d="M334.67,366c-5.86.1-20.63.35-26.29.41l-8.87,0h-.45V366L299,354.76v-.5h.5l17.58.07c4.38,0,13.2.13,17.58.19h.24v.24L334.67,366Zm0,0-.24-11.19.24.24c-4.38.06-13.19.15-17.58.19l-17.58.07.5-.5L300,366l-.46-.46,8.71.05c5.58.06,20.69.31,26.45.41Z" style="fill:#ebebeb"></path><path d="M315.06,380.06c-5.86.1-20.63.35-26.29.41l-8.87,0h-.45v-.46l-.05-11.19v-.5h.5l17.58.07c4.38,0,13.2.13,17.58.19h.24v.24l-.24,11.19Zm0,0-.24-11.19.24.24-8.79.11c-5.58.07-20.6.13-26.37.15l.5-.5,0,11.19-.46-.46,8.71,0c5.57.06,20.69.31,26.45.41Z" style="fill:#ebebeb"></path><rect x="260.37" y="354.76" width="35.16" height="11.19" style="fill:#ebebeb"></rect><rect x="421.68" y="433.89" width="35.16" height="11.19" style="fill:#ebebeb"></rect><rect x="402.07" y="41.93" width="35.16" height="11.19" style="fill:#ebebeb"></rect><path d="M456.84,67.23c-5.86.1-20.63.35-26.29.42l-8.87,0h-.45v-.46L421.18,56v-.5h.5l17.58.07c4.38,0,13.2.13,17.58.2h.24V56l-.24,11.19Zm0,0L456.6,56l.24.24c-4.39.06-13.19.16-17.58.19l-17.58.07.5-.5,0,11.19-.46-.45,8.71,0c5.58.06,20.69.32,26.45.41Z" style="fill:#ebebeb"></path><path d="M78.32,53.12c-5.86.1-20.63.35-26.29.42l-8.87,0h-.45v-.46l0-11.19v-.5h.5l17.58.07c4.37,0,13.2.13,17.58.2h.24v.23l-.23,11.19Zm0,0-.24-11.19.24.24c-4.39.06-13.2.16-17.58.19l-17.58.07.5-.5,0,11.19-.46-.45,8.71,0c5.57.06,20.68.32,26.45.41Z" style="fill:#ebebeb"></path></g><g id="freepik--Floor--inject-95"><path d="M36,469.16c137.13-.61,291-.61,428.08,0-137.13.62-291,.61-428.08,0Z" style="fill:#263238"></path></g><g id="freepik--Arrow--inject-95"><polygon points="454.71 258.79 442.21 250.1 393.53 310.31 347.21 307.01 294.96 322.68 245.81 360.97 196.17 365.07 145.01 424.71 100.16 444.72 35.95 428.23 35.95 444.71 100.38 461.29 154.33 437.21 201.97 381.68 251.13 377.48 303.22 336.1 347.34 322.88 399.83 327.91 454.71 258.79" style="fill:#FFCB74"></polygon><polygon points="429.71 248.17 464.05 232.02 460.87 269.83 429.71 248.17" style="fill:#FFCB74"></polygon></g><g id="freepik--Plant--inject-95"><path d="M414.52,409.4a249.8,249.8,0,0,1,.36-26.53,337,337,0,0,1,8.31-54.06c2.32-10,5.17-19.84,8.15-29.66.09-.3.56-.22.48.09-9.2,34.63-16.74,70.37-16.22,106.37.14,10.08,1.31,20,2.26,30,0,.27-.41.38-.47.1C415.49,427.13,414.87,418.15,414.52,409.4Z" style="fill:#FFCB74"></path><path d="M431.82,299.24s13.93,35.37,10.81,43.68S433.08,353,433.08,353s8.53,12.17,2.57,23.58-19.19,10.88-20.07,23.82C415.58,400.41,414.84,346.29,431.82,299.24Z" style="fill:#FFCB74"></path><path d="M417.09,378.06a.23.23,0,0,1,0-.18,323.5,323.5,0,0,1,13.51-71.14c0-.07.13-.05.11,0q-4.14,15.53-7.31,31.2a15.34,15.34,0,0,1,6.65-3.7c.05,0,.07.05,0,.07a17.61,17.61,0,0,0-6.86,4.58q-.62,3.07-1.19,6.16c3.12-3.48,7.44-5.21,11.76-6.85.06,0,.09.07,0,.1-4.5,1.83-9,4.19-12,8.07q-1.59,8.79-2.8,17.66a16.82,16.82,0,0,1,8.31-4.76c.1,0,.15.12.05.15a17.47,17.47,0,0,0-8.42,5.39l-.06,0c-.27,2.08-.54,4.16-.78,6.25a21.34,21.34,0,0,1,5.82-3.52,0,0,0,0,1,0,.09,19.81,19.81,0,0,0-5.83,3.86s-.05,0-.08,0c-.23,2-.46,4-.66,5.95a28.28,28.28,0,0,1,11.82-8.44.07.07,0,0,1,.05.14,30.87,30.87,0,0,0-11.65,9,.25.25,0,0,1-.29.1q-.45,4.56-.8,9.14s-.07.05-.07,0Q416.71,382.75,417.09,378.06Z" style="fill:#263238"></path><path d="M428.29,330.74a17.38,17.38,0,0,1,8.37-2.61c.07,0,.07.1,0,.11a32.84,32.84,0,0,0-8.27,2.7A.11.11,0,0,1,428.29,330.74Z" style="fill:#263238"></path><path d="M426.6,368.18a17.68,17.68,0,0,1,6.28-2.15c.07,0,.08.11,0,.12a23.59,23.59,0,0,0-6.22,2.18C426.59,368.37,426.51,368.23,426.6,368.18Z" style="fill:#263238"></path><path d="M377.89,343.5A94.53,94.53,0,0,1,394,357.59a58.14,58.14,0,0,1,11.31,19.18,143.33,143.33,0,0,1,8.42,45.87,111.24,111.24,0,0,1-2.48,25.8.25.25,0,0,1-.49-.09,144.47,144.47,0,0,0-.25-45.09c-2.39-14.63-6.15-30.55-15.45-42.44C390,354.35,383.7,349.25,377.46,344,377.13,343.71,377.55,343.26,377.89,343.5Z" style="fill:#FFCB74"></path><path d="M411.7,412.11a86.92,86.92,0,0,0-11.76-15c-7-7-12.84-11.92-13.74-16.52s7-8,7-8-9.64,1.73-12.28-2.31-3.92-27.5-3.92-27.5,17.55,12.53,25.73,30.09S411.7,412.11,411.7,412.11Z" style="fill:#FFCB74"></path><path d="M383.05,348.75c7.39,7.26,14.82,15,19.17,24.51a95.21,95.21,0,0,1,3.87,10.1v0c.22.69.45,1.38.66,2.08a.27.27,0,0,1,0,.12,199.34,199.34,0,0,1,5,21.66s-.06.07-.07,0c-.76-3.66-1.59-7.35-2.52-11a.15.15,0,0,1-.11,0,15.57,15.57,0,0,0-4.6-1.17c-.11,0-.1-.19,0-.18a17.22,17.22,0,0,1,4.55.83c-.85-3.32-1.77-6.63-2.81-9.9a49.34,49.34,0,0,0-10.41-1.36s0-.05,0-.05a39.45,39.45,0,0,1,10.23.86c-.18-.56-.37-1.11-.56-1.67a52.07,52.07,0,0,0-6.92-1.17s0-.08,0-.08a32.91,32.91,0,0,1,6.78.83c-1-2.83-2-5.61-3.13-8.33a51.3,51.3,0,0,0-3.31-6.43,43,43,0,0,0-5.62-1,0,0,0,0,1,0-.09,15,15,0,0,1,5.25.51c-.93-1.49-1.9-2.95-2.93-4.36h0c-3.94-.87-7.93-1.68-11.95-.92-.07,0-.1-.11,0-.13,3.83-1,7.64-.42,11.45.33-.42-.55-.84-1.1-1.27-1.64a26.18,26.18,0,0,0-7.35-1.16,0,0,0,1,1,0-.08,19.06,19.06,0,0,1,6.85.61c-3.25-4-6.84-7.84-10.39-11.59C382.75,348.68,382.88,348.58,383.05,348.75Z" style="fill:#263238"></path><path d="M383.25,364.74a15.7,15.7,0,0,1,3.49-.13c.14,0,.13.25,0,.25-1.16,0-2.31-.05-3.47,0A.07.07,0,1,1,383.25,364.74Z" style="fill:#263238"></path><path d="M395.88,387.48a15.94,15.94,0,0,1,5.41,1.08,0,0,0,0,1,0,.08c-1.78-.42-3.59-.6-5.39-.89C395.72,387.72,395.73,387.48,395.88,387.48Z" style="fill:#263238"></path><path d="M399.67,379.62a11.09,11.09,0,0,1,2.29.21c.08,0,.07.13,0,.14a11.82,11.82,0,0,1-2.3-.11A.12.12,0,0,1,399.67,379.62Z" style="fill:#263238"></path><path d="M463.14,368.38a79.15,79.15,0,0,0-16.31,7.68A48.58,48.58,0,0,0,433.24,389a120.9,120.9,0,0,0-17.42,35.17,93.77,93.77,0,0,0-3.95,21.45.21.21,0,0,0,.41,0,122.06,122.06,0,0,1,10.63-36.44c5.32-11.28,12-23.29,22.31-30.77,5.6-4.06,11.88-6.73,18.15-9.54C463.7,368.73,463.47,368.26,463.14,368.38Z" style="fill:#FFCB74"></path><path d="M419.92,416.09a72.48,72.48,0,0,1,13-9.44c7.25-4,13.15-6.68,15-10.2s-3.8-8.09-3.8-8.09,7.4,3.63,10.47,1S464,368,464,368s-17.09,6.08-27.77,18.4S419.92,416.09,419.92,416.09Z" style="fill:#FFCB74"></path><path d="M420.81,412.24c8.55-16.05,20-30.57,35.59-40.16,0,0,0,0,0,0A78.32,78.32,0,0,0,445,381.05a18.17,18.17,0,0,1,9.2,1.94c.06,0,0,.12-.05.1a25.05,25.05,0,0,0-9.46-1.6.18.18,0,0,1-.1,0c-.56.52-1.11,1.06-1.65,1.6a28.83,28.83,0,0,1,4.91.65c.05,0,0,.08,0,.07a25.09,25.09,0,0,0-5.19-.43,108.17,108.17,0,0,0-8.06,9.16,8.1,8.1,0,0,1,3.43.25c.08,0,.06.14,0,.12a19.58,19.58,0,0,0-3.67-.05c-.47.6-.94,1.19-1.4,1.8a33,33,0,0,1,10.38,1,0,0,0,0,1,0,.08A41.8,41.8,0,0,0,432.6,395c-.44.58-.85,1.18-1.28,1.76a22.66,22.66,0,0,1,6.18.71c.07,0,.05.14,0,.12a23.63,23.63,0,0,0-6.39-.5q-2.76,3.81-5.3,7.75a5.91,5.91,0,0,1,2.71.16c.05,0,0,.08,0,.08a11.47,11.47,0,0,0-2.93.14q-2.3,3.56-4.41,7.17C421,412.6,420.69,412.45,420.81,412.24Z" style="fill:#263238"></path><path d="M434.11,398.92a13.23,13.23,0,0,1,5,.61c.05,0,0,.08,0,.08a37.09,37.09,0,0,0-4.94-.51C434,399.09,434,398.93,434.11,398.92Z" style="fill:#263238"></path><path d="M449,379.37a8.38,8.38,0,0,1,2.29.13c.09,0,.06.14,0,.13-.75-.08-1.49-.05-2.24-.07A.1.1,0,1,1,449,379.37Z" style="fill:#263238"></path><polygon points="397.87 469.16 436.46 469.16 430.95 428.86 429.55 418.52 404.77 418.52 403.37 428.86 397.87 469.16" style="fill:#455a64"></polygon><polygon points="403.37 428.86 430.95 428.86 429.55 418.52 404.77 418.52 403.37 428.86" style="fill:#263238"></polygon><rect x="401.23" y="414.93" width="31.86" height="8.75" transform="translate(834.32 838.62) rotate(180)" style="fill:#455a64"></rect></g><g id="freepik--Board--inject-95"><rect x="68.63" y="60.3" width="362.75" height="233.38" transform="translate(500 353.98) rotate(180)" style="fill:#fff"></rect><path d="M431.62,293.93H68.38V60.05H431.62Zm-362.74-.5H431.12V60.55H68.88Z" style="fill:#263238"></path><rect x="57.54" y="51.4" width="384.92" height="16.55" transform="translate(500 119.36) rotate(180)" style="fill:#37474f"></rect><rect x="434.61" y="67.96" width="0.97" height="115" style="fill:#263238"></rect><polygon points="436.83 187.49 433.37 187.49 434.24 182.53 435.96 182.53 436.83 187.49" style="fill:#263238"></polygon><rect x="438.12" y="67.96" width="0.97" height="170.83" style="fill:#263238"></rect><polygon points="440.33 242.44 436.88 242.44 437.74 237.47 439.47 237.47 440.33 242.44" style="fill:#263238"></polygon><path d="M90.2,103l159.8-.23c53.27.08,106.53,0,159.8.23-53.27.19-106.53.14-159.8.22Z" style="fill:#dbdbdb"></path><path d="M90.2,109.84l159.8-.23c53.27.08,106.53,0,159.8.23-53.27.19-106.53.14-159.8.22Z" style="fill:#dbdbdb"></path><path d="M90.2,116.68l159.8-.22c53.27.07,106.53,0,159.8.22-53.27.19-106.53.14-159.8.22Z" style="fill:#dbdbdb"></path><path d="M90.2,123.52,250,123.3c53.27.08,106.53,0,159.8.22-53.27.19-106.53.14-159.8.22Z" style="fill:#dbdbdb"></path><path d="M90.2,130.36l159.8-.22c53.27.08,106.53,0,159.8.22-53.27.19-106.53.14-159.8.22Z" style="fill:#dbdbdb"></path><path d="M90.2,137.2,250,137c53.27.08,106.53,0,159.8.22-53.27.19-106.53.15-159.8.22Z" style="fill:#dbdbdb"></path><path d="M90.2,144l159.8-.22c53.27.08,106.53,0,159.8.22-53.27.2-106.53.15-159.8.23Z" style="fill:#dbdbdb"></path><path d="M90.2,150.88l159.8-.22c53.27.08,106.53,0,159.8.22-53.27.2-106.53.15-159.8.23Z" style="fill:#dbdbdb"></path><path d="M90.2,157.72,250,157.5c53.27.08,106.53,0,159.8.22-53.27.2-106.53.15-159.8.23Z" style="fill:#dbdbdb"></path><path d="M90.2,164.57l159.8-.23c53.27.08,106.53,0,159.8.23-53.27.19-106.53.14-159.8.22Z" style="fill:#dbdbdb"></path><path d="M90.2,171.41l159.8-.23c53.27.08,106.53,0,159.8.23-53.27.19-106.53.14-159.8.22Z" style="fill:#dbdbdb"></path><path d="M90.2,178.25,250,178c53.27.07,106.53,0,159.8.22-53.27.19-106.53.14-159.8.22Z" style="fill:#dbdbdb"></path><path d="M90.2,185.09l159.8-.22c53.27.08,106.53,0,159.8.22-53.27.19-106.53.14-159.8.22Z" style="fill:#dbdbdb"></path><rect x="115.64" y="198.8" width="9.77" height="1.15" style="fill:#dbdbdb"></rect><rect x="114.48" y="168.14" width="12.08" height="24.84" style="fill:#FFCB74"></rect><rect x="140.89" y="198.8" width="9.77" height="1.15" style="fill:#dbdbdb"></rect><rect x="139.74" y="155.38" width="12.08" height="37.6" style="fill:#FFCB74"></rect><rect x="166.15" y="198.8" width="9.77" height="1.15" style="fill:#dbdbdb"></rect><rect x="164.99" y="160.3" width="12.08" height="32.68" style="fill:#FFCB74"></rect><rect x="191.4" y="198.8" width="9.77" height="1.15" style="fill:#dbdbdb"></rect><rect x="190.24" y="143.3" width="12.08" height="49.68" style="fill:#FFCB74"></rect><rect x="216.66" y="198.8" width="9.77" height="1.15" style="fill:#dbdbdb"></rect><rect x="215.5" y="126.21" width="12.08" height="66.77" style="fill:#FFCB74"></rect><rect x="241.91" y="198.8" width="9.77" height="1.15" style="fill:#dbdbdb"></rect><rect x="240.75" y="110.05" width="12.08" height="82.93" style="fill:#FFCB74"></rect><rect x="266.01" y="134" width="12.08" height="58.98" style="fill:#FFCB74;opacity:0.6000000000000001"></rect><rect x="291.26" y="134" width="12.08" height="58.98" style="fill:#FFCB74;opacity:0.6000000000000001"></rect><rect x="316.51" y="134" width="12.08" height="58.98" style="fill:#FFCB74;opacity:0.6000000000000001"></rect><rect x="341.77" y="134" width="12.08" height="58.98" style="fill:#FFCB74;opacity:0.6000000000000001"></rect><rect x="367.02" y="134" width="12.08" height="58.98" style="fill:#FFCB74;opacity:0.6000000000000001"></rect><rect x="392.28" y="134" width="12.08" height="58.98" style="fill:#FFCB74;opacity:0.6000000000000001"></rect><rect x="267.16" y="198.8" width="9.77" height="1.15" style="fill:#dbdbdb"></rect><rect x="292.42" y="198.8" width="9.77" height="1.15" style="fill:#dbdbdb"></rect><rect x="317.67" y="198.8" width="9.77" height="1.15" style="fill:#dbdbdb"></rect><rect x="342.93" y="198.8" width="9.77" height="1.15" style="fill:#dbdbdb"></rect><rect x="368.18" y="198.8" width="9.77" height="1.15" style="fill:#dbdbdb"></rect><rect x="393.43" y="198.8" width="9.77" height="1.15" style="fill:#dbdbdb"></rect><path d="M98.87,98.36s.33,76.61.39,94.7l-1.58-.82,78.92,0,77.74.1,77.73.27,77.73.49-77.73.49-77.73.28-77.74.1-77.73,0H97.29v-.83C97.35,175,98.87,98.36,98.87,98.36Z" style="fill:#dbdbdb"></path><path d="M125.94,247.29a17.86,17.86,0,1,1-2.36-8.88A17.87,17.87,0,0,1,125.94,247.29Z" style="fill:#455a64"></path><path d="M123.58,238.41l-15.51,8.88V229.42A17.88,17.88,0,0,1,123.58,238.41Z" style="fill:#FFCB74"></path><circle cx="108.07" cy="247.29" r="12.36" style="fill:#fff"></circle><rect x="102.92" y="244.55" width="10.29" height="1.45" style="fill:#263238"></rect><rect x="100.37" y="248.58" width="15.39" height="1.45" style="fill:#a6a6a6"></rect><path d="M175.94,247.29a17.37,17.37,0,0,1-.2,2.62,17.75,17.75,0,1,1,.2-2.62Z" style="fill:#455a64"></path><path d="M175.94,247.29a17.37,17.37,0,0,1-.2,2.62l-17.67-2.62V229.42a17.86,17.86,0,0,1,17.87,17.87Z" style="fill:#FFCB74"></path><path d="M170.43,247.29a12.36,12.36,0,1,1-12.36-12.36A12.36,12.36,0,0,1,170.43,247.29Z" style="fill:#fff"></path><rect x="152.92" y="244.55" width="10.29" height="1.45" style="fill:#263238"></rect><rect x="150.38" y="248.58" width="15.39" height="1.45" style="fill:#a6a6a6"></rect><path d="M226.28,247.29a17.86,17.86,0,1,1-2.36-8.88A17.85,17.85,0,0,1,226.28,247.29Z" style="fill:#455a64"></path><path d="M226.28,247.29A17.85,17.85,0,0,1,214.82,264l-6.4-16.68V229.42a17.86,17.86,0,0,1,17.86,17.87Z" style="fill:#FFCB74"></path><path d="M220.77,247.29a12.36,12.36,0,1,1-12.36-12.36A12.36,12.36,0,0,1,220.77,247.29Z" style="fill:#fff"></path><rect x="203.27" y="244.55" width="10.29" height="1.45" style="fill:#263238"></rect><rect x="200.72" y="248.58" width="15.39" height="1.45" style="fill:#a6a6a6"></rect><path d="M276.36,247.29a17.86,17.86,0,1,1-2.36-8.88A17.82,17.82,0,0,1,276.36,247.29Z" style="fill:#455a64"></path><path d="M276.36,247.29a17.87,17.87,0,0,1-29.47,13.59l11.6-13.59V229.42a17.86,17.86,0,0,1,17.87,17.87Z" style="fill:#FFCB74"></path><circle cx="258.49" cy="247.29" r="12.36" style="fill:#fff"></circle><rect x="253.34" y="244.55" width="10.29" height="1.45" style="fill:#263238"></rect><rect x="250.79" y="248.58" width="15.39" height="1.45" style="fill:#a6a6a6"></rect><polygon points="307.25 215.89 307.32 223.74 307.34 231.59 307.39 247.29 307.34 262.99 307.32 270.84 307.25 278.69 307.19 270.84 307.16 262.99 307.12 247.29 307.16 231.59 307.19 223.74 307.25 215.89" style="fill:#ebebeb"></polygon><polygon points="410.3 222.85 396.09 222.91 381.87 222.94 353.44 222.98 325.01 222.94 310.79 222.91 296.57 222.85 310.79 222.78 325.01 222.76 353.44 222.71 381.87 222.76 396.09 222.78 410.3 222.85" style="fill:#ebebeb"></polygon><polygon points="410.3 232.81 396.09 232.87 381.87 232.9 353.44 232.94 325.01 232.9 310.79 232.88 296.57 232.81 310.79 232.74 325.01 232.72 353.44 232.67 381.87 232.72 396.09 232.74 410.3 232.81" style="fill:#ebebeb"></polygon><polygon points="410.3 242.77 396.09 242.84 381.87 242.86 353.44 242.91 325.01 242.86 310.79 242.84 296.57 242.77 310.79 242.7 325.01 242.68 353.44 242.63 381.87 242.68 396.09 242.7 410.3 242.77" style="fill:#ebebeb"></polygon><polygon points="410.3 252.73 396.09 252.8 381.87 252.82 353.44 252.87 325.01 252.82 310.79 252.8 296.57 252.73 310.79 252.66 325.01 252.64 353.44 252.59 381.87 252.64 396.09 252.66 410.3 252.73" style="fill:#ebebeb"></polygon><polygon points="410.3 262.69 396.09 262.76 381.87 262.78 353.44 262.83 325.01 262.78 310.79 262.76 296.57 262.69 310.79 262.63 325.01 262.6 353.44 262.56 381.87 262.6 396.09 262.63 410.3 262.69" style="fill:#ebebeb"></polygon><polygon points="410.3 272.65 396.09 272.72 381.87 272.74 353.44 272.79 325.01 272.74 310.79 272.72 296.57 272.65 310.79 272.59 325.01 272.56 353.44 272.52 381.87 272.56 396.09 272.59 410.3 272.65" style="fill:#ebebeb"></polygon><polygon points="320.45 215.89 320.51 223.74 320.54 231.59 320.58 247.29 320.54 262.99 320.51 270.84 320.45 278.69 320.38 270.84 320.36 262.99 320.31 247.29 320.36 231.59 320.38 223.74 320.45 215.89" style="fill:#ebebeb"></polygon><polygon points="333.64 215.89 333.71 223.74 333.74 231.59 333.78 247.29 333.74 262.99 333.71 270.84 333.64 278.69 333.58 270.84 333.55 262.99 333.51 247.29 333.56 231.59 333.58 223.74 333.64 215.89" style="fill:#ebebeb"></polygon><polygon points="346.84 215.89 346.91 223.74 346.93 231.59 346.98 247.29 346.93 262.99 346.91 270.84 346.84 278.69 346.77 270.84 346.75 262.99 346.71 247.29 346.75 231.59 346.77 223.74 346.84 215.89" style="fill:#ebebeb"></polygon><polygon points="360.04 215.89 360.1 223.74 360.13 231.59 360.17 247.29 360.13 262.99 360.11 270.84 360.04 278.69 359.97 270.84 359.95 262.99 359.9 247.29 359.95 231.59 359.97 223.74 360.04 215.89" style="fill:#ebebeb"></polygon><polygon points="373.24 215.89 373.3 223.74 373.32 231.59 373.37 247.29 373.32 262.99 373.3 270.84 373.24 278.69 373.17 270.84 373.14 262.99 373.1 247.29 373.14 231.59 373.17 223.74 373.24 215.89" style="fill:#ebebeb"></polygon><polygon points="386.43 215.89 386.5 223.74 386.52 231.59 386.57 247.29 386.52 262.99 386.5 270.84 386.43 278.69 386.37 270.84 386.34 262.99 386.3 247.29 386.34 231.59 386.37 223.74 386.43 215.89" style="fill:#ebebeb"></polygon><polygon points="399.63 215.89 399.69 223.74 399.72 231.59 399.76 247.29 399.72 262.99 399.69 270.84 399.63 278.69 399.56 270.84 399.54 262.99 399.49 247.29 399.54 231.59 399.56 223.74 399.63 215.89" style="fill:#ebebeb"></polygon><path d="M339,257.33c.09.41.1.4-.13.73l-.83,1.2a1.21,1.21,0,0,0-.3.57c0,.6-.08,1.19-.13,1.78,0,.39-.43.79-.63,1.1-.09.13-.16.36-.32.37s-.51-.05-.64,0l-1.17.8c-.08.06-.07.64-.09.74s0,.34-.07.44l-1,1.25-.89,1.14c-.06.09-1-.32-1.13-.36-.09.32.44.35.5.62a2.09,2.09,0,0,1,.11.53,1.56,1.56,0,0,1-.27.4c-.2.29-.46.28-.77.37a1.4,1.4,0,0,1-.76,0c.06.19.11.28,0,.46s0,.31,0,.35c-.31.22-.49.13-.81,0a1.88,1.88,0,0,0,0,.53c0,.11.21.31.16.42s-.2.42-.29.63-.13.19-.35.24-.22.21-.32.39.17.32.24.42.37,0,.31.21a.91.91,0,0,1-.22.41,1.55,1.55,0,0,0-.32.44c-.08.25-.14.26-.36.39s0,.8.06,1,0,.3.09.36l.49.42c.29.25.48.21.85.21l-1,.46c-.27.12-.32,0-.59-.08l-1.18-.57c-.21-.1-.24-.33-.33-.55a3.4,3.4,0,0,1-.52-1.61l.3-2.6c.09-.83.13-1.7.28-2.52.2-1,.4-2.08.59-3.11l.36-1.9a6.21,6.21,0,0,0,.16-.84,4.43,4.43,0,0,0-.09-.72,2.2,2.2,0,0,0-.08-.64c-.09-.14-.37-.26-.49-.35l-.73-.5a1.56,1.56,0,0,1-.46-.63l-.9-1.68-.74-1.38c-.15-.29.1-.81.17-1.11a2.22,2.22,0,0,1,.15-.59l.42-.54c.32-.41.59-.64.5-1.21,0-.13-.09-.2,0-.29s0-.2,0-.26-.35-.33-.31-.5,0-.18-.13-.27-.12-.07-.24,0a1,1,0,0,0-.25.2c-.05,0,.08.19.11.23-.25.11-.24.14-.35-.13-.05.15-.29-.09-.43-.12s-.11.06-.16,0l-.22-.16c-.15-.12-.45-.26-.55-.43s0-.35-.16-.48c-.29-.33-.47-.63-.86-.74s-.83-.11-1.08-.35l-.64-.64c-.14-.14-.34,0-.51.06-.38.12-.78-.16-1.14-.31l-.89-.35a1.43,1.43,0,0,1-.34-.14l-.57-.59c-.17-.18-.07-.29,0-.54s-.26-.48-.35-.61a1.51,1.51,0,0,0-.3-.36l-.62-.58c-.05,0,0-.18,0-.24s-.1-.16-.13-.2a2.79,2.79,0,0,0-.46-.51c-.15-.12-.32-.19-.38-.39s-.12-.65-.21-.7l-.57-.26a2.63,2.63,0,0,0,.24.81,2.43,2.43,0,0,1,.51.75.73.73,0,0,0,.26.34.86.86,0,0,1,.18.37,1.55,1.55,0,0,1,.12.42c0,.24.11.07.18.12s.24.2.22.32-.16.2-.23.08a1.81,1.81,0,0,0-.6-.57c-.07,0,0-.34-.05-.42s-.19-.21-.28-.28-.17,0-.26-.12l-.32-.28c.13,0,.43,0,.26-.29a1,1,0,0,0-.43-.43c-.14-.07-.18-.31-.24-.47l-.3-.78a1.24,1.24,0,0,0-.76-.61c-.21-.06-.29,0-.38-.23l0,0-.32-.71c-.16-.35-.48-.56-.59-.95a3.35,3.35,0,0,1-.11-1.34c0-.44,0-.88.07-1.32a2.59,2.59,0,0,0-.22-1.09,6,6,0,0,1,.72.22c0-.36,0-.4-.21-.65a2.93,2.93,0,0,0-.54-.45,2.72,2.72,0,0,0-.56-.22c-.32-.14-.37-.15-.51-.48s-.74-.6-.7-1,0-.36-.32-.57c0,0-.23.4-.37.19s-.26-.55-.41-.62a.76.76,0,0,1-.41-.38,5,5,0,0,0-.44-.66,4.67,4.67,0,0,0-.51-.36,4.89,4.89,0,0,0-1.2-.57c-.17-.07-.39.08-.56,0a2.24,2.24,0,0,1-.57-.35.71.71,0,0,0-.55-.17c-.23,0-.34.09-.25.38s-.86.48-1.06.55a.14.14,0,0,1,.1-.21c-.16,0,0-.49.06-.55a1,1,0,0,1,.61-.12l-.18-.17.21-.15a1.81,1.81,0,0,0-.93.43,2.29,2.29,0,0,0-.61.82l.28.07a4.09,4.09,0,0,1-.94.87c-.19.14-.78.29-.8.56s-.79.4-1,.46a1.26,1.26,0,0,1-.27,0c-.11,0-.06.08-.14.13a.56.56,0,0,1-.52.11,2.89,2.89,0,0,1,.58-.35c.16-.1.62-.54.76-.3.1-.17.47-.58.67-.44-.07-.19.28-.31.32-.52a.45.45,0,0,1,.15-.34c.07-.08.15-.12.07-.23-.25.14-.52.36-.77.17-.09-.06-.26-.26-.37-.21l-.39.17c0-.26-.09-.53-.13-.79-.07,0-.41.29-.46.25s-.37-.23-.45-.38a2.21,2.21,0,0,1-.15-.65c0-.15.09-.27.17-.39s.13-.32.4-.3.26-.16.45-.24.36.08.46-.17,0-.23-.17-.37l.18-.11c-.09-.25-.29,0-.44.06s-.21,0-.4,0c-.37,0-.78.12-1-.28,0,0,.09-.06.13-.07-.18-.06-.42-.09-.54-.27a1.47,1.47,0,0,1,.74-.26l-.06-.08a1.2,1.2,0,0,1,.61-.18c0,.3.21.25.44.31s.26,0,.43-.16l-.24-.1.1,0c-.09-.07-.12-.15,0-.22a2.45,2.45,0,0,1-.59-.11c-.16-.06-.16-.32-.32-.39s-.57-.18-.62-.3.08-.27.1-.32.12,0,.15,0,.44,0,.55-.12a3,3,0,0,1,.41-.52,2,2,0,0,1,1-.47,1.19,1.19,0,0,0,.61-.19c.27-.21.25-.22.54-.07s1-.05,1.09.27.84.21,1.09.24.75.09,1.13.16l1.67.29a5.53,5.53,0,0,1,1.05.43c.06,0,.45-.44.51-.5s.3.2.42.15,1.08-.63,1.21-.42l-1,.51c.25.18,1.07-.54,1.14-.24l.29-.33c.08-.1-.12-.12,0-.24a9.91,9.91,0,0,0,.77.81,1,1,0,0,1,.32-.54c.12.12-.09.18.08.28s0,.17-.07.23.31,0,.39-.1,0-.16,0-.17l.18,0c.22,0,.5.18.7.27a9.72,9.72,0,0,0,1.31.35l0-.1a1.21,1.21,0,0,1,.65.3c.18.12-.36.31-.4.33a1.59,1.59,0,0,0,.56.14l.94-.08c.14,0,.4,0,.5.1s.28.43.43.64c0-.09-.05-.18-.07-.28s.05-.1,0-.16c0-.22-.13-.16,0-.38s.72-.16.58-.38a2.06,2.06,0,0,1-.87.21c.08-.28.19-.25.45-.33s.3-.12.54,0c.07,0,.11.2.15.27s.11.09.21.11a3.22,3.22,0,0,1,.58.18c.16.06,1,.16,1.08,0s.09-.38.37-.38a2.78,2.78,0,0,1,.55.14c0,.09-.14.34-.11.42s.28.18.35.23c-.1-.29-.2-.54.15-.6.15,0,.23-.15.34-.26s0-.17,0-.28a1.66,1.66,0,0,1-.27.13c0-.28.17-.32.37-.34,0-.22-.22-.06-.35-.11s-.48-.12-.53-.23a1.5,1.5,0,0,1-.09-.67c0-.25.12-.29.32-.21,0-.12,0-.17-.15-.15.19-.13.21-.11.21-.35a.91.91,0,0,0-.11-.49,1,1,0,0,1,0-.49c0-.13.21-.06.3-.06-.34-.38.27-.27.51-.27a2.64,2.64,0,0,1,.88.12c-.14.2-.32.62-.51.73s-.58,0-.76,0c.57.08-.09.45-.05.64.29-.05.45.2.51.48s.32.39.43.53L321,226c.14.05.25.15.38.06s.25,0,.39.08l-.2.14c.13.12.2.12.16.3s-.08.23.09.33a.77.77,0,0,0,.17-.38c0-.07.06-.33.18-.26s.33.15.35.23.13.34-.06.41c0,0,0-.08,0-.12-.39.22.49,1,.53.58,0-.12,0-.19.08-.27s.17-.11.17-.18c0-.32,0-.3.28-.42-.11-.17-.21-.25-.17-.45s.15-.15.33-.12.43,0,.52.1a.57.57,0,0,0,.42.25c-.1.17.05.28-.05.39s-.27,0-.36.06a1.35,1.35,0,0,0,.27.45c.14.14.21.24.05.44a1.74,1.74,0,0,1-.49.3c-.13.09-.23-.09-.34-.19l.17.37-.26-.13,0,.1-.26-.06c-.06,0,0-.16-.07-.16s-.32-.05-.38.1l.24.14c-.09.14-.16.3-.29.37s-.27,0-.46-.09a2.1,2.1,0,0,0-.93-.16l.71.36a2.34,2.34,0,0,0,.66.09c-.08.13-.21.48-.34.54a.57.57,0,0,1-.25.11c-.1,0-.19,0-.28,0-.27.19-.29.2-.59.11l-.57-.15.38.17s0,.06-.07.08a.41.41,0,0,1,.41.06c.1.05.25.19.09.27a.74.74,0,0,1-.44.07c-.06,0-.16.21-.19.26a2.65,2.65,0,0,0-.45.78l-.21,1c.13,0,.42,0,.52.13s.17.48.23.63.15.17.41.11a.79.79,0,0,1,.41.11,3.45,3.45,0,0,1,1,.51c.11.07.32.3.44.31l.58.06c.06,0,.43,0,.43.08,0,.27,0,.53,0,.79s.36.65.57.92.65-.22.62-.45l-.12-.71c0-.12-.19-.29-.25-.39.23-.15.68-.32.84-.55a1,1,0,0,0,0-1,2.55,2.55,0,0,1-.35-.38c-.15-.21-.2-.19,0-.36s.21-.15.14-.42a1,1,0,0,1-.09-.47.66.66,0,0,0,0-.58c-.05-.17.06-.23.23-.25s.6.23.91.09.25,0,.43.14.33.17.36.28.14.31.33.28a.67.67,0,0,1,.4.12c-.08.14-.13.18-.11.34a.71.71,0,0,1,0,.43s.08,0,.12,0-.29.25-.17.36c.2-.6.92.71,1.07-.1,0,0,.09,0,.13.07.08-.17.21-.33.17-.52s.18-.41.31-.37,0,.14-.05.21c.32,0,.53.65.67.91s.34.43.35.59-.15.22-.13.31.16.13.19.15.21.13.26.21,0,.2.09.2a.86.86,0,0,1,.54.16c.13.09.41.22.11.26a4.74,4.74,0,0,0-.5.15c.1,0,.24,0,.34-.07-.07.13-.31.15-.44.19s-.09.29,0,.2a.32.32,0,0,1,.2-.12c.07,0,0-.07.09-.1a.92.92,0,0,1,.39-.11.24.24,0,0,1-.15-.07c.1,0,.28,0,.32.12s-.11.13,0,.24c.11-.19.24-.09.41,0s0,.3,0,.38.12.2,0,.37a1.1,1.1,0,0,1-.37.23,3.26,3.26,0,0,0-.41.05.73.73,0,0,0-.32.26.73.73,0,0,1-.75.25,6.39,6.39,0,0,0-1,0c-.3,0-.6-.08-.68.31,0,.11-.31.14-.39.19a3.06,3.06,0,0,0-.35.37,3.73,3.73,0,0,1-.54.64c.4-.19.62-.61,1-.81s1-.54,1.22-.06l-.11,0c.21.14-.07.24-.17.33s-.23-.09-.38,0c.06,0,.2.17.21.17a.42.42,0,0,1,.27,0,.45.45,0,0,1-.17.27s.1,0,.15,0c-.08.21.14.38.3.42l0,0c.23.11.46.2.66.06a.52.52,0,0,0,0,.11.37.37,0,0,0,.14,0c-.14-.18.13-.44.23-.58.18.06.08.22,0,.36.13-.1.32.1.2.15a.74.74,0,0,1-.45.13s.05.08.09.12l-.57.23a.45.45,0,0,0-.21.1c-.08.07-.1-.1-.17,0s-.24.3-.38.43-.18,0-.24-.05c-.2-.29.28-.53.44-.65s.06,0,.11.06.17,0,.27-.12a.65.65,0,0,0-.39,0c0-.06.06-.13.1-.2-.15,0-.33.16-.46.24s-.07-.07-.17,0-.15,0-.21,0c.09.31-.43.2-.5.34l-.06-.07c-.08.17-.16.18-.31.24s-.11.12-.15.23-.36.7.05.66l0-.08a.39.39,0,0,1,.08.1c-.12.09-.26,0-.39,0s0,.17-.13.18a1.12,1.12,0,0,0-.68.21c.18,0,.33-.11.51-.14l-.06,0a.66.66,0,0,0,.14,0,.73.73,0,0,1-.34.14c-.11,0-.31,0-.38.08.28,0-.12.56-.22.65.06-.12-.13-.19-.18-.33,0,.17.21.38.14.53a4.44,4.44,0,0,0-.25.48h0a.67.67,0,0,1,.1-.31c-.08-.05,0-.19-.18-.15a.88.88,0,0,1,.07-.32s.1-.23,0-.16-.17.28-.1.57a.72.72,0,0,0-.23-.12c.06.09.21.12.25.2s0,.26,0,.33.2,0,.15.24-.13.14-.26.18c.11,0,.32,0,.29.14s-.26.08-.32.09l.1.07c-.05,0-.08.06-.15,0,.06.15.14,0,.24.07l-.2.11c-.05,0-.12,0-.16,0s-.16.23-.22.32-.18,0-.26.12a.9.9,0,0,1-.22.25,1.1,1.1,0,0,0-.54.62.83.83,0,0,0,.05.62,6.28,6.28,0,0,1,.31.86c.05.16.09.57,0,.68s-.17.2-.27.06-.22-.21-.22-.23a2.18,2.18,0,0,0-.14-.34c0-.12-.12-.19-.08-.34l-.07.06c-.05-.19.12-.46-.07-.59s-.25-.34-.45-.28-.21.11-.31.05a1.43,1.43,0,0,0-.3-.2c-.17,0-.46.18-.51-.11,0,.26-.59.07-.76.21.12,0,.55.06.22.22,0,0,.21.07.22.11s-.06.12-.12.11-.13-.16-.21-.21,0,.11,0,.17c-.08-.16-.15,0-.26-.07s-.19-.2-.34-.14h-.07a.92.92,0,0,1-.23-.09c-.16-.06-.41.12-.57.19s-.85.54-.85.91c0,.11.15.22.15.33a.83.83,0,0,1-.07.27,2.16,2.16,0,0,0-.14.61,2.21,2.21,0,0,0,.35,1.32c.17.25.24.43.51.51.06,0,.15.16.2.15l.34-.13a1.08,1.08,0,0,1,.31-.07c.08,0,.15.1.19.08a.61.61,0,0,0,.14-.07s0-.09,0-.13a.47.47,0,0,0,.19-.25c.06-.22,0-.48.27-.57a1.54,1.54,0,0,1,.51-.1c.14,0,.51-.06.39.22,0,.11-.2.44-.28.45s0,.07.11.06a.94.94,0,0,1-.1.1l0,0,.05,0a2.75,2.75,0,0,0-.11.41.29.29,0,0,1-.06-.24.6.6,0,0,0-.09.15c.17,0,0,.35,0,.48s-.13.32-.21.39a3.78,3.78,0,0,0,.76.06c.11,0,.18-.08.29-.06a1.67,1.67,0,0,1,.39,0,.49.49,0,0,1,.34.54l-.09.52c0,.1-.09.19-.11.28-.06.47.51,1.23.94,1.06.26-.1.4-.21.68-.13a1.26,1.26,0,0,1,.57.44c0-.33.39-.78.55-1.05.05-.08.36-.13.44-.16l.67-.24c.2-.08.58.1.78.15l1.59.37a1.57,1.57,0,0,1,.8.28l1.25,1.19c.26.25.82.26,1.16.34s.55.6.75.85l.6.79c.05.06.15.27.23.29l1.28.47,1.28.46a5.93,5.93,0,0,1,1,.74c.06,0,.45,0,.46.06S338.93,257.14,339,257.33Z" style="fill:#FFCB74"></path><path d="M319.71,223.4l-.21.13c.05,0,.08.07.13.09l-.41.28c.27,0,.33-.05.45.22,0,0,.1,0,.14-.07l.09.21a.85.85,0,0,0-.17.06c.37.13-.2.51-.4.42.05.16-.15.26-.27.23s-.23-.19-.33-.32-.52-.34-.78-.55,0-.22.14-.25.23.2.33.22.22-.16.22-.32-.32-.17-.39-.2.16-.23.24-.23.26-.07.42,0,.23,0,.41,0S319.55,223.32,319.71,223.4Z" style="fill:#FFCB74"></path><path d="M395.53,222.39c0-.2.34-.41.35-.08.14-.12.31-.07.47-.07,0,0,0,.09,0,.14a.61.61,0,0,1,.46,0s.23,0,.24.07a.43.43,0,0,1,0,.23,2.44,2.44,0,0,1-1,.11C396,222.7,395.55,222.5,395.53,222.39Z" style="fill:#FFCB74"></path><path d="M409.36,228.12c-.1.09-.27.29-.4.33a1.39,1.39,0,0,1-.44-.07c0,.2,0,.27-.14.35s0,.25,0,.38a.88.88,0,0,1-.51-.2c-.11-.09-.37.06-.4-.08s0-.4-.23-.41l-.66,0c-.14,0,.09-.41-.2-.36s-.09.4-.1.55-.75.3-.95.35c.17.13.37.18.38.42a1.08,1.08,0,0,0,.28.6s-.11.19-.14.2a.92.92,0,0,1-.28,0c-.1,0-.35-.13-.45-.07l-1.22.74c-.31.19-.66.3-.81.67-.28-.28-.3-.32-.67-.27s-.38.07-.59.38c0-.11,0-.22,0-.33-.11.05-.31.21-.43.19s-.29-.1-.38,0l-.61,1c.11,0,.49.08.45.21-.08.32-.09.33.1.59-.32.14-.61.28-.44.69,0,.07-.24.18-.31.2s-.29,0-.31.22,0,.4-.16.45-.26,0-.31.32-.39.57-.55.77c-.21-1-.92-2.83.25-3.41.34-.16.53-.21.72-.54a2.14,2.14,0,0,1,.68-.66c.2-.15.46-.23.52-.49s.1-.39.14-.58.28-.07.33-.08a1.17,1.17,0,0,0-.49,0c-.15,0-.23.25-.31.38a3.62,3.62,0,0,1-.72.63,1,1,0,0,1,0-.72.85.85,0,0,1-.54.17c-.25,0-.31,0-.5.14a5.93,5.93,0,0,0-.82.84c.08.07.28.16.22.27s-.3.06-.36.07l-.85.1.3-.21-.81-.16c-.07,0-.26.14-.33.18s-.19,0-.28,0a3.57,3.57,0,0,0-.73,0c-.15,0-.61-.07-.73.05-.41.39-.82.78-1.23,1.19a8.11,8.11,0,0,1-1.21,1c.05.14.15.13.28.14s.17,0,.23.15.07.28.12.29c.33,0,.35.08.51-.24s.91.36.87.58c-.09.5-.21,1-.32,1.5a3.49,3.49,0,0,1-.53,1.14,5.82,5.82,0,0,1-.76,1.06l-.55.55-.09.08c-.11.12-.36.12-.51.15s-.14-.2-.21-.21-.23.13-.28.16c-.24.14-.24.21-.34.5a1.08,1.08,0,0,1-.08.19l0,.06a.56.56,0,0,1-.1.15l-.15.17-.17.16-.28.26a2.83,2.83,0,0,1,.38.4h0l.09.14a.61.61,0,0,1,.05.12.3.3,0,0,1,0,.1.36.36,0,0,1,0,.1,1.06,1.06,0,0,1,0,.31c-.05.36,0,.43-.3.59a1.15,1.15,0,0,1-.64.11c0-.2.06-.4.08-.6s-.17-.22,0-.42a.2.2,0,0,0,.05-.2,0,0,0,0,0,0,0l0,0a.12.12,0,0,0-.1,0c-.15,0-.39.12-.44-.12a1.82,1.82,0,0,1,.17-.53,1.25,1.25,0,0,0-.28-.19l-.1,0c-.12,0-.34.21-.45.27l-.45.27c-.12-.3.16-.52.34-.7-.19-.15-.2-.19-.4-.09a1.55,1.55,0,0,0-.37.26,1.16,1.16,0,0,1-.43.27s-.36.13-.27.23a2.71,2.71,0,0,1,.35.41c.13.22.12.19.34.08s.56,0,.89.07l-1.09.92c.15.13.35.24.44.44s.23.51.34.76l-.56-.1.6.44-.45.31.55.17a8.68,8.68,0,0,1-.71,1.31c-.31.39-.54.83-1,1s-1,.39-1.44.57l-.45.16c-.13.05-.1.05-.07.19s0,.29-.15.21a1.25,1.25,0,0,1-.11-.31c.05,0,.1-.05.16-.06a.58.58,0,0,0-.66-.08c-.16.12-.54.32-.61.53s-.14.34-.11.39l.29.46a5.41,5.41,0,0,0,.46.61c.19.26.3.34.31.67s.12.66,0,.8a16.25,16.25,0,0,1-1.28,1.08c-.15-.15.06-.38,0-.49a1.54,1.54,0,0,0-.17-.19l-.26-.28a1.06,1.06,0,0,0-.8-.44l0-.26c-.34,0-.28.06-.31.43a2.16,2.16,0,0,1-.2.64.24.24,0,0,0,0,.15s0,.09,0,.13,0,.15.18.14.19.53.22.63.37.32.5.41a1.47,1.47,0,0,1,.37.42c.07.2,0,.47,0,.68s.16.39.23.58a1.64,1.64,0,0,1-.7-.42c-.22-.17-.23-.27-.33-.56a2.53,2.53,0,0,0-.26-.79l-.61-.65c-.07-.07,0-.38,0-.6a.17.17,0,0,1,0-.07h0s0-.09,0-.12a7.37,7.37,0,0,0-.43-2.41l-.33.4c-.14.17-.13.17-.34.12s-.2,0-.16-.27.1-.38.06-.47a2,2,0,0,0-.51-.86,2.09,2.09,0,0,1-.44-.82c-.12.08-.3.27-.44.29l-.76.1s-.2,0-.22,0,0,.23,0,.28l-.37.38-1.06,1.09a1.76,1.76,0,0,1-.51.26c-.19.09-.12.23-.12.46a2.43,2.43,0,0,1,0,.66,1.51,1.51,0,0,0-.14.62.42.42,0,0,0,0,.12.57.57,0,0,0,0,.14.37.37,0,0,0,.05.11.31.31,0,0,0,.05.1,1.1,1.1,0,0,0,.11.14,2.29,2.29,0,0,1,.32.6c.17.4-.52.75-.57.21a5.51,5.51,0,0,1,0-.7c0-.23-.07-.27-.22-.43h0c0,.16,0,.33-.13.42l-.43.28c-.4-.75-.73-1.53-1.08-2.32a4,4,0,0,1-.29-.67,3.09,3.09,0,0,1,0-.53c0-.5,0-1-.05-1.51l-.31.44c-.11.15-.12.13-.3.12s-.43-.38-.56-.53c.14,0,.43,0,.46-.21a.72.72,0,0,1-.25,0,2.25,2.25,0,0,1-.62-.35c-.13-.07-.22-.4-.28-.54s-1.14.08-1.32.11a3.75,3.75,0,0,1-1.18-.2c-.17,0-.36,0-.45-.19s-.12-.4-.43-.29a1.12,1.12,0,0,1-.68,0c-.17,0-.28-.23-.43-.3a.71.71,0,0,1-.45-.46c-.09-.2-.12-.45-.33-.48s-.35,0-.6.25c-.08.1.21.46.28.57.22.37.41.76.61,1.15,0-.18.06-.35.08-.53a1.64,1.64,0,0,1,.13.83,2.23,2.23,0,0,0,.92-.12,4,4,0,0,0,.63-.72c0,.22,0,.58.14.7a2.44,2.44,0,0,0,.33.23c.1,0,.23,0,.28.12s.12.29.21.31.09.14.07.3-.33.43-.43.55c0-.05-.05-.1-.06-.15a1.17,1.17,0,0,0-.13.51c0,.19-.07.17-.23.25l-.49.23c-.1,0-.09.32-.19.37s-.19-.07-.27,0l-.36.15c-.16.08-.14.3-.29.35l-.81.29c-.08,0-.1.07-.15.15s-.15.09-.26.11-.46.12-.69.19-.21.24-.4.24-.31.06-.37-.24-.11-.61-.16-.91a3.56,3.56,0,0,0-.56-1.2c-.15-.24-.17-.28-.42-.38s-.14-.49-.17-.64a2.47,2.47,0,0,0-.29-.64c-.06-.13-.2-.19-.28-.32l-.48-.87c-.08-.14-.14-.39-.33-.34,0-.18.05-.36.07-.53l-.21.63a2.79,2.79,0,0,1-.53-.8c-.17.22.13.58.23.78.2.4.4.81.59,1.21.12.24.08.51.25.7s.27.21.29.33l.09.61c0,.12,0,.34.1.43a2.39,2.39,0,0,1,.36.35,5.14,5.14,0,0,1,.35,1c0,.1.32.09.39.17l.33.39c.19.21.55.44.27.72.19.06.4.46.55.42l1.59-.43c.09,0,.38-.14.46,0s-.14.6-.16.7a5.77,5.77,0,0,1-.6,1.19,4,4,0,0,1-.56.91,12,12,0,0,0-1.85,2.12c-.11.18-.79,1.11-.68,1.27a.81.81,0,0,1,.17.69.66.66,0,0,0,.18.6c.29.39.19,1,.21,1.48a1.09,1.09,0,0,1-.56.92c-.16.08-.49.15-.61.29l-.48.56c-.14.16-.31.24-.22.45s.28.47.26.62a2.58,2.58,0,0,1-.08.75c-.09.13-.49.23-.62.3s-.18.21-.2.48a2.42,2.42,0,0,1-.07.67,11.93,11.93,0,0,1-.82,1.15,4.78,4.78,0,0,1-.54.47c-.1.09-.3.34-.43.37l-1.41.29-.65.14c-.11,0-.32-.25-.4-.32-.25-.24-.24-.23-.21-.6,0-.14-.14-.4-.19-.52l-.33-.82c-.07-.17-.27-.29-.39-.41s-.08-.46-.1-.58c0-.31-.09-.63-.14-.94a3.78,3.78,0,0,0-.46-1.12l-.36-.74c-.06-.11,0-.31,0-.42a4.18,4.18,0,0,1,.36-1.51c.25-.45.09-.8,0-1.27s-.24-1-.35-1.49a1.5,1.5,0,0,0-.33-.45l-.51-.69c-.09-.12,0-.28,0-.44,0-.31.07-.62.11-.93s0-.28-.11-.5-.17-.26-.45-.25-.48.11-.6,0l-.49-.6a3.37,3.37,0,0,0-1.19.13l-.71.36c-.18.1-.26.05-.46,0a.82.82,0,0,0-.55,0l-.77.27c-.12.05-.26-.12-.36-.19l-.75-.54a1.84,1.84,0,0,1-.66-.67l-.94-1.64-.31-.53c0-.08.12-.38.16-.47s.21-.41.18-.57l-.18-.79a2.6,2.6,0,0,1-.15-.67,1.58,1.58,0,0,1,.2-.36c.31-.55.61-1.1.91-1.65a2.06,2.06,0,0,1,.84-.73c.19-.12.27-.12.31-.35s.09-.58.13-.87.73-.41.87-.74.13-.56.36-.62c.06,0,.23.3.42.25s.28-.1.36-.06.22.16.26.13a5.15,5.15,0,0,1,.56-.33,4.4,4.4,0,0,1,1.17-.36,1.47,1.47,0,0,1,.36,0,1,1,0,0,0,.28.1c.1,0,.19-.12.29-.13a1.13,1.13,0,0,1,.26,0,.93.93,0,0,0,.66-.08c.18-.1.34,0,.53.12-.14.3-.16.31,0,.6.07.13-.21.34-.3.44.15.13.33.38.52.43l1,.25c.25.07.18.35.43.45s.42.06.62.2.43.25.61-.11c0-.08-.1-.21-.05-.29s.11-.26.17-.28a1.24,1.24,0,0,1,.78-.06c.07,0,0,.17.1.19l.44.09c.12,0,.12.08.18.2s.15-.08.2-.06l.69.2a.53.53,0,0,0,.54,0c.27-.13.29-.17.56,0a.68.68,0,0,0,1-.3c.09-.25.54-1,.36-1.28s.13-.51.08-.57-.16,0-.21.08-.15-.08-.22-.06-.17.2-.25.24a1.2,1.2,0,0,1-.33,0c-.2,0-.28-.2-.47-.24s-.22-.09-.27.05-.06.15-.21.18-.41-.18-.54-.26-.62-.8-.38-1.08l-.24,0c0-.27.31-.35.46-.35a1.26,1.26,0,0,0,.69-.16L359,240c0-.13.33-.07.46-.06s.26,0,.45-.16a.86.86,0,0,1,.44-.19,1.49,1.49,0,0,0,.56,0c0,.08,0,.15.12.19s.08-.11.22.08a3.32,3.32,0,0,0,.53.17c.2.08.32,0,.52,0a.77.77,0,0,0,.57-.18c.17-.1.08-.38,0-.49s-.32-.19-.48-.34-.29-.35-.51-.38a1.79,1.79,0,0,1-.22-.13l-.26-.19.07-.1.25.05c-.08-.27.09-.35.28-.34-.09-.08-.21-.15-.26-.25H362c-.06-.19.19,0,.22-.17s-.15-.07-.21-.06a.75.75,0,0,0-.56.23v-.07a.79.79,0,0,0-.49.26.36.36,0,0,1,0-.09c-.24,0-.13.26,0,.37s.31.07.5.07c-.14.25-.29.06-.44.14s-.46.36-.63.22c.1-.28,0-.25-.27-.36.12-.06.57-.23.26-.33a.76.76,0,0,0-.3,0c-.07,0-.17-.11-.23-.15.12,0,.28.07.35-.07-.14.07-.48-.09-.57,0s-.35.31-.37.45a1.2,1.2,0,0,1-.05.33c0,.06-.22.05-.24.13,0,.25,0,.43-.24.56s-.15.36-.05.54.37.27.36.32-.35,0-.45.06l-.46.43c0-.17.08-.2.2-.27-.09,0-.2,0-.3-.08a3.24,3.24,0,0,0-.4-.06c-.07,0-.16,0-.23.07s0,.14,0,.17-.22,0-.33-.07c-.12.13,0,.26.08.38s.11.17,0,.32c.2.14.41.19.37.47-.12-.09-.2-.2-.32,0,.15,0,.17.13.06.21s-.06.14,0,.28c-.13,0-.23,0-.29-.13s-.11-.08-.21,0c-.1-.35-.17-.38.1-.59-.25,0-.25,0-.4-.26s-.14-.34-.25-.43-.13-.28-.1-.55-.06-.24-.25-.39a2,2,0,0,0-.82-.5c-.07,0-.25-.24-.28-.32a.68.68,0,0,0-.27-.45c-.09.25-.19.13-.22,0s0-.14-.19-.08-.3.07-.18.29-.11.25,0,.35a1.59,1.59,0,0,1,.38.29c.09.12.08.31.19.41s.2.21.38.22.3,0,.13.14c.16.13.95.46.75.73-.08,0-.31-.36-.4-.27a.34.34,0,0,0-.14.25c0,.11,0,.1.12.17.24.18-.15.23-.14.34s-.29.42-.28.17a.32.32,0,0,0-.11.44c.07.15-.24.2-.28.08s-.83-.2-.53-.53a1.37,1.37,0,0,0,.55.06,1,1,0,0,0,.39-.09c.1-.06,0-.13.12-.19s-.1-.51-.16-.52-.21,0-.19-.11-.1-.16-.19-.12-.21-.27-.3-.26-.26-.14-.37-.26-.5-.3-.56-.58-.06-.28-.28-.4-.26-.1-.34,0a3.06,3.06,0,0,1-.74.49l-.33-.11-.26-.09c-.1,0-.26.19-.33.26a0,0,0,0,0,0,0s.08.33,0,.43-.35.18-.45.23c-.33.17-.43.43-.62.76-.06.1.19.19.07.35s-.27.26-.21.39-.23,0-.27.09-.12.24-.18.24a4.28,4.28,0,0,1-.62,0c-.18,0-.29.22-.43.26s-.36-.24-.2-.36c-.16.08-.23-.19-.44-.07s-.27-.05-.42.06a1.42,1.42,0,0,0,0-.36c0-.06,0-.13,0-.2s-.07,0-.1,0,0-.23,0-.44.19-.52.11-.71a1,1,0,0,1,0-.58c-.11.09-.19-.08-.14-.19s.25-.1.32-.11l0-.06c.19-.18.28.06.45,0a.77.77,0,0,1,.56,0c.18.06.33,0,.5,0a.86.86,0,0,0,.45,0c.2,0,.26-.3.27-.55s0-.3,0-.4,0-.32-.18-.39-.15-.28-.13-.35-.07,0-.12-.07-.2,0-.22-.05-.14-.13-.26-.12a.17.17,0,0,1-.2-.1.45.45,0,0,0,.11,0,.21.21,0,0,1-.14-.19.81.81,0,0,0,.41-.07c.24-.17.1.13.26.09s.36-.06.35-.14l0-.14-.05-.12a.61.61,0,0,0,0-.12c.07,0,.19,0,.21.06s0,0,0,0h0a.15.15,0,0,0,0,.07l.07,0a.7.7,0,0,0,.43-.06.56.56,0,0,0-.12,0,.3.3,0,0,1,.08-.08,1.27,1.27,0,0,1,.31-.15c.19-.1,0-.22.09-.37s.33-.13.41-.17a.69.69,0,0,1,.4,0c-.06,0-.21,0-.21-.11s.14,0,.15,0,0-.1,0-.13a.8.8,0,0,0,.15-.38c0-.08.15-.07.21-.13s.33-.08.53-.15c0,0,0-.1.05-.11l.17,0a.76.76,0,0,1,.26,0c0-.15.1-.11.21-.13-.06,0-.23-.16-.14-.23s0-.09,0-.23,0-.23-.08-.33-.08-.14-.09-.28,0-.49.28-.5.34-.2.51-.29c-.12.18-.18.56.08.63-.16.25-.45.33-.4.66s.27.45.49.34l-.09.2c.22.13.41-.19.6-.21a.43.43,0,0,1,.28.18c0,.13.15.16.26.22a.5.5,0,0,0,0-.12l-.19,0c.14-.09.62-.1.71-.22a.71.71,0,0,1,.67-.21.22.22,0,0,0,.39.11s.06-.17.09-.2.08,0,.11,0,.16-.1.21-.19a.46.46,0,0,1-.13.2c.35.17.14-.47.13-.63a.48.48,0,0,1,.1-.33c.08-.09,0-.23.14-.32.31-.23.39.28.62.3s.22-.18.2-.29.05-.37,0-.38-.1,0-.13,0-.09-.1-.14-.14-.09-.3-.06-.32a1.6,1.6,0,0,1,.73-.2l.53.06c.25,0,0-.06.18-.15s.24,0,.35-.09.25,0,.33,0c-.05-.17-.38-.23-.52-.29,0,0,0-.1.05-.13-.5.09-1,.22-1.52.31,0,0-.26.09-.29,0a.49.49,0,0,0-.29-.26c-.2-.08-.19-.06-.15-.29a.85.85,0,0,0,0-.39c0-.1-.14-.35-.11-.46s.22-.25.29-.33.38-.3.53-.5.21-.33.31-.38.26.05.2-.15a.51.51,0,0,0-.51-.38c-.35,0-.38,0-.62.25s-.23.31-.11.53-.83.68-.91.78c-.23.3-.63.78-.38,1.22.11.18.42.18.52.4s-.19.28-.3.37-.35.24-.39.51a3,3,0,0,1-.11.73c-.11.27-.31.27-.55.32-.09,0-.08.13-.11.22s-.1.08-.21.09-.18,0-.2-.13a.67.67,0,0,1,0-.34c.07-.19-.21-.42-.32-.56s0-.18,0-.26a1.68,1.68,0,0,1-.15-.3c0-.1.07-.26,0-.29s-.11-.18-.14-.28a.57.57,0,0,1-.31.43c-.15.1-.26.26-.41.35s-.8.07-.81-.28-.18-.85-.16-1.28,0-.37.31-.6a2.87,2.87,0,0,1,.48-.28,1.52,1.52,0,0,0,.55-.35,6.33,6.33,0,0,1,.44-.46,5.26,5.26,0,0,0,.73-1.1,7.38,7.38,0,0,1,.84-1,3.15,3.15,0,0,1,.94-.85,10.86,10.86,0,0,1,1.31-.48c.17-.05.26-.33.41-.42a.93.93,0,0,1,.54-.09,1.23,1.23,0,0,0-.38.65c.2,0,.36-.37.49-.52l.06.29.26-.35s.26,0,.32,0-.11.18-.16.28c.23.17.1-.26.29-.18l.6.23c.17.07-.15.23-.21.24a2,2,0,0,1-.49,0c.07.13.23.08.3.24s.21,0,.29,0,.33.09.44-.06.27.09.34.12-.19.06-.3,0c-.05.33.52.21.67.21a1.34,1.34,0,0,1,.76.26,4.34,4.34,0,0,0,.79.37.86.86,0,0,1,.59.46c.08.25.07.25-.07.46s-.11.22-.25.26a1,1,0,0,1-.73.05,6.66,6.66,0,0,1-1.61-.55c.16.16.61.46.61.7s0,.73.18.82.57.39.81.29.07-.29-.08-.29-.2-.13-.3-.25c.23-.21.24-.16.52-.06l.67.23a4.33,4.33,0,0,1-.17-.51l.51-.34c.09-.06.25-.23.36-.2l.53.16c0-.1.11-.29.07-.39s-.18-.31-.19-.27c0-.17.08-.33.11-.5s-.17-.23-.21-.28l.65.09c.16,0,.27.26.37.4-.11,0-.43,0-.48.08s.08.27.18.4.28.06.45,0,0-.18.16-.33.24-.1.31-.14l.59-.26.89-.4c.09.27.09.27.35.34s.26-.28.41-.27a.86.86,0,0,0,.55,0,.6.6,0,0,1,.54,0l-.11.19c.27.08.26.09.44-.15s.06-.24-.11-.46a1.88,1.88,0,0,1,1.34,0l.8.31a3.09,3.09,0,0,1,.55.42c0-.1.12-.43,0-.49l-.59-.44c-.13-.1.07-.37.13-.51s-.26-.22-.34-.28l.58-.46c.13-.11.18-.49.24-.65s1,0,1.21,0c-.09.23-.17.46-.25.68s.15.39.21.5-.23,1.09-.07,1.19.41.15.31.39-.13.45-.25.53l-.62.38c-.09,0-.37,0-.48-.06a1,1,0,0,0,.92.29,2.6,2.6,0,0,0,.82-.7c.23-.24-.37-.6.12-.75.1,0,.36-.17.44-.08l.38.43c0-.19,0-.37-.16-.48s-.23-.15-.46-.11c-.06,0-.55.12-.56.07s-.16-.37-.1-.5.26-.37.15-.53-.35-.38-.25-.52.29-.21.48-.29,0-.4,0-.48.31.26.25.37c-.15.28-.13.27,0,.55s.86.19,1.06.2a8.33,8.33,0,0,1-.82-.34c-.3-.14.23-.37.35-.41a1.11,1.11,0,0,1,.9.11,1.61,1.61,0,0,1,.33.2c.1.07.24,0,.35,0a1.32,1.32,0,0,0-.14-.41c-.08-.07-.34,0-.44-.07s-.15-.57-.17-.72l1.25-.12.71-.08c.15,0,.09-.18.1-.34,0-.31,0-.31.22-.45a4.15,4.15,0,0,1,.53-.32,9.28,9.28,0,0,1,1.26-.23,12.13,12.13,0,0,0,2.24-.51c.17-.07.09-.34.23-.41l.65-.33a.75.75,0,0,1,.91.14l-.61.19,1,.14-.4.34.54,0c0-.07,0-.34,0-.33h.42a1.17,1.17,0,0,1,.62.08,2.74,2.74,0,0,1,.63.44s.21.23.19.28-.09.27-.15.31l-2.59,1.59,1.8-.51-.46-.07c.18-.15.46-.3.68-.14a.84.84,0,0,0,.8.19,7.46,7.46,0,0,1,1.56.12l-.3.17c.13.06.36.24.49.23l.62,0c.12,0,.46.06.48-.1,0-.32,0-.31.29-.31a2.89,2.89,0,0,0,.59,0c.14,0,.44-.15.58-.11s.32.37.42.48-.07.45-.08.56,0,.55.08.58l.56.32c.09,0,.34-.37.4-.45s.13-.24.35-.1.27.22.52.14.34-.17.5-.09.36.26.49.21l.58-.24c-.06-.1-.24-.31-.17-.41s.23-.4.32-.39l1.11.15a6.07,6.07,0,0,1,.84.21,4.46,4.46,0,0,1,1,.25c.17.09.54.7.7.67l1.12-.19a2.18,2.18,0,0,1,.89.18c.17.06.26,0,.32.22a.61.61,0,0,1,0,.46,1.67,1.67,0,0,0,.87.16,2.54,2.54,0,0,1,1,0c.13,0,.32.11.44,0s.16-.14.32,0,.28.35.43.42.33,0,.44-.05c0-.25-.07-.49-.11-.74l1.59.13a3.69,3.69,0,0,1,1.2.5c.43.21.85.43,1.27.68a.62.62,0,0,1,.41.46c.13.33.09.44.42.44l-.12-.41a2.11,2.11,0,0,1,.82.13A2.35,2.35,0,0,1,409.36,228.12Z" style="fill:#FFCB74"></path><path d="M355.84,234.05a.39.39,0,0,0-.13-.06h0A.81.81,0,0,1,355.84,234.05Z" style="fill:#FFCB74"></path><path d="M332.34,236.1c0,.06.11.08.16.1s0,.17.05.24.47-.16.56-.06.13.13.11.31.17.1.2.2.14.5.05.65-.12.13-.26.07-.15-.07-.11-.27c-.28,0-.33.2-.59.25a.2.2,0,0,1,.16-.21,1.49,1.49,0,0,0-.88-.12c-.09,0-.31,0-.38-.06a.68.68,0,0,1,0-.4A2.3,2.3,0,0,0,332,236c.1-.23.38-.58.64-.48-.05.09-.09.18-.13.27S332.34,235.89,332.34,236.1Z" style="fill:#FFCB74"></path><path d="M382.62,256.87c0,.06,0,.12,0,.18-.3-.28-.57-.56-.83-.85a1.7,1.7,0,0,1-.35-.45,3,3,0,0,0-.33-.72c-.06-.06-.15,0-.18-.12s-.08-.29-.11-.43-.37-.19-.38-.45-.28-.28-.41-.4-.38-.45-.31-.55.45.1.53.1c.27,0,.23.14.38.35a3.47,3.47,0,0,0,.45.41c.16.15.35.21.48.39s.15.08.26.1.06.06.16.14.17,0,.17.17.19.07.22.22-.1.13-.08.26.18.11.25.14.06.24.08.31.16.11,0,.26a.25.25,0,0,1,.42.26,7.14,7.14,0,0,0-.07.83C382.85,256.79,382.76,257.05,382.62,256.87Z" style="fill:#FFCB74"></path><path d="M348.53,234.32h-.06a.2.2,0,0,1,.12-.17A.12.12,0,0,1,348.53,234.32Z" style="fill:#FFCB74"></path><path d="M324.82,223.7a.21.21,0,0,1,.05-.4l.36.14c.1,0,.24,0,.33,0a1.57,1.57,0,0,1,.65.52,1.68,1.68,0,0,0-.5,0c-.12,0-.46.17-.57.11a1.07,1.07,0,0,1-.21-.13C324.85,223.82,325,223.77,324.82,223.7Z" style="fill:#FFCB74"></path><path d="M326.73,248.6c-.07-.21.51,0,.65-.07-.14-.22-.12-.29-.35-.4.23-.1.29,0,.51,0a.54.54,0,0,0,.21,0c.07,0,.2,0,.28.07s.1-.05.16.07.09.15.25.18.21.1.17.17-.07,0-.21,0-.31.06-.48.06-.05-.09-.15,0,0,.24-.11.26-.1-.18-.16-.2-.17,0-.25,0C327,248.64,326.93,248.74,326.73,248.6Z" style="fill:#FFCB74"></path><path d="M356.35,225.76l0-.1h.14C356.47,225.77,356.43,225.82,356.35,225.76Z" style="fill:#FFCB74"></path><path d="M354.2,226.93a.28.28,0,0,0,0-.09c.06-.05.12-.06.17,0A.15.15,0,0,1,354.2,226.93Z" style="fill:#FFCB74"></path><path d="M310.86,224.54a.76.76,0,0,1-.16,0c0-.16.11-.28.2-.39s-.1-.24.17-.26h0c-.14-.14.11-.37.21-.47s-.18-.36-.23-.46l.94-.13c.2,0,.4.17.61.22h0l.09,0,.09,0a.61.61,0,0,1,0,.13c.21-.24.48-.14.72,0a1.46,1.46,0,0,1,.33.22c.16.11.17.17,0,.29a3.25,3.25,0,0,1-.85.38c-.12.05-.18,0-.22.17s-.18.26-.32.17l-.09.43a1.75,1.75,0,0,1-.28.13s0-.08-.06-.06l-.14.08c-.3.17-.27.18-.51-.09A1.37,1.37,0,0,0,310.86,224.54Z" style="fill:#FFCB74"></path><path d="M325.89,247.86c0-.13-.19-.08-.24-.11s-.2-.29-.37-.32-.35-.15-.53-.16-.12-.08-.22-.05a.21.21,0,0,1-.23-.08.2.2,0,0,0,.16,0c-.32-.32-.68.4-1,.23.17-.1.22-.3.42-.34a1.94,1.94,0,0,1,.71-.1,2.67,2.67,0,0,1,1.2.52l0,0a.63.63,0,0,0,.51.25s.09.13.18.15a.55.55,0,0,1,.3.18l-.38.11c-.24,0-.48,0-.72,0C325.73,248,325.89,247.9,325.89,247.86Z" style="fill:#FFCB74"></path><path d="M348,233.11c0-.05.14-.09.15-.13a.33.33,0,0,1,.11-.21l-.08,0,0,0s-.09,0-.08-.1l.09,0s0-.12-.07-.17a.21.21,0,0,1,.22,0,1.5,1.5,0,0,1-.11-.13s0,0,0-.08h.09c-.05-.12.07-.24.1-.1.1,0,0,0,.09,0a.7.7,0,0,1,.45-.08c0,.21-.3.24-.33.38h-.1a.83.83,0,0,1,.15,0c-.05,0-.08.1-.12.14l0,0c.07-.13.64-.2.72-.07s-.36.47-.26.69a.22.22,0,0,0-.22.09c.35.05.51.08.63.47s.4.33.46.7a.17.17,0,0,0-.22-.07c.14,0,.42.24.23.38.05,0,.54-.15.5.14s-.17.36-.38.52c.09,0,.51.09.23.21a2.91,2.91,0,0,1-.55.13c-.12,0-.14-.09-.25-.09s-.23.11-.3.15c-.25.12-.3-.16-.44.18-.24-.17-.43.18-.6.06.09-.11.31-.22.35-.35s.27-.17.46-.14a.55.55,0,0,1,.14-.23l-.3.11s-.17-.08-.23-.08l.05,0c-.14-.08-.26.13-.35,0s0-.06,0-.08.29-.07.34-.14,0-.18,0-.32l-.21,0c.11-.07.17-.17,0-.26a.12.12,0,0,1,.17.07c.09-.07.18,0,.29,0s0,0,0-.07,0,0,.09.05h0a.36.36,0,0,1,0-.41c-.18.14-.33-.31-.05-.38-.16,0-.31.13-.43.05,0,.14-.08,0-.15,0v.1c-.16-.12,0-.14,0-.28s0-.1,0-.22,0-.12.05-.13l0-.11c-.11.22-.23.09-.08,0-.13,0-.13.17-.14.27s0,.29-.09.2,0-.08,0-.14,0-.12,0-.21.06-.28.19-.35,0,0,0,0-.13.16-.22.13c.12.1-.06.17-.14.09C348.11,233.2,348.11,233.14,348,233.11Z" style="fill:#FFCB74"></path><path d="M348.34,233.67a.24.24,0,0,1,0-.14C348.36,233.55,348.38,233.6,348.34,233.67Z" style="fill:#FFCB74"></path><path d="M314.2,221.49c.23.09.12.21.41.15s.31.18.43.28L315,222c.19,0,.21,0,.26.17s.34.05.42.06.32.09.35-.09-.29-.16-.36-.19l.23-.09-.34-.21.15-.13.12-.14h0a.35.35,0,0,1,0-.08c.08,0,.13,0,.16,0a.18.18,0,0,1,.08.12.43.43,0,0,1,0,0l0,.06a.08.08,0,0,0,0,.05.15.15,0,0,0,.06.09c.07.06.09.22.18.25s.19.07.23.23c.12-.16-.13-.25.18-.29s.27.15.23.34-.1.33-.25.33h-.33c-.11,0-.12.12-.18.12s-.21-.12-.34-.07l-.7.25c-.42.16-.58.24-1,0,.32-.11.79-.15,1-.39-.12.08-.39.16-.46,0,0,.16-.28.11-.4.12,0-.13.09-.24-.06-.29-.06.24-.1.26-.3.38,0-.16-.21-.19-.15,0l-.23-.07s0-.06,0-.09a.67.67,0,0,1-.46,0c.14-.27.59-.13.81-.31-.07,0-.64.19-.66,0s.66-.13.74-.18a1.26,1.26,0,0,1-.58,0v-.12a1.28,1.28,0,0,1,.62-.05c-.07,0-.36,0-.36-.14S314.15,221.48,314.2,221.49Z" style="fill:#FFCB74"></path><path d="M395.78,271a.61.61,0,0,1-.56-.43,1.75,1.75,0,0,1-.1-.82l.51.23c.09,0,.38-.15.48-.18C396.45,269.92,396.12,271.07,395.78,271Z" style="fill:#FFCB74"></path><path d="M387.53,249.43c0-.11-.07-.14-.06-.25s.07-.38.1-.57.15-.12.21-.11c.21,0,.1.16.34.05.07.16-.06.21,0,.33s.14.11.06.36a1.06,1.06,0,0,1-.06.19s-.14,0-.14,0-.14.14,0,.37,0,.27.16.28.07-.12.15-.1a.43.43,0,0,1,.18.06.62.62,0,0,0,.19.12s.06-.13.12-.06,0,.21-.13.14c0,.2.21.14.11.35-.06,0-.25-.12-.25-.19s0-.18-.21-.25a1.87,1.87,0,0,1,0,.25.41.41,0,0,0-.15-.17c-.17-.1-.12,0-.26,0s-.3-.21-.1-.32c-.09,0-.25,0-.27-.16s-.11-.36,0-.49Z" style="fill:#FFCB74"></path><path d="M346.71,235.32l.16-.08-.15-.05a.28.28,0,0,0,.2-.13c.05-.08.23-.08.31-.09a.6.6,0,0,0-.37,0,2.37,2.37,0,0,1,.29-.32.76.76,0,0,1-.36-.11s.15-.11.13-.18-.07-.15.05-.22.16,0,.23,0,.16-.05.25-.12l-.21-.07c.1-.18.32-.43.54-.3a.56.56,0,0,1,0,.08c.07,0,.25-.09.29,0s.1.27.2.24c0,.25-.08.25-.27.39a.48.48,0,0,1,.12.4c0,.11-.07.21-.09.32s-.11,0-.2.06c-.28.07-.67.52-.95.28,0,0,.05-.07.09-.09Z" style="fill:#FFCB74"></path><path d="M321.17,222.17c.15-.16-.09-.36-.18-.46s-.25-.1-.46-.08-.36.08-.56-.12-.29-.32,0-.41a1.6,1.6,0,0,1,.61.07c.18,0,.27.19.46.22s.38-.12.56,0,0,.13.17.17l.3.09c0,.16-.39,0-.36.14l.41.24.26.16s.14-.07.2-.08a2.08,2.08,0,0,1,.6.13.87.87,0,0,1-.1-.08,4.67,4.67,0,0,0,.5-.14c.18-.06.32,0,.48,0a1.12,1.12,0,0,1,1.06.32l-.23.17a.57.57,0,0,1,.28.11c-.17.06-.23,0-.28.22s-.39.09-.46.1a.62.62,0,0,1-.35-.06c-.15-.06,0-.27-.24-.27a2.23,2.23,0,0,1,0,.23c-.14,0-.44.16-.49-.05-.05.21-.31.16-.42,0,0,0,0,.09,0,.14l-.58,0c-.19,0,0-.22-.17-.29a1.42,1.42,0,0,0,0,.2s-.07-.07-.09-.12c0,.2-.15.15-.28.13s-.16,0-.23-.2c-.1.07-.31.22-.38.06S321.07,222.4,321.17,222.17Z" style="fill:#FFCB74"></path><path d="M347.94,233.5a.39.39,0,0,1,.1-.08c0,.09,0,.15,0,.18S348,233.52,347.94,233.5Z" style="fill:#FFCB74"></path><path d="M321.75,217.79l-.52-.24c.27-.15.59-.33.84-.1.2-.44.69-.22,1.06-.25l-.3-.14h.42a2,2,0,0,0-.08-.22c.12,0,.31,0,.41,0a2.17,2.17,0,0,0,.49.32l1.1.27-1-.54c.11-.09.27-.3.41-.31l.39,0c.09,0,.11-.12.19-.15a1.52,1.52,0,0,1,.55.1l.59.24-.51-.41h.85c.19,0,.41.23.57.34l-.14-.28a9.48,9.48,0,0,1,1.05-.15,7.94,7.94,0,0,1,1.09.15l-.57.33a2.59,2.59,0,0,1,1-.13,8.07,8.07,0,0,1,1.17.31,3.18,3.18,0,0,1-1,.52l-1.35.1.61.11-1,.31,1.72-.35c0,.28-.77.48-1,.62a2.21,2.21,0,0,1-.6.37l-.67.14.42,0a1.24,1.24,0,0,1-.42.34c-.14.07-.32,0-.46-.07l.06.21c-.38.07-.77.11-1.16.16.16,0,.77-.06.72.2H326c.15,0,.64.05.62.28l-.56.08.32.17a.68.68,0,0,1-.42.31c-.11,0-.37-.12-.43-.07s.2.16,0,.33-.4.3-.33.4.08.08.2,0,.12,0,.23.05,0,.17.05.24-.14.09-.19.1-.12-.06-.14-.05-.08.12-.14.14l-.56.17c0-.17.1-.22,0-.32s-.16.1-.29,0c0,.26-.31.12-.38,0,0,.2-.14.13-.24.09s-.16.11-.32.11l-.42,0c-.14,0-.27.1-.3-.11-.08.24-.36.09-.37-.13-.12.14-.17.27-.31.09.11-.06,0-.13,0-.19a1,1,0,0,1,.31-.13c.21-.09.31,0,.49-.22-.25,0-.26-.05-.39-.3a1,1,0,0,1,.54,0c.16,0,.18.27.36.32.45.12.61-.14.87-.5-.16.17-.47.56-.74.37s0-.42.05-.74c-.14.14-.29.39-.49.34s-.55-.08-.25-.37a1.1,1.1,0,0,1,1.25-.08,1.83,1.83,0,0,0-.56-.67c-.24-.17-.69-.14-.46-.59,0,0,.76,0,.8,0a3.51,3.51,0,0,1,.8.49l-.57-.52c.57-.11,1.13-.23,1.69-.37l-.27-.12.42-.38a2.49,2.49,0,0,0-.83.51c-.08.08-.35.07-.45.09l-.53.1.32-.26-.42.13a1.25,1.25,0,0,1,.09-.12c-.06,0-.25,0-.26.11s0,.16-.22.16a4.93,4.93,0,0,1-.66-.07,1.48,1.48,0,0,1,.7-.39,1.28,1.28,0,0,0-.78.26c-.24.16-.5,0-.76-.08a1.5,1.5,0,0,1,.66-.13,1.77,1.77,0,0,0,.7-.24,4.62,4.62,0,0,1-.82.18c-.3,0-.57.16-.82,0l.45-.38Z" style="fill:#FFCB74"></path><path d="M405.74,225.37a1.91,1.91,0,0,1-.08-.42,1.66,1.66,0,0,1,.46-.19l.57,0c.14,0,.23.13.34.23a1,1,0,0,1-.68.26c-.08,0-.15-.05-.23,0Z" style="fill:#FFCB74"></path><path d="M343,225.78l-1.22.74a4.47,4.47,0,0,1-1.13.34l-.76.2c-.16,0-.21.14-.32.28a3.24,3.24,0,0,1-.45.56,2.25,2.25,0,0,1-.57.19l-.8.26c-.2.07-.19.07-.27.29-.15.41-.3.82-.43,1.23s-.33,1-.5,1.55c0,.05-.38,0-.44,0l-.8-.3c-.13,0-.37-.07-.45-.2s-.34-.52-.5-.79a6.49,6.49,0,0,1-.78-1.35l-.33-.94a2,2,0,0,1,.07-.8s0-.26,0-.27l.46-.19s.25-.07.25-.12l.06-.5-.65.2c-.3.09-.29.09-.51-.16s-.07-.34,0-.6-.15-.38-.32-.56,0-.33,0-.56.05-.28-.06-.52a5.6,5.6,0,0,0-.66-1.29c-.07-.09-.29-.5-.4-.52l-.66-.11a4,4,0,0,0-1.25-.1l-.72.09c-.12,0-.42-.24-.52-.31l-.64-.37c-.16-.09-.29-.39-.4-.53s-.2-.22-.19-.29,0-.31.11-.33l1.08-.31a3.23,3.23,0,0,1,.81-.16c.19,0,.22,0,.3-.17s.14-.35.2-.52c-.31,0-.59,0-.82-.25l1.87-1c.25-.12.5-.26.75-.39a2.25,2.25,0,0,1,.69-.09l1.33-.18a2.59,2.59,0,0,1,.68-.09,13.34,13.34,0,0,1,1.84.54,2.58,2.58,0,0,0-.95-.75l1.1-.5c.25-.12.56,0,.83.06l.65.12c.17,0,.18-.27.31-.34a1.17,1.17,0,0,1,.37,0l.81-.07a10.58,10.58,0,0,1,2.24.18,7.13,7.13,0,0,1,1.88.66l-1,.36a1,1,0,0,0,.67.12c.28,0-.11.62-.13.68.19-.08.61-.37.82-.34l.54.09c.16,0,.22-.14.32-.27s.6-.14.82-.1a5.94,5.94,0,0,1,.91.36l-.79.46a2.11,2.11,0,0,1-.71.17l.2.17a2.7,2.7,0,0,1-.59.53,1.75,1.75,0,0,0-.59.46c-.12.2-.43.5-.33.74s.3.38.57.56l-.76.74.52.35c.14.1.12.36.15.53a2.33,2.33,0,0,1,.09.56l-.52.57a3.34,3.34,0,0,0-.47,1.13c-.05.14.1.48.14.63C343.21,225.55,343.19,225.54,343,225.78Z" style="fill:#FFCB74"></path><path d="M378.35,218.93c0-.07.11-.35.17-.36s.34,0,.37-.12,0-.26.2-.32l.48-.14c.13-.05,0-.19.22-.18s.52.36.7.48c-.27.08-.27.05-.22.35,0,.14.32.13.44.16l-.26.27c.26-.1.39-.21.64-.08s0,.21,0,.32.07.27.09.35a.84.84,0,0,1-.64,0,1.3,1.3,0,0,0-.73-.07c-.25,0-.34-.24-.5-.45s-.47,0-.65,0S378.33,219,378.35,218.93Z" style="fill:#FFCB74"></path><path d="M394.19,235.37a1.46,1.46,0,0,0,.07-.54c0-.13-.06-.14,0-.22s.1,0,.15,0,.05-.28-.06-.39c.29-.22.19.22.27.38s-.08.45,0,.76c0,.09.12.17.15.26s.07.28.1.42a2.92,2.92,0,0,0,.29.78c-.18,0-.16-.31-.34-.28s-.25.13-.35.43,0,.25.12.44.27.4.12.56c0-.13-.07-.33-.23-.31s-.16.24-.19.37a1.1,1.1,0,0,1-.05-.54c0-.08-.07-.19,0-.26a.29.29,0,0,0,0-.3c0-.26-.14-.26,0-.51a1.42,1.42,0,0,0,.07-.62C394.48,235.61,394.17,235.53,394.19,235.37Z" style="fill:#FFCB74"></path><path d="M364.43,218.5l-.41-.11a1.79,1.79,0,0,1,1.06-.14,1.18,1.18,0,0,0,.55-.09c.19,0,.3.05.46.16l-.88.2a1.82,1.82,0,0,0,.07.25,1.89,1.89,0,0,1-.74-.12l.45-.3Z" style="fill:#FFCB74"></path><path d="M405.5,269.05s0,.17-.06.12-.25,0-.24.12a1.77,1.77,0,0,1-.29.68c-.12.24-.3.16-.45.06.08-.1.29-.32.2-.49s-.19-.06-.23-.09-.15-.14-.23-.2a.73.73,0,0,0,.31-.43c.06-.17-.06-.33,0-.51-.16.06-.31-.48-.38-.63l-.08.05c-.06-.14-.13-.27-.2-.41.13,0,.19.17.33.21s.12.07.2.32a.74.74,0,0,0,.12.17c.05.07,0,.17,0,.24.11.22.23.08.21-.1.18.08.06.41.24.45s.33.1.58-.07C405.8,268.58,405.61,269,405.5,269.05Z" style="fill:#FFCB74"></path><path d="M389,257.84c-.16.15-.5.05-.69.06s-.15.14-.29.11-.08.06-.14.07-.09-.09-.2,0c-.07-.07-.5,0-.33-.2s.44.1.58,0,.15.08.21,0,.12-.11.26-.1A1.73,1.73,0,0,1,389,257.84Z" style="fill:#FFCB74"></path><path d="M317.79,226l-.12,0c.09.09.06.2.06.32.12-.12.23-.22.4-.17-.1.15.06.12.06.24s-.26.14-.33.15c-.25,0-.49-.12-.74-.12,0,0,.05,0,.08-.06l-.45-.09s0-.1,0-.14-.13.08-.22.15a.54.54,0,0,1-.3.13c-.21,0-.29.18-.51.2l-.95.07c-.26,0-.33-.13-.3-.41-.45,0-1,.07-1.15-.49a3,3,0,0,1,.92-.18,5.17,5.17,0,0,0,.55.07c.08,0,.46-.07.22-.13a3.93,3.93,0,0,0-1-.16h-.71c-.18,0-.22-.08-.36-.21l.7-.31-.67,0s0-.09,0-.12h-.31c0-.21.17-.32.29-.44-.05,0-.09-.06-.14-.07a3.19,3.19,0,0,1,.94-.51c.18-.06.25-.13.41,0s.06.3-.09.42l.28,0c.09,0,.12-.2.19-.22s.45.21.56.27l-.13.17c.17,0,.18,0,.27-.14s.26,0,.33,0l-.3-.31c.17,0,.57,0,.65.22l.18.51c0,.15.12.06.25,0-.07-.18-.14-.37-.2-.55l-.09-.25c0-.08.11-.11,0-.23.06,0,.28.19.32.12s.19,0,.31.11c.28.15.36.61.49.92.05.13-.06.28,0,.37s.35.22.43.27a1.16,1.16,0,0,0,.69.24c0,.14,0,.53-.16.23,0,0,0,.07-.06.11-.13-.11-.27-.18-.31.08A.47.47,0,0,1,317.79,226Z" style="fill:#FFCB74"></path><path d="M384.73,254.53c-.18-.17-.13-.16,0-.38s.25-.16.43-.22.21-.21.3-.35.17-.2.4-.26.07-.16.2-.3.28-.42.38-.44.33.22.39.3.1.18.17.2.15,0,.19.11l-.33.09.13.18c-.08,0-.36,0-.37.16a1,1,0,0,0,0,.2c0,.1.09.15.15.32s0,.13,0,.17.15.13.2.18c.21.19.1.22-.12.17s-.2.2-.19.33,0,.27-.18.44-.19.13-.19.32,0,.41,0,.62c-.1,0-.1-.07-.07-.17l-.44.22c0-.07,0-.23-.09-.25s-.16,0-.21,0c-.26-.17-.29-.11-.57,0a2.17,2.17,0,0,0,0-.25c-.09,0-.44.19-.46,0s0-.52-.16-.66c0,.1,0,.05-.11.1,0-.14,0-.06,0-.14a.06.06,0,0,1,0,0,.78.78,0,0,1-.05-.14c0-.05.06-.07.05-.11s-.11-.13-.1-.21,0-.25,0-.37l.21-.12C384.24,254.5,384.57,254.49,384.73,254.53Z" style="fill:#FFCB74"></path><path d="M387.19,255.43c.05-.17.25-.25.12-.44a.8.8,0,0,1,.33-.43c.14-.09.4.06.54.11s.1,0,.2,0,.2.08.27,0,.24-.31.39-.32c-.11.31-.31.7-.65.49-.15-.08-.35,0-.51,0s-.27-.13-.37,0,.08.78.35.49c.11-.13.05,0,.16,0s.1-.08.22-.08.31-.15.24.1c-.25-.17-.35.4-.64.3.08.09.15.08.21.2l.12.22c0,.05-.08.13-.07.17s.27,0,.2.25c0-.05-.27.17-.23.17-.12,0-.22,0-.18-.16s-.13-.13-.18-.28.09-.32,0-.31-.08.12-.09.25,0,.29,0,.4-.07.11-.07.17.07.17,0,.21-.29.05-.33,0a1.71,1.71,0,0,1,.08-.53c0-.23-.14-.1-.2-.2s-.07-.2,0-.39S387.14,255.56,387.19,255.43Z" style="fill:#FFCB74"></path><path d="M365.56,259.52a1.58,1.58,0,0,1,.05,1l-.16-.16a2.58,2.58,0,0,1-.12,1.07c-.19.62-.38,1.24-.56,1.86-.06.17-.11.35-.16.52,0,0-.41.14-.46.17s-.46-.11-.47-.19-.07-.45-.13-.67a1.07,1.07,0,0,1,0-.66c.07-.2.31-.41.33-.62a2.45,2.45,0,0,0-.16-.7c0-.11.08-.52.17-.54a1.79,1.79,0,0,0,.62-.23c.2-.1.28-.27.43-.44s.28-.22.29-.53.28,0,.36.12Z" style="fill:#FFCB74"></path><path d="M319.13,221.38c.06,0,.2.05.26.07a.49.49,0,0,1,.14.24c0,.08,0,.18,0,.27s.08.13.05.25l-.1-.07a.19.19,0,0,1-.08.18c.05,0,.09.09.15.11-.15.14-.37.07-.54.06s-.09.09-.15.07-.22,0-.24-.16.11,0,.16,0a.72.72,0,0,0-.25-.07.23.23,0,0,1,.22-.09l-.05,0a.17.17,0,0,0,.17-.11c-.21,0-.43.05-.64.09s-.53,0-.25-.18h-.26a.25.25,0,0,1,.2-.09c.13,0,.38.1.42,0-.15,0-.18-.11,0-.16h-.19c0-.43.63.2.72.25l-.2-.27s.1,0,.15,0-.46-.14-.2-.24S318.94,221.5,319.13,221.38Z" style="fill:#FFCB74"></path><path d="M396.09,257.3l-.28,0c0,.07.05.22.11.26s.19.09.22.16c.14.28.13.36.41.37-.08.18.09.16.21.19-.12.1.14.28.22.36-.11,0-.32-.12-.45-.14s-.37,0-.51-.17-.36-.37-.53-.56-.47-.07-.59-.09-.16.34-.27.41a1,1,0,0,1-.64.06c-.14,0-.23-.35-.34-.34l-.67.07c0-.33.07-.3.36-.38-.08-.2-.16-.39-.25-.59s-.31-.17-.41-.21l-.74-.31c-.21-.09-.2-.08-.25-.33l-.26.31c-.1-.16-.19-.33-.29-.5a.92.92,0,0,1,.59,0,.39.39,0,0,0,0-.15,1,1,0,0,1-.57,0c-.07,0,0-.19-.07-.2l-.29-.05a.59.59,0,0,1,.73-.29c.18,0,.23,0,.26.21a1.94,1.94,0,0,0,.14.51c.06.16.13.17.28.24s.25-.29.29-.34a.6.6,0,0,1,.57-.23l1.07.41a4.22,4.22,0,0,1,.7.27l.42.26c.14.09.07.27.17.38S396.13,256.9,396.09,257.3Z" style="fill:#FFCB74"></path><path d="M394.08,239.1a.32.32,0,0,0,0-.25c0-.1.15-.19.12-.28s-.1-.64.08-.39a1.39,1.39,0,0,0,.46.5c.29.15.3.21.54,0,.05.14-.21.43.14.42a.49.49,0,0,1-.46.18.47.47,0,0,0-.24.13,1.62,1.62,0,0,0-.08.27c-.1,0-.35-.17-.43-.24s-.19,0-.24.06-.16-.08-.26,0c0,.2.17.12.23.23s-.05.09-.1.07-.13.15-.17.13a1.42,1.42,0,0,1-.14-.41c0-.13.05-.13.16-.18s0-.18.07-.25Z" style="fill:#FFCB74"></path><path d="M392.93,222.61c-.08-.11-.26-.24-.22-.38s.18-.32.38-.48.68.25.9.35c0-.18-.1-.29.06-.36s.22.06.31.09l.95.37a.89.89,0,0,1-.28.23c-.14.09-.2,0-.35,0l.13.21-.36.07c-.07,0-.15-.22-.22-.19-.23.09-.48.31-.64,0-.1.22-.09.23-.31.25S393,222.68,392.93,222.61Z" style="fill:#FFCB74"></path><path d="M317.25,219.62H317c.09-.28.24-.23.5-.26s.35.12.44.33c.12-.07.55-.24.49.11.17,0,.21-.06.35.06s.07.06,0,.16.09.16.14.21c.32.37-.33.38-.4.26s-.09-.23-.24-.25-.35,0-.45-.12-.62.35-.68-.12c.17-.11.54.1.52-.17l-.25-.05s.05-.06.09-.08c-.15-.14-.2.1-.36.08A1.3,1.3,0,0,1,317.25,219.62Z" style="fill:#FFCB74"></path><path d="M366.07,224.53c0-.19.22-.12.29-.26s-.08-.2.12-.35c0,0,.36-.21.35-.28s-.1-.25,0-.38l.43-.48c.21-.23.44-.42.66-.62a3.18,3.18,0,0,1,.83-.35,2,2,0,0,1,.88-.15,2.71,2.71,0,0,0,1-.4c.14-.11.9-.28.86.12s-.76.45-.95.51c-.37.13-.74.24-1.11.35a3.71,3.71,0,0,0-.77.49,2.17,2.17,0,0,0-.49.32c-.11.15-.23.32-.35.46s-.56.56-.56.93.29.67.63.9c-.22.18-.72,0-1,0a1.1,1.1,0,0,1-.7-.37C366.08,224.8,366.05,224.79,366.07,224.53Z" style="fill:#FFCB74"></path><path d="M348,232.93l0,0,0,0S348,232.92,348,232.93Z" style="fill:#FFCB74"></path><path d="M404.25,269.89c0,.12.08.25.11.37l-.38.51c-.13.17-.12.18,0,.38a.17.17,0,0,1-.15-.13c-.25.18-.36.23-.44.55a3,3,0,0,1-.4.67c-.11.18-.49.05-.6-.07s-.6,0-.42-.26.35-.48.53-.71c0-.08.24-.12.32-.15a1.49,1.49,0,0,0,.28-.23,1.68,1.68,0,0,0,.29-.25c.06-.1.05-.26.11-.35s.15-.05.19-.24.1-.17.24-.25a.64.64,0,0,1,.1.35Z" style="fill:#FFCB74"></path><path d="M385.72,258l-.36-.16a1.51,1.51,0,0,1-.48-.05s-.05.06-.1.05l-.2,0a1.17,1.17,0,0,1-.24-.09,1.51,1.51,0,0,0-.3-.1c-.09,0-.2.06-.29,0s-.37-.15-.56-.18a.36.36,0,0,1,0-.1c-.17,0-.43-.05-.23-.27s.07-.12.16-.1.19.09.22,0c.07,0,.39.12.41.15.13.22.3.17.53.19.06,0,.14.05.16,0s.09-.18.18-.07a.53.53,0,0,0,.46.07.26.26,0,0,0,.33.29C385.76,257.56,385.58,257.83,385.72,258Z" style="fill:#FFCB74"></path><path d="M327.4,225.27c.07.19.29,0,.35-.11s.74.25.87.31c-.05.19-.3.19-.45.24.12,0,.25,0,.2.16.12-.06.3-.09.32-.26.12.07.3.15.29.32a.25.25,0,1,0-.14.21c.21,0,.19,0,.27.17l-.4-.08,0,.26-.28,0c.33.16.67.29,1,.42a.71.71,0,0,1,.35.25c.14.16.24.15.45.18l-.14.21c.14,0,.39-.07.52,0s.13.23.1.45c-.1,0-.27-.09-.34,0l.25.12c-.25.12-.34.25-.57.09a1.23,1.23,0,0,1,0,.54,1.48,1.48,0,0,1-.61-.48c.12-.06.31-.08.25-.27-.08,0-.25.13-.32.12s-.21-.23-.31-.28-.2-.08-.27,0,.08.14.09.32l-.26,0c0,.09.05.18.08.27s.17-.12.22,0l.12.39c0-.2.14-.11.26-.06s.13.11.16.29.16.1.23.21a1.36,1.36,0,0,1,.05.41l-.15-.21c-.1.17.14.22.07.39l-.12,0,.08.2c-.07,0-.25-.21-.35-.28l-.58-.36a1.42,1.42,0,0,1,.05.16l-.33-.15c.06.11.12.23.19.34s.22.06.29.11l.35.25c.12.08.07.14.05.29l-.94-.24c-.12,0-.11-.17-.18-.19l-.48-.13.06-.08a.6.6,0,0,1-.4-.15l.25-.13c-.15-.08-.31-.06-.4-.2s-.16-.4-.41-.24c0-.11-.06-.16-.16-.15s0,.1,0,.15-.3-.12-.41,0-.32.07-.48.08-.27-.19-.21-.29.28-.17.25-.33a2,2,0,0,0,.73.05c.06,0,.41-.07.43-.12s-.2-.25-.26-.29l.58-.59c.05-.05.14-.09.1-.16l-.25-.45c-.12-.23-.38-.17-.5-.38s-.08-.14-.24-.08l-.36.14c0-.3.06-.26.32-.33-.14-.12-.45-.52-.62-.34,0-.08,0-.16-.05-.24s-.14,0-.19,0-.13-.37-.33-.18c.16,0,.18.13.25.28a1.78,1.78,0,0,1-1-.1l.29.26c-.13,0-.16-.11-.28-.13s-.07.12-.12.1l-.23-.09a2.81,2.81,0,0,0-.77,0,.82.82,0,0,1-.35-.09c-.14-.13,0-.2-.21-.18-.11,0-.18.12-.32,0a1.1,1.1,0,0,1-.45-.43l.73.06c-.25-.26-.46-.22-.8-.26,0,0-.07-.37-.08-.42s.13-.36.17-.47a.93.93,0,0,1,.53-.58,1.41,1.41,0,0,1,.88-.11,2.29,2.29,0,0,1-.07.28,3.24,3.24,0,0,0,.72-.25,1,1,0,0,1,.35,0c.13,0,.1.18.18.28s.13.09.2.23.07.2,0,.4.05.16.15.06.15-.16.35,0,.22-.17.27-.22.29-.05.38-.06a1,1,0,0,1,.65.25c.12.12.41.57.53.53s.56-.11.64.17C327.67,225.05,327.37,225.19,327.4,225.27Z" style="fill:#FFCB74"></path><path d="M311.74,221.89c-.11-.14-.11-.22,0-.27l.09-.05H312c.14,0,.37-.3.48-.4a.84.84,0,0,1,.48-.27.89.89,0,0,1,.28,0c.11,0,.2.11.3,0s-.06-.05-.1-.07l.09,0h.07a.71.71,0,0,1,.36.15c-.14.05-.44.2-.1.26l-.13,0,0,0a.14.14,0,0,1,.08.07c0,.07,0,.13-.07.19a.72.72,0,0,1-.26.17c-.2.05-.44-.18-.2-.33,0,0-.18-.06-.18,0s-.1.09-.2.15c.08,0,.13.11.06.19s-.18-.11-.24-.08.07.19,0,.27-.19.08-.27.11c0-.17-.1-.28-.19-.2l0,.06s0,.06,0,.08a.09.09,0,0,1-.08,0Z" style="fill:#FFCB74"></path><path d="M381.13,220.17a3.84,3.84,0,0,1,.45-.66.49.49,0,0,1,.61-.11l-.15.14c.08,0,.31-.07.36,0s.16.22.34.24.23.22.16.28a.64.64,0,0,1-.31.15l-.54.1c-.1,0-.21-.12-.28-.1s-.63.37-.8.14Z" style="fill:#FFCB74"></path><path d="M348.17,233.35l-.08.14C348,233.38,348.1,233.33,348.17,233.35Z" style="fill:#FFCB74"></path><path d="M391.33,243.28c-.09-.31,0-.25.11-.5.08.06.59-.27.57.11,0,.06-.12.17-.15.21s-.11-.09-.15-.07S391.53,243.41,391.33,243.28Z" style="fill:#FFCB74"></path><path d="M323,229.17c0-.06,0-.17,0-.23a2.3,2.3,0,0,1,.06-.28c.06-.23.05-.4.25-.49s.27.23,0,.27a.52.52,0,0,0,.06.13c.12-.16.15-.11.26,0s.2,0,.29.1.68.36.46.59a.47.47,0,0,1,.5.13l-.27.17c-.18,0-.68-.11-.64-.4-.18.07-.16.21-.34.28s-.21.22-.33.31-.11-.33-.16-.36-.4.08-.46.09S323,229.23,323,229.17Z" style="fill:#FFCB74"></path><path d="M320.31,218.84l.15,0-.09-.08c.05,0,.09-.06.13-.07-.12-.09-.26.06-.4,0l.07,0a2.53,2.53,0,0,1-.38-.07l.26-.1c-.17-.17.37-.19.48-.22-.09-.08-.27-.06-.38-.1.14-.37.62,0,.75-.27-.13-.07-.29,0-.43-.07.12-.18.37-.09.53,0s.37.24.56.46a.44.44,0,0,0,.45.16c.16-.05.06.14.1.2a.29.29,0,0,0,.28.13,1.59,1.59,0,0,1-.13-.22c.19-.16.49.07.27.25.35,0,.27.17.13.44.13-.05.43-.21.45.06,0-.05.06-.09.07-.15a1,1,0,0,1,.26.29c-.16.05-.55.26-.64.17.07.16-.09.22-.19.3a.44.44,0,0,1-.06-.32c-.37.11.23.64-.32.34.1.15.06.22,0,.37l-.4-.38.2.4a.54.54,0,0,0-.4-.19.21.21,0,0,1,.14.15c-.27,0-.66,0-.84-.24l.4,0c-.19,0-.52,0-.63-.16h.21a1,1,0,0,1-.38-.15,6,6,0,0,1,1.2-.21,1.51,1.51,0,0,1-.67,0l.44-.05c-.12-.12-.42,0-.6-.1,0,.18-.07.05-.1.06s-.13.14-.24.08,0,0,0-.08-.15,0-.23.09-.1-.1-.19-.08-.13-.12,0-.13.24,0,.33-.14c-.24.1-.64.1-.69-.27Z" style="fill:#FFCB74"></path><path d="M389.15,251.88l0-.27a.25.25,0,0,1,.19.19c.08,0,.11.08.09.16l-.06.07s0,0,.08,0a.2.2,0,0,1,0,.11c.14,0,0,.37,0,.47l-.05,0a1.55,1.55,0,0,1,0,.22c-.08-.12,0-.25-.1-.37-.18.13-.09.23-.06.39s-.19.29-.12.06h0c0,.17-.32,0-.36-.14s.16-.5-.18-.45c0,0,0,.1,0,.14s-.08,0-.09-.12c0,.06,0,0-.08.11-.06-.32-.19.13-.26.18-.16-.21.11-.38.26-.43s0-.22.17-.21.15.16.07.25c.13,0,.2-.28.33-.18,0-.12,0-.2.13-.13S389.05,251.86,389.15,251.88Z" style="fill:#FFCB74"></path><path d="M397.66,263.83a7.5,7.5,0,0,1,.2,1.33,8.91,8.91,0,0,1-.34,1.4c-.1.36-.5.63-.56,1s0,1.1-.53,1.12a.58.58,0,0,0-.55.25c-.1.09-.36.19-.46.07s-.18-.35-.43-.14-.25.16-.53.11-.78-.2-.89-.71c0-.14-.15-.48-.31-.48s-.13-.44-.15-.62c-.14.29-.13.45-.42.38.18-.29.41-.57.29-.92a4.54,4.54,0,0,1-.64.87A3.61,3.61,0,0,1,392,267c-.16-.28-.18-.34-.46-.44a5.43,5.43,0,0,0-1.33-.28c-.13,0-.36.2-.48.27s-.38,0-.55,0-.45.14-.52.3-.1.26-.14.26l-.45,0a5.63,5.63,0,0,0-.59.05c-.28,0-.34.11-.55.32s-.38.08-.57.08-.36-.22-.51-.33.19-.36.21-.41a2.37,2.37,0,0,0-.11-.78,4.41,4.41,0,0,0-.39-1.28c-.08-.17-.19-.3-.13-.48s.11-.3,0-.55a1.48,1.48,0,0,1,.1-1.18c.05.1.09.21.13.31a.88.88,0,0,1,.42-.55,1.3,1.3,0,0,1,.55-.3l1-.23c.26-.07.26-.28.36-.55.19-.51.72-.8,1.12-1.14.06-.06.36-.4.45-.35l.73.39a2.12,2.12,0,0,1,.29-.81c.18-.27.44-.12.72-.07l0-.36a4.87,4.87,0,0,1,.76.06.76.76,0,0,1,.63.28,1.28,1.28,0,0,0-.34.54c-.07.29-.17.38.07.52l.78.46c.14.09.26.33.4.38.39.15.55-.76.54-1a2.62,2.62,0,0,1,0-.74c.06-.21.08-.63.31-.69a5.54,5.54,0,0,1,.41,1.33.27.27,0,0,1,.42.21.88.88,0,0,0,.22.69c.15.18.09.44.09.68s.56.34.65.39.2.26.27.5.09.27.13.41.18-.09.21-.08c.29.1,0,.32.22.49Z" style="fill:#FFCB74"></path><path d="M390.81,242.64a.69.69,0,0,0,.57-.35c.13-.19.52-.14.73-.16s0,.14.21.06,0-.14.09-.24.21-.2.22-.3.06-.17.23-.23c0,0-.17.24-.06.24a.89.89,0,0,0,.34-.13.84.84,0,0,0,.38-.5l.15-.46c0-.06-.12-.11-.09-.23s.26-.63.36-.25c0-.18.05-.31.22-.22,0,.1-.07.2,0,.29s.16.23.15.33,0,.29-.07.37-.07.16-.07.3c-.19-.1-.17.12-.16.25s-.07.22-.1.39,0,.39,0,.4-.16.2-.32.26c0-.07,0-.15.05-.22a1.72,1.72,0,0,0-.26.33,1.86,1.86,0,0,0-.1-.2c-.14.2-.44.31-.59.07-.13.09-.09.2,0,.29-.19,0-.27.2-.37.33-.17-.15-.31-.29-.08-.49-.15,0-.38-.09-.49,0s-.19.06-.25.09-.16.12-.24,0c-.08.29-.26.07-.42.21.1.14.16,0,.23.13s.14.19.11.25a1.52,1.52,0,0,1-.38.64c-.25.18-.23-.29-.14-.43s.14-.29,0-.32,0,.21-.19.19l0-.24C390.56,243,390.91,242.89,390.81,242.64Z" style="fill:#FFCB74"></path><path d="M311.18,236.86a4,4,0,0,1-1.31-1c.24-.08.32,0,.55.11s.34,0,.5.33c.06.1.07.16.17.19s.19.05.23.11C311.48,236.87,311.51,237,311.18,236.86Z" style="fill:#FFCB74"></path><path d="M344.72,229.37l-.27,0c-.09,0-.07.08-.15.12a.61.61,0,0,1-.44,0,1.31,1.31,0,0,1-.27-.06s-.08-.17-.14-.16l-.57.07c-.08-.2.21-.15.28-.32h-.08V229c-.1,0-.14-.05-.07-.13-.13,0-.53.09-.56-.09.22,0,.46-.1.7-.09v-.07a.26.26,0,0,1-.24,0l.25-.12c-.11,0-.3-.12-.4-.09s-.26.13-.47,0c.08,0,.06-.06.15-.05v-.1c.06,0,.16.09.2,0s-.18-.07-.07-.21.41.22.38-.09c-.11,0-.19,0-.22-.11.23,0,.22,0,.4.19s.18.06.18.13a.11.11,0,0,1-.13.11c.05.1.12.2.18.3a1.28,1.28,0,0,1,.13-.29c.06-.11.2,0,.09-.24.14,0,.21.13.3.22a.17.17,0,0,1,.14-.25c.15,0,.18.12.27.25a2.51,2.51,0,0,0,0-.27c.24.11.31,0,.55,0-.14-.37.68,0,.51.25.14-.05.23,0,.35.1s0,.2.09.28c-.1.1-.17.24-.31.16,0,.19-.1.33-.28.28S344.83,229.31,344.72,229.37Z" style="fill:#FFCB74"></path><path d="M321,244a1.1,1.1,0,1,1-1.1-1.1A1.1,1.1,0,0,1,321,244Z" style="fill:#263238"></path><path d="M375.3,247.78a1.1,1.1,0,1,1-1.1-1.1A1.1,1.1,0,0,1,375.3,247.78Z" style="fill:#263238"></path><circle cx="327.18" cy="252.73" r="1.1" style="fill:#263238"></circle><path d="M328.77,266.78a1.1,1.1,0,1,1-1.1-1.1A1.1,1.1,0,0,1,328.77,266.78Z" style="fill:#263238"></path><path d="M352.7,238.75a1.11,1.11,0,1,1-1.1-1.1A1.1,1.1,0,0,1,352.7,238.75Z" style="fill:#263238"></path><path d="M395,240.78a1.11,1.11,0,1,1-1.1-1.11A1.11,1.11,0,0,1,395,240.78Z" style="fill:#263238"></path><rect x="191.54" y="76.16" width="116.92" height="3.07" style="fill:#dbdbdb"></rect><rect x="217.08" y="82.98" width="65.84" height="3.07" style="fill:#dbdbdb"></rect></g><g id="freepik--Character--inject-95"><path d="M176,470.61c-2.34.73-70.47-.74-73-2.4-1-.62,4.88-65.16,4.88-65.16l43.21.83-4.91,43.17s25.14,11.91,27.69,14S178.34,469.89,176,470.61Z" style="fill:#eb9481"></path><path d="M176,470.61c-2.33.73-70.48-.74-73-2.4-.3-.19-.39-6.75.69-15.28,12.36,2.07,56.46,8.84,59.89,6.82,2.4-1.4.28-3.6-1.68-5.08,5.63,2.8,10.88,5.5,12,6.41C176.44,463.18,178.34,469.9,176,470.61Z" style="fill:#263238"></path><path d="M147.44,436.7,105,436.1s8.41-101.61,8.06-103.56C112.63,330,82.53,212,82.53,212H123S155,322,156.1,332.62C158,349.73,147.44,436.7,147.44,436.7Z" style="fill:#FFCB74"></path><path d="M147.44,436.7,105,436.1s8.41-101.61,8.06-103.56C112.63,330,82.53,212,82.53,212H123S155,322,156.1,332.62C158,349.73,147.44,436.7,147.44,436.7Z" style="opacity:0.5"></path><path d="M108.84,426.53c2.5-.18,5-.15,7.55-.19s5,0,7.55,0c5,.05,10.06.12,15.09.26,1.37,0,2.75.09,4.12.15s2.94.32,4.41.37a.09.09,0,0,1,0,.18c-1.24,0-2.48.2-3.71.23s-2.57.05-3.85.05l-7.55,0c-5,0-10.06-.11-15.08-.32-2.84-.12-5.71-.15-8.54-.44A.13.13,0,1,1,108.84,426.53Z" style="fill:#263238"></path><path d="M91.44,221.55c3.62,12.83,6.93,25.77,10.18,38.7s6.48,25.88,9.7,38.82l4.83,19.42c1.57,6.3,3.39,12.63,3.77,19.14s-.44,13.3-1,19.89-1.12,13.25-1.7,19.87c-1.16,13.25-2.27,26.51-3.71,39.73-.18,1.66-.36,3.31-.53,5a.11.11,0,0,1-.22,0c.88-13.25,1.79-26.51,2.85-39.75q.8-9.94,1.62-19.88c.55-6.61,1.31-13.24,1.52-19.87s-1-13.11-2.62-19.57-3.18-12.67-4.76-19q-4.86-19.41-9.7-38.82c-3.59-14.5-7.18-29-10.35-43.61A.06.06,0,1,1,91.44,221.55Z" style="fill:#263238"></path><path d="M82.53,212s12.91,50.63,22,86.27L121.71,212Z" style="fill:#263238"></path><path d="M125.12,470.77c-2.33.73-70.47-.74-73-2.4-.95-.62,2.61-65.2,2.61-65.2l42.64.83-2.06,43.21s25.14,11.91,27.68,14S127.46,470.05,125.12,470.77Z" style="fill:#eb9481"></path><path d="M125.12,470.77c-2.33.73-70.47-.75-72.95-2.41-.31-.18-.23-6.57,0-15.28,12.36,2.07,57.15,8.85,60.58,6.83,2.4-1.41.28-3.61-1.69-5.09,5.63,2.81,10.89,5.51,12,6.42C125.56,463.34,127.46,470.05,125.12,470.77Z" style="fill:#263238"></path><path d="M121.71,212s-1.18,19.36-5.8,34.65c-.37,1.26-.77,2.51-1.21,3.7A72.68,72.68,0,0,0,103,256.2s-2.92,74.05-2.86,78.65c.19,17.2-4.21,101-4.21,101l-42.78-.41s4.44-94.76,4.45-101.06c0-6.09,2.91-44.54,5.5-77.88,0,0-3.81-10.65-3.39-16,1-13,6.87-28.45,6.87-28.45Z" style="fill:#FFCB74"></path><path d="M121.71,212s-1.18,19.36-5.8,34.65c-.37,1.26-.77,2.51-1.21,3.7A72.68,72.68,0,0,0,103,256.2s-2.92,74.05-2.86,78.65c.19,17.2-4.21,101-4.21,101l-42.78-.41s4.44-94.76,4.45-101.06c0-6.09,2.91-44.54,5.5-77.88,0,0-3.81-10.65-3.39-16,1-13,6.87-28.45,6.87-28.45Z" style="opacity:0.5"></path><path d="M112.37,238l.48-3.22c.31-2,.7-3.91,1.05-5.87.78-4.43,1.59-8.88,2.58-13.28,0-.11.2-.08.19,0-.18,1.78-.38,3.55-.63,5.31s-.43,3.55-.68,5.32c-.49,3.5-1,7-1.58,10.5-.23,1.35-1.06,3.76.87,4.17,1.53.33,2.66-1.17,3.11-2.43a30.64,30.64,0,0,0,1-4.84q.46-2.65.84-5.33.83-5.81,1.78-11.6c0-.11.2-.07.19,0a115.32,115.32,0,0,1-.86,11.88q-.37,2.82-.85,5.64a20.08,20.08,0,0,1-1.29,5.25,4.27,4.27,0,0,1-3.2,2.57h-.09a.13.13,0,0,1,0,.11c0,.63,0,1.26-.07,1.89s-.19,1.24-.31,1.85a12.75,12.75,0,0,1-.48,1.84,4.87,4.87,0,0,1-.84,1.63c-.07.11-.2,0-.21-.07h0c0-.1,0-.2,0-.3V249h0a5.21,5.21,0,0,1,0-.55c.05-.3.12-.6.18-.9.13-.59.3-1.19.46-1.78s.28-1.19.44-1.78.35-1.2.5-1.82c0,0,0,0,0-.06a2.78,2.78,0,0,1-2.7-1.69A4.73,4.73,0,0,1,112.37,238Z" style="fill:#263238"></path><path d="M99.5,257.67a33.61,33.61,0,0,1,4-2.65,39.9,39.9,0,0,1,4.59-2.38c3.1-1.34,6.29-2.26,9.48-3.31.09,0,.16.12.06.16-3.09,1.23-6.05,2.86-9,4.33-1.47.72-3,1.4-4.46,2.06s-3,1.44-4.53,2C99.5,257.93,99.41,257.75,99.5,257.67Z" style="fill:#263238"></path><path d="M75.35,230.7a26.5,26.5,0,0,0,6.45-.86c1-.25,1.93-.57,2.88-.88a7.48,7.48,0,0,0,2.6-1.3c1.47-1.27,2.15-3.26,2.79-5a47,47,0,0,0,1.69-6.1c0-.1.17-.06.17,0a23.88,23.88,0,0,1-.87,6.93c-.53,1.91-1.24,4-2.78,5.38A10.92,10.92,0,0,1,82.37,231a27.12,27.12,0,0,1-7-.1A.12.12,0,0,1,75.35,230.7Z" style="fill:#263238"></path><path d="M55,427.15c2.51-.18,5-.15,7.55-.18s5,0,7.55,0c5,.05,10.06.13,15.09.27,1.38,0,2.75.08,4.13.15s2.94.32,4.41.37a.09.09,0,0,1,0,.18c-1.23,0-2.47.19-3.71.23s-2.56.05-3.84.05q-3.78,0-7.55,0c-5-.05-10.06-.11-15.09-.32-2.84-.12-5.71-.15-8.53-.44A.13.13,0,0,1,55,427.15Z" style="fill:#263238"></path><path d="M60.22,421.58h0a.52.52,0,0,1-.5-.54l9.66-165.82c-.13-.73-2.85-10-3.09-14.72-.26-5,4.92-24.5,5.14-25.33a.53.53,0,0,1,.63-.37.52.52,0,0,1,.37.64c0,.2-5.35,20.16-5.1,25S70.38,255,70.39,255.1s-9.65,166-9.65,166A.51.51,0,0,1,60.22,421.58Z" style="fill:#263238"></path><path d="M101.7,106.88s-9.64-4.81-19.14,4.34c-11.29,10.88-6.31,46.6-6.93,49.83s-2,4-2.34,6.94,2.08,4.67,2.4,5.68S73.34,180,73.34,180s15.92,3.58,25.75,1.29,20.7-9.5,20.7-9.5-2.36-3.09-2.42-4.6,1.63-3.57,1.39-6.29-4.5-5.91-5-7.36.68-28.67-2-38.07S101.7,106.88,101.7,106.88Z" style="fill:#263238"></path><path d="M120.26,171a14.89,14.89,0,0,1-2.32-3.27,2.1,2.1,0,0,1-.22-1c.41-2.21,2.26-4.22,1.8-6.55-.55-1.79-2.36-3.2-3.59-4.56a6,6,0,0,1-1.73-2.67,9.92,9.92,0,0,1,0-1.05c0-11.3.38-22.74-1.88-33.86a20.41,20.41,0,0,0-2.87-7.39,19.49,19.49,0,0,1,3.28,7.29c2.7,11.09,2.37,22.62,2.25,33.95,0,.32,0,.68,0,1a5.6,5.6,0,0,0,1.5,2.3c1.29,1.49,3.08,2.92,3.61,4.91.44,2.5-1.48,4.46-2.08,6.71a2,2,0,0,0,.16.91,15.44,15.44,0,0,0,2.11,3.36Z" style="fill:#263238"></path><path d="M72.51,178.65c.59-1.41,1.45-3.19,1.93-4.61v0a2.9,2.9,0,0,0-.43-.58A7.75,7.75,0,0,1,71.73,168c.06-2.42,1.65-4.53,2.37-6.69a11.09,11.09,0,0,0,.27-4.55c-.84-13.21-1.86-35.6,7.94-45.63a13.77,13.77,0,0,1,3.86-2.72,14.45,14.45,0,0,0-3.7,2.88c-9.19,10.31-8,32.24-7.35,45.43a11.11,11.11,0,0,1-.38,4.8c-.82,2.28-2.37,4.09-2.52,6.51a6.79,6.79,0,0,0,1.33,4.29c.33.5.71.94,1,1.44a.63.63,0,0,1,.1.28,46.91,46.91,0,0,1-2.19,4.65Z" style="fill:#263238"></path><path d="M99.17,159c3.42,11.62,21.4,41.36,33.27,44,9.54,2.13,28.21-1.89,35.5-3.62,6.14-1.45,5.78-26.44,2.7-26.4-6.44.08-26.7,8.3-32.19,6.24-2.16-.82-14.84-11.72-30-25C102.51,149,97.12,152.05,99.17,159Z" style="fill:#eb9481"></path><path d="M185.34,202c-5.77,1.2-18.54-1-21.42-2.67s.08-23.54,3.06-25.25,22.72-4.26,28.09-1.53S191.32,200.76,185.34,202Z" style="fill:#eb9481"></path><polygon points="141.48 228.96 250.27 114.02 251.65 114.8 144.6 231.85 141.48 228.96" style="fill:#263238"></polygon><path d="M189.07,171.44c-2.75,1.49.58,3.87.58,3.87s-5.62-2.28-7.86.35,2,5.28,2.26,5.48c-.29-.12-5.51-2.08-7.49.8s2.56,5,2.86,5.16c-.32,0-4.51-.26-5.52,2.27-1.72,4.34,9,5.23,11.29,8.22,0,0-4.61,4.51-4.72,4.67,0,0,10.16,1.05,14-2.3a3.26,3.26,0,0,0,.78-4s3.24.7,4.87-1.51c.83-1.14-.25-3.48-.25-3.48a4.11,4.11,0,0,0,4-1.61c1.06-1.64-.19-3.74-.19-3.74s2.71-.72,3.26-2.75C208,178.77,195,168.26,189.07,171.44Z" style="fill:#eb9481"></path><path d="M203.5,185.25s.11,0,.07-.05a29.09,29.09,0,0,0-14.09-10c-.18,0-.34.22-.16.32A59.31,59.31,0,0,1,203.5,185.25Z" style="fill:#263238"></path><path d="M200,191c.05.05.12,0,.08-.09a27.21,27.21,0,0,0-16.05-10c-.22,0-.46.15-.21.21C188.08,182.21,196.07,187.24,200,191Z" style="fill:#263238"></path><path d="M178.93,187.18c6.22,1.33,11.38,4.53,16.21,8.57.06.05.13,0,.09-.1-1.82-2.62-5.17-4.88-7.92-6.41A16.76,16.76,0,0,0,179,187C178.86,187,178.8,187.15,178.93,187.18Z" style="fill:#263238"></path><path d="M189.65,175.31a19.22,19.22,0,0,0-3.42-.7,6.36,6.36,0,0,0-3.32.38,2.11,2.11,0,0,0-1.06,1.08,3.1,3.1,0,0,0-.21,1.53,3.71,3.71,0,0,0,1.77,2.48l2.15,1.39-2.5-.56a10.76,10.76,0,0,0-3.39-.22,3.73,3.73,0,0,0-2.74,1.37,2.14,2.14,0,0,0,0,2.7,6.44,6.44,0,0,0,2.65,1.86l2.81,1.17-3-.19a10.57,10.57,0,0,0-2.51.17,4.1,4.1,0,0,0-2.11,1,2,2,0,0,0-.47,2,4.25,4.25,0,0,0,1.64,1.74,32.23,32.23,0,0,0,4.69,2.38c.81.37,1.62.74,2.42,1.14a6.23,6.23,0,0,1,2.15,1.57,6.71,6.71,0,0,0-2.26-1.34c-.81-.34-1.64-.65-2.48-.95a28.61,28.61,0,0,1-4.92-2.18,5,5,0,0,1-2-2,2.73,2.73,0,0,1,.58-2.94,5,5,0,0,1,2.58-1.33,10.93,10.93,0,0,1,2.8-.23l-.22,1a7.46,7.46,0,0,1-3.16-2.17,3.14,3.14,0,0,1-.69-2,3.6,3.6,0,0,1,.7-1.95,4.71,4.71,0,0,1,3.47-1.73,11.41,11.41,0,0,1,3.73.3l-.36.83a4.48,4.48,0,0,1-2-3.18,3.68,3.68,0,0,1,.36-1.88,2.73,2.73,0,0,1,1.4-1.32,6.61,6.61,0,0,1,3.6-.18A16.27,16.27,0,0,1,189.65,175.31Z" style="fill:#263238"></path><path d="M168.3,173.72s28.24-12,27.17-1.17c-.32,3.22-5.47,16.06-8.07,15.08-3.36-1.27-2.21-7-.91-10.54,0,0-7.56,4.1-12-.31A11,11,0,0,0,168.3,173.72Z" style="fill:#eb9481"></path><path d="M195.5,171.64a13,13,0,0,1-.48,3.78,28.77,28.77,0,0,1-1.18,3.65,44.37,44.37,0,0,1-3.36,6.9,7,7,0,0,1-1.29,1.57,2.61,2.61,0,0,1-1,.58,2.06,2.06,0,0,1-.64.09,2.27,2.27,0,0,1-.62-.13,3.22,3.22,0,0,1-1.66-1.5,5.84,5.84,0,0,1-.6-2,11.53,11.53,0,0,1,.28-3.94,26.3,26.3,0,0,1,1.12-3.7l.64.54a15.77,15.77,0,0,1-2.74,1.05,14.76,14.76,0,0,1-2.87.51,10.07,10.07,0,0,1-2.9-.23,7.72,7.72,0,0,1-2.62-1.16,8.55,8.55,0,0,0,2.68.85,10,10,0,0,0,2.78,0,14.05,14.05,0,0,0,2.71-.64,15.1,15.1,0,0,0,2.52-1.13l1-.57-.35,1.1a28.58,28.58,0,0,0-1,3.6,11.27,11.27,0,0,0-.21,3.6,3.11,3.11,0,0,0,1.57,2.64c.78.37,1.69-.68,2.35-1.67s1.29-2.12,1.89-3.23,1.17-2.23,1.69-3.37A24.2,24.2,0,0,0,195.5,171.64Z" style="fill:#263238"></path><path d="M164.62,171.54l-3,30.81s-21.9,4.64-31.1,1.29S104.63,176,99.82,165s-2.09-20.66,10.88-10.12,27.61,23.24,28.05,23.49S164.62,171.54,164.62,171.54Z" style="fill:#FFCB74"></path><path d="M155.42,188.14c.18-2.22,1-11,1.41-13.16,0-.06.1,0,.1,0,.06,2.21-.56,11.08-.75,13.29-.36,4.42-.67,8.88-1.39,13.26a.07.07,0,1,1-.14,0C154.64,197.07,155.07,192.59,155.42,188.14Z" style="fill:#263238"></path><path d="M99.81,165c4.82,11,21.54,35.33,30.75,38.69,4.67,1.71,12.61,1.34,19.3.59L103.23,150.5C96.86,148.89,96.13,156.51,99.81,165Z" style="opacity:0.1"></path><path d="M122.77,212l-2.9-18.28s7.24-7.5,3.49-15.35c-1.88-4-14.75-23.37-21.62-28.24-6.44-4.57-14.08-.77-16.95,4.17C77.58,166.79,70.71,181.14,66.54,212Z" style="fill:#FFCB74"></path><path d="M111.29,191.35a59.1,59.1,0,0,0-8.67,1.61c-1.4.39-2.79.84-4.16,1.33-.69.24-1.38.46-2.08.67a9.42,9.42,0,0,1-2.23.47c-.07,0-.06.1,0,.1a15.4,15.4,0,0,0,2.15-.08,15.88,15.88,0,0,0,2-.43c1.43-.38,2.85-.83,4.27-1.23,2.88-.8,5.76-1.6,8.7-2.19C111.46,191.57,111.42,191.34,111.29,191.35Z" style="fill:#263238"></path><path d="M118.57,193.8a65.13,65.13,0,0,0-7.26-.2c-1.22,0-2.42.15-3.63.29-.57.07-1.15.14-1.72.23s-1.25.27-1.88.35a.06.06,0,0,0,0,.11c.6-.06,1.21,0,1.81-.05l1.81-.09c1.21-.05,2.42-.09,3.63-.16,2.42-.13,4.83-.23,7.25-.28C118.71,194,118.7,193.81,118.57,193.8Z" style="fill:#263238"></path><path d="M127.66,222.69s-45.81,4.38-65.36,3.08c0,0,10.37-56.8,23.74-72.66,6.09-7.22,12.44-6.5,18-2.35,1.39,1,18.18,22.06,20,29.29,1.57,6.39-2.5,12.9-2.5,12.9Z" style="fill:#ebebeb"></path><path d="M103.49,150.12s8.05,18.65,8.74,23.51-.56,23.31-.56,23.31S99.91,178.14,97,172c-4.56-9.52-6.16-23-6.16-23s-3.94,2.05-8.86,9.59c-6.58,10.07-17.47,47.24-20.6,67.78l48.72,4.43,4.39-8.2,3.71,7.78,11.13-7L121.51,193s7-6.76,2.55-14.8A156.72,156.72,0,0,0,103.49,150.12Z" style="fill:#FFCB74"></path><path d="M111.68,196.9l5.92-22.34L112.45,169l4.16-1s-11.89-16.51-13.11-17.81c.31.71,8.06,18.72,8.73,23.49S111.74,195.9,111.68,196.9Z" style="opacity:0.1"></path><path d="M95,171.36l-1.7,7.47,18.39,18.1c-.35-.57-11.8-18.88-14.69-24.91-4.55-9.51-6.15-23-6.15-23L90,170.24Z" style="opacity:0.1"></path><path d="M111.67,196.94a221.12,221.12,0,0,1,2.8,25.67,219,219,0,0,1-2.8-25.67Z" style="fill:#263238"></path><path d="M107.66,202.75a1.09,1.09,0,0,0,2.18-.12,1.09,1.09,0,0,0-2.18.12Zm0,0a1.47,1.47,0,0,1,2.93-.16,1.47,1.47,0,0,1-2.93.16Z" style="fill:#263238"></path><path d="M108.48,210.69a1.09,1.09,0,0,0,2.17-.12,1.09,1.09,0,0,0-2.17.12Zm0,0a1.46,1.46,0,0,1,2.92-.15,1.46,1.46,0,0,1-2.92.15Z" style="fill:#263238"></path><path d="M109.29,218.63a1.09,1.09,0,0,0,2.17-.11,1.09,1.09,0,1,0-2.17.11Zm0,0a1.46,1.46,0,0,1,2.92-.15,1.46,1.46,0,0,1-2.92.15Z" style="fill:#263238"></path><polygon points="92.28 205.25 75.08 203.06 74.66 205.28 92 207.5 92.28 205.25" style="opacity:0.1"></polygon><path d="M84.34,152.44c-19.55,15.1-38.86,41.31-39.12,56.06C45,223.06,50,221.68,51.48,221.6c8.8-.5,29.85-40.85,36.29-57.31S89.17,148.7,84.34,152.44Z" style="fill:#FFCB74"></path><path d="M63.27,210.33c1-1.83,2.09-3.64,3.1-5.48l3.07-5.48c2-3.67,4.09-7.31,6.06-11s4-7.36,6-11.07q1.47-2.78,2.87-5.58c1-1.87,1.85-3.76,2.74-5.66a112.27,112.27,0,0,1-4.91,11.6c-1.81,3.79-3.78,7.49-5.75,11.2s-4.1,7.32-6.28,10.91S65.71,206.91,63.27,210.33Z" style="fill:#263238"></path><path d="M85,170.91A17.94,17.94,0,0,1,86.18,169c.23-.3.43-.6.67-.89s.45-.59.72-.88a5.79,5.79,0,0,1-1,2.07A6.32,6.32,0,0,1,85,170.91Z" style="fill:#263238"></path><rect x="53.93" y="166.35" width="41.09" height="53.49" transform="translate(-51.55 28.93) rotate(-16.42)" style="fill:#455a64"></rect><rect x="57.07" y="164.74" width="19.48" height="5.9" transform="translate(178.47 309.52) rotate(163.51)" style="fill:#a6a6a6"></rect><polygon points="60.88 166.37 63.18 165.69 62.41 163.08 67.99 161.42 68.77 164.03 71.07 163.35 69.66 158.6 59.44 161.62 60.88 166.37" style="fill:#a6a6a6"></polygon><path d="M93.93,181.23a4.23,4.23,0,0,1,.73,4.79,6.31,6.31,0,0,1,3.62,2.29c1.49,2.13-1.19,5.39-1.19,5.39a7.86,7.86,0,0,1,3.43,3c1.22,2.18-1,5.86-1,5.86a6.83,6.83,0,0,1,1.34,4.56c-.49,4.35-6.51,7.24-10.32,9.12s-16.38,3.63-18.74,4.21L59.54,196.13S74.23,182.85,79,181.28C83.06,180,91.57,178.91,93.93,181.23Z" style="fill:#eb9481"></path><path d="M61.27,194.59c-4.37,3.25-17.54,15.85-14.59,22.4s13.39,6.06,27.92,2.95Z" style="fill:#eb9481"></path><path d="M61.27,194.59c-4.37,3.25-18.22,15.53-14.89,23.94,2.65,6.69,14.91,7.68,29.44,4.57Z" style="fill:#FFCB74"></path><path d="M68.37,223.23c-4.37-10.83-10.6-21.55-11.55-23.5,0-.09-.19,0-.14.08,1,1.86,6.83,14.89,11.54,23.51C68.27,223.42,68.41,223.33,68.37,223.23Z" style="fill:#263238"></path><path d="M61.69,224.79a105.78,105.78,0,0,0,14-1.67,33,33,0,0,0-1.47-3.22c-.06-.09.11-.18.16-.06a30.44,30.44,0,0,0,1.89,3.38.27.27,0,0,1-.16.38,48.65,48.65,0,0,1-14.36,1.45C61.58,225,61.54,224.8,61.69,224.79Z" style="fill:#263238"></path><path d="M60.7,194.79a42.05,42.05,0,0,0-4.35,3.59l-1,1-.45.27c-.62.4-1.23.81-1.81,1.26a34.5,34.5,0,0,0-3.18,2.86c-.07.07,0,.18.12.11a27.09,27.09,0,0,1,3.38-2.66l.47-.31c-.57.62-1.13,1.25-1.66,1.91a54.8,54.8,0,0,0-3.87,5.45c0,.09.09.16.14.08C50.62,205,59,196.53,61,195.05,62.2,194.15,61.48,194.19,60.7,194.79Z" style="fill:#263238"></path><path d="M94.3,185.71c-4.64.38-8.9,2.1-13.26,3.58-.1,0,0,.19,0,.15,4.32-1.52,8.88-2.16,13.25-3.51A.11.11,0,0,0,94.3,185.71Z" style="fill:#263238"></path><path d="M96.85,193.43a11.67,11.67,0,0,0-3,1c-1,.41-2.08.84-3.11,1.29-2.06.9-4.1,1.84-6.11,2.84-.09,0,0,.19.06.15,2-.89,4.12-1.75,6.21-2.55L94,194.94A14.41,14.41,0,0,0,97,193.72.16.16,0,0,0,96.85,193.43Z" style="fill:#263238"></path><path d="M99.42,202.63a8.26,8.26,0,0,0-2.67,1L94,204.91c-1.87.83-3.74,1.67-5.64,2.43-.09,0,0,.19.06.15,1.93-.77,3.87-1.51,5.8-2.3L97,204a7.93,7.93,0,0,0,2.46-1.29A.05.05,0,0,0,99.42,202.63Z" style="fill:#263238"></path><path d="M91.68,150.91c.23,1.1,5.27,8.43,11.32,7.69,3.52-.43.68-7.32.68-7.32l2.45-9.81L94,133.29S91.59,150.44,91.68,150.91Z" style="fill:#eb9481"></path><path d="M93.09,139.7a19.32,19.32,0,0,0,10.72,11l2.33-9.26L94,133.29Z" style="fill:#263238"></path><path d="M116.9,124.24c4.16,16-5,20.34-8.43,21.24-3.14.81-13.94,3.17-19.74-12.35s.35-22.53,7.43-24.76S112.74,108.2,116.9,124.24Z" style="fill:#eb9481"></path><path d="M112.4,122.72a10.87,10.87,0,0,1-1.14,0,2,2,0,0,1-1.16-.28.6.6,0,0,1-.11-.72,1.46,1.46,0,0,1,1.37-.56,2.16,2.16,0,0,1,1.45.54A.63.63,0,0,1,112.4,122.72Z" style="fill:#263238"></path><path d="M101.44,125.9c.38-.12.7-.29,1.06-.44a1.86,1.86,0,0,0,1-.65.61.61,0,0,0-.13-.71,1.45,1.45,0,0,0-1.48-.07,2.14,2.14,0,0,0-1.19,1A.63.63,0,0,0,101.44,125.9Z" style="fill:#263238"></path><path d="M104.54,128.9s-.07.07-.06.12c.27,1.09.39,2.39-.53,3a0,0,0,0,0,0,.06C105.16,131.62,105,129.89,104.54,128.9Z" style="fill:#263238"></path><path d="M103.31,128c-1.8.24-1.18,3.83.49,3.6S104.83,127.75,103.31,128Z" style="fill:#263238"></path><path d="M102.64,128.27c-.28.25-.52.67-.89.77s-.83-.2-1.18-.52c0,0-.06,0,0,.06.11.69.49,1.35,1.25,1.32s1.07-.71,1.12-1.43C102.9,128.33,102.75,128.16,102.64,128.27Z" style="fill:#263238"></path><path d="M110.9,127.15c0-.05.09,0,.1.08.11,1.13.44,2.39,1.5,2.63,0,0,0,.06,0,.06C111.24,129.91,110.83,128.23,110.9,127.15Z" style="fill:#263238"></path><path d="M111.74,125.84c1.78-.38,2.41,3.21.76,3.56S110.24,126.16,111.74,125.84Z" style="fill:#263238"></path><path d="M112.53,126c.31.14.65.43,1,.39s.62-.48.8-.89c0,0,0,0,.06,0,.14.68,0,1.43-.59,1.68s-1.13-.28-1.41-.94C112.34,126.1,112.4,125.89,112.53,126Z" style="fill:#263238"></path><path d="M106.3,137.13c.3.24.6.57,1,.57a3.06,3.06,0,0,0,1.18-.4s.08,0,.06,0a1.53,1.53,0,0,1-1.37.75,1.19,1.19,0,0,1-1-.91C106.18,137.13,106.26,137.1,106.3,137.13Z" style="fill:#263238"></path><path d="M110.33,132.37s.49,1.63.62,2.42c0,.07-.18.14-.44.19,0,0,0,0,0,0a3.8,3.8,0,0,1-3.85-.83c-.06-.07,0-.16.1-.13a5.72,5.72,0,0,0,3.57.45c0-.23-.94-2.76-.81-2.79a6.59,6.59,0,0,1,1.84.12c-.92-3.42-2.38-6.67-3.25-10.09a.11.11,0,0,1,.2-.08,57.35,57.35,0,0,1,4,10.72C112.38,132.8,110.67,132.46,110.33,132.37Z" style="fill:#263238"></path><path d="M109.92,134.65a4,4,0,0,1-1.35,1.55,1.91,1.91,0,0,1-1.08.29c-.83-.05-1-.77-1-1.42a4.22,4.22,0,0,1,.16-1A5.3,5.3,0,0,0,109.92,134.65Z" style="fill:#263238"></path><path d="M108.57,136.2a1.91,1.91,0,0,1-1.08.29c-.83-.05-1-.77-1-1.42A1.91,1.91,0,0,1,108.57,136.2Z" style="fill:#ff9abb"></path><path d="M90.14,136a6.9,6.9,0,0,0,2.38-6.4A17.91,17.91,0,0,0,98.19,122c0,.36-.2,3-.33,4.31,9.82-4.52,11-13.22,11-13.22a18.38,18.38,0,0,1,6.14,5.41s-1.52-6.35-5.84-9.76a10.53,10.53,0,0,0-10.47-1.83,15,15,0,0,0-13.12,8C80.74,123.87,90.14,136,90.14,136Z" style="fill:#263238"></path><path d="M105.27,122.65a19.51,19.51,0,0,1-4.8,3.27s0,0,0,0a16.57,16.57,0,0,0,6.41-6.48,15.65,15.65,0,0,0,1.44-3.67,10.88,10.88,0,0,0,.38-4.28.09.09,0,0,1,.17,0,12.77,12.77,0,0,1,.2,4.27,11.72,11.72,0,0,1-1.43,4,13.37,13.37,0,0,1-2.36,2.94" style="fill:#263238"></path><path d="M92.39,132.89s-4.43-4.5-6.53-2.83,1.84,8.6,4.72,9.15A2.8,2.8,0,0,0,94,137.1Z" style="fill:#eb9481"></path><path d="M87,132s0,.06,0,.07c2,.45,3.33,2,4.35,3.76a1.56,1.56,0,0,0-2.36,0s0,.11.07.09a1.73,1.73,0,0,1,2,.28,8.28,8.28,0,0,1,1.15,1.36c.12.16.42,0,.32-.17l0,0C92.15,134.9,89.69,131.82,87,132Z" style="fill:#263238"></path></g><g id="freepik--speech-bubble--inject-95"><path d="M120.94,107.61a14.64,14.64,0,0,1-2.49-8c0-10.2,11.2-18.47,25-18.47s25,8.27,25,18.47S157.26,118,143.45,118a30,30,0,0,1-17.24-5.11l-8.61,2.19Z" style="fill:#fffefd"></path><path d="M120.94,107.61C113.77,97,122.36,85.69,133.09,82.4c12.46-4.26,30.27-.68,35.18,12.88,2.81,8.42-3.44,16.73-10.9,20.1a32.13,32.13,0,0,1-16,2.93,29.64,29.64,0,0,1-15.31-5.21l.19,0-8.64,2.09-.25.06.11-.23,3.45-7.44Zm0,0-3.23,7.54-.14-.16,8.58-2.3A32.1,32.1,0,0,0,157,114.58c7-3.23,13-11,10.33-19-4.73-13.09-22-16.39-34-12.52-10.57,3.11-19.07,13.94-12.37,24.55Z" style="fill:#263238"></path><path d="M152.44,99.56A2.6,2.6,0,1,0,155,97,2.59,2.59,0,0,0,152.44,99.56Z" style="fill:#263238"></path><path d="M140.86,99.56a2.59,2.59,0,1,0,2.59-2.6A2.59,2.59,0,0,0,140.86,99.56Z" style="fill:#263238"></path><path d="M129.27,99.56a2.6,2.6,0,1,0,2.6-2.6A2.6,2.6,0,0,0,129.27,99.56Z" style="fill:#263238"></path></g></svg>