<svg xmlns="http://www.w3.org/2000/svg" viewBox="0 0 500 500"><g id="freepik--background-complete--inject-100"><path d="M92.66,239.56l-13.55.28-6.88.11c-2.3,0-4.61,0-6.91.05h-.44v-.45l-.05-11.19v-.51h.5l13.67.06c4.56,0,9.11.11,13.67.17h.27v.27c0,1.89-.09,3.78-.13,5.65Zm0,0-.14-5.66c0-1.86-.11-3.7-.13-5.53l.27.26c-4.56.06-9.11.16-13.67.17l-13.67.07.5-.5,0,11.19-.45-.45c2.25,0,4.5,0,6.76,0l6.79.12Z" style="fill:#ebebeb"></path><path d="M77.41,253.67,63.86,254l-6.88.11c-2.3,0-4.61,0-6.91.05h-.44v-.45l0-11.19V242h.5l13.67.06c4.56,0,9.11.11,13.67.17h.27v.27c0,1.89-.09,3.78-.13,5.65Zm0,0L77.27,248c0-1.86-.11-3.7-.13-5.53l.27.26c-4.56.06-9.11.16-13.67.17L50.07,243l.5-.49,0,11.19-.45-.45c2.25,0,4.5,0,6.76.05l6.79.11Z" style="fill:#ebebeb"></path><path d="M365.29,360.91l-13.55.28-6.88.11c-2.3,0-4.61,0-6.91.05h-.44v-.45l-.05-11.19v-.51h.5l13.67.06c4.56,0,9.11.11,13.67.17h.27v.27c0,1.89-.09,3.78-.13,5.65Zm0,0-.14-5.66c0-1.86-.11-3.7-.13-5.53l.27.27c-4.56.05-9.11.15-13.67.16l-13.67.07.5-.5-.05,11.19-.45-.45c2.25,0,4.5,0,6.76.05l6.79.12Z" style="fill:#ebebeb"></path><path d="M350,375l-13.55.28-6.88.11c-2.3,0-4.61,0-6.91,0h-.44V375l-.05-11.19v-.51h.5l13.67.06c4.56,0,9.11.11,13.67.17h.27v.27c0,1.89-.09,3.78-.13,5.65Zm0,0-.14-5.66c0-1.86-.11-3.7-.13-5.53l.27.26c-4.56.06-9.11.16-13.67.17l-13.67.07.5-.5L323.15,375l-.45-.45c2.25,0,4.5,0,6.76.05l6.79.12Z" style="fill:#ebebeb"></path><path d="M449.93,253.67l-13.55.28-6.88.11c-2.3,0-4.61,0-6.91.05h-.44v-.45l-.05-11.19V242h.5l13.67.06c4.56,0,9.11.11,13.67.17h.27v.27c0,1.89-.09,3.78-.13,5.65Zm0,0-.14-5.66c0-1.86-.11-3.7-.13-5.53l.27.26c-4.56.06-9.11.16-13.67.17l-13.67.06.5-.49,0,11.19-.45-.45c2.25,0,4.5,0,6.76.05l6.79.11Z" style="fill:#ebebeb"></path><path d="M434.68,55.2l-13.55.28-6.88.11c-2.3,0-4.61,0-6.91.06h-.44V55.2L406.84,44v-.5h.5l13.67.06c4.56,0,9.11.12,13.67.17H435V44c0,1.9-.09,3.79-.13,5.65Zm0,0-.14-5.65c0-1.87-.11-3.71-.13-5.54l.27.27c-4.56,0-9.11.16-13.67.17l-13.67.06.5-.5,0,11.19-.45-.45c2.25,0,4.5,0,6.76.06l6.79.11Z" style="fill:#ebebeb"></path><path d="M449.93,69.31l-13.55.28-6.88.11c-2.3,0-4.61,0-6.91.06h-.44v-.45l-.05-11.19v-.5h.5l13.67.06c4.56,0,9.11.12,13.67.17h.27v.27c0,1.9-.09,3.79-.13,5.65Zm0,0-.14-5.65c0-1.87-.11-3.71-.13-5.54l.27.27c-4.56,0-9.11.16-13.67.17l-13.67.06.5-.5,0,11.19-.45-.45c2.25,0,4.5,0,6.76.06l6.79.11Z" style="fill:#ebebeb"></path><path d="M92.66,55.2l-13.55.28-6.88.11c-2.3,0-4.61,0-6.91.06h-.44V55.2L64.82,44v-.5h.5L79,43.57c4.56,0,9.11.12,13.67.17h.27V44c0,1.9-.09,3.79-.13,5.65Zm0,0-.14-5.65c0-1.87-.11-3.71-.13-5.54l.27.27c-4.56,0-9.11.16-13.67.17l-13.67.06.5-.5,0,11.19-.45-.45c2.25,0,4.5,0,6.76.06l6.79.11Z" style="fill:#ebebeb"></path><path d="M290.3,130.13l-13.55.28-6.88.12c-2.3,0-4.6,0-6.91.05h-.44v-.45l-.06-11.19v-.5h.5l13.67.07c4.56,0,9.11.11,13.67.16h.27v.26c0,1.9-.09,3.79-.13,5.65Zm0,0-.14-5.65c0-1.86-.11-3.71-.13-5.54l.27.27c-4.56.05-9.11.16-13.67.17l-13.67.06.5-.5,0,11.19-.45-.44c2.26,0,4.5,0,6.76.05l6.79.11Z" style="fill:#ebebeb"></path><path d="M78.79,48.06c-41.74,0-41.81,59.36,0,59.36S120.6,48.06,78.79,48.06Z" style="fill:#ebebeb"></path><path d="M104.17,83.3C102,93.52,93.48,102.37,78.79,102.37c-34.7,0-34.65-49.26,0-49.26h.68c-32.61.6-32.45,47.25.64,47.25C93.6,100.37,101.64,92.56,104.17,83.3Z" style="fill:#dbdbdb"></path><path d="M79,59.6a1.05,1.05,0,0,1,1.08,1v1.66a15.49,15.49,0,0,1,8,2.89c.41.29.63.54.63,1a1.11,1.11,0,0,1-1.17,1,1.14,1.14,0,0,1-.81-.29A13.55,13.55,0,0,0,80,64.15V75.72c6.87,1.32,9.76,3.67,9.76,7.72,0,4.38-4,7.48-9.67,7.65v3.22a1.08,1.08,0,0,1-2.16,0V91.05a17.8,17.8,0,0,1-10.17-4,1.07,1.07,0,0,1-.49-.87,1.13,1.13,0,0,1,1.13-1,1.18,1.18,0,0,1,.81.29,15.18,15.18,0,0,0,8.81,3.76V77.41c-6.78-1.36-9.58-3.63-9.58-7.77s4-7.35,9.49-7.48V60.59A1.05,1.05,0,0,1,79,59.6Zm-1,15.7V64c-4.38.09-7.27,2.48-7.27,5.46C70.78,72.29,72.22,74,78.05,75.3Zm2,2.52V89.23c4.52-.08,7.45-2.48,7.45-5.62C87.48,80.76,85.9,79,80,77.82Z" style="fill:#dbdbdb"></path><path d="M421.21,186.18c-41.74,0-41.81,59.36,0,59.36S463,186.18,421.21,186.18Z" style="fill:#ebebeb"></path><path d="M446.59,221.43c-2.22,10.21-10.69,19.07-25.39,19.07-34.69,0-34.64-49.27,0-49.27h.68c-32.6.6-32.44,47.25.64,47.25C436,238.49,444.06,230.69,446.59,221.43Z" style="fill:#dbdbdb"></path><path d="M421.46,197.72a1.06,1.06,0,0,1,1.08,1v1.65a15.58,15.58,0,0,1,8,2.89c.41.29.63.54.63,1a1.11,1.11,0,0,1-1.17,1,1.21,1.21,0,0,1-.82-.28,13.41,13.41,0,0,0-6.77-2.69v11.57c6.87,1.32,9.76,3.68,9.76,7.73,0,4.38-4,7.48-9.67,7.64v3.22a1.09,1.09,0,0,1-2.17,0v-3.26a17.8,17.8,0,0,1-10.16-4,1.06,1.06,0,0,1-.49-.87,1.13,1.13,0,0,1,1.13-1,1.23,1.23,0,0,1,.81.29,15.18,15.18,0,0,0,8.8,3.76V215.53c-6.77-1.36-9.57-3.63-9.57-7.76s4-7.36,9.48-7.48v-1.57A1.06,1.06,0,0,1,421.46,197.72Zm-1,15.71V202.15c-4.38.08-7.27,2.48-7.27,5.45C413.19,210.41,414.64,212.15,420.46,213.43Zm2,2.52v11.4c4.52-.08,7.45-2.48,7.45-5.62C429.9,218.88,428.32,217.15,422.45,216Z" style="fill:#dbdbdb"></path><path d="M349.78,144.43c-25,18.14,1.86,55.15,26.87,37S374.78,126.25,349.78,144.43Z" style="fill:#dbdbdb"></path><path d="M352.12,142.72c-23.79,17.29,3,54.3,26.87,37S376,125.4,352.12,142.72Z" style="fill:#ebebeb"></path><path d="M382.55,154.16c3.35,7.29,2.53,16.31-5.84,22.4-19.78,14.37-42-16.34-22.31-30.69l.4-.28c-18.32,13.88,2.9,42.88,21.75,29.18C384.25,169.18,385.29,161,382.55,154.16Z" style="fill:#dbdbdb"></path><path d="M361.11,148a.78.78,0,0,1,1,.47l.42,1.21a10.37,10.37,0,0,1,6.08.25c.35.11.56.24.66.54a.81.81,0,0,1-.52,1,.73.73,0,0,1-.61,0,9.11,9.11,0,0,0-5.19-.39l2.92,8.42c4.9-.62,7.42.42,8.44,3.37,1.11,3.19-.78,6.37-4.5,7.79l.81,2.35a.76.76,0,0,1-1.44.5l-.82-2.38a11.92,11.92,0,0,1-7.78-.57.81.81,0,0,1-.55-.51.84.84,0,0,1,.49-1,.8.8,0,0,1,.61,0,10.32,10.32,0,0,0,6.82.7l-3-8.57c-4.86.57-7.3-.43-8.34-3.44s.79-6.27,4.43-7.63l-.4-1.14A.79.79,0,0,1,361.11,148Zm3.3,11.66-2.84-8.21c-2.9,1.07-4.22,3.48-3.47,5.65S360.21,160.1,364.41,159.69Zm2,1.37,2.88,8.3c3-1.1,4.34-3.52,3.54-5.81C372.07,161.48,370.58,160.58,366.37,161.06Z" style="fill:#dbdbdb"></path><path d="M128.72,112a12.57,12.57,0,0,1,12.67,12.66v6.48A107.16,107.16,0,0,1,187,147.38c4.72,2.65,8.84,7.07,8.84,14.13a16.22,16.22,0,0,1-16.49,16.2,17,17,0,0,1-8.84-2.65c-10.31-6.18-20.32-10.6-30.33-13v56.55c44.76,11.19,63.9,29.15,63.9,60.66,0,32.4-25.32,53.89-62.72,57.43v17.67a12.57,12.57,0,0,1-12.67,12.66,12.82,12.82,0,0,1-13-12.66V336.15a127.5,127.5,0,0,1-60.38-23c-5-3.24-8-7.95-8-14.14a16.21,16.21,0,0,1,25.92-13c13.84,10,27.39,16.79,43.58,19.74v-58c-43-11.19-63-27.39-63-60.67,0-31.51,25-53.3,61.85-56.24V124.7A12.82,12.82,0,0,1,128.72,112ZM116.94,212.46V160.34c-18.84,1.76-28.27,11.78-28.27,24.73C88.67,197.44,94.27,205.1,116.94,212.46Zm23.27,40.94V307c18.85-2.06,29.15-11.48,29.15-25.62C169.36,268.42,162.88,260.46,140.21,253.4Z" style="fill:#ebebeb"></path></g><g id="freepik--Arrow--inject-100"><polygon points="131.95 238.96 157.45 238.96 211.14 323.71 185.65 323.71 131.95 238.96" style="fill:#37474f"></polygon><polygon points="269.62 191.18 295.11 191.18 348.81 275.94 323.31 275.94 269.62 191.18" style="fill:#37474f"></polygon><polygon points="157.41 238.96 131.92 238.96 61.42 350.23 86.92 350.23 157.41 238.96" style="fill:#455a64"></polygon><polygon points="295.15 191.18 269.66 191.18 185.69 323.71 211.18 323.71 295.15 191.18" style="fill:#455a64"></polygon><polygon points="432.64 143.4 407.15 143.4 323.18 275.94 348.68 275.94 432.64 143.4" style="fill:#455a64"></polygon><polygon points="401.23 143.4 438.67 143.4 429.06 125.69 401.23 143.4" style="fill:#455a64"></polygon></g><g id="freepik--Character--inject-100"><rect x="83.34" y="350.23" width="57.98" height="95.49" style="fill:#FFCB74"></rect><rect x="83.34" y="350.23" width="57.98" height="95.49" style="fill:#fff;opacity:0.6000000000000001"></rect><rect x="61.42" y="350.23" width="21.92" height="95.49" transform="translate(144.76 795.96) rotate(180)" style="fill:#FFCB74"></rect><rect x="61.42" y="350.23" width="21.92" height="95.49" transform="translate(144.76 795.96) rotate(180)" style="fill:#fff;opacity:0.4"></rect><rect x="182.43" y="219.6" width="57.98" height="226.12" style="fill:#FFCB74"></rect><rect x="182.43" y="219.6" width="57.98" height="226.12" style="fill:#fff;opacity:0.6000000000000001"></rect><rect x="160.51" y="219.6" width="21.92" height="226.12" transform="translate(342.93 665.32) rotate(180)" style="fill:#FFCB74"></rect><rect x="160.51" y="219.6" width="21.92" height="226.12" transform="translate(342.93 665.32) rotate(180)" style="fill:#fff;opacity:0.4"></rect><rect x="281.51" y="275.19" width="57.98" height="170.54" style="fill:#FFCB74"></rect><rect x="281.51" y="275.19" width="57.98" height="170.54" style="fill:#fff;opacity:0.6000000000000001"></rect><rect x="259.59" y="275.19" width="21.92" height="170.54" transform="translate(541.11 720.91) rotate(180)" style="fill:#FFCB74"></rect><rect x="259.59" y="275.19" width="21.92" height="170.54" transform="translate(541.11 720.91) rotate(180)" style="fill:#fff;opacity:0.4"></rect><rect x="380.6" y="254.74" width="57.98" height="190.98" style="fill:#FFCB74"></rect><rect x="380.6" y="254.74" width="57.98" height="190.98" style="fill:#fff;opacity:0.6000000000000001"></rect><rect x="358.68" y="254.74" width="21.92" height="190.98" transform="translate(739.28 700.47) rotate(180)" style="fill:#FFCB74"></rect><rect x="358.68" y="254.74" width="21.92" height="190.98" transform="translate(739.28 700.47) rotate(180)" style="fill:#fff;opacity:0.4"></rect><path d="M230.81,116.78c.66,11.81,1.13,24,0,35.75-.9,9.17-4.76,16.73-14.3,19-8.85,2.09-21.45,1.93-28.93-3.93-3.49-2.74-4.7-6.6-4.47-10.92.32-6,5.09-38.94,6.51-49.21.86-6.25,1.69-12.59,3.66-18.63,4.11-12.68,10.44-12.92,11.31-13.17.75-.48,5.51-2.29,12.36-.1a13.32,13.32,0,0,1,8.14,7.24C230,93,230.19,105.73,230.81,116.78Z" style="fill:#263238"></path><path d="M202.54,77.75c-7.55,3.52-9.34,11.76-11.17,19.14-2.54,10.28-4.91,20.61-6.78,31q-1.35,7.53-2.32,15.1c-.6,4.84-1.55,10-1.22,14.88.54,8.08,7.93,11.76,15.09,12.91a.27.27,0,0,0,.1-.54c-4.08-.81-8.24-1.94-11.27-5-3.9-3.88-3.44-8.94-3-14,.78-8.58,2-17.11,3.63-25.58s3.46-16.91,5.47-25.3c1.91-8,3.3-18.5,11.5-22.56C202.66,77.84,202.62,77.71,202.54,77.75Z" style="fill:#263238"></path><path d="M228.52,91.42c-1.43-6.18-4.64-12.19-11.14-14,0,0,0,0,0,0C225.78,80.13,227.83,89.31,229,97c1.18,8.07,2,16.18,2.63,24.32.56,7.82,1,15.71.8,23.55-.16,8.47-1.69,16.4-6.69,23.38a.14.14,0,1,0,.21.18c4.92-5.64,6.55-13.42,6.95-20.7a219.59,219.59,0,0,0-.85-28.9C231.29,109.72,230.59,100.31,228.52,91.42Z" style="fill:#263238"></path><path d="M343.58,317c-2.22,1.3-70.59,15.59-73.54,14.49-1.12-.41-3.78-10.25-6.66-22.22-.63-2.59-1.25-5.26-1.87-8-4.06-17.65-7.95-36.48-7.95-36.48l45.71-9.69L306,291.85l1.48,8.06s28.62,6.24,31.73,7.8S345.8,315.69,343.58,317Z" style="fill:#eb9481"></path><path d="M264.49,313.83c2.43,9.82,4.57,17.29,5.55,17.65,2.95,1.11,71.32-13.19,73.54-14.49s-1.33-7.72-4.42-9.29c-1.92-.95-13.55-3.69-22.18-5.66,7.54,1.81,21.6,6.92-7.48,9C285.45,312.81,269.59,313.6,264.49,313.83Z" style="fill:#263238"></path><path d="M282.34,349.82c-2.48.69-72.23-2.92-74.81-4.73-.56-.4.08-9.77.87-18.21.59-6.27,15.83-49.78,15.83-49.78l46.66,2.28-19.16,44.71s26.09,13.32,28.7,15.62S284.81,349.13,282.34,349.82Z" style="fill:#eb9481"></path><path d="M207.53,345.08c2.58,1.83,72.32,5.43,74.81,4.74s.68-7.81-1.91-10.11c-1.22-1.07-7.53-4.52-13.91-7.91,8,4.51,20.71,14.58-58.26-3.37C207.54,336.42,207,344.72,207.53,345.08Z" style="fill:#263238"></path><path d="M173.67,214c13.9,15.49,60.61,3.26,63.4,9.42,2.46,5.44-29.41,92.72-29.41,92.72l51,5.5s44-96.4,28.3-124.25c-8.51-15-46-9-68.57-11.8-6.82-.83-10-14.89-10-14.89H168S157.78,196.3,173.67,214Z" style="fill:#263238"></path><path d="M272.78,188.76l-42.84,32.78c-14.22-.3-45.36,4.63-56.27-7.54-15.89-17.7-5.7-43.3-5.7-43.3h40.39s3.21,14.07,10,14.9C234.25,187.52,257.42,185.15,272.78,188.76Z" style="fill:#37474f"></path><path d="M260.61,310.26c-1.41-.44-14.63-1.91-17.55-2.23-5.84-.63-24.22-2.35-27.55-2.34a.08.08,0,0,0,0,.16c2.9.6,14.63,2,17.54,2.27,5.85.6,25.93,2.55,27.56,2.39A.13.13,0,0,0,260.61,310.26Z" style="fill:#37474f"></path><path d="M243.26,218.31c-3.28-1.63-28.14-.82-46-2.49-5.81-.55-11.64-1.79-16.08-5.6a26.64,26.64,0,0,1-7.94-13.07c-1.71-6.1-1.54-12.46-1.24-18.7.07-1.54.17-3.07.27-4.61,0-.08-.15-.1-.16,0-1.36,11.18-2.4,23.67,4.88,33.36a23.29,23.29,0,0,0,13,8.53c10.76,2.84,51.21,2.13,52.63,3.22,1.71,1.3-24.45,80.92-25,82.44-.1.28.4.47.52.19C220.78,295.46,246.11,219.73,243.26,218.31Z" style="fill:#37474f"></path><path d="M288.79,200.09c-2.41-6.11-7.9-9.91-16-11.36-.13,0-.12.17,0,.21,7,2.06,12.08,4.89,14.84,10.83,1.3,2.78,2,6.68,2.3,11.9,1.67,26.07-21.07,85.24-21.53,86.27a.08.08,0,1,0,.13.08C271.78,292.62,298.71,225.28,288.79,200.09Z" style="fill:#37474f"></path><path d="M307.23,289.51l-38.63,8.22s30.47-91,16.16-102.68c-4-3.25-12.61-4.39-22.89,0-15.35,6.63-33.11,20.14-49.86,25.09-15.68,4.62-34.3.37-40.7-6.68-13.46-14.82-3.34-42.82-3.34-42.82l55.55-2.09s-.83.68,1.82,3c0,0,32.65-7.4,46.83,1.26C297.76,188.53,307.23,289.51,307.23,289.51Z" style="fill:#263238"></path><path d="M192,173.94a.1.1,0,0,0-.2,0,31,31,0,0,1-.48,6.23,10.74,10.74,0,0,1-2.79,5.17c-3.05,3.08-7.42,4.13-11.41,5.39-.21.07-.17.44.07.4,4.43-.68,9.08-1.8,12.32-5.13a10.72,10.72,0,0,0,2.87-5.57A13.34,13.34,0,0,0,192,173.94Z" style="fill:#37474f"></path><path d="M283.8,193.31c-5.93-3.72-15.22-.89-19.66.81-.09,0-.05.19,0,.15,4.09-1.47,14.27-3.69,19.7.16,12.57,8.9-4.25,69.79-15.28,103.3-.17.52.25.38.48-.12,1.82-4,16-46.32,19.74-74.33C289.39,219,292.37,198.69,283.8,193.31Z" style="fill:#37474f"></path><path d="M302.82,279.24c-1.16,0-11.17,2.18-13.38,2.68-4.41,1-14.63,3.64-17,4.55-.06,0,0,.15.05.15,2.29-.22,7.62-1.39,9.82-1.9,4.4-1,19.5-4.65,20.6-5.24C303,279.43,302.94,279.25,302.82,279.24Z" style="fill:#37474f"></path><path d="M281.91,191.73c-4-2.18-8.75-2.54-13.18-2A46.45,46.45,0,0,0,255.25,194c-9,4.14-17.64,9.18-26.69,13.29s-18.59,7.29-28.51,7.59c-8.47.26-19.19-1.23-24.64-8.85-8.4-11.75-3.51-32-3.41-33.31,0-.1-.13-.09-.15,0-6.52,24.89,1.86,34.55,7.52,38.62,4.49,3.22,10.94,4,15.2,4.4,9.86.83,19.75-1.58,28.89-5.22,9.37-3.74,18.15-8.76,27.13-13.35,8.6-4.4,18.19-8.94,28-6.42a23.8,23.8,0,0,1,3.27,1.12C281.93,191.85,282,191.76,281.91,191.73Z" style="fill:#37474f"></path><path d="M201,121.82c5.8,16.37,16.12,35.61,19.91,38.49,4.8,3.64,30.79,6.6,32.23,6.59,3.57-.05,6.24-23.94,2.42-24.05-5.82-.17-21.82.12-23.21-1s-11.5-11.24-22-22.71C203.12,111.2,197.36,111.66,201,121.82Z" style="fill:#eb9481"></path><path d="M251.74,166.91a74.29,74.29,0,0,0,10,3c2.7.45,10.52,1.56,11.32-1.37.54-2-4-3.18-7.15-4.1-1.68-.48-3.84-1.92-3.48-3,.61-1.89,4.93-.56,7.81.69,5.58,2.44,13.18,7.11,16.06,4.09,1.09-1.15-.52-2.81-2.77-4.36,3.56,1.7,7.31,3,8.57,1.78a1.76,1.76,0,0,0,.12-2.42,2.36,2.36,0,0,0,2.52-.7c1-1.26.23-2.87-1.15-4.44a1.35,1.35,0,0,0,.91-.76c1.88-3.76-10.73-12.46-14.81-12.94a101,101,0,0,0-24.21.5C251.36,147,251.73,166.9,251.74,166.91Z" style="fill:#eb9481"></path><path d="M267.65,154.2a20,20,0,0,1,8.13,2.09c3.18,1.61,5.4,3.67,8.15,5.69.07.05,0,.16-.08.11-1.31-1-6.68-4.5-8.05-5.29a19,19,0,0,0-8.15-2.56S267.62,154.19,267.65,154.2Z" style="fill:#263238"></path><path d="M269.25,149a47.18,47.18,0,0,1,9.42,2.09c3.29,1.23,6,3.53,8.71,5.75,1.61,1.33,3.2,2.69,4.74,4.09.07.06,0,.17-.08.11q-4.08-3.43-8.38-6.62a24.89,24.89,0,0,0-8.86-4.25c-1.83-.47-3.69-.79-5.55-1.12C269.21,149.05,269.22,149,269.25,149Z" style="fill:#263238"></path><path d="M272,144.29c3.05.27,5.71.49,8.53,1.78a43.34,43.34,0,0,1,8.84,6c1.47,1.25,2.89,2.54,4.3,3.85.06.06,0,.16-.09.1a100.93,100.93,0,0,0-10.13-7.95,20.21,20.21,0,0,0-5.46-2.72,36.63,36.63,0,0,0-6-1.05S272,144.29,272,144.29Z" style="fill:#263238"></path><path d="M255.44,141.06l-5.58,28.84s-24.56-4.05-29.45-8.24S204.72,134.2,201,122.74s2.26-11.86,8.56-5.09,21.94,23.13,22.75,23.44S255.44,141.06,255.44,141.06Z" style="fill:#FFCB74"></path><path d="M246.16,157.8c.68-3.41,1.4-6.81,2-10.23.31-1.95.64-3.9.94-5.85,0-.08-.11-.11-.13,0-.82,3.39-1.64,6.79-2.31,10.21s-1.36,6.82-2,10.23c-.35,2-.65,3.89-.88,5.86a0,0,0,0,0,.07,0C244.77,164.64,245.47,161.23,246.16,157.8Z" style="fill:#263238"></path><path d="M250.42,167l-.55,2.87s-24.57-4.05-29.46-8.23S204.71,134.2,201,122.74c-2.71-8.38-.25-10.85,3.73-8.92C216.23,127,237.91,151.87,250.42,167Z" style="opacity:0.1"></path><path d="M166.7,170.56l58.2,1-4.56-17.43A18.23,18.23,0,0,0,223,138.9c-1.39-5.13-8-12.82-12.08-17.7-9.89-11.89-18.48-6.51-21.22-3.46C179.19,129.42,166.7,170.56,166.7,170.56Z" style="fill:#ebebeb"></path><path d="M194.15,114.4s5.71,15.16,7.94,18.62,8.79,9.66,8.79,9.66.76-8.94,0-14.05-5.1-12.39-5.1-12.39a10.74,10.74,0,0,1,3.07,2.41c4.93,5,13.5,14.9,14.79,21.66A18.06,18.06,0,0,1,221,154l6.56,20.93-9.19,2.85-4.52-5.36-4.67,5.95-46.56-6.49,7.74-14.6s11.08-28.78,15.48-35.08C190.85,115,194.15,114.4,194.15,114.4Z" style="fill:#FFCB74"></path><path d="M204.77,153.06a50.63,50.63,0,0,1,7.49-.12c1.24.09,2.46.23,3.69.4.61.09,1.23.15,1.84.22a8.39,8.39,0,0,0,1.94,0c.06,0,.07.07,0,.09a15.51,15.51,0,0,1-1.81.29,13.07,13.07,0,0,1-1.77,0c-1.26-.08-2.52-.21-3.77-.3-2.54-.19-5.07-.37-7.61-.37C204.66,153.27,204.65,153.07,204.77,153.06Z" style="fill:#263238"></path><path d="M199.11,156.33a54.11,54.11,0,0,1,6-1.39c1-.17,2-.29,3.07-.37.49,0,1-.08,1.47-.1s1.09,0,1.63,0c0,0,.07.08,0,.08-.51.05-1,.19-1.51.27l-1.53.23-3,.48c-2,.3-4.06.62-6.09,1C199,156.52,199,156.36,199.11,156.33Z" style="fill:#263238"></path><path d="M193.9,114.75c-.58,4-1.25,8.06-1.93,12.08l-.21-.33c2.37.62,4.73,1.3,7.09,1.95l.4.11-.17.38c-.7,1.55-1.4,3.11-2.13,4.65l-.09-.43c2.5,2.18,5,4.32,7.5,6.54s5,4.41,7.39,6.68c-2.61-2-5.18-4.15-7.74-6.26s-5.08-4.27-7.63-6.4l-.21-.18.12-.25c.69-1.56,1.42-3.1,2.14-4.65l.23.49c-2.35-.69-4.71-1.35-7.06-2.07l-.26-.08,0-.26C192.19,122.73,193,118.73,193.9,114.75Z" style="fill:#263238"></path><path d="M207,117.13c1.32,1.37,2.24,2.35,3.51,3.75s2.58,2.78,3.82,4.21l.26.3-.34.2-2.46,1.53.07-.55c1,1,2,2,3,3.05l.13.14,0,.18c-.52,2.74-1,5.5-1.54,8.23s-1.09,5.48-1.71,8.21c.34-2.78.75-5.54,1.18-8.3s.9-5.51,1.34-8.26l.1.32c-1-1-2-2-3-3.07l-.32-.32.38-.23,2.49-1.49-.08.5c-1.24-1.43-2.43-2.91-3.65-4.36S208.18,118.63,207,117.13Z" style="fill:#263238"></path><path d="M211.75,146.38c.35,1.33.71,2.66,1,4s.63,2.67.92,4v0c.1,3,.12,6,.17,9s0,6,0,9c-.18-3-.3-6-.4-9s-.18-6-.21-9v.05c-.28-1.35-.55-2.7-.79-4.05S212,147.73,211.75,146.38Z" style="fill:#263238"></path><path d="M211,150a1,1,0,0,1-.78,1,1,1,0,0,1-1.16-1,1,1,0,0,1,.38-.79,1,1,0,0,1,.78-.19A1,1,0,0,1,211,150Zm0,0a.63.63,0,0,0-.26-.52.66.66,0,0,0-.52-.08.61.61,0,0,0-.4.6.6.6,0,0,0,.4.59.62.62,0,0,0,.52-.08A.63.63,0,0,0,211,150Z" style="fill:#263238"></path><path d="M212.13,158.61a1,1,0,0,1-.78,1,1,1,0,0,1-.78-.19,1,1,0,0,1,0-1.57,1,1,0,0,1,.78-.19A1,1,0,0,1,212.13,158.61Zm0,0a.62.62,0,0,0-.27-.52.63.63,0,0,0-.51-.08.64.64,0,0,0-.41.6.58.58,0,0,0,.92.51A.61.61,0,0,0,212.13,158.61Z" style="fill:#263238"></path><path d="M212.54,166.54a1,1,0,0,1-.79,1,1,1,0,0,1-.78-.19,1,1,0,0,1,0-1.57,1,1,0,0,1,.78-.19A1,1,0,0,1,212.54,166.54Zm0,0a.67.67,0,0,0-.27-.52.65.65,0,0,0-.52-.08.61.61,0,0,0-.4.6.6.6,0,0,0,.4.59.61.61,0,0,0,.52-.08A.67.67,0,0,0,212.54,166.54Z" style="fill:#263238"></path><path d="M196.58,115.1c0,1.08,3,9,7.76,10,1.54.33,3.73-8,3.73-8l.31-.58,4.22-8.06-8.34-9.17L203,98.12s-1,2.28-2.24,5.13c-.06.13-.12.26-.18.41s-.14.31-.2.46c-.19.42-.39.85-.57,1.29s-.27.65-.41,1-.27.69-.42,1A61.43,61.43,0,0,0,196.58,115.1Z" style="fill:#eb9481"></path><path d="M200.8,103.25a18.22,18.22,0,0,0,7.58,13.34l4.22-8.06-8.34-9.17L203,98.12S202,100.4,200.8,103.25Z" style="fill:#263238"></path><path d="M228.22,97.81c-1.8,15.86-11.5,16.58-14.92,16.19-3.11-.35-13.64-2-13.49-17.92S207.89,75.93,215,76.37,230,81.94,228.22,97.81Z" style="fill:#eb9481"></path><path d="M226.29,94.82c-.37-.1-.69-.24-1-.37a1.85,1.85,0,0,1-1-.58.57.57,0,0,1,.09-.69,1.41,1.41,0,0,1,1.43-.14,2.09,2.09,0,0,1,1.18.9A.6.6,0,0,1,226.29,94.82Z" style="fill:#263238"></path><path d="M215.44,92.83a10,10,0,0,0,1.1-.08,1.8,1.8,0,0,0,1.11-.29.57.57,0,0,0,.09-.69,1.39,1.39,0,0,0-1.33-.51,2,2,0,0,0-1.39.55A.6.6,0,0,0,215.44,92.83Z" style="fill:#263238"></path><path d="M217.42,97.54c0-.05-.09,0-.09.08-.09,1.09-.37,2.31-1.39,2.56,0,0,0,.07,0,.07C217.16,100.21,217.52,98.58,217.42,97.54Z" style="fill:#263238"></path><path d="M216.58,96.3c-1.72-.33-2.24,3.14-.65,3.45S218,96.57,216.58,96.3Z" style="fill:#263238"></path><path d="M215.88,96.38c-.34.15-.69.45-1.06.43s-.69-.43-.91-.82c0,0-.06,0-.07,0a1.28,1.28,0,0,0,.74,1.59c.64.19,1.19-.33,1.46-1C216.09,96.52,216,96.32,215.88,96.38Z" style="fill:#263238"></path><path d="M223.43,98.21s.08.07.07.11c-.2,1.07-.26,2.33.65,2.84,0,0,0,.07,0,.06C223,100.86,223.07,99.19,223.43,98.21Z" style="fill:#263238"></path><path d="M224.57,97.25c1.75.14,1.33,3.62-.29,3.49S223.11,97.12,224.57,97.25Z" style="fill:#263238"></path><path d="M225.27,97.56c.25.22.49.59.81.65s.71-.27,1-.61c0,0,.06,0,.05.05-.06.67-.36,1.33-1,1.38s-.95-.57-1-1.25C225.05,97.65,225.17,97.47,225.27,97.56Z" style="fill:#263238"></path><path d="M216,106.34c.21.3.4.7.78.81a2.87,2.87,0,0,0,1.2-.05,0,0,0,0,1,0,.07,1.49,1.49,0,0,1-1.47.31,1.17,1.17,0,0,1-.65-1.11C215.85,106.3,215.93,106.3,216,106.34Z" style="fill:#263238"></path><path d="M221,103.08a23.91,23.91,0,0,1-.11,2.39c0,.08-.2.08-.46.06,0,0,0,0,0,0a3.63,3.63,0,0,1-3.31-1.84c0-.08.06-.14.13-.08a5.5,5.5,0,0,0,3.16,1.4c.08-.2-.09-2.81,0-2.8a6.65,6.65,0,0,1,1.67.63c.1-3.42-.35-6.82-.19-10.22a.1.1,0,0,1,.2,0,55,55,0,0,1,.67,11C222.78,104,221.29,103.25,221,103.08Z" style="fill:#263238"></path><path d="M220.38,105.15a4.43,4.43,0,0,1-1.86,1.26,1.93,1.93,0,0,1-1.21,0c-.86-.28-.83-1.09-.62-1.76a4.42,4.42,0,0,1,.46-1A5.69,5.69,0,0,0,220.38,105.15Z" style="fill:#263238"></path><path d="M218.52,106.41a1.93,1.93,0,0,1-1.21,0c-.86-.28-.83-1.09-.62-1.76A2,2,0,0,1,218.52,106.41Z" style="fill:#ff9bbc"></path><path d="M199.85,98a6.64,6.64,0,0,0,4.58-4.67A17.36,17.36,0,0,0,212.34,89c-.17.31-1.34,2.53-2,3.65,10.37-.13,14.82-7.27,14.82-7.27a17.47,17.47,0,0,1,3.26,7.13s1.15-6.15-1.3-10.82A10.06,10.06,0,0,0,218.69,76a14.39,14.39,0,0,0-14.6,1.84C196.33,83.78,199.85,98,199.85,98Z" style="fill:#263238"></path><path d="M218.28,92.29a19,19,0,0,1-5.48,1s0,0,0,0A15.85,15.85,0,0,0,221,90.08a15.05,15.05,0,0,0,2.7-2.65,10.51,10.51,0,0,0,2-3.59.08.08,0,0,1,.15,0,12.21,12.21,0,0,1-1.49,3.82,11,11,0,0,1-2.81,2.93,12.76,12.76,0,0,1-3.22,1.66Z" style="fill:#263238"></path><path d="M198.86,101.47a2.88,2.88,0,0,0,.69.33,2.56,2.56,0,0,0,.73.17,2.12,2.12,0,0,0,1-.11,2.54,2.54,0,0,0,.68-.34,2.94,2.94,0,0,0,.78-.76l0-4.35s-2.43-5.58-4.89-4.8S196.45,100,198.86,101.47Z" style="fill:#eb9481"></path><path d="M198.16,93.77s-.06,0,0,.07c1.67,1.11,2.29,3,2.61,4.88a1.49,1.49,0,0,0-2.1-.84.06.06,0,0,0,0,.11,1.65,1.65,0,0,1,1.67.93,7.8,7.8,0,0,1,.57,1.62c.05.18.36.15.34-.05v0C201.76,98.13,200.61,94.51,198.16,93.77Z" style="fill:#263238"></path><path d="M185.06,119.86c-9.46,8.29-33.68,40.89-27.73,47.87s43.33,2.14,54.08-1.72c3.2-1.15-6.49-21.34-10-22.14-2.95-.67-18.92,4.78-19.28,3.86s2.77-8.13,7.77-21C195.64,111.83,189.23,116.2,185.06,119.86Z" style="fill:#eb9481"></path><path d="M217.16,139.24c7.52-.28,9.5.8,15.72-2.82,4.08-2.37,7.35-.78,4.74,3.37-4.27,6.81-13.9,9.22-17.48,9.09Z" style="fill:#eb9481"></path><path d="M196.74,144.41a76.7,76.7,0,0,1,16.78-4.89c5.53-.77,17.73-1.08,28.06,12,2.45,3.09,3.75,9.24-2.09,5.64-4.15-2.56-6-5.43-8.69-6.48,0,0,.73,8-2.47,10.35a73.16,73.16,0,0,1-8.78,5.51,15.82,15.82,0,0,1-1.18-1.55s-3.19,1.89-8.73.8Z" style="fill:#eb9481"></path><path d="M218.91,139.63c2.44,1.6,7.57,5.09,10.76,9.39,3.56,4.79,9.11,15,5.55,17.55-2.61,1.89-5.07-1.81-5.07-1.81s1.41,4.69-1.32,5.89c-2.49,1.09-4.23-1.88-4.23-1.88s.37,3-2.23,3.58c-3.13.7-3.38-5.68-7.17-7.7C214.35,164.2,218.91,139.63,218.91,139.63Z" style="fill:#eb9481"></path><path d="M224,151.93a23.78,23.78,0,0,1,6.21,12.72c0,.12-.07.2-.11.09A58.47,58.47,0,0,0,224,152S224,151.91,224,151.93Z" style="fill:#263238"></path><path d="M219.27,155.66c1.6,1.81,5,7.61,5.44,13.07,0,.12-.08.19-.12.08a62.73,62.73,0,0,0-5.37-13.12S219.25,155.64,219.27,155.66Z" style="fill:#263238"></path><path d="M230.81,150.59a20.12,20.12,0,0,1,5.7,3.92,30.64,30.64,0,0,0,2.92,2.29c.93.63,2.3,1.58,3.43.85a2,2,0,0,0,.65-1.93,10,10,0,0,0-1.06-2.88s0-.07.06,0a13.62,13.62,0,0,1,1.21,2.6,3.19,3.19,0,0,1,0,1.91c-.49,1.29-2.08,1.31-3.16.83a10.22,10.22,0,0,1-1.81-1.11c-.55-.39-1.08-.81-1.61-1.25-1.07-.89-2.09-1.84-3.15-2.75a32.83,32.83,0,0,0-3.25-2.36C230.72,150.64,230.76,150.58,230.81,150.59Z" style="fill:#263238"></path><path d="M235,159.61a77.36,77.36,0,0,0-4.26-9,0,0,0,0,1,.05-.05,39.44,39.44,0,0,1,4.81,8.62,13.21,13.21,0,0,1,1,5.25c-.25,2.52-2,2.83-2.61,2.89a3.24,3.24,0,0,1-2.11-.56,6.76,6.76,0,0,1-1.77-2,0,0,0,0,1,.06,0,4.7,4.7,0,0,0,3.52,2.17,2.33,2.33,0,0,0,1.65-.69,3,3,0,0,0,.6-2A13.77,13.77,0,0,0,235,159.61Z" style="fill:#263238"></path><path d="M196.74,144.41,206,170.18s-46.76,5.68-49.91-2.67,17.74-37.74,26.65-46c10.33-9.59,11.16-5.89,8.18,3.23-3.12,9.54-8.66,23.24-8.66,23.24Z" style="fill:#FFCB74"></path><path d="M167.66,153.12a51.41,51.41,0,0,1,14.44-5.38c1.43-.32,2.87-.57,4.31-.82,0,0,.05.06,0,.06a68.49,68.49,0,0,0-7.45,2.07c-2.43.81-4.84,1.65-7.24,2.55-1.36.5-2.69,1.07-4,1.62A.05.05,0,0,1,167.66,153.12Z" style="fill:#263238"></path><path d="M196.62,144.33c-.23,0-13.16,2.91-13.58,3.06.07-.19,3-6.61,3.41-7.55a2.39,2.39,0,0,1,.13-.28c.27-.42.54-.83.8-1.25s.65-1.08,1-1.63a0,0,0,1,0,0,0l-1.05,1.58c-.16.24-.31.49-.46.74.29-.66.57-1.33.85-2,.45-1.07.86-2.16,1.27-3.24,0,0,0-.05-.05,0-.86,1.87-1.78,3.72-2.64,5.59s-4.15,8.75-4.13,8.74,14.26-3.47,14.54-3.56A.09.09,0,1,0,196.62,144.33Z" style="fill:#263238"></path><path d="M195.86,160.46c-1-2.88-2-5.76-3.12-8.6-.64-1.61-1.26-3.23-1.92-4.83,0-.06-.13,0-.11,0,.9,2.93,1.81,5.86,2.85,8.74s2,5.75,3.1,8.61c.61,1.62,1.26,3.22,2,4.81,0,0,.06,0,.06,0C197.88,166.24,196.88,163.35,195.86,160.46Z" style="fill:#263238"></path><path d="M206.51,170.62c-.38-.8-.85-2-1.26-2.73-.11-.21-.27-.19-.18,0,.28.72.49,1.52.76,2.26l-2,.19-2.27.24c-1.49.15-3,.29-4.46.41q-4.51.38-9,.56a174.6,174.6,0,0,1-18.16-.11c-1.69-.11-3.38-.25-5.06-.44s-3.55-.42-4.95-.74c-.05,0-.06.06,0,.08a27.52,27.52,0,0,0,4.27,1c1.52.23,3,.42,4.57.55,3.05.27,6.1.38,9.16.41q9.09.08,18.16-.62c1.69-.12,3.38-.27,5.07-.44.86-.08,1.71-.17,2.56-.27A15.83,15.83,0,0,0,206.51,170.62Z" style="fill:#263238"></path><rect x="210.78" y="173.35" width="58.88" height="2.64" style="fill:#c7c7c7"></rect><polygon points="269.66 173.35 269.66 175.99 229.63 175.99 231.65 173.35 269.66 173.35" style="fill:#a6a6a6"></polygon><polygon points="237.73 175.99 289.26 175.99 296.72 139.63 245.19 139.63 237.73 175.99" style="fill:#a6a6a6"></polygon><polygon points="240.14 175.99 291.67 175.99 299.13 139.63 247.59 139.63 240.14 175.99" style="fill:#c7c7c7"></polygon><path d="M274.28,156.46a3.63,3.63,0,0,1-2.57,3.66c-1.47.31-2.71-.83-2.76-2.55a3.62,3.62,0,0,1,2.57-3.67C273,153.59,274.22,154.74,274.28,156.46Z" style="fill:#fff"></path></g><g id="freepik--Coins--inject-100"><rect x="338.62" y="431.57" width="64.05" height="14.15" style="fill:#FFCB74"></rect><g style="opacity:0.1"><path d="M341.26,432.87a32.29,32.29,0,0,1,0,11.32,27.77,27.77,0,0,1-.5-5.66A28.5,28.5,0,0,1,341.26,432.87Z"></path><path d="M346,432.87a32.29,32.29,0,0,1,0,11.32,32.29,32.29,0,0,1,0-11.32Z"></path><path d="M348.36,432.87a32.29,32.29,0,0,1,0,11.32,27.77,27.77,0,0,1-.5-5.66A28.5,28.5,0,0,1,348.36,432.87Z"></path><path d="M361.15,432.87a29.27,29.27,0,0,1,.5,5.66,28.5,28.5,0,0,1-.5,5.66,27.77,27.77,0,0,1-.5-5.66A28.5,28.5,0,0,1,361.15,432.87Z"></path><path d="M364.61,432.87a29.27,29.27,0,0,1,.5,5.66,28.5,28.5,0,0,1-.5,5.66,27.77,27.77,0,0,1-.5-5.66A29.27,29.27,0,0,1,364.61,432.87Z"></path><path d="M378.92,432.87a32.29,32.29,0,0,1,0,11.32,27.77,27.77,0,0,1-.5-5.66A28.5,28.5,0,0,1,378.92,432.87Z"></path><path d="M382.22,432.87a32.29,32.29,0,0,1,0,11.32,32.29,32.29,0,0,1,0-11.32Z"></path><path d="M388.29,432.87a32.29,32.29,0,0,1,0,11.32,32.93,32.93,0,0,1,0-11.32Z"></path><path d="M376.15,432.87a32.29,32.29,0,0,1,0,11.32,32.29,32.29,0,0,1,0-11.32Z"></path><path d="M352.59,432.87a32.29,32.29,0,0,1,0,11.32,32.29,32.29,0,0,1,0-11.32Z"></path><path d="M369.16,432.87a32.29,32.29,0,0,1,0,11.32,32.29,32.29,0,0,1,0-11.32Z"></path><path d="M371.55,432.87a32.29,32.29,0,0,1,0,11.32,32.29,32.29,0,0,1,0-11.32Z"></path><path d="M396.21,432.87a32.29,32.29,0,0,1,0,11.32,27.77,27.77,0,0,1-.5-5.66A28.5,28.5,0,0,1,396.21,432.87Z"></path><path d="M399.79,432.87a32.93,32.93,0,0,1,0,11.32,32.29,32.29,0,0,1,0-11.32Z"></path><path d="M391.11,432.87a32.29,32.29,0,0,1,0,11.32,32.29,32.29,0,0,1,0-11.32Z"></path><path d="M358.38,432.87a32.29,32.29,0,0,1,0,11.32,32.93,32.93,0,0,1,0-11.32Z"></path></g><polygon points="402.66 431.57 402.66 434.58 338.62 436.6 338.62 431.57 402.66 431.57" style="opacity:0.1"></polygon><rect x="333.27" y="417.42" width="64.05" height="14.15" style="fill:#FFCB74"></rect><g style="opacity:0.1"><path d="M394.44,430a29.27,29.27,0,0,1-.5-5.66,28.44,28.44,0,0,1,.5-5.66,27.71,27.71,0,0,1,.5,5.66A29.27,29.27,0,0,1,394.44,430Z"></path><path d="M389.67,430a29.27,29.27,0,0,1-.5-5.66,28.44,28.44,0,0,1,.5-5.66,27.71,27.71,0,0,1,.5,5.66A28.5,28.5,0,0,1,389.67,430Z"></path><path d="M387.34,430a29.27,29.27,0,0,1-.5-5.66,28.44,28.44,0,0,1,.5-5.66,27.71,27.71,0,0,1,.5,5.66A29.27,29.27,0,0,1,387.34,430Z"></path><path d="M374.55,430a29.27,29.27,0,0,1-.5-5.66,27.71,27.71,0,0,1,.5-5.66,28.44,28.44,0,0,1,.5,5.66A29.27,29.27,0,0,1,374.55,430Z"></path><path d="M371.09,430a28.5,28.5,0,0,1-.5-5.66,27.71,27.71,0,0,1,.5-5.66,28.44,28.44,0,0,1,.5,5.66A29.27,29.27,0,0,1,371.09,430Z"></path><path d="M356.78,430a29.27,29.27,0,0,1-.5-5.66,27.71,27.71,0,0,1,.5-5.66,27.71,27.71,0,0,1,.5,5.66A29.27,29.27,0,0,1,356.78,430Z"></path><path d="M353.47,430a32.29,32.29,0,0,1,0-11.32,32.29,32.29,0,0,1,0,11.32Z"></path><path d="M347.4,430a32.29,32.29,0,0,1,0-11.32,32.29,32.29,0,0,1,0,11.32Z"></path><path d="M359.54,430a32.29,32.29,0,0,1,0-11.32,32.29,32.29,0,0,1,0,11.32Z"></path><path d="M383.11,430a32.29,32.29,0,0,1,0-11.32,32.29,32.29,0,0,1,0,11.32Z"></path><path d="M366.54,430a32.29,32.29,0,0,1,0-11.32,32.29,32.29,0,0,1,0,11.32Z"></path><path d="M364.15,430a29.27,29.27,0,0,1-.5-5.66,28.44,28.44,0,0,1,.5-5.66,27.71,27.71,0,0,1,.5,5.66A28.5,28.5,0,0,1,364.15,430Z"></path><path d="M339.49,430a29.27,29.27,0,0,1-.5-5.66,28.44,28.44,0,0,1,.5-5.66,27.71,27.71,0,0,1,.5,5.66A29.27,29.27,0,0,1,339.49,430Z"></path><path d="M335.91,430a32.29,32.29,0,0,1,0-11.32,32.29,32.29,0,0,1,0,11.32Z"></path><path d="M344.59,430a32.29,32.29,0,0,1,0-11.32,32.93,32.93,0,0,1,0,11.32Z"></path><path d="M377.31,430a32.29,32.29,0,0,1,0-11.32,32.29,32.29,0,0,1,0,11.32Z"></path></g><polygon points="397.32 417.42 397.32 420.43 333.27 422.45 333.27 417.42 397.32 417.42" style="opacity:0.1"></polygon><rect x="338.21" y="403.38" width="64.05" height="14.15" style="fill:#FFCB74"></rect><g style="opacity:0.1"><path d="M340.85,404.68a32.29,32.29,0,0,1,0,11.32,27.71,27.71,0,0,1-.5-5.66A28.57,28.57,0,0,1,340.85,404.68Z"></path><path d="M345.62,404.68a32.29,32.29,0,0,1,0,11.32,32.29,32.29,0,0,1,0-11.32Z"></path><path d="M348,404.68A32.29,32.29,0,0,1,348,416a27.71,27.71,0,0,1-.5-5.66A28.57,28.57,0,0,1,348,404.68Z"></path><path d="M360.74,404.68a29.34,29.34,0,0,1,.5,5.66,28.44,28.44,0,0,1-.5,5.66,27.71,27.71,0,0,1-.5-5.66A28.57,28.57,0,0,1,360.74,404.68Z"></path><path d="M364.2,404.68a29.34,29.34,0,0,1,.5,5.66,28.44,28.44,0,0,1-.5,5.66,27.71,27.71,0,0,1-.5-5.66A29.34,29.34,0,0,1,364.2,404.68Z"></path><path d="M378.51,404.68a32.29,32.29,0,0,1,0,11.32,27.71,27.71,0,0,1-.5-5.66A28.57,28.57,0,0,1,378.51,404.68Z"></path><path d="M381.81,404.68a32.29,32.29,0,0,1,0,11.32,32.29,32.29,0,0,1,0-11.32Z"></path><path d="M387.88,404.68a32.29,32.29,0,0,1,0,11.32,32.29,32.29,0,0,1,0-11.32Z"></path><path d="M375.74,404.68a32.29,32.29,0,0,1,0,11.32,32.29,32.29,0,0,1,0-11.32Z"></path><path d="M352.18,404.68a32.29,32.29,0,0,1,0,11.32,32.29,32.29,0,0,1,0-11.32Z"></path><path d="M368.75,404.68a32.29,32.29,0,0,1,0,11.32,32.29,32.29,0,0,1,0-11.32Z"></path><path d="M371.14,404.68a32.29,32.29,0,0,1,0,11.32,32.29,32.29,0,0,1,0-11.32Z"></path><path d="M395.8,404.68a32.29,32.29,0,0,1,0,11.32,32.29,32.29,0,0,1,0-11.32Z"></path><path d="M399.37,404.68a32.29,32.29,0,0,1,0,11.32,32.93,32.93,0,0,1,0-11.32Z"></path><path d="M390.7,404.68a32.29,32.29,0,0,1,0,11.32,32.29,32.29,0,0,1,0-11.32Z"></path><path d="M358,404.68A32.29,32.29,0,0,1,358,416a32.29,32.29,0,0,1,0-11.32Z"></path></g><polygon points="402.25 403.39 402.25 406.39 338.21 408.41 338.21 403.39 402.25 403.39" style="opacity:0.1"></polygon><rect x="142.97" y="431.57" width="64.05" height="14.15" style="fill:#FFCB74"></rect><g style="opacity:0.1"><path d="M145.61,432.87a28.5,28.5,0,0,1,.5,5.66,27.77,27.77,0,0,1-.5,5.66,28.5,28.5,0,0,1-.5-5.66A29.27,29.27,0,0,1,145.61,432.87Z"></path><path d="M150.38,432.87a28.5,28.5,0,0,1,.5,5.66,27.77,27.77,0,0,1-.5,5.66,28.5,28.5,0,0,1-.5-5.66A29.27,29.27,0,0,1,150.38,432.87Z"></path><path d="M152.71,432.87a28.5,28.5,0,0,1,.5,5.66,27.77,27.77,0,0,1-.5,5.66,32.29,32.29,0,0,1,0-11.32Z"></path><path d="M165.5,432.87a32.29,32.29,0,0,1,0,11.32,32.29,32.29,0,0,1,0-11.32Z"></path><path d="M169,432.87a32.29,32.29,0,0,1,0,11.32,32.29,32.29,0,0,1,0-11.32Z"></path><path d="M183.27,432.87a28.5,28.5,0,0,1,.5,5.66,27.77,27.77,0,0,1-.5,5.66,32.29,32.29,0,0,1,0-11.32Z"></path><path d="M186.58,432.87a32.29,32.29,0,0,1,0,11.32,27.77,27.77,0,0,1-.5-5.66A28.5,28.5,0,0,1,186.58,432.87Z"></path><path d="M192.65,432.87a32.29,32.29,0,0,1,0,11.32,27.77,27.77,0,0,1-.5-5.66A28.5,28.5,0,0,1,192.65,432.87Z"></path><path d="M180.51,432.87a32.29,32.29,0,0,1,0,11.32,32.29,32.29,0,0,1,0-11.32Z"></path><path d="M156.94,432.87a29.27,29.27,0,0,1,.5,5.66,28.5,28.5,0,0,1-.5,5.66,27.77,27.77,0,0,1-.5-5.66A28.5,28.5,0,0,1,156.94,432.87Z"></path><path d="M173.52,432.87a32.29,32.29,0,0,1,0,11.32,32.29,32.29,0,0,1,0-11.32Z"></path><path d="M175.9,432.87a29.27,29.27,0,0,1,.5,5.66,27.77,27.77,0,0,1-.5,5.66,28.5,28.5,0,0,1-.5-5.66A29.27,29.27,0,0,1,175.9,432.87Z"></path><path d="M200.56,432.87a28.5,28.5,0,0,1,.5,5.66,27.77,27.77,0,0,1-.5,5.66,28.5,28.5,0,0,1-.5-5.66A29.27,29.27,0,0,1,200.56,432.87Z"></path><path d="M204.14,432.87a32.29,32.29,0,0,1,0,11.32,27.77,27.77,0,0,1-.5-5.66A28.5,28.5,0,0,1,204.14,432.87Z"></path><path d="M195.47,432.87a32.29,32.29,0,0,1,0,11.32,32.29,32.29,0,0,1,0-11.32Z"></path><path d="M162.74,432.87a32.29,32.29,0,0,1,0,11.32,27.77,27.77,0,0,1-.5-5.66A28.5,28.5,0,0,1,162.74,432.87Z"></path></g><polygon points="207.01 431.57 207.01 434.58 142.97 436.6 142.97 431.57 207.01 431.57" style="opacity:0.1"></polygon><rect x="138.59" y="417.42" width="64.05" height="14.15" style="fill:#FFCB74"></rect><g style="opacity:0.1"><path d="M141.23,418.72a28.44,28.44,0,0,1,.5,5.66,27.77,27.77,0,0,1-.5,5.66,28.5,28.5,0,0,1-.5-5.66A29.2,29.2,0,0,1,141.23,418.72Z"></path><path d="M146,418.72a28.44,28.44,0,0,1,.5,5.66A27.77,27.77,0,0,1,146,430a28.5,28.5,0,0,1-.5-5.66A29.2,29.2,0,0,1,146,418.72Z"></path><path d="M148.33,418.72a28.44,28.44,0,0,1,.5,5.66,27.77,27.77,0,0,1-.5,5.66,28.5,28.5,0,0,1-.5-5.66A29.2,29.2,0,0,1,148.33,418.72Z"></path><path d="M161.12,418.72a32.29,32.29,0,0,1,0,11.32,32.29,32.29,0,0,1,0-11.32Z"></path><path d="M164.58,418.72a32.29,32.29,0,0,1,0,11.32,32.29,32.29,0,0,1,0-11.32Z"></path><path d="M178.89,418.72a28.44,28.44,0,0,1,.5,5.66,27.77,27.77,0,0,1-.5,5.66,28.5,28.5,0,0,1-.5-5.66A29.2,29.2,0,0,1,178.89,418.72Z"></path><path d="M182.2,418.72a32.29,32.29,0,0,1,0,11.32,32.29,32.29,0,0,1,0-11.32Z"></path><path d="M188.27,418.72a32.29,32.29,0,0,1,0,11.32,27.77,27.77,0,0,1-.5-5.66A28.44,28.44,0,0,1,188.27,418.72Z"></path><path d="M176.13,418.72a32.29,32.29,0,0,1,0,11.32,32.29,32.29,0,0,1,0-11.32Z"></path><path d="M152.56,418.72a29.2,29.2,0,0,1,.5,5.66,28.5,28.5,0,0,1-.5,5.66,27.77,27.77,0,0,1-.5-5.66A28.44,28.44,0,0,1,152.56,418.72Z"></path><path d="M169.14,418.72a32.29,32.29,0,0,1,0,11.32,32.29,32.29,0,0,1,0-11.32Z"></path><path d="M171.52,418.72a29.2,29.2,0,0,1,.5,5.66,27.77,27.77,0,0,1-.5,5.66,28.5,28.5,0,0,1-.5-5.66A29.2,29.2,0,0,1,171.52,418.72Z"></path><path d="M196.18,418.72a28.44,28.44,0,0,1,.5,5.66,27.77,27.77,0,0,1-.5,5.66,28.5,28.5,0,0,1-.5-5.66A29.2,29.2,0,0,1,196.18,418.72Z"></path><path d="M199.76,418.72a32.29,32.29,0,0,1,0,11.32,27.77,27.77,0,0,1-.5-5.66A28.44,28.44,0,0,1,199.76,418.72Z"></path><path d="M191.09,418.72a32.29,32.29,0,0,1,0,11.32,32.29,32.29,0,0,1,0-11.32Z"></path><path d="M158.36,418.72a32.29,32.29,0,0,1,0,11.32,27.77,27.77,0,0,1-.5-5.66A28.44,28.44,0,0,1,158.36,418.72Z"></path></g><polygon points="202.63 417.42 202.63 420.43 138.59 422.45 138.59 417.42 202.63 417.42" style="opacity:0.1"></polygon><rect x="148.49" y="389.23" width="64.05" height="14.15" style="fill:#FFCB74"></rect><g style="opacity:0.1"><path d="M151.13,390.53a32.29,32.29,0,0,1,0,11.32,32.29,32.29,0,0,1,0-11.32Z"></path><path d="M155.89,390.53a32.29,32.29,0,0,1,0,11.32,32.93,32.93,0,0,1,0-11.32Z"></path><path d="M158.23,390.53a32.29,32.29,0,0,1,0,11.32,32.29,32.29,0,0,1,0-11.32Z"></path><path d="M171,390.53a32.29,32.29,0,0,1,0,11.32,32.29,32.29,0,0,1,0-11.32Z"></path><path d="M174.48,390.53a32.29,32.29,0,0,1,0,11.32,32.29,32.29,0,0,1,0-11.32Z"></path><path d="M188.79,390.53a32.29,32.29,0,0,1,0,11.32,32.29,32.29,0,0,1,0-11.32Z"></path><path d="M192.09,390.53a28.5,28.5,0,0,1,.5,5.66,27.71,27.71,0,0,1-.5,5.66,32.29,32.29,0,0,1,0-11.32Z"></path><path d="M198.16,390.53a32.29,32.29,0,0,1,0,11.32,32.29,32.29,0,0,1,0-11.32Z"></path><path d="M186,390.53a28.5,28.5,0,0,1,.5,5.66,27.71,27.71,0,0,1-.5,5.66,32.29,32.29,0,0,1,0-11.32Z"></path><path d="M162.45,390.53a32.29,32.29,0,0,1,0,11.32,32.29,32.29,0,0,1,0-11.32Z"></path><path d="M179,390.53a29.27,29.27,0,0,1,.5,5.66,28.44,28.44,0,0,1-.5,5.66,27.71,27.71,0,0,1-.5-5.66A29.27,29.27,0,0,1,179,390.53Z"></path><path d="M181.41,390.53a32.29,32.29,0,0,1,0,11.32,32.29,32.29,0,0,1,0-11.32Z"></path><path d="M206.08,390.53a32.93,32.93,0,0,1,0,11.32,32.29,32.29,0,0,1,0-11.32Z"></path><path d="M209.65,390.53a32.29,32.29,0,0,1,0,11.32,32.29,32.29,0,0,1,0-11.32Z"></path><path d="M201,390.53a29.27,29.27,0,0,1,.5,5.66,27.71,27.71,0,0,1-.5,5.66,28.44,28.44,0,0,1-.5-5.66A29.27,29.27,0,0,1,201,390.53Z"></path><path d="M168.25,390.53a32.29,32.29,0,0,1,0,11.32,32.29,32.29,0,0,1,0-11.32Z"></path></g><polygon points="212.53 389.23 212.53 392.24 148.49 394.26 148.49 389.23 212.53 389.23" style="opacity:0.1"></polygon><rect x="146.87" y="375.08" width="64.05" height="14.15" style="fill:#FFCB74"></rect><g style="opacity:0.1"><path d="M208,387.7a32.29,32.29,0,0,1,0-11.32,32.29,32.29,0,0,1,0,11.32Z"></path><path d="M203.27,387.7a32.29,32.29,0,0,1,0-11.32,32.29,32.29,0,0,1,0,11.32Z"></path><path d="M200.94,387.7a32.29,32.29,0,0,1,0-11.32,32.29,32.29,0,0,1,0,11.32Z"></path><path d="M188.14,387.7a32.29,32.29,0,0,1,0-11.32,32.29,32.29,0,0,1,0,11.32Z"></path><path d="M184.68,387.7a32.29,32.29,0,0,1,0-11.32,32.29,32.29,0,0,1,0,11.32Z"></path><path d="M170.38,387.7a32.29,32.29,0,0,1,0-11.32,32.29,32.29,0,0,1,0,11.32Z"></path><path d="M167.07,387.7a28.5,28.5,0,0,1-.5-5.66,27.71,27.71,0,0,1,.5-5.66,28.44,28.44,0,0,1,.5,5.66A29.27,29.27,0,0,1,167.07,387.7Z"></path><path d="M161,387.7a28.5,28.5,0,0,1-.5-5.66,27.71,27.71,0,0,1,.5-5.66,28.44,28.44,0,0,1,.5,5.66A29.27,29.27,0,0,1,161,387.7Z"></path><path d="M173.14,387.7a29.27,29.27,0,0,1-.5-5.66,27.71,27.71,0,0,1,.5-5.66,28.44,28.44,0,0,1,.5,5.66A29.27,29.27,0,0,1,173.14,387.7Z"></path><path d="M196.71,387.7a28.5,28.5,0,0,1-.5-5.66,27.71,27.71,0,0,1,.5-5.66,32.29,32.29,0,0,1,0,11.32Z"></path><path d="M180.13,387.7a29.27,29.27,0,0,1-.5-5.66,28.44,28.44,0,0,1,.5-5.66,27.71,27.71,0,0,1,.5,5.66A28.5,28.5,0,0,1,180.13,387.7Z"></path><path d="M177.75,387.7a32.29,32.29,0,0,1,0-11.32,32.29,32.29,0,0,1,0,11.32Z"></path><path d="M153.09,387.7a32.29,32.29,0,0,1,0-11.32,32.29,32.29,0,0,1,0,11.32Z"></path><path d="M149.51,387.7A28.5,28.5,0,0,1,149,382a27.71,27.71,0,0,1,.5-5.66A28.44,28.44,0,0,1,150,382,29.27,29.27,0,0,1,149.51,387.7Z"></path><path d="M158.18,387.7a29.27,29.27,0,0,1-.5-5.66,28.44,28.44,0,0,1,.5-5.66,27.71,27.71,0,0,1,.5,5.66A29.27,29.27,0,0,1,158.18,387.7Z"></path><path d="M190.91,387.7a28.5,28.5,0,0,1-.5-5.66,27.71,27.71,0,0,1,.5-5.66,28.44,28.44,0,0,1,.5,5.66A29.27,29.27,0,0,1,190.91,387.7Z"></path></g><polygon points="210.91 375.08 210.91 378.09 146.87 380.11 146.87 375.08 210.91 375.08" style="opacity:0.1"></polygon><rect x="142.97" y="360.93" width="64.05" height="14.15" style="fill:#FFCB74"></rect><g style="opacity:0.1"><path d="M145.61,362.23a32.29,32.29,0,0,1,0,11.32,32.29,32.29,0,0,1,0-11.32Z"></path><path d="M150.38,362.23a28.44,28.44,0,0,1,.5,5.66,27.84,27.84,0,0,1-.5,5.66,32.29,32.29,0,0,1,0-11.32Z"></path><path d="M152.71,362.23a32.29,32.29,0,0,1,0,11.32,32.29,32.29,0,0,1,0-11.32Z"></path><path d="M165.5,362.23a32.29,32.29,0,0,1,0,11.32,32.29,32.29,0,0,1,0-11.32Z"></path><path d="M169,362.23a32.29,32.29,0,0,1,0,11.32,32.29,32.29,0,0,1,0-11.32Z"></path><path d="M183.27,362.23a32.29,32.29,0,0,1,0,11.32,32.29,32.29,0,0,1,0-11.32Z"></path><path d="M186.58,362.23a29.2,29.2,0,0,1,.5,5.66,28.57,28.57,0,0,1-.5,5.66,27.84,27.84,0,0,1-.5-5.66A28.44,28.44,0,0,1,186.58,362.23Z"></path><path d="M192.65,362.23a29.2,29.2,0,0,1,.5,5.66,28.57,28.57,0,0,1-.5,5.66,27.84,27.84,0,0,1-.5-5.66A29.2,29.2,0,0,1,192.65,362.23Z"></path><path d="M180.51,362.23a29.2,29.2,0,0,1,.5,5.66,28.57,28.57,0,0,1-.5,5.66,27.84,27.84,0,0,1-.5-5.66A28.44,28.44,0,0,1,180.51,362.23Z"></path><path d="M156.94,362.23a29.2,29.2,0,0,1,.5,5.66,27.84,27.84,0,0,1-.5,5.66,28.57,28.57,0,0,1-.5-5.66A29.2,29.2,0,0,1,156.94,362.23Z"></path><path d="M173.52,362.23a32.29,32.29,0,0,1,0,11.32,32.29,32.29,0,0,1,0-11.32Z"></path><path d="M175.9,362.23a28.44,28.44,0,0,1,.5,5.66,27.84,27.84,0,0,1-.5,5.66,32.29,32.29,0,0,1,0-11.32Z"></path><path d="M200.56,362.23a32.29,32.29,0,0,1,0,11.32,32.29,32.29,0,0,1,0-11.32Z"></path><path d="M204.14,362.23a29.2,29.2,0,0,1,.5,5.66,28.57,28.57,0,0,1-.5,5.66,27.84,27.84,0,0,1-.5-5.66A29.2,29.2,0,0,1,204.14,362.23Z"></path><path d="M195.47,362.23a32.29,32.29,0,0,1,0,11.32,27.84,27.84,0,0,1-.5-5.66A28.44,28.44,0,0,1,195.47,362.23Z"></path><path d="M162.74,362.23a29.2,29.2,0,0,1,.5,5.66,28.57,28.57,0,0,1-.5,5.66,27.84,27.84,0,0,1-.5-5.66A29.2,29.2,0,0,1,162.74,362.23Z"></path></g><polygon points="207.01 360.93 207.01 363.94 142.97 365.96 142.97 360.93 207.01 360.93" style="opacity:0.1"></polygon><rect x="142.97" y="403.38" width="64.05" height="14.15" style="fill:#FFCB74"></rect><g style="opacity:0.1"><path d="M204.14,416a28.44,28.44,0,0,1-.5-5.66,27.84,27.84,0,0,1,.5-5.66,28.57,28.57,0,0,1,.5,5.66A29.2,29.2,0,0,1,204.14,416Z"></path><path d="M199.37,416a29.2,29.2,0,0,1-.5-5.66,27.84,27.84,0,0,1,.5-5.66,28.57,28.57,0,0,1,.5,5.66A29.2,29.2,0,0,1,199.37,416Z"></path><path d="M197,416a28.44,28.44,0,0,1-.5-5.66,27.84,27.84,0,0,1,.5-5.66,28.57,28.57,0,0,1,.5,5.66A29.2,29.2,0,0,1,197,416Z"></path><path d="M184.25,416a28.44,28.44,0,0,1-.5-5.66,27.84,27.84,0,0,1,.5-5.66,32.29,32.29,0,0,1,0,11.32Z"></path><path d="M180.79,416a32.29,32.29,0,0,1,0-11.32,32.29,32.29,0,0,1,0,11.32Z"></path><path d="M166.48,416a28.44,28.44,0,0,1-.5-5.66,27.84,27.84,0,0,1,.5-5.66,28.57,28.57,0,0,1,.5,5.66A29.2,29.2,0,0,1,166.48,416Z"></path><path d="M163.17,416a32.29,32.29,0,0,1,0-11.32,32.29,32.29,0,0,1,0,11.32Z"></path><path d="M157.1,416a32.29,32.29,0,0,1,0-11.32,27.84,27.84,0,0,1,.5,5.66A28.44,28.44,0,0,1,157.1,416Z"></path><path d="M169.24,416a32.29,32.29,0,0,1,0-11.32,32.29,32.29,0,0,1,0,11.32Z"></path><path d="M192.81,416a32.29,32.29,0,0,1,0-11.32,27.84,27.84,0,0,1,.5,5.66A28.44,28.44,0,0,1,192.81,416Z"></path><path d="M176.23,416a32.29,32.29,0,0,1,0-11.32,32.29,32.29,0,0,1,0,11.32Z"></path><path d="M173.85,416a29.2,29.2,0,0,1-.5-5.66,27.84,27.84,0,0,1,.5-5.66,28.57,28.57,0,0,1,.5,5.66A29.2,29.2,0,0,1,173.85,416Z"></path><path d="M149.19,416a28.44,28.44,0,0,1-.5-5.66,27.84,27.84,0,0,1,.5-5.66,28.57,28.57,0,0,1,.5,5.66A29.2,29.2,0,0,1,149.19,416Z"></path><path d="M145.61,416a32.29,32.29,0,0,1,0-11.32,27.84,27.84,0,0,1,.5,5.66A28.44,28.44,0,0,1,145.61,416Z"></path><path d="M154.28,416a32.29,32.29,0,0,1,0-11.32,32.29,32.29,0,0,1,0,11.32Z"></path><path d="M187,416a32.29,32.29,0,0,1,0-11.32,27.84,27.84,0,0,1,.5,5.66A28.44,28.44,0,0,1,187,416Z"></path></g><polygon points="207.01 403.39 207.01 406.39 142.97 408.41 142.97 403.39 207.01 403.39" style="opacity:0.1"></polygon><path d="M137.63,382.65c42.16,7.56,31,70-11.21,62.44S95.4,375.07,137.63,382.65Z" style="fill:#FFCB74"></path><path d="M137.63,382.65c42.16,7.56,31,70-11.21,62.44S95.4,375.07,137.63,382.65Z" style="opacity:0.1"></path><path d="M133.67,381.94c40.18,7.2,29,69.66-11.2,62.44S93.43,374.71,133.67,381.94Z" style="fill:#FFCB74"></path><path d="M102.59,414.63c.21,11.12,6.69,21.9,20.83,24.44,33.4,6,42.65-45.84,9.3-51.83l-.65-.1c31.26,6.26,22.3,55.31-9.54,49.6C109.54,434.41,103.28,424.8,102.59,414.63Z" style="opacity:0.1"></path><g style="opacity:0.1"><path d="M131.54,393.72a1.07,1.07,0,0,1,.77,1.29l-.42,1.71a14.38,14.38,0,0,1,6.87,4.9,1.24,1.24,0,0,1,.36,1.14,1.13,1.13,0,0,1-1.38.79,1.08,1.08,0,0,1-.7-.49,12.49,12.49,0,0,0-5.73-4.39l-3,12c6.18,3,8.31,6.12,7.26,10.32-1.13,4.54-5.75,6.8-11.15,5.64l-.83,3.34a1.06,1.06,0,0,1-2.06-.51l.85-3.39a16.66,16.66,0,0,1-8.61-6.56,1.12,1.12,0,0,1,1.1-1.82,1.11,1.11,0,0,1,.69.49,14.33,14.33,0,0,0,7.38,6L126,412c-6.07-3-8.14-6-7.07-10.32s5.67-6.69,10.93-5.51l.41-1.63A1.07,1.07,0,0,1,131.54,393.72Zm-5,16,2.91-11.7c-4.17-.95-7.54.85-8.3,3.93C120.42,404.92,121.34,407.06,126.54,409.77Zm1.23,3.08-3,11.83c4.31,1,7.71-.81,8.52-4.07C134.08,417.66,133,415.48,127.77,412.85Z"></path></g></g><g id="freepik--Floor--inject-100"><polygon points="47.44 445.72 98.08 445.48 148.72 445.39 250 445.22 351.28 445.39 401.92 445.48 452.56 445.72 401.92 445.97 351.28 446.06 250 446.22 148.72 446.06 98.08 445.97 47.44 445.72" style="fill:#263238"></polygon></g><g id="freepik--Chart--inject-100"><rect x="347.17" y="49.57" width="1" height="32.31" style="fill:#263238"></rect><path d="M347.67,50.07a2.77,2.77,0,1,1,2.76-2.76A2.77,2.77,0,0,1,347.67,50.07Zm0-4.53a1.77,1.77,0,1,0,1.76,1.77A1.77,1.77,0,0,0,347.67,45.54Z" style="fill:#263238"></path><rect x="354.53" y="45.04" width="25.1" height="1.13" style="fill:#263238"></rect><rect x="354.53" y="47.31" width="14.21" height="1.13" style="fill:#263238"></rect><path d="M356.88,101.24l-.11,0-.09,0-2-.69-.11,0-1.12-.39-.13,0-1.76-.61-.15-.06L350.37,99l-.15,0h0l-2-.7-.17-.07-1.22-.42-.19-.07-1.52-.53-.21-.07-1.33-.46-.22-.07-1.84-.65-.19-.06-1.41-.49-.18-.07-1.35-.46-.16-.06-1.53-.54-.16,0-1.33-.46-.13-.05L333.16,93l-.13,0-2-.69-.11,0-1.51-.52-.1,0-2-.69-.08,0-1.65-.57-.07,0-1.73-.6,1.64-.53.07,0,1.9-.61.09,0,1.62-.52.1,0,2.07-.67.12,0,1.39-.44.13,0,3-1,.15,0,.77-.24.16,0,3-1,.19-.06h0l.65-.21.2-.06,3.06-1h0l.23-.07.69-.22.22-.07,3.22-1,.24-.08.37-.11.22-.08L353,80.37l.2-.06h0l.33-.1.19-.06L357.2,79l.09.3h0c0,.08,0,.16.07.24h0l0,.07h0c0,.1.06.2.09.3a36.84,36.84,0,0,1,1.3,7.68h0c0,.1,0,.2,0,.31h0a32.51,32.51,0,0,1,0,3.56c0,.24,0,.46,0,.69h0A37.5,37.5,0,0,1,356.88,101.24Z" style="fill:#c7c7c7"></path><path d="M325.56,89.18l.09,1.18-.07,0-.09-1.13Zm1.9-.61-.16,2.36.08,0,.17-2.42Zm1.81-.58-.1,0,.17,3.63.1,0Zm2.07-.67L331,92.2l.11,0,.4-5ZM333,86.8l-.13,0,.18,6.09.13,0Zm2.55,3L335,93.63l.13.05.5-3.89.51-4-.15,0Zm1.58-4.3-.16,0-.45,8.62.16,0Zm1.08,9.26.16.06,1.93-10.34-.19.06Zm2.74-10.5-1.23,11,.18.07,1.25-11.15Zm3.26-1-2.9,12.62.19.06,2.95-12.76-.23.07Zm.93-.3-1.8,13.63.22.07,1.8-13.77Zm3.44-1.11-3.69,15.27.21.07L348.8,81.7Zm.61-.19L346.6,97.65l.19.07,2.6-16.21ZM353,80.37,348,98.14l.17.07,5-17.9Zm.53-.17-3.26,18.71h0l.15,0,3.3-18.83Zm3.88-.65c0-.08-.05-.16-.07-.24l-5.84,20,.15.06,5.76-19.84Zm0,.09-4,20.37.13,0,4-20.12C357.44,79.84,357.42,79.74,357.38,79.64Zm1.41,8.3c0-.11,0-.21,0-.31l-4.16,12.82.11,0L358.79,88Zm0,3.57-2.1,9.66.09,0,2-9h0C358.75,92,358.77,91.75,358.78,91.51Z" style="fill:#dbdbdb"></path><polygon points="356.88 101.23 354.08 100.93 321.05 89.43 323.85 89.73 356.88 101.23" style="fill:#a6a6a6"></polygon><polygon points="323.85 89.73 321.05 89.43 354.4 78.7 357.2 79 323.85 89.73" style="fill:#a6a6a6"></polygon><path d="M305.38,53.77l-.23,36,33.77-10.9C334.18,63.7,321,53.88,305.38,53.77Z" style="fill:#37474f"></path><path d="M306.42,53.79l-1.05,1.77v-.21l.93-1.56Zm1.07.05-2.14,4.76v.27l2.26-5Zm3.89.46-6.06,10v.25l6.22-10.17Zm.84.16-6.94,14.81v.36l7.09-15.14Zm3.31,4.23,1.88-2.79-.16-.06-1.86,2.75-5.55,8.2-4.59,6.79v.3l4.74-7Zm2.13-2.7L305.23,77.74v.39l12.61-22.08Zm4.23,1.91L305.21,79.78v.33L322.08,58Zm.39.21-17.1,26.14v.42l17.29-26.46Zm3.64,2.32L305.18,85.34v.37l20.95-25.13Zm.43.32L307,89.16l.42-.14,19.16-28.11Zm3.18,2.71L307.94,88.85l.48-.16,21.29-25Zm.35.34-17,23.44.37-.11L330.06,64C330,63.93,329.94,63.86,329.88,63.8Zm2.79,3.13-18,19.74.43-.14L332.8,67.1Zm.44.56-13,17.42.32-.1,12.78-17.15Zm2.22,3.31L323,84l.36-.12,12-12.91A.75.75,0,0,0,335.33,70.8Zm.33.56-8.9,11.42.27-.09,8.72-11.17Zm1.87,3.73-6.15,6.2.3-.1,5.91-6Zm.32.77-3.68,4.53.23-.08L337.9,76A.78.78,0,0,0,337.85,75.86Z" style="fill:#263238"></path><path d="M305.15,89.75l-33.77,10.9a35.49,35.49,0,0,0,33.53,25.09,35.42,35.42,0,0,0,33.86-24.65Z" style="fill:#FFCB74"></path><path d="M271.38,100.65l-2.82,0a35.49,35.49,0,0,0,33.53,25.09l2.82,0A35.49,35.49,0,0,1,271.38,100.65Z" style="fill:#FFCB74"></path><g style="opacity:0.1"><path d="M271.38,100.65l-2.82,0a35.49,35.49,0,0,0,33.53,25.09l2.82,0A35.49,35.49,0,0,1,271.38,100.65Z"></path></g><path d="M272.92,100.15l-.39,3.66s0,0,0,0l.39-3.61Zm3.82-1.23-2.83,7.84s0,0,0,0l2.84-7.88Zm1.35-.43-1.72,12.28,0,0,1.72-12.35Zm2.42-.79-3.58,13.83,0,0,3.6-13.9Zm.95-.3-1.89,17.26a.34.34,0,0,0,.06.06l1.89-17.34Zm2.85-.93-4.18,18.77a.34.34,0,0,0,.06.06l4.21-18.85Zm.7-.22-1.7,21.84.09.07,1.7-21.94Zm-1.19,22.24.09.07,3.94-23.23-.11,0Zm4.84-23.42-.31,26.36.13.07.3-26.47Zm.08,26.57.13.07L291.94,94l-.15,0Zm3.87-27.84-.15,0,.24,29.59.16.07Zm.4,29.76.16.06,2.46-30.8-.18.06Zm3.15-30.91-.18.06,1,32.05.2,0Zm1.15,32.2.2,0,2.27-33.41-.22.07Zm4.49.67-1.51-34.2-.22.07,1.5,34.17.23,0h0l.23,0,1.19-35.23-.25.08Zm4.53,0-2.56-35.31-.25.08,2.59,35.45a.81.81,0,0,0,.22,0h.24l.83-35.2-.23-.07Zm1.52-34.84-.23-.07,3.21,34.68.2,0Zm2.53.86.65,33.71.21,0-.66-33.62Zm.62.2-.2-.06,5,32.41.11,0,.05,0Zm4.64,26.05-.72-9.45-1.21-15.68-.16,0,1.2,15.74.72,9.46.37,4.72L316,124l.17-.06L316,122.5Zm-1.37-24.94-.17-.06L321,122a.52.52,0,0,0,.13-.06ZM318,94.1l3.41,27.64.13-.06-3.41-27.54Zm.69.23-.13,0L325,119.64l.09-.07Zm8.39,2.83,2.32,19a.2.2,0,0,1,.07-.06l-2.32-18.89Zm.81.28-.07,0,4.89,15.08.05,0Zm-5.51-1.87,3.23,23.64.1-.06-3.24-23.54Zm3.16,8.77-2.18-7.68-.24-.83-.09,0,.25.89,2.18,7.69L329,116.55l.06,0Zm4.62-6.14L333.13,112l0-.05-2.92-13.75Zm.71.24-.05,0L335,109.27l0,0Zm2.19.73,2.34,9.37s0,0,0,0l-2.34-9.32Zm1.2.41h0l3,5.43v0Zm2.2.74,1.27,3.49v0l-1.27-3.46Zm2,.69h0a2.48,2.48,0,0,1,.19.26h0Z" style="opacity:0.1"></path><path d="M305.38,53.77c-19.57-.12-35.54,15.88-35.66,35.75a34.42,34.42,0,0,0,1.66,11.13l33.77-10.9Z" style="fill:#455a64"></path><path d="M305.19,82.28v.27L274,72.6l.12-.23ZM273.8,73l31.37,13.45v-.25L273.91,72.77A1.51,1.51,0,0,0,273.8,73Zm2.89-4.67c-.05.07-.11.14-.15.21l28.68,10.06v-.24Zm-.43.6L305.2,81.68v-.29L276.41,68.71C276.36,68.77,276.31,68.85,276.26,68.92Zm7.32-7.71-.15.12,21.84,8.55v-.16Zm-.77.62L305.25,73v-.2L283,61.7ZM280,64.46c-.06.05-.11.11-.16.16l25.45,9.31v-.21Zm-.69.72,26,12.53v-.25L279.42,65Zm15-9.66-.13,0,11.23,5.55V61Zm-1.58.55,12.66,7.76V63.7L292.78,56Zm-4.58,2.15-.15.08,17.38,7.21v-.14Zm-1.12.66,18.33,9.82v-.16l-18.19-9.75Zm13.29-4.77-.11,0,5.23,2.78v-.06Zm-2.36.43,7.46,5.11v-.1l-7.36-5A.38.38,0,0,0,297.88,54.54Zm5.83-.73h-.09l1.75,1.29V55ZM269.85,93.06,284,96.59l.17-.06L269.84,93A.37.37,0,0,0,269.85,93.06Zm-.06-.75s0,.07,0,.11L288.93,95l.27-.08Zm.78,5.37,5.5,1.46.13,0-5.65-1.49S270.56,97.65,270.57,97.68Zm-.09-.42a.19.19,0,0,0,0,.08l8.4.88.2-.06Zm-.73-9.05,22.07,5.84L292,94l-22.29-5.91Zm0-.6s0,.09,0,.15L298.14,92l.34-.11ZM276,83.85l-4.72-1.48-.8-.25a.85.85,0,0,0,0,.17l.78.24L276,84l9.44,3,14.31,4.51.26-.09-14.52-4.58Zm-5.47-2s0,.11,0,.17L304.44,90l.35-.12Zm1.3-4.49,32.95,12.47.3-.09L271.94,77.18A1.59,1.59,0,0,0,271.87,77.38Zm.19-.5a1.19,1.19,0,0,0-.08.2L305.16,87v-.24Z" style="fill:#37474f"></path><path d="M305.38,53.77h-2.82C283,53.63,267,69.63,266.9,89.5a34.38,34.38,0,0,0,1.66,11.13l2.82,0a34.42,34.42,0,0,1-1.66-11.13C269.84,69.65,285.81,53.65,305.38,53.77Z" style="fill:#37474f"></path></g><g id="freepik--magnifying-glass--inject-100"><rect x="382.21" y="123.36" width="10.16" height="39.97" transform="translate(771.02 -9.25) rotate(138)" style="fill:#c7c7c7"></rect><polygon points="417.8 188.72 429.22 178.44 429.22 178.44 401.51 147.67 401.51 147.67 390.1 157.95 390.1 157.95 417.8 188.72" style="fill:#263238"></polygon><path d="M377.79,74.2a39.67,39.67,0,1,1-25.24-16.78A39.66,39.66,0,0,1,377.79,74.2Z" style="fill:#fff"></path><path d="M335.93,141.68a46.3,46.3,0,1,1,54.38-36.46A46.35,46.35,0,0,1,335.93,141.68Zm1-5.2a41,41,0,1,0-32.28-48.15A41,41,0,0,0,337,136.48Z" style="fill:#37474f"></path><path d="M386,86.15a42.34,42.34,0,0,0-64.73-25.06,42.31,42.31,0,0,0-11.59,58.76A42.36,42.36,0,0,0,386,86.15Zm-2.29,17.78a39.64,39.64,0,1,1-6-29.72A39.66,39.66,0,0,1,383.75,103.93ZM386,86.15a42.34,42.34,0,0,0-64.73-25.06,42.31,42.31,0,0,0-11.59,58.76A42.36,42.36,0,0,0,386,86.15Zm-2.29,17.78a39.64,39.64,0,1,1-6-29.72A39.66,39.66,0,0,1,383.75,103.93Zm7.45-19.05a47.7,47.7,0,1,0,.46,20.6A47.7,47.7,0,0,0,391.2,84.88ZM389,105a44.93,44.93,0,1,1-.45-19.4A44.63,44.63,0,0,1,389,105Zm-8.89-32.27a42.35,42.35,0,1,0-70.35,47.17,42.35,42.35,0,1,0,70.35-47.17Zm3.68,31.25a39.64,39.64,0,1,1-6-29.72A39.66,39.66,0,0,1,383.75,103.93Z" style="fill:#37474f"></path><path d="M359.88,59.61V82.16h-1V59.23C359.25,59.35,359.56,59.48,359.88,59.61Z" style="fill:#263238"></path><g style="opacity:0.30000000000000004"><path d="M337.22,135.12a39.64,39.64,0,1,1,29.72-6A39.66,39.66,0,0,1,337.22,135.12Z" style="fill:#fff"></path></g><path d="M316.76,113a30.44,30.44,0,0,1-4.32-11.83,33.07,33.07,0,0,1-.34-6.45,33.94,33.94,0,0,1,1-6.47,31.69,31.69,0,0,1,5.86-11.68,35.12,35.12,0,0,1,9.75-8.42,63.29,63.29,0,0,0-8,9.63,38.48,38.48,0,0,0-2.93,5.38,31.49,31.49,0,0,0-2,5.71,39.13,39.13,0,0,0-1.15,12A51.39,51.39,0,0,0,316.76,113Z" style="fill:#fff"></path><path d="M369.54,103.45l-.12,0-.1,0-2.15-.75-.13,0-1.22-.43-.15-.05-1.94-.68-.16-.06-1.19-.41-.17-.06h0l-2.24-.78-.19-.07-1.34-.46-.21-.07-1.67-.59-.23-.07-1.47-.52-.24-.08-2-.7-.21-.08-1.55-.54-.2-.07-1.48-.51-.18-.06-1.69-.59-.17-.06-1.46-.51-.15,0-2.06-.72-.15,0-2.17-.76-.12,0-1.66-.58-.11,0-2.15-.75-.09,0-1.82-.63-.08,0-1.9-.66,1.81-.58.08,0,2.09-.67.09,0,1.79-.58.1,0,2.29-.73.12,0,1.53-.49.14,0,3.37-1.08.16-.06.84-.27.18-.05L351.07,85l.2-.06h0l.73-.23.21-.07,3.38-1.08h0l.25-.07.76-.25.25-.08L360.39,82l.26-.08.41-.13.25-.08,3.9-1.26.23-.07h0l.36-.11.21-.06L369.89,79c0,.11.07.22.1.33h0a2.76,2.76,0,0,1,.08.27h0l0,.08h0l.09.32a40.36,40.36,0,0,1,1.43,8.46h0c0,.11,0,.22,0,.34h0a34.34,34.34,0,0,1,0,3.93c0,.25,0,.5-.05.76h0A41.7,41.7,0,0,1,369.54,103.45Z" style="fill:#c7c7c7"></path><path d="M369.32,103.37l.11,0,2.15-9.89h0c0-.26,0-.5.05-.76Zm2.3-14.89L367,102.57l.13.05,4.47-13.8h0C371.63,88.7,371.63,88.59,371.62,88.48Zm-1.52-8.8-4.43,22.42.15.05L370.2,80C370.17,79.9,370.13,79.8,370.1,79.68Zm-.11-.36-6.41,22,.08,0,.07,0,6.34-21.83A2.29,2.29,0,0,0,370,79.32Zm-4.19,1-3.59,20.59h0l.06,0,.09,0L366,80.23Zm-.59.19L359.78,100l.19.07,5.47-19.69Zm-4,1.28-.18.06L358.23,99.5l.21.08,2.87-17.84Zm-.85.27-4.06,16.81.23.08,4.09-17Zm-3.79,1.22-2,15,.23.08,2-15.14Zm-.88.28h0l-.12,0-3.2,13.88.21.08h0l3.24-14ZM352,84.74l-1.36,12.12h0l.22.06,1.36-12.25Zm-.92.3L349,96.28h0l.17.06L351.27,85Zm-3.33,1.07-.13,0-.49,9.49.18,0,.49-9.59Zm-1.14.37-.54,4.34-.54,4.26.14,0,.55-4.28.56-4.42Zm-3.35,1.08-.15,0,.2,6.71.15,0Zm-1.7.54-.1,0L341,93.51l.12,0h0l.44-5.46Zm-2.38.77-.11,0,.18,4,.11,0Zm-2,.64-.17,2.6.09,0,.18-2.66Zm-2.08.67-.08,0,.1,1.24.07,0Z" style="fill:#dbdbdb"></path><polygon points="369.54 103.44 366.46 103.11 330.12 90.46 333.2 90.79 369.54 103.44" style="fill:#a6a6a6"></polygon><polygon points="333.2 90.79 330.12 90.46 366.81 78.65 369.89 78.98 333.2 90.79" style="fill:#a6a6a6"></polygon><path d="M349.78,78.82l-5,1.6-.24.08-2.74.89-.33.1L336.71,83h0l-.29.09h0l-3.7,1.19-.38.12h0l-2.85.91-.36.11-5.51,1.78-.47.16-1.55.5-.42.12h0l-4.92,1.59-.51.17h0l-.59.2-.46.14-2,.66,0-3v-.87l0-4V81.61l0-3.08V77.29l0-3.89v-.29h0c.46-.65.95-1.29,1.46-1.91h0A39.67,39.67,0,0,1,319.37,66a5.28,5.28,0,0,1,.44-.36,39.17,39.17,0,0,1,7.38-4.77l.48-.25c.38-.19.78-.37,1.16-.53l.41-.19A38.34,38.34,0,0,1,334.67,58l.81.57a1.28,1.28,0,0,1,.22.17l.25.18.23.18a36.54,36.54,0,0,1,3.27,2.8l.09.1a.52.52,0,0,1,.1.11,1.13,1.13,0,0,1,.19.19l.05,0,.05,0,.09.11a35.48,35.48,0,0,1,2.88,3.23.66.66,0,0,1,.14.2,4.78,4.78,0,0,1,.34.42,2.31,2.31,0,0,1,.14.19A35.74,35.74,0,0,1,345.83,70a1,1,0,0,1,.1.17c.1.15.18.31.26.46l.06.08,0,.08a38,38,0,0,1,1.95,3.94.66.66,0,0,1,.07.15c.1.23.2.47.29.7l.06.14C349.08,76.7,349.44,77.75,349.78,78.82Z" style="fill:#37474f"></path><path d="M348.6,75.53h0l-4,5,.24-.08,3.86-4.74Zm-.35-.85h0l-6.75,6.8.33-.1,6.49-6.55h0Zm-2-4-.05-.09h0l-9.78,12.54h0l.3-.1h0l9.58-12.28h0Zm-.42-.71L332.32,84.45h0l.38-.13,13.23-14.2A1,1,0,0,0,345.83,70Zm-2.45-3.64L329.11,85.48l.36-.11,14-18.86A2.31,2.31,0,0,0,343.38,66.32Zm-.48-.62L323.13,87.42h0l.47-.16h0L343,65.9h0A1.39,1.39,0,0,0,342.9,65.7Zm-3-3.34-.05,0,0,0h0L321.16,88h0l.42-.13L340,62.47h0Zm-.39-.38-.09-.1L315.69,89.81h0l.5-.16h0l23.4-27.55h0ZM336,58.9,314.64,90.15l.46-.14,21.08-30.93h0Zm-.47-.35L312.66,86v.41l23-27.65A1.28,1.28,0,0,0,335.48,58.55Zm-6.65,1.5L312.67,84.76v.47l16.57-25.37Zm-1.64.78-14.49,19v.36l15-19.62ZM319.37,66,312.72,77.6V78l7.1-12.43A5.28,5.28,0,0,0,319.37,66Zm-6.62,7.14v.25l1.46-2.16C313.7,71.81,313.21,72.45,312.75,73.1Z" style="fill:#263238"></path><path d="M349.62,103.28a.76.76,0,0,1-.06.2h0c-.3,1-.65,1.86-1,2.77v0c-.18.43-.36.86-.55,1.28v0a38.75,38.75,0,0,1-2,3.85.05.05,0,0,1,0,0c-.15.26-.3.52-.46.77,0,0,0,0,0,0-.63,1-1.3,2-2,3h0l0,0h0c-.12.17-.24.33-.37.48l0,.06a38,38,0,0,1-3.57,3.93h0l-.08.06-.43.4h0s-.05.05-.08.06a34.87,34.87,0,0,1-3.55,2.85l-.06,0s0,0-.05,0c-.18.14-.37.27-.56.4l-.11.07a34.28,34.28,0,0,1-3.81,2.24.61.61,0,0,1-.14.07,1.91,1.91,0,0,1-.32.16h0l-.07,0,0,0h0a40.94,40.94,0,0,1-5.4,2.2l-.19.06h0l-.06,0-.12,0c-.55.17-1.11.34-1.65.48a35.34,35.34,0,0,1-3.4-2.58l-.22-.19a3.22,3.22,0,0,1-.28-.24l-.25-.22a38.62,38.62,0,0,1-4.11-4.27l-.26-.32-.94-1.2c-.1-.15-.2-.28-.3-.42-.31-.42-.62-.85-.9-1.29a40.7,40.7,0,0,1-2.27-3.81h0c-.08-.16-.17-.32-.25-.5a30.19,30.19,0,0,1-1.38-3.08c-.11-.24-.2-.48-.29-.73a38.75,38.75,0,0,1-1.84-6.52c-.06-.32-.11-.63-.16-.94a39,39,0,0,1-.39-9.6l1.2-.39h.09l.25-.08.08,0,.24-.07,2.94-1,.29-.09.33-.11.27-.08.74-.24.39-.13h0l.33-.1h0l2.48.83.25.09.25.09,2.78.94.22.07.25.07.22.08,2.81,1,.17.06.43.14.19.06,4.14,1.41.15.05.47.15.14,0,4.06,1.36.1,0,.61.21.1,0h0L336.8,99l.08,0,.74.25.07,0,2.54.86h0l.67.23.06,0,2.4.81h0l1.26.42,0,0,2.4.81h0l2.23.75Z" style="fill:#FFCB74"></path><path d="M349.36,103.2h0a1.64,1.64,0,0,1,.2.29h0A3.39,3.39,0,0,0,349.36,103.2Zm-2.23-.75h0l1.41,3.84v0Zm-2.42-.82,0,0,3.29,6v0Zm-1.3-.44h0L346,111.47a.05.05,0,0,0,0,0Zm-2.44-.82-.06,0,4.56,11.93s0,0,0,0Zm-.73-.25h-.05l3.22,15.18h0l0,0h0Zm-5.13,6.74-2.4-8.45-.26-.92h0l-.1,0,.27,1,2.41,8.45,3.82,13.41s.05,0,.08-.06h0Zm-3.38-9.61-.1,0,3.55,26s0,0,.05,0l.06,0Zm6,2-.07,0,5.38,16.6,0-.06Zm-.81-.28-.08,0,2.55,20.87.08-.06h0Zm-9.31-3.13-.14,0,7.08,27.89.11-.07Zm-.61-.2-.15-.05,3.75,30.4a.61.61,0,0,0,.14-.07Zm-4.29-1.46-.19-.06,7.62,32.1h0l0,0,0,0,.07,0h0Zm2,34.25-.13-1.59-.4-5.21-.8-10.4L322.05,94l-.17-.06,1.31,17.32.79,10.4.41,5.21.12,1.64h0ZM319.07,93l-.22-.08,5.46,35.67.12,0,.06,0Zm-.47-.15-.22-.07.66,33.52.22.19Zm-3-1-.25-.09,3.16,34.09.25.22Zm-4.49-.52-.27.08,2.06,28.23c.1.14.2.27.3.42Zm3.74.27-.71,29.66.26.32.7-29.91Zm-8.16,1.15h-.07l-.14.06-.67,9.93c.05.31.1.62.16.94l.74-11h0Zm.59-.18-.24.07.77,17.58c.09.25.18.49.29.73Zm2.94-1L309.48,114c.08.18.17.34.25.5l.78-23Zm-3.53,1.14h-.07l-.14.06-.67,9.93c.05.31.1.62.16.94l.74-11h0Zm0,0h-.07l-.14.06-.67,9.93c.05.31.1.62.16.94l.74-11h0Z" style="opacity:0.1"></path><path d="M312.7,73.17l0-.06v.29l0,3.89v1.24l0,3.08v1.28l0,4v.87l0,3h0l-.33.1h0l-.39.13-.74.24-.27.08-.33.11-.29.09-3.26,1-.25.08h-.09l-1.2.39c0-.26,0-.52.07-.78a1.22,1.22,0,0,1,0-.17c.08-.85.19-1.68.34-2.53l0-.2c.05-.29.1-.57.16-.86v0c0-.07,0-.14.05-.22.16-.8.34-1.59.56-2.37a1.14,1.14,0,0,1,.06-.25c.09-.33.19-.66.29-1,0-.07,0-.15.07-.24.32-1,.68-2.06,1.09-3.06,0-.08.06-.17.09-.26.15-.34.29-.68.44-1a1.59,1.59,0,0,1,.12-.27c.36-.79.73-1.57,1.15-2.33a1,1,0,0,1,.12-.23c.14-.28.3-.56.45-.83a1.37,1.37,0,0,1,.13-.2c.58-1,1.22-2,1.9-3A1,1,0,0,1,312.7,73.17Z" style="fill:#455a64"></path><path d="M306.72,85.73a1.14,1.14,0,0,0-.06.25l6,1.78v-.27Zm-.62,2.62c0,.08,0,.15-.05.22l6.21,2.35.33-.1Zm-.21,1.1,0,.2,6,1.41.39-.13Zm-.37,2.73a1.22,1.22,0,0,0,0,.17l1.17.38h0l.25-.09Zm5.15-15.87a1.37,1.37,0,0,0-.13.2l2.17,1v-.27Zm2-3.14a1,1,0,0,0-.13.17l.17.06v-.22Zm-3.88,6.73a1.59,1.59,0,0,0-.12.27l4,1.76v-.32Zm1.27-2.56a1,1,0,0,0-.12.23l2.73,1v-.27Zm-3,7.16c0,.09-.05.17-.07.24l5.63,2.43h0v-.28Zm1.18-3.32c0,.09-.07.18-.09.26l4.5,1.45h0v-.3Z" style="fill:#37474f"></path></g></svg>
